<svg xmlns="http://www.w3.org/2000/svg" width="22" height="22" viewBox="0 0 22 22">
    <g fill="none" fill-rule="evenodd">
        <circle cx="11" cy="11" r="11" fill="#D9C6AD"/>
        <path fill="#FFF" fill-rule="nonzero" d="M13.15 13.532a.86.86 0 0 1 .628-.225c.242.013.445.109.609.287.164.177.239.39.225.635a.83.83 0 0 1-.287.609 4.81 4.81 0 0 1-3.343 1.292c-1.376 0-2.55-.488-3.52-1.463-.975-.97-1.463-2.144-1.463-3.52 0-1.372.488-2.546 1.463-3.521.97-.97 2.144-1.456 3.52-1.456 1.194 0 2.25.378 3.165 1.135a.848.848 0 0 1 .315.594.845.845 0 0 1-.198.643.867.867 0 0 1-1.237.123 3.106 3.106 0 0 0-2.045-.738c-.888 0-1.65.314-2.283.943a3.102 3.102 0 0 0-.943 2.276c0 .89.314 1.65.943 2.284a3.125 3.125 0 0 0 2.283.943c.83 0 1.552-.28 2.167-.84z"/>
        <path fill="#FFF" d="M10 4h2v3h-2zM10 15h2v3h-2z"/>
    </g>
</svg>
