<!-- Generated by IcoMoon.io -->
<svg version="1.1" xmlns="http://www.w3.org/2000/svg" width="1024" height="1024" viewBox="0 0 1024 1024">
<title></title>
<g id="icomoon-ignore">
</g>
<path fill="#fff" d="M1024 512c0 282.77-229.23 512-512 512s-512-229.23-512-512c0-282.77 229.23-512 512-512s512 229.23 512 512z"></path>
<path fill="#4f57fb" d="M638.165 222.677l3.755 1.664 3.243 1.493h0.853l2.048 0.981h1.493l1.152 0.555h2.603l2.731 3.584h2.773l0.427 0.213h2.56l1.451 4.053h0.853l1.408 0.811q12.8 7.424 25.003 15.957l-80.171 121.301c-8.744-6.261-18.696-11.967-29.21-16.637l-1.083-0.429zM743.125 296.875q5.675 6.101 11.051 12.459v0 0 0 0 0 0 0 0 0 0 0 0 0 0 0 0 0l0.64 0.768q7.893 9.728 15.019 20.139v0 0 0 0 0 0 0 0 0 0 0 0 0 0 0 0 0 0 0 0 0 0 0 0 0 0 0 0 0 0 0 0 0 0 0 0 0 0 0 0 0 0q3.371 5.077 6.528 10.24l-118.571 83.627c-6.447-10.488-13.418-19.59-21.209-27.915l0.089 0.096zM809.941 406.699q4.267 12.245 7.68 24.917v0 3.072l0.384 1.451v4.693q3.072 13.525 4.992 27.52l-144.299 19.584c-1.74-12.635-4.59-23.995-8.521-34.837l0.372 1.173z"></path>
<path fill="#4f57fb" d="M682.453 828.075v-49.536c-48.013 31.016-106.679 49.451-169.651 49.451-174.375 0-315.733-141.359-315.733-315.733 0-159.315 117.996-291.070 271.363-312.64l1.669-0.192c3.499-0.469 6.997-0.896 10.581-1.237h9.088c4.267-0.299 8.533-0.512 12.8-0.64h29.227c13.007 0.809 24.903 2.236 36.581 4.293l-1.936-0.282h10.368l-29.696 144.384c-10.434-2.315-22.433-3.665-34.739-3.712h-0.034c-93.866 0.049-169.941 76.154-169.941 170.027 0 93.903 76.124 170.027 170.027 170.027 93.873 0 169.978-76.075 170.027-169.937v-0.004h145.621v315.733z"></path>
</svg>
