<?xml version="1.0" encoding="utf-8"?>
<!-- Generator: Adobe Illustrator 23.0.6, SVG Export Plug-In . SVG Version: 6.00 Build 0)  -->
<svg version="1.1" id="Layer_1" xmlns="http://www.w3.org/2000/svg" xmlns:xlink="http://www.w3.org/1999/xlink" x="0px" y="0px"
	 viewBox="0 0 1000 1000" style="enable-background:new 0 0 1000 1000;" xml:space="preserve">
<g id="XMLID_492_">
	<g id="XMLID_493_">
		<path id="XMLID_498_" d="M478.6,485.03c-17.28,3.85-29.14,8.58-35.05,15.64c-6.32,6.33-8.94,14.75-8.94,24.3
			c0,10.33,3.66,18.66,11.77,24.75c7.38,6.54,19.74,9.54,36.01,9.54c12.54,0,24.1-2.29,34.84-7.28
			c11.25-5.03,19.85-11.85,26.7-20.28c4.91-6.4,7.86-14.52,9.51-24.71c1.05-6.33,1.4-20.53,1.4-43.03c-6,2.86-13.59,5.59-23.27,8.55
			C522.5,475.76,504.51,479.63,478.6,485.03z"/>
		<path id="XMLID_494_" d="M500,0C223.86,0,0,223.86,0,500c0,276.14,223.86,500,500,500s500-223.86,500-500
			C1000,223.86,776.14,0,500,0z M708.82,765.15H303.08v-41.4h405.74V765.15z M725.09,636.3H566.01l-7.69-41.69
			c-19.51,18.12-40.75,31.13-63.28,40.11c-22.98,8.67-48.82,13.01-78.06,13.01c-49.02,0-84.37-11.76-107.22-34.43
			c-23.2-23.07-34.85-50.55-34.85-82.56c0-18.3,4-35.68,12.26-52.5c8.57-17.05,19.52-30.75,33.6-39.98
			c14.4-10.32,34.83-18.15,60.29-23.63c25.46-6.17,63.03-11.52,112.39-17.54c25.18-2.86,41.48-5.94,48.07-9.79
			c10.26-6.17,15.1-14.34,15.1-25.97c0-9.18-4.26-17.38-12.17-23.73c-7.63-5.97-21.61-9.22-42.36-9.22
			c-19.49,0-33.71,3.49-41.35,9.95c-8.33,6.69-12.83,16.36-13.84,28.66H297.88c2.01-24.28,7.16-44.19,14.45-58.37
			c7.98-14.84,19.75-27.19,35.59-37.41c20.57-13.31,45.53-22.33,73.45-28.08c28.1-5.56,57.23-8.28,87.33-8.28
			c29.21,0,54.96,1.94,78.09,5.48c22.83,4.27,42.39,10.66,57.78,18.66c16.16,8.74,28.6,18.02,37.2,28.74
			c8.11,10.59,14.86,23.99,18.64,40.65c2.81,9.95,4.32,29.7,4.32,59.7v199.14c0,17.62,6.67,31.65,20.36,41.49V636.3z"/>
	</g>
</g>
</svg>
