<svg width="20" height="20" viewBox="0 0 20 20" fill="none" xmlns="http://www.w3.org/2000/svg">
<path d="M6.2279 15.0045C5.79277 15.0054 5.36518 14.8909 4.9888 14.6725C4.61242 14.4541 4.30073 14.1398 4.08553 13.7616C3.87034 13.3834 3.75936 12.9549 3.76392 12.5198C3.76847 12.0847 3.88841 11.6586 4.11148 11.2849C4.33455 10.9113 4.65277 10.6036 5.03364 10.3932C5.41452 10.1828 5.84441 10.0772 6.27943 10.0872C6.71445 10.0972 7.13902 10.2225 7.5098 10.4502C7.88058 10.678 8.18428 11 8.3899 11.3835C8.59694 10.4301 9.05232 9.5483 9.7099 8.82754C8.98442 8.14675 8.07565 7.69303 7.09553 7.52224C6.11542 7.35146 5.10675 7.47107 4.19376 7.86635C3.28077 8.26163 2.50333 8.91532 1.95719 9.7469C1.41105 10.5785 1.12006 11.5516 1.12006 12.5465C1.12006 13.5414 1.41105 14.5146 1.95719 15.3462C2.50333 16.1778 3.28077 16.8314 4.19376 17.2267C5.10675 17.622 6.11542 17.7416 7.09553 17.5708C8.07565 17.4 8.98442 16.9463 9.7099 16.2655C9.05208 15.5449 8.59667 14.6631 8.3899 13.7095C8.18056 14.1009 7.86887 14.4281 7.48809 14.6562C7.10732 14.8843 6.67176 15.0047 6.2279 15.0045Z" fill="#FF5F5F"/>
<path d="M13.7849 2.35156C12.4323 2.35156 11.1351 2.88888 10.1786 3.84532C9.2222 4.80175 8.68488 6.09896 8.68488 7.45156H11.3229C11.3163 7.12454 11.375 6.79948 11.4956 6.49543C11.6162 6.19137 11.7962 5.91443 12.0252 5.68082C12.2541 5.44721 12.5274 5.26163 12.8289 5.13493C13.1305 5.00823 13.4543 4.94298 13.7814 4.94298C14.1085 4.94298 14.4323 5.00823 14.7338 5.13493C15.0354 5.26163 15.3086 5.44721 15.5376 5.68082C15.7665 5.91443 15.9466 6.19137 16.0672 6.49543C16.1878 6.79948 16.2465 7.12454 16.2399 7.45156H18.8789C18.8789 6.1 18.3424 4.8037 17.3872 3.84744C16.4321 2.89117 15.1364 2.35315 13.7849 2.35156Z" fill="#4FEDCE"/>
<path d="M13.7849 7.44854C12.776 7.44755 11.7895 7.74582 10.9502 8.30562C10.1108 8.86541 9.45636 9.66158 9.06959 10.5934C8.68281 11.5252 8.5811 12.5508 8.77732 13.5404C8.97354 14.5301 9.45887 15.4393 10.1719 16.153C10.885 16.8668 11.7937 17.353 12.7831 17.5502C13.7726 17.7474 14.7983 17.6467 15.7305 17.2608C16.6627 16.8749 17.4595 16.2213 18.0201 15.3825C18.5807 14.5437 18.8799 13.5574 18.8799 12.5485C18.8838 11.8781 18.7546 11.2136 18.5 10.5935C18.2454 9.97331 17.8703 9.40979 17.3965 8.93551C16.9227 8.46123 16.3595 8.08561 15.7396 7.83037C15.1197 7.57514 14.4553 7.44536 13.7849 7.44854ZM13.7849 15.0045C13.2983 15.0053 12.8224 14.8617 12.4174 14.5919C12.0124 14.322 11.6966 13.9381 11.51 13.4886C11.3233 13.0392 11.2742 12.5445 11.3689 12.0672C11.4636 11.5898 11.6978 11.1513 12.0418 10.8071C12.3858 10.4629 12.8243 10.2286 13.3016 10.1337C13.7789 10.0389 14.2736 10.0877 14.7231 10.2742C15.1726 10.4607 15.5567 10.7763 15.8267 11.1812C16.0967 11.586 16.2405 12.0619 16.2399 12.5485C16.2386 13.1993 15.9796 13.8231 15.5195 14.2834C15.0594 14.7437 14.4357 15.003 13.7849 15.0045Z" fill="#FF5F5F"/>
</svg>
