<svg width="200" height="200" viewBox="0 0 200 200" fill="none" xmlns="http://www.w3.org/2000/svg">
<path d="M66.1267 0L6.45333 58.5933L0 100.44L6.45333 142.293L37.0467 180.28L130.38 200L183.873 159.033L200 95.42L187.033 56.1333L156.453 15.0667L66.1267 0Z" fill="url(#paint0_linear)"/>
<path d="M75.46 40.74L63.54 39.4533L58.6933 28.4866L65.7667 18.8066L77.6867 20.0933L82.5333 31.06L75.46 40.74ZM66.26 35.7266L73.5867 36.52L77.9333 30.5666L74.9533 23.8266L67.6267 23.0333L63.28 28.9866L66.26 35.7266Z" fill="white"/>
<path d="M148.673 37.6584L141.664 46.325L150.33 53.334L157.339 44.6674L148.673 37.6584Z" fill="white"/>
<path d="M149.287 147.58L141.95 153.317L147.687 160.654L155.024 154.917L149.287 147.58Z" fill="white"/>
<path d="M166.093 95.8533L159.68 85.1266V76.7066C159.68 75.0799 158.94 73.5466 157.667 72.5333L133.293 53.1199C132.347 52.3666 131.18 51.9599 129.973 51.9599H119.773L109.693 46.1533C108.887 45.6866 107.967 45.4399 107.033 45.4399H98.4333H89.8333C88.9 45.4399 87.98 45.6866 87.1733 46.1533L77.0933 51.9599H66.8933C65.6867 51.9599 64.5133 52.3666 63.5733 53.1199L39.18 72.5333C37.9067 73.5466 37.1667 75.0799 37.1667 76.7066V85.1266L30.7533 95.8533C30.26 96.6799 30 97.6266 30 98.5933V118.9C30 120.6 30.8067 122.193 32.1733 123.2L68.42 149.84C68.7867 150.113 69.1867 150.333 69.6133 150.5L74.9333 152.613C74.5067 153.393 74.2667 154.273 74.2667 155.187V163.593C74.2667 165.52 75.3067 167.293 76.98 168.24L84.06 172.233C84.8733 172.693 85.7733 172.92 86.68 172.92C87.4067 172.92 88.14 172.773 88.8267 172.467L98.4333 168.247L108.04 172.467C108.727 172.767 109.453 172.92 110.187 172.92C111.033 172.92 111.873 172.72 112.64 172.32L119.72 168.653C121.487 167.74 122.6 165.913 122.6 163.92V155.513C122.6 154.493 122.3 153.513 121.773 152.68L127.253 150.507C127.68 150.34 128.08 150.12 128.447 149.847L164.693 123.207C166.06 122.2 166.867 120.607 166.867 118.907V98.5999C166.847 97.6266 166.587 96.6799 166.093 95.8533ZM154.347 76.7066V85.0733L118.46 136.447L102.18 150.36L120.273 87.1533L120.353 86.8866V57.2933H129.98L154.347 76.7066ZM89.82 50.7733H98.42H107.02L116.34 56.1399V86.3133L98.42 148.92L80.5 86.3133V56.1399L89.82 50.7733ZM66.88 57.2933H76.5067V86.8799L94.6733 150.36L78.3933 136.447L42.5067 85.0733V76.7066L66.88 57.2933ZM35.3333 118.9V98.5933L40.7467 89.5399L75.26 138.947L75.4067 139.153L92.68 153.913L71.58 145.54L35.3333 118.9ZM117.253 163.913L110.173 167.58L98.42 162.413L86.6667 167.58L79.5867 163.587V155.18L98.4133 162.413L117.24 155.507V163.913H117.253ZM161.513 118.9L125.267 145.54L104.167 153.913L121.247 139.32L121.44 139.153L156.1 89.5399L161.513 98.5866V118.9Z" fill="white"/>
<defs>
<linearGradient id="paint0_linear" x1="30.3685" y1="173.606" x2="172.68" y2="31.2947" gradientUnits="userSpaceOnUse">
<stop stop-color="#FF0089"/>
<stop offset="0.4434" stop-color="#FF5754"/>
<stop offset="0.7947" stop-color="#FF972D"/>
<stop offset="0.9128" stop-color="#FFC412"/>
<stop offset="1" stop-color="#FFE000"/>
</linearGradient>
</defs>
</svg>
