<svg xmlns="http://www.w3.org/2000/svg" viewBox="0 0 793.7 907.09"><defs><style>.cls-1{fill:#231815;}.cls-2{fill:#fff;}.cls-3{fill:#e7c054;}.cls-4{fill:#725926;}</style></defs><g id="레이어_2" data-name="레이어 2"><g id="레이어_1-2" data-name="레이어 1"><rect class="cls-1" x="226.77" width="56.69" height="56.69"/><rect class="cls-1" x="226.77" y="56.69" width="56.69" height="56.69"/><rect class="cls-1" x="170.08" y="56.69" width="56.69" height="56.69"/><rect class="cls-1" x="113.39" y="56.69" width="56.69" height="56.69"/><rect class="cls-1" x="113.39" y="113.39" width="56.69" height="56.69"/><rect class="cls-1" x="56.69" y="113.39" width="56.69" height="56.69"/><rect class="cls-1" x="56.69" y="170.08" width="56.69" height="56.69"/><rect class="cls-1" x="56.69" y="226.77" width="56.69" height="56.69"/><rect class="cls-2" x="56.69" y="283.46" width="56.69" height="56.69"/><rect class="cls-2" x="56.69" y="340.16" width="56.69" height="56.69"/><rect class="cls-2" x="56.69" y="396.85" width="56.69" height="56.69"/><rect class="cls-2" x="56.69" y="453.54" width="56.69" height="56.69"/><rect class="cls-2" x="56.69" y="510.24" width="56.69" height="56.69"/><rect class="cls-2" x="56.69" y="566.93" width="56.69" height="56.69"/><rect class="cls-2" x="56.69" y="623.62" width="56.69" height="56.69"/><rect class="cls-2" x="283.46" y="283.46" width="56.69" height="56.69"/><rect class="cls-2" x="283.46" y="340.16" width="56.69" height="56.69"/><rect class="cls-2" x="283.46" y="396.85" width="56.69" height="56.69"/><rect class="cls-2" x="283.46" y="453.54" width="56.69" height="56.69"/><rect class="cls-2" x="283.46" y="510.24" width="56.69" height="56.69"/><rect class="cls-2" x="283.46" y="566.93" width="56.69" height="56.69"/><rect class="cls-2" x="283.46" y="623.62" width="56.69" height="56.69"/><rect class="cls-3" x="113.39" y="283.46" width="56.69" height="56.69"/><rect class="cls-3" x="113.39" y="340.16" width="56.69" height="56.69"/><rect class="cls-3" x="113.39" y="396.85" width="56.69" height="56.69"/><rect class="cls-3" x="113.39" y="453.54" width="56.69" height="56.69"/><rect class="cls-3" x="113.39" y="510.24" width="56.69" height="56.69"/><rect class="cls-3" x="113.39" y="566.93" width="56.69" height="56.69"/><rect class="cls-3" x="113.39" y="623.62" width="56.69" height="56.69"/><rect class="cls-3" x="170.08" y="283.46" width="56.69" height="56.69"/><rect class="cls-3" x="170.08" y="340.16" width="56.69" height="56.69"/><rect class="cls-3" x="170.08" y="396.85" width="56.69" height="56.69"/><rect class="cls-3" x="170.08" y="453.54" width="56.69" height="56.69"/><rect class="cls-3" x="170.08" y="510.24" width="56.69" height="56.69"/><rect class="cls-3" x="170.08" y="566.93" width="56.69" height="56.69"/><rect class="cls-3" x="170.08" y="623.62" width="56.69" height="56.69"/><rect class="cls-3" x="226.77" y="283.46" width="56.69" height="56.69"/><rect class="cls-3" x="226.77" y="340.16" width="56.69" height="56.69"/><rect class="cls-3" x="226.77" y="396.85" width="56.69" height="56.69"/><rect class="cls-3" x="226.77" y="453.54" width="56.69" height="56.69"/><rect class="cls-3" x="226.77" y="510.24" width="56.69" height="56.69"/><rect class="cls-3" x="226.77" y="566.93" width="56.69" height="56.69"/><rect class="cls-3" x="226.77" y="623.62" width="56.69" height="56.69"/><rect class="cls-3" x="170.08" y="680.31" width="56.69" height="56.69"/><rect class="cls-3" x="226.77" y="680.31" width="56.69" height="56.69"/><rect class="cls-3" x="283.46" y="680.31" width="56.69" height="56.69"/><rect class="cls-3" x="453.54" y="680.31" width="56.69" height="56.69"/><rect class="cls-3" x="510.24" y="283.46" width="56.69" height="56.69"/><rect class="cls-3" x="510.24" y="340.16" width="56.69" height="56.69"/><rect class="cls-3" x="510.24" y="396.85" width="56.69" height="56.69"/><rect class="cls-3" x="510.24" y="453.54" width="56.69" height="56.69"/><rect class="cls-3" x="510.24" y="510.24" width="56.69" height="56.69"/><rect class="cls-3" x="510.24" y="566.93" width="56.69" height="56.69"/><rect class="cls-3" x="510.24" y="623.62" width="56.69" height="56.69"/><rect class="cls-3" x="566.93" y="283.46" width="56.69" height="56.69"/><rect class="cls-3" x="566.93" y="340.16" width="56.69" height="56.69"/><rect class="cls-3" x="566.93" y="396.85" width="56.69" height="56.69"/><rect class="cls-3" x="566.93" y="453.54" width="56.69" height="56.69"/><rect class="cls-3" x="566.93" y="510.24" width="56.69" height="56.69"/><rect class="cls-3" x="566.93" y="566.93" width="56.69" height="56.69"/><rect class="cls-3" x="566.93" y="623.62" width="56.69" height="56.69"/><rect class="cls-3" x="510.24" y="680.31" width="56.69" height="56.69"/><rect class="cls-3" x="566.93" y="680.31" width="56.69" height="56.69"/><rect class="cls-3" x="226.77" y="737.01" width="56.69" height="56.69"/><rect class="cls-3" x="510.24" y="170.08" width="56.69" height="56.69" transform="translate(737.01 -340.16) rotate(90)"/><rect class="cls-3" x="453.54" y="170.08" width="56.69" height="56.69" transform="translate(680.31 -283.46) rotate(90)"/><rect class="cls-3" x="453.54" y="737.01" width="56.69" height="56.69" transform="translate(1247.24 283.46) rotate(90)"/><rect class="cls-3" x="396.85" y="737.01" width="56.69" height="56.69" transform="translate(1190.55 340.16) rotate(90)"/><rect class="cls-3" x="340.16" y="737.01" width="56.69" height="56.69" transform="translate(1133.86 396.85) rotate(90)"/><rect class="cls-3" x="283.46" y="737.01" width="56.69" height="56.69" transform="translate(1077.17 453.54) rotate(90)"/><rect class="cls-3" x="226.77" y="170.08" width="56.69" height="56.69" transform="translate(453.54 -56.69) rotate(90)"/><rect class="cls-3" x="283.46" y="170.08" width="56.69" height="56.69" transform="translate(510.24 -113.39) rotate(90)"/><rect class="cls-3" x="170.08" y="170.08" width="56.69" height="56.69" transform="translate(396.85 0) rotate(90)"/><rect class="cls-3" x="510.24" y="226.77" width="56.69" height="56.69" transform="translate(793.7 -283.46) rotate(90)"/><rect class="cls-3" x="566.93" y="170.08" width="56.69" height="56.69" transform="translate(793.7 -396.85) rotate(90)"/><rect class="cls-3" x="566.93" y="226.77" width="56.69" height="56.69" transform="translate(850.39 -340.16) rotate(90)"/><rect class="cls-3" x="453.54" y="113.39" width="56.69" height="56.69" transform="translate(623.62 -340.16) rotate(90)"/><rect class="cls-3" x="510.24" y="113.39" width="56.69" height="56.69" transform="translate(680.31 -396.85) rotate(90)"/><rect class="cls-3" x="396.85" y="113.39" width="56.69" height="56.69" transform="translate(566.93 -283.46) rotate(90)"/><rect class="cls-3" x="340.16" y="113.39" width="56.69" height="56.69" transform="translate(510.24 -226.77) rotate(90)"/><rect class="cls-3" x="396.85" y="340.16" width="56.69" height="56.69" transform="translate(793.7 -56.69) rotate(90)"/><rect class="cls-3" x="340.16" y="340.16" width="56.69" height="56.69" transform="translate(737.01 0) rotate(90)"/><rect class="cls-3" x="396.85" y="283.46" width="56.69" height="56.69" transform="translate(737.01 -113.39) rotate(90)"/><rect class="cls-3" x="340.16" y="283.46" width="56.69" height="56.69" transform="translate(680.31 -56.69) rotate(90)"/><rect class="cls-3" x="396.85" y="226.77" width="56.69" height="56.69" transform="translate(680.31 -170.08) rotate(90)"/><rect class="cls-3" x="340.16" y="226.77" width="56.69" height="56.69" transform="translate(623.62 -113.39) rotate(90)"/><rect class="cls-3" x="396.85" y="453.54" width="56.69" height="56.69" transform="translate(907.09 56.69) rotate(90)"/><rect class="cls-3" x="340.16" y="453.54" width="56.69" height="56.69" transform="translate(850.39 113.39) rotate(90)"/><rect class="cls-3" x="396.85" y="396.85" width="56.69" height="56.69" transform="translate(850.39) rotate(90)"/><rect class="cls-3" x="340.16" y="396.85" width="56.69" height="56.69" transform="translate(793.7 56.69) rotate(90)"/><rect class="cls-3" x="396.85" y="566.93" width="56.69" height="56.69" transform="translate(1020.47 170.08) rotate(90)"/><rect class="cls-3" x="340.16" y="566.93" width="56.69" height="56.69" transform="translate(963.78 226.77) rotate(90)"/><rect class="cls-3" x="396.85" y="623.62" width="56.69" height="56.69" transform="translate(1077.17 226.77) rotate(90)"/><rect class="cls-3" x="340.16" y="623.62" width="56.69" height="56.69" transform="translate(1020.47 283.46) rotate(90)"/><rect class="cls-3" x="396.85" y="510.24" width="56.69" height="56.69" transform="translate(963.78 113.39) rotate(90)"/><rect class="cls-3" x="340.16" y="510.24" width="56.69" height="56.69" transform="translate(907.09 170.08) rotate(90)"/><rect class="cls-3" x="283.46" y="113.39" width="56.69" height="56.69" transform="translate(453.54 -170.08) rotate(90)"/><rect class="cls-3" x="226.77" y="226.77" width="56.69" height="56.69" transform="translate(510.24 0) rotate(90)"/><rect class="cls-3" x="170.08" y="226.77" width="56.69" height="56.69" transform="translate(453.54 56.69) rotate(90)"/><rect class="cls-3" x="623.62" y="283.46" width="56.69" height="56.69"/><rect class="cls-3" x="623.62" y="340.16" width="56.69" height="56.69"/><rect class="cls-3" x="623.62" y="396.85" width="56.69" height="56.69"/><rect class="cls-3" x="623.62" y="453.54" width="56.69" height="56.69"/><rect class="cls-3" x="623.62" y="510.24" width="56.69" height="56.69"/><rect class="cls-3" x="623.62" y="566.93" width="56.69" height="56.69"/><rect class="cls-3" x="623.62" y="623.62" width="56.69" height="56.69"/><rect class="cls-2" x="113.39" y="680.31" width="56.69" height="56.69"/><rect class="cls-2" x="170.08" y="737.01" width="56.69" height="56.69"/><rect class="cls-4" x="283.46" y="793.7" width="56.69" height="56.69"/><rect class="cls-4" x="340.16" y="793.7" width="56.69" height="56.69"/><rect class="cls-4" x="396.85" y="793.7" width="56.69" height="56.69"/><rect class="cls-4" x="510.24" y="737.01" width="56.69" height="56.69"/><rect class="cls-4" x="566.93" y="737.01" width="56.69" height="56.69"/><rect class="cls-4" x="623.62" y="680.31" width="56.69" height="56.69"/><rect class="cls-4" x="680.31" y="566.93" width="56.69" height="56.69"/><rect class="cls-4" x="680.31" y="510.24" width="56.69" height="56.69"/><rect class="cls-4" x="680.31" y="453.54" width="56.69" height="56.69"/><rect class="cls-4" x="680.31" y="396.85" width="56.69" height="56.69"/><rect class="cls-4" x="680.31" y="340.16" width="56.69" height="56.69"/><rect class="cls-4" x="680.31" y="283.46" width="56.69" height="56.69"/><rect class="cls-4" x="623.62" y="170.08" width="56.69" height="56.69"/><rect class="cls-4" x="566.93" y="113.39" width="56.69" height="56.69"/><rect class="cls-4" x="453.54" y="56.69" width="56.69" height="56.69"/><rect class="cls-4" x="623.62" y="226.77" width="56.69" height="56.69"/><rect class="cls-2" x="113.39" y="170.08" width="56.69" height="56.69"/><rect class="cls-2" x="170.08" y="113.39" width="56.69" height="56.69"/><rect class="cls-2" x="226.77" y="113.39" width="56.69" height="56.69"/><rect class="cls-2" x="283.46" y="56.69" width="56.69" height="56.69"/><rect class="cls-2" x="340.16" y="56.69" width="56.69" height="56.69"/><rect class="cls-2" x="113.39" y="226.77" width="56.69" height="56.69"/><rect class="cls-1" y="226.77" width="56.69" height="56.69"/><rect class="cls-1" y="283.46" width="56.69" height="56.69"/><rect class="cls-1" y="340.16" width="56.69" height="56.69"/><rect class="cls-1" y="396.85" width="56.69" height="56.69"/><rect class="cls-1" y="453.54" width="56.69" height="56.69"/><rect class="cls-1" y="510.24" width="56.69" height="56.69"/><rect class="cls-1" y="566.93" width="56.69" height="56.69"/><rect class="cls-1" y="623.62" width="56.69" height="56.69"/><rect class="cls-1" y="680.31" width="56.69" height="56.69"/><rect class="cls-1" x="56.69" y="680.31" width="56.69" height="56.69"/><rect class="cls-1" x="340.16" width="56.69" height="56.69"/><rect class="cls-2" x="396.85" y="56.69" width="56.69" height="56.69"/><rect class="cls-2" x="283.46" y="226.77" width="56.69" height="56.69"/><rect class="cls-2" x="340.16" y="170.08" width="56.69" height="56.69"/><rect class="cls-2" x="396.85" y="170.08" width="56.69" height="56.69"/><rect class="cls-1" x="396.85" width="56.69" height="56.69"/><rect class="cls-1" x="453.54" width="56.69" height="56.69"/><rect class="cls-1" x="510.24" width="56.69" height="56.69"/><rect class="cls-1" x="510.24" y="56.69" width="56.69" height="56.69"/><rect class="cls-1" x="566.93" y="56.69" width="56.69" height="56.69"/><rect class="cls-1" x="623.62" y="56.69" width="56.69" height="56.69"/><rect class="cls-1" x="623.62" y="113.39" width="56.69" height="56.69"/><rect class="cls-1" x="680.31" y="113.39" width="56.69" height="56.69"/><rect class="cls-1" x="680.31" y="170.08" width="56.69" height="56.69"/><rect class="cls-1" x="680.31" y="226.77" width="56.69" height="56.69"/><rect class="cls-1" x="283.46" width="56.69" height="56.69"/><rect class="cls-1" x="510.24" y="850.39" width="56.69" height="56.69" transform="translate(1077.17 1757.48) rotate(180)"/><rect class="cls-1" x="510.24" y="793.7" width="56.69" height="56.69" transform="translate(1077.17 1644.09) rotate(180)"/><rect class="cls-1" x="566.93" y="793.7" width="56.69" height="56.69" transform="translate(1190.55 1644.09) rotate(180)"/><rect class="cls-1" x="623.62" y="793.7" width="56.69" height="56.69" transform="translate(1303.94 1644.09) rotate(180)"/><rect class="cls-1" x="623.62" y="737.01" width="56.69" height="56.69" transform="translate(1303.94 1530.71) rotate(180)"/><rect class="cls-1" x="680.31" y="737.01" width="56.69" height="56.69" transform="translate(1417.32 1530.71) rotate(180)"/><rect class="cls-1" x="680.31" y="680.31" width="56.69" height="56.69" transform="translate(1417.32 1417.32) rotate(180)"/><rect class="cls-1" x="680.31" y="623.62" width="56.69" height="56.69" transform="translate(1417.32 1303.94) rotate(180)"/><rect class="cls-1" x="737.01" y="623.62" width="56.69" height="56.69" transform="translate(1530.71 1303.94) rotate(180)"/><rect class="cls-1" x="737.01" y="566.93" width="56.69" height="56.69" transform="translate(1530.71 1190.55) rotate(180)"/><rect class="cls-1" x="737.01" y="510.24" width="56.69" height="56.69" transform="translate(1530.71 1077.17) rotate(180)"/><rect class="cls-1" x="737.01" y="453.54" width="56.69" height="56.69" transform="translate(1530.71 963.78) rotate(180)"/><rect class="cls-1" x="737.01" y="396.85" width="56.69" height="56.69" transform="translate(1530.71 850.39) rotate(180)"/><rect class="cls-1" x="737.01" y="340.16" width="56.69" height="56.69" transform="translate(1530.71 737.01) rotate(180)"/><rect class="cls-1" x="737.01" y="283.46" width="56.69" height="56.69" transform="translate(1530.71 623.62) rotate(180)"/><rect class="cls-1" x="737.01" y="226.77" width="56.69" height="56.69" transform="translate(1530.71 510.24) rotate(180)"/><rect class="cls-1" x="453.54" y="623.62" width="56.69" height="56.69" transform="translate(963.78 1303.94) rotate(180)"/><rect class="cls-1" x="453.54" y="566.93" width="56.69" height="56.69" transform="translate(963.78 1190.55) rotate(180)"/><rect class="cls-1" x="453.54" y="510.24" width="56.69" height="56.69" transform="translate(963.78 1077.17) rotate(180)"/><rect class="cls-1" x="453.54" y="453.54" width="56.69" height="56.69" transform="translate(963.78 963.78) rotate(180)"/><rect class="cls-1" x="340.16" y="680.31" width="56.69" height="56.69" transform="translate(-340.16 1077.17) rotate(-90)"/><rect class="cls-1" x="396.85" y="680.31" width="56.69" height="56.69" transform="translate(-283.46 1133.86) rotate(-90)"/><rect class="cls-1" x="453.54" y="396.85" width="56.69" height="56.69" transform="translate(963.78 850.39) rotate(180)"/><rect class="cls-1" x="453.54" y="340.16" width="56.69" height="56.69" transform="translate(963.78 737.01) rotate(180)"/><rect class="cls-1" x="453.54" y="283.46" width="56.69" height="56.69" transform="translate(963.78 623.62) rotate(180)"/><rect class="cls-1" x="453.54" y="226.77" width="56.69" height="56.69" transform="translate(963.78 510.24) rotate(180)"/><rect class="cls-1" x="340.16" y="850.39" width="56.69" height="56.69" transform="translate(737.01 1757.48) rotate(180)"/><rect class="cls-1" x="283.46" y="850.39" width="56.69" height="56.69" transform="translate(623.62 1757.48) rotate(180)"/><rect class="cls-1" x="226.77" y="850.39" width="56.69" height="56.69" transform="translate(510.24 1757.48) rotate(180)"/><rect class="cls-1" x="226.77" y="793.7" width="56.69" height="56.69" transform="translate(510.24 1644.09) rotate(180)"/><rect class="cls-1" x="170.08" y="793.7" width="56.69" height="56.69" transform="translate(396.85 1644.09) rotate(180)"/><rect class="cls-1" x="113.39" y="793.7" width="56.69" height="56.69" transform="translate(283.46 1644.09) rotate(180)"/><rect class="cls-1" x="113.39" y="737.01" width="56.69" height="56.69" transform="translate(283.46 1530.71) rotate(180)"/><rect class="cls-1" x="56.69" y="737.01" width="56.69" height="56.69" transform="translate(170.08 1530.71) rotate(180)"/><rect class="cls-1" x="396.85" y="850.39" width="56.69" height="56.69" transform="translate(850.39 1757.48) rotate(180)"/><rect class="cls-4" x="453.54" y="793.7" width="56.69" height="56.69"/><rect class="cls-1" x="453.54" y="850.39" width="56.69" height="56.69" transform="translate(963.78 1757.48) rotate(180)"/></g></g></svg>