<?xml version="1.0" encoding="UTF-8"?>
<svg width="200px" height="200px" viewBox="0 0 200 200" version="1.1" xmlns="http://www.w3.org/2000/svg" xmlns:xlink="http://www.w3.org/1999/xlink">
    <title>ic_com</title>
    <defs>
        <polygon id="path-1" points="0 0 124.999759 0 124.999759 74.7800387 0 74.7800387"></polygon>
        <polygon id="path-3" points="0 0 125 0 125 74.777638 0 74.777638"></polygon>
    </defs>
    <g id="Page-1" stroke="none" stroke-width="1" fill="none" fill-rule="evenodd">
        <g id="ic_com">
            <rect id="Rectangle" x="0" y="0" width="200" height="200"></rect>
            <g id="Group-5" transform="translate(37.500000, 12.500000)">
                <g id="Group-17" transform="translate(0.000000, 99.681511)">
                    <mask id="mask-2" fill="white">
                        <use xlink:href="#path-1"></use>
                    </mask>
                    <g id="Clip-16"></g>
                    <path d="M114.089562,22.6844067 C109.303712,46.7252205 87.9936792,64.9082766 62.4996389,64.9082766 C37.0080059,64.9082766 15.6979734,46.7276212 10.9121233,22.6844067 C6.28515963,15.9503861 2.94373111,8.27288238 1.25616527,0 C0.43284499,4.02600806 -0.00048147385,8.18885717 -0.00048147385,12.4525365 C-0.00048147385,46.8212493 28.0381481,74.7800387 62.4996389,74.7800387 C96.963537,74.7800387 124.999759,46.8212493 124.999759,12.4525365 C124.999759,8.18885717 124.566433,4.02600806 123.74552,0 C122.055547,8.27288238 118.716526,15.9503861 114.089562,22.6844067" id="Fill-15" fill="#653EFF" mask="url(#mask-2)"></path>
                </g>
                <path d="M62.4998796,149.558637 C83.9013922,149.558637 102.8185,138.7698 114.089803,122.365677 C114.749422,119.055084 115.100898,115.636458 115.100898,112.133807 C115.100898,107.84372 114.571276,103.676069 113.591477,99.6836714 C107.97027,122.612952 87.2018955,139.686875 62.4998796,139.686875 C37.7978638,139.686875 17.0294893,122.612952 11.4082821,99.6836714 C10.4308902,103.676069 9.8988616,107.84372 9.8988616,112.133807 C9.8988616,115.636458 10.2527449,119.055084 10.9123641,122.365677 C22.1812595,138.7698 41.098367,149.558637 62.4998796,149.558637" id="Fill-18" fill="#653EFF"></path>
                <g id="Group-24">
                    <mask id="mask-4" fill="white">
                        <use xlink:href="#path-3"></use>
                    </mask>
                    <g id="Clip-23"></g>
                    <path d="M62.4998796,9.87176215 C87.9939199,9.87176215 109.301545,28.0548182 114.089803,52.095632 C118.716766,58.8296526 122.055787,66.5071563 123.745761,74.777638 C124.566674,70.7540307 125,66.5911815 125,62.3275022 C125,27.9587894 96.9637778,0 62.4998796,0 C28.0359815,0 -0.000240736924,27.9587894 -0.000240736924,62.3275022 C-0.000240736924,66.5911815 0.433085727,70.7540307 1.25640601,74.777638 C2.94397185,66.5071563 6.28540036,58.8296526 10.9123641,52.095632 C15.6982141,28.0524175 37.0082467,9.87176215 62.4998796,9.87176215" id="Fill-22" fill="#653EFF" mask="url(#mask-4)"></path>
                </g>
                <path d="M114.089562,76.9997448 C113.940305,76.2531207 113.771789,75.5136988 113.591236,74.7790784 C113.499756,75.1535908 113.405869,75.5281032 113.304759,75.9002148 C112.23348,79.8830099 110.712023,83.6809495 108.78372,87.231615 C110.712023,90.7822804 112.23348,94.58022 113.304759,98.5606144 C113.405869,98.932726 113.499756,99.3072384 113.591236,99.6817508 C113.771789,98.9471303 113.940305,98.2101092 114.089562,97.4634852 C114.749181,94.1504911 115.100657,90.7318653 115.100657,87.231615 C115.100657,83.7289639 114.749181,80.3103381 114.089562,76.9997448" id="Fill-25" fill="#653EFF"></path>
                <path d="M11.6949998,75.9004549 C11.5938903,75.5283432 11.5000029,75.1538309 11.4085229,74.7793185 C11.2279702,75.5139389 11.0594543,76.2533608 10.9101974,76.9999848 C10.2529856,80.3105782 9.89910234,83.729204 9.89910234,87.2294543 C9.89910234,90.7321053 10.2529856,94.1507311 10.9101974,97.4637252 C11.0594543,98.2103493 11.2279702,98.9473704 11.4085229,99.6819909 C11.5000029,99.3074785 11.5938903,98.9329661 11.6949998,98.5608544 C12.7662791,94.5804601 14.2877365,90.7801197 16.2160392,87.231855 C14.2877365,83.6811896 12.7662791,79.8808493 11.6949998,75.9004549" id="Fill-27" fill="#653EFF"></path>
                <path d="M62.4998796,34.7751547 C87.2018955,34.7751547 107.97027,51.8466773 113.591477,74.7783582 C114.571276,70.7835595 115.100898,66.6183097 115.100898,62.3258217 C115.100898,58.8255714 114.749422,55.4069456 114.089803,52.0939515 C102.8185,35.6898292 83.9013922,24.9033926 62.4998796,24.9033926 C41.098367,24.9033926 22.1812595,35.6898292 10.9123641,52.0939515 C10.2527449,55.4045448 9.8988616,58.8255714 9.8988616,62.3258217 C9.8988616,66.6183097 10.4308902,70.7835595 11.4082821,74.7783582 C17.0294893,51.8466773 37.7978638,34.7751547 62.4998796,34.7751547" id="Fill-20" fill="#653EFF"></path>
            </g>
        </g>
    </g>
</svg>