<?xml version="1.0" encoding="utf-8"?>
<!-- Generator: Adobe Illustrator 26.0.0, SVG Export Plug-In . SVG Version: 6.00 Build 0)  -->
<svg version="1.1" id="Layer_1" xmlns="http://www.w3.org/2000/svg" xmlns:xlink="http://www.w3.org/1999/xlink" x="0px" y="0px"
	 viewBox="0 0 1024 1024" style="enable-background:new 0 0 1024 1024;" xml:space="preserve">
<style type="text/css">
	.st0{fill:#FFFFFF;stroke:#000000;stroke-miterlimit:10;}
	.st1{fill:#50BAD7;}
	.st2{fill:#2F85B2;}
	.st3{fill:none;stroke:#000000;stroke-miterlimit:10;}
	.st4{fill:#649AD2;}
	.st5{fill:url(#SVGID_1_);}
	.st6{fill:none;stroke:#B84097;stroke-miterlimit:10;}
</style>
<g>
	<line class="st0" x1="746.96" y1="636.12" x2="746.96" y2="364.81"/>
	<path class="st1" d="M586.56,124.58L874.8,291L512,500.47L149.2,291l288.25-166.42C483.58,97.95,540.42,97.95,586.56,124.58z"/>
	<path class="st2" d="M512,919.39L223.75,752.97c-46.14-26.64-74.56-75.86-74.56-129.13V291L512,500.47V919.39z"/>
	<path class="st3" d="M642.47,575.79"/>
	<path class="st4" d="M874.8,623.84V291L512,500.47v418.93l288.25-166.42C846.38,726.34,874.8,677.11,874.8,623.84z"/>
	
		<linearGradient id="SVGID_1_" gradientUnits="userSpaceOnUse" x1="502.0115" y1="768.9214" x2="502.0115" y2="161.115" gradientTransform="matrix(0.5 0.866 -0.866 0.5 699.405 -187.405)">
		<stop  offset="0" style="stop-color:#50BAD7"/>
		<stop  offset="0" style="stop-color:#92278F"/>
		<stop  offset="0.9916" style="stop-color:#1C75BC"/>
	</linearGradient>
	<path class="st5" d="M746.96,217.19l-104.49-60.33l0,147.62l-102.61-59.24c-17.24-9.96-38.49-9.96-55.73,0L304.9,348.72
		c-17.24,9.96-27.87,28.35-27.87,48.26l0,206.96c0,19.91,10.62,38.31,27.87,48.26l179.23,103.48c17.24,9.96,38.49,9.96,55.73,0
		L719.1,652.21c17.24-9.96,27.87-28.35,27.87-48.26L746.96,217.19z M491.76,639.44l-89.99-51.96c-12.53-7.23-20.24-20.6-20.24-35.06
		l0-103.91c0-14.46,7.72-27.83,20.24-35.06l89.99-51.96c12.53-7.23,27.96-7.23,40.48,0l89.99,51.96
		c12.53,7.23,20.24,20.6,20.24,35.06v103.91c0,14.46-7.72,27.83-20.24,35.06l-89.99,51.96
		C519.72,646.67,504.28,646.67,491.76,639.44z"/>
	<path class="st6" d="M639.84,302.96"/>
</g>
</svg>
