<?xml version="1.0" encoding="UTF-8"?>
<svg width="24px" height="24px" viewBox="0 0 24 24" version="1.1" xmlns="http://www.w3.org/2000/svg" xmlns:xlink="http://www.w3.org/1999/xlink">
    <title>icon_favor_24</title>
    <defs>
        <radialGradient cx="25.8739767%" cy="20.5206139%" fx="25.8739767%" fy="20.5206139%" r="103.608715%" id="radialGradient-1">
            <stop stop-color="#FF8149" offset="0%"></stop>
            <stop stop-color="#FE8C69" offset="34.2739292%"></stop>
            <stop stop-color="#FF6E5E" offset="73.8151345%"></stop>
            <stop stop-color="#FF7E70" offset="100%"></stop>
        </radialGradient>
        <circle id="path-2" cx="12" cy="12" r="12"></circle>
    </defs>
    <g id="icon_favor_24" stroke="none" stroke-width="1" fill="none" fill-rule="evenodd">
        <g id="token_color">
            <mask id="mask-3" fill="white">
                <use xlink:href="#path-2"></use>
            </mask>
            <use id="Mask" fill="url(#radialGradient-1)" xlink:href="#path-2"></use>
            <path d="M10.0608876,5.94406605 L10.1577812,5.94622541 L10.224113,5.94853106 L10.3266135,5.95334642 L10.3971814,5.95749499 L10.506783,5.96518314 L10.6213625,5.974699 L10.70078,5.98209685 L10.8248513,5.99483233 L10.9110947,6.00444885 L11.0003475,6.0149933 L11.1885183,6.0389585 L11.3387312,6.0595402 L11.4973288,6.08244387 L11.7227647,6.11672894 L11.8418295,6.13552928 L12.0934495,6.17656121 L12.3641195,6.22232228 L13.0110854,6.34068189 L13.5097827,6.42935746 L13.7467512,6.46863556 C14.5023723,6.58996 15.1947946,6.66739548 15.854145,6.69225251 C16.302742,6.69225251 16.7273602,6.64698996 17.1054023,6.57013932 C17.2517426,6.54039041 17.3841404,6.50714616 17.4948404,6.47364724 L17.4948404,6.47364724 L17.5391711,6.45982927 L17.5966639,6.4405288 L17.6409629,6.42407314 L17.6618381,6.4153126 L17.70025,6.39669532 C17.7311757,6.3821568 17.762553,6.36897417 17.7969477,6.35576701 C17.9024357,6.3156072 18.0017128,6.29435576 18.0956342,6.29435576 C18.1591153,6.29435576 18.2200245,6.30399715 18.2786072,6.32358885 C18.4538892,6.38302189 18.573671,6.52312595 18.6383564,6.71559275 C18.7066818,6.91925289 18.6869531,7.17360316 18.5972751,7.45077622 C18.5254419,7.67275214 18.4104485,7.90196714 18.2640765,8.11334422 C18.0601708,8.40819964 17.8052499,8.65819907 17.5261029,8.82500399 C17.1735478,9.03573057 16.6185085,9.13067961 15.9070415,9.13067961 C15.2920548,9.13067961 14.5742328,9.05747599 13.8777148,8.93150633 L13.8777148,8.93150633 L13.8645532,8.92903076 L13.6997188,9.42930604 L13.4135601,10.3008734 L13.0884865,11.2999341 L12.9308769,11.7920274 L12.8544301,12.0356949 L13.0223556,12.0603761 L13.1931621,12.083947 L13.3594226,12.1053458 L13.5210369,12.1245561 C13.9191814,12.1698327 14.272829,12.1944393 14.5749363,12.1972267 L14.5749363,12.1972267 L14.6321002,12.1974935 C15.0043516,12.1974935 15.2862351,12.1625278 15.4632768,12.096575 C15.7315426,11.9966172 15.9394424,11.9462084 16.116593,11.9462084 C16.2646036,11.9462084 16.3947131,11.9830028 16.5037107,12.0618102 C16.6021445,12.1333367 16.6747854,12.2335723 16.72301,12.3590721 C16.8930734,12.801974 16.5326407,13.5697108 15.9391527,14.0472503 C15.892322,14.0850335 15.8457766,14.1200204 15.798479,14.1527302 C15.3582541,14.4565866 14.71629,14.5853885 13.9254572,14.5853885 C13.4836966,14.5853885 13.0224271,14.5449988 12.560156,14.4771711 C12.401259,14.4538567 12.2553092,14.4292209 12.1143333,14.4030179 L12.1143333,14.4030179 L12.1409765,14.4078088 L12.0824958,14.5796569 L12.0192079,14.7623635 L11.9564948,14.9401341 L11.894301,15.1131032 L11.8325706,15.2814053 C11.8223178,15.3090742 11.8120819,15.3365542 11.8018619,15.3638482 L11.8018619,15.3638482 L11.7407224,15.5254018 L11.6799073,15.6826245 C11.6697954,15.7084748 11.6596947,15.7341503 11.649604,15.7596537 L11.649604,15.7596537 L11.589171,15.9106321 C11.5690607,15.9602849 11.5489812,16.009272 11.5289233,16.0576157 L11.5289233,16.0576157 L11.468805,16.2007389 L11.4087607,16.3401363 L11.3487345,16.4759423 C11.3387286,16.4982848 11.3287211,16.5204833 11.3187109,16.5425405 L11.3187109,16.5425405 L11.2586076,16.6732114 L11.2586076,16.6732114 L11.2285141,16.7373177 L11.1682086,16.8631561 L11.1682086,16.8631561 L11.1379827,16.9249218 L11.0773496,17.0462303 C11.0672216,17.0662069 11.0570817,17.0860648 11.0469285,17.1058066 L11.0469285,17.1058066 L10.9858427,17.2228876 C10.9756323,17.2421765 10.9654064,17.2613549 10.9551639,17.2804258 L10.9551639,17.2804258 L10.8935,17.3935818 L10.8313812,17.5042893 L10.7687518,17.6126826 C10.747784,17.648443 10.7267219,17.6838401 10.7055561,17.7188963 L10.7055561,17.7188963 L10.6417385,17.8230648 C10.5455178,17.9778508 10.4470102,18.1261881 10.3453704,18.2701187 L10.3453704,18.2701187 L10.2771372,18.365442 L10.2079203,18.459594 C10.1962991,18.4751959 10.1846346,18.4907546 10.1729256,18.5062728 L10.1729256,18.5062728 L10.1021287,18.5989201 L10.0663127,18.6449221 L10.0318079,18.688715 C9.75083576,19.0150272 9.42823486,19.2314576 9.08682832,19.3556561 C8.85573937,19.4397228 8.64726528,19.4716981 8.48084763,19.4716981 C8.4700061,19.4716981 8.46018753,19.4715159 8.4514372,19.4711976 L8.4514372,19.4711976 L8.40544604,19.4704176 C7.91599951,19.4581663 7.44700076,19.2562179 7.06265392,18.8768395 L7.06265392,18.8768395 L7.02572549,18.8395719 C6.7809597,18.5868938 6.6835645,18.2915668 6.67924528,18.0095563 L6.67924528,18.0095563 L6.68009669,17.9548837 L6.68128425,17.9339111 C6.68177629,17.7848753 6.7584529,17.6730042 6.87888678,17.5938338 L6.87888678,17.5938338 L6.90058746,17.580202 C6.95880518,17.5452521 7.01681843,17.5201835 7.10130694,17.4915497 L7.10130694,17.4915497 L7.16184765,17.4717848 L7.26342821,17.440265 L7.32079138,17.4216672 L7.35036805,17.4112261 L7.37461292,17.4017543 L7.39489787,17.3927401 C7.3998183,17.3903932 7.40576923,17.3871077 7.41264335,17.3829397 L7.41264335,17.3829397 L7.435928,17.3678443 L7.46410801,17.3477899 L7.46410801,17.3477899 L7.47983258,17.3360083 L7.51414848,17.309146 L7.55175019,17.2781654 L7.5919939,17.2434026 C7.70755563,17.1412786 7.83476251,17.0104101 7.96296668,16.85817 C8.29138798,16.4681757 8.58844879,15.9868836 8.81644149,15.4325121 C8.92184046,15.1763692 9.02694054,14.9095978 9.13364579,14.6276862 L9.13364579,14.6276862 L9.16005213,14.5574218 L9.14679607,14.5531289 C8.9616088,14.4890016 8.78757994,14.3560391 8.70480826,14.1771088 L8.70480826,14.1771088 L8.69409438,14.1524264 C8.49921678,13.6720269 8.66169513,13.0343107 8.9714603,12.6226611 C9.10125979,12.4361246 9.26051724,12.2824282 9.4426476,12.1580037 C9.59512047,12.0538401 9.75626594,11.9747916 9.92396727,11.9143213 C9.98548356,11.8921396 10.0446419,11.8736058 10.1053482,11.8567432 L10.1053482,11.8567432 L10.087767,11.8617786 L10.2336386,11.4076266 L10.4997455,10.5680993 L10.6311096,10.1664244 L10.820173,9.59432886 L10.9471804,9.21565155 L11.0635561,8.8741998 L11.1737768,8.55677641 L11.1068337,8.55084344 C11.0668502,8.54759843 11.0256683,8.54476612 10.9840671,8.54232551 L10.9840671,8.54232551 L10.9214485,8.53895573 L10.8239196,8.53483192 L10.7514251,8.53484238 C9.44633503,8.54421706 8.65728448,8.83453154 8.35911303,9.36972744 L8.36524528,9.35739623 L8.35686224,9.38324305 C8.29040189,9.54485522 8.18308866,9.65732176 8.03851541,9.69607627 L7.947329,9.710287 L7.92204358,9.71093853 C7.59679733,9.71093853 7.34037978,9.43593507 7.10919469,8.93191228 L7.10919469,8.93191228 L7.10359413,8.91970212 L7.08396332,8.85887522 C7.01009729,8.62382619 6.98627728,8.46360063 6.99586054,8.19266779 C7.01594789,7.61512263 7.23691377,7.02280647 7.74575735,6.64790111 L7.73705795,6.65448551 L7.74124528,6.65039623 L7.7731346,6.62370544 C8.2794821,6.20102965 8.93825829,6.00269661 9.61905519,5.9550721 L9.84662419,5.94467805 L9.90510793,5.9437377 L10.0608876,5.94406605 Z" id="Combined-Shape" fill="#FFFFFF" fill-rule="nonzero" mask="url(#mask-3)"></path>
        </g>
    </g>
</svg>