<svg width="80" height="80" viewBox="0 0 80 80" fill="none" xmlns="http://www.w3.org/2000/svg">
<g clip-path="url(#clip0_754_3547)">
<circle cx="40" cy="40" r="40" fill="#8A8D93"/>
<path fill-rule="evenodd" clip-rule="evenodd" d="M32.6949 19.8834L32.5014 19.8865C29.9861 19.9416 27.5016 20.5765 25.6399 22.1242L25.5246 22.2221C23.8583 23.4585 23.1339 25.4005 23.0678 27.2944C23.036 28.1872 23.1149 28.7152 23.3593 29.4897L23.4243 29.6902L23.4428 29.7304C24.2078 31.3913 25.0564 32.2976 26.1326 32.2976L26.2163 32.2954C26.849 32.2626 27.3076 31.8568 27.5715 31.2177L27.6083 31.1219L27.579 31.1732C28.5657 29.4095 31.1768 28.4528 35.4955 28.422L35.7354 28.4219L36.0582 28.4355L36.2654 28.4466C36.4031 28.4547 36.5393 28.464 36.6716 28.4747L36.8932 28.4942L36.5284 29.5402L36.1433 30.6654L35.723 31.9133L35.0974 33.7985L34.6627 35.1222L33.7821 37.8887L33.2995 39.3849C33.1188 39.4361 32.9413 39.4924 32.7573 39.5584C32.2024 39.7577 31.6691 40.0182 31.1646 40.3614C30.5619 40.7714 30.0349 41.2779 29.6053 41.8926C28.5803 43.2491 28.0426 45.3506 28.6875 46.9337L28.7229 47.015C28.9969 47.6046 29.5727 48.0428 30.1856 48.2541L30.2294 48.2682L30.142 48.4998C29.7889 49.4288 29.4411 50.3079 29.0924 51.1519C28.3379 52.9788 27.3549 54.5648 26.2681 55.8499C25.8438 56.3516 25.4229 56.7829 25.0405 57.1194L24.9073 57.234L24.7829 57.336L24.6693 57.4246C24.6514 57.4381 24.634 57.4511 24.6173 57.4634L24.524 57.5295L24.447 57.5792C24.4242 57.5929 24.4045 57.6038 24.3882 57.6115L24.3211 57.6412L24.2409 57.6724L24.143 57.7068L23.9532 57.7681L23.617 57.872L23.4167 57.9371C23.1371 58.0315 22.9451 58.1141 22.7525 58.2293L22.6807 58.2742C22.2821 58.5351 22.0284 58.9037 22.0266 59.3803L22.0268 59.3948L22.0228 59.4639L22.02 59.5626L22.0201 59.6441C22.0343 60.5734 22.3566 61.5466 23.1666 62.3793L23.2888 62.5021C24.5607 63.7523 26.1126 64.4177 27.7323 64.4581L27.8735 64.4602L27.8845 64.4607C27.9135 64.4617 27.9459 64.4623 27.9818 64.4623C28.5325 64.4623 29.2224 64.357 29.9871 64.0799C31.1169 63.6707 32.1844 62.9575 33.1142 61.8822L33.2284 61.7378L33.3469 61.5863L33.5812 61.2809C33.6199 61.2298 33.6585 61.1785 33.697 61.1271L33.926 60.8169L34.1518 60.5027C34.4882 60.0284 34.8142 59.5396 35.1326 59.0296L35.3438 58.6863C35.4138 58.5708 35.4835 58.4541 35.5529 58.3363L35.7601 57.9791L35.9657 57.6143L36.1697 57.2414C36.2036 57.1785 36.2375 57.1154 36.2713 57.0518L36.4734 56.666C36.507 56.6009 36.5406 56.5355 36.5741 56.4697L36.7747 56.0699C36.8081 56.0025 36.8414 55.9346 36.8747 55.8664L37.0743 55.4517C37.1075 55.3817 37.1407 55.3113 37.1739 55.2404L37.3728 54.8098C37.4059 54.7371 37.439 54.664 37.4721 54.5904L37.6708 54.1428L37.8695 53.6835L38.0684 53.2119C38.1348 53.0525 38.2012 52.8911 38.2678 52.7275L38.4678 52.23C38.5012 52.1459 38.5346 52.0613 38.568 51.9761L38.7693 51.458L38.9716 50.9257C39.0054 50.8357 39.0393 50.7452 39.0732 50.654L39.2775 50.0994L39.4833 49.5294L39.6908 48.9436L39.9003 48.3415L40.0937 47.7756C40.5329 47.856 40.9881 47.9318 41.4809 48.0038C43.0107 48.2273 44.5371 48.3604 45.9989 48.3604C48.6159 48.3604 50.7403 47.936 52.1971 46.9347C52.3536 46.8269 52.5076 46.7116 52.6626 46.5871C54.6265 45.0134 55.8193 42.4835 55.2565 41.024C55.0969 40.6104 54.8565 40.2801 54.5308 40.0444C54.1701 39.7847 53.7396 39.6635 53.2498 39.6635C52.6636 39.6635 51.9756 39.8296 51.0878 40.159C50.502 40.3763 49.5692 40.4915 48.3373 40.4915L48.1482 40.4907C47.1485 40.4815 45.9782 40.4004 44.6607 40.2512L44.1258 40.1879L43.5757 40.1174L43.0104 40.0397L42.4547 39.9584L42.7077 39.1554L43.2293 37.5338L44.305 34.2416L45.2519 31.3695L45.7974 29.7209L45.841 29.7291C48.1459 30.1442 50.5212 30.3854 52.5563 30.3854C54.9107 30.3854 56.7474 30.0725 57.9141 29.3781C58.8378 28.8285 59.6814 28.0046 60.3562 27.033C60.8405 26.3364 61.2211 25.5811 61.4588 24.8496C61.7555 23.9362 61.8208 23.0981 61.5947 22.427C61.3807 21.7927 60.9843 21.331 60.4042 21.1352C60.2104 21.0706 60.0088 21.0388 59.7988 21.0388C59.488 21.0388 59.1594 21.1089 58.8104 21.2412C58.6965 21.2847 58.5927 21.3282 58.4904 21.3761L58.3633 21.4374L58.2942 21.4663L58.1476 21.5205L57.9573 21.5841L57.8106 21.6297C57.4443 21.7401 57.0062 21.8496 56.5219 21.9476C55.2709 22.2009 53.8658 22.35 52.3813 22.35C50.1994 22.2681 47.9081 22.013 45.4076 21.6132L44.6234 21.4837L42.9731 21.1915L40.8322 20.8015L39.9365 20.6507L39.1039 20.5155L38.7099 20.4535L37.9639 20.3405L37.439 20.2651L36.942 20.1972L36.3193 20.1183L36.0239 20.0835L35.7385 20.0518L35.3279 20.0099L35.0651 19.9855L34.686 19.9541L34.3233 19.9288L34.0898 19.9151L33.7506 19.8992L33.5311 19.8916L33.2104 19.8845L32.8986 19.8823L32.6949 19.8834ZM31.7981 20.7047L31.7975 20.7047C31.7593 20.7077 31.7207 20.7108 31.6816 20.7141L31.6807 20.7142C31.7203 20.7108 31.7595 20.7077 31.7981 20.7047ZM31.4434 20.7365L31.4419 20.7367L31.4405 20.7368C31.4415 20.7367 31.4425 20.7366 31.4434 20.7365ZM31.1948 20.7643L31.1928 20.7645L31.1908 20.7648C31.1922 20.7646 31.1935 20.7644 31.1948 20.7643ZM30.9376 20.7978L30.935 20.7982C29.4081 21.0124 27.4902 21.5479 26.016 22.8329C24.5015 23.9441 24.025 25.6933 23.8942 26.797L23.8909 26.8282C24.0164 25.7265 24.4874 23.9546 26.0163 22.8329C27.4913 21.5472 29.4103 21.0119 30.9376 20.7978ZM23.88 26.9306L23.8767 26.9616C23.8742 26.9881 23.8719 27.0141 23.8698 27.0397L23.8674 27.0743C23.871 27.028 23.8751 26.9801 23.88 26.9306ZM23.8619 27.153L23.8595 27.187L23.8578 27.2238C23.859 27.2007 23.8603 27.1771 23.8619 27.153ZM23.8549 27.2857L23.8532 27.3216C23.8276 28.0432 23.8945 28.4975 24.0128 28.9334L24.019 28.955C23.8971 28.5125 23.8274 28.0551 23.8535 27.3216C23.8539 27.3098 23.8544 27.2978 23.8549 27.2857ZM24.0596 29.096L24.0665 29.1198C24.0759 29.151 24.0856 29.1822 24.0955 29.2136L24.1157 29.2762C24.0962 29.2154 24.0775 29.1556 24.0596 29.096ZM24.1329 29.3294L24.1573 29.4048C24.8058 30.8128 25.465 31.5163 26.1338 31.5163C26.1514 31.5163 26.1687 31.5156 26.1858 31.5144C26.1688 31.5156 26.1516 31.5162 26.1341 31.5162C25.4654 31.5162 24.8061 30.8128 24.1576 29.4047C24.1492 29.3794 24.141 29.3543 24.1329 29.3294ZM33.9956 27.6915C34.5395 27.6571 35.1124 27.6399 35.7141 27.6399L36.0887 27.6547L36.3905 27.6714L36.6476 27.689L36.9176 27.7117L37.099 27.7298L37.2773 27.7504L37.4491 27.7738C37.4769 27.778 37.5044 27.7822 37.5313 27.7866L37.6865 27.8144C37.7852 27.834 37.8736 27.8556 37.947 27.8795L37.9104 27.9818C37.9227 27.9476 37.935 27.9134 37.9473 27.8795C37.3419 27.6823 35.7144 27.6399 35.7144 27.6399C35.1126 27.6399 34.5396 27.6571 33.9956 27.6915ZM37.73 28.4861L37.6914 28.5942L37.66 28.6836C37.6835 28.6172 37.7068 28.5514 37.73 28.4861ZM37.3904 29.4527L37.3565 29.5496L37.3187 29.6596C37.3427 29.5901 37.3667 29.5211 37.3904 29.4527ZM37.0425 30.4625L37.0014 30.5822L36.9545 30.7206C36.9841 30.6338 37.0134 30.5477 37.0425 30.4625ZM36.6738 31.5501L36.6228 31.7008L36.5831 31.8199C36.6136 31.7291 36.6438 31.6392 36.6738 31.5501ZM36.0928 33.2906L36.0471 33.4277L35.9897 33.6022C36.0244 33.4973 36.0587 33.3935 36.0928 33.2906ZM35.4766 35.1617L35.41 35.3643L35.2535 35.8584L34.6444 37.7716L34.2034 39.1437L33.9159 40.0303L33.768 40.0686C33.7834 40.0647 33.7981 40.0609 33.8121 40.0573C33.8527 40.0469 33.8876 40.038 33.9162 40.0302C34.3914 38.5706 34.8857 37.0221 35.4103 35.3643C35.4325 35.2964 35.4546 35.2289 35.4766 35.1617ZM33.6979 40.0868L33.6813 40.0911L33.6767 40.0924C33.6838 40.0905 33.6909 40.0887 33.6979 40.0868ZM33.4633 40.1515L33.4584 40.1528L33.4504 40.1553C33.4547 40.154 33.459 40.1527 33.4633 40.1515ZM33.3384 40.1889L33.33 40.1915L33.3225 40.1938C33.3278 40.1922 33.3331 40.1905 33.3384 40.1889ZM33.1995 40.2333L33.1915 40.2359L33.1843 40.2383C33.1894 40.2366 33.1944 40.235 33.1995 40.2333ZM33.0516 40.2839L33.044 40.2866L33.037 40.2891C33.0419 40.2874 33.0467 40.2857 33.0516 40.2839ZM32.8959 40.3412L32.8884 40.344L32.8814 40.3468C32.8863 40.3449 32.8911 40.3431 32.8959 40.3412ZM32.7332 40.4057L32.7257 40.4087C31.9514 40.7281 30.9772 41.2991 30.2507 42.3389C29.5595 43.2542 28.8088 45.1499 29.4159 46.64C29.6917 47.3167 30.5167 47.6222 31.0347 47.6079C30.5167 47.6221 29.692 47.3166 29.4162 46.64C28.8091 45.1498 29.5598 43.2541 30.251 42.3388C30.9798 41.2959 31.9577 40.7245 32.7332 40.4057ZM31.3374 47.5459C30.8358 48.908 30.3348 50.2015 29.8192 51.4493C29.4212 52.4132 28.9759 53.2771 28.5175 54.0405L28.3335 54.3404C28.1182 54.6842 27.9011 55.006 27.6856 55.3058L27.5013 55.5574C27.4707 55.5985 27.4401 55.6391 27.4096 55.6792L27.2274 55.9147L27.0472 56.1393L26.8695 56.3532L26.6948 56.5563L26.5235 56.7486C26.4953 56.7797 26.4672 56.8104 26.4393 56.8406L26.2741 57.0167L26.1135 57.1819L25.9582 57.3363C25.9327 57.3611 25.9075 57.3855 25.8825 57.4094L25.7358 57.5475C25.7118 57.5696 25.6882 57.5913 25.6647 57.6125L25.5277 57.7343L25.3978 57.8452L25.2172 57.9913L25.0553 58.1128L24.9585 58.1801L24.8713 58.2366C24.8576 58.2451 24.8443 58.2531 24.8314 58.2607L24.7593 58.3008L24.7273 58.3167C24.6267 58.3645 24.5118 58.4078 24.3893 58.4492L24.2392 58.498L23.9276 58.5943L23.9211 58.5963C23.962 58.5836 24.0031 58.5711 24.044 58.5585C24.2926 58.4823 24.5361 58.4077 24.7276 58.3167C25.4025 57.9961 28.068 55.6904 29.8196 51.4492C30.3352 50.2015 30.8362 48.9078 31.3377 47.5457C31.3376 47.5457 31.3375 47.5458 31.3374 47.5459ZM23.6996 58.6673L23.6942 58.669C23.209 58.832 22.7913 59.0349 22.8136 59.4206L22.8123 59.4338L22.8117 59.4442C22.8129 59.4287 22.8139 59.4206 22.8139 59.4206C22.7915 59.0335 23.2123 58.8305 23.6996 58.6673ZM22.8074 59.5204L22.8067 59.5334L22.8066 59.5493C22.8068 59.5391 22.8071 59.5294 22.8074 59.5204ZM22.8061 59.6258L22.806 59.6428C22.8062 59.6573 22.8066 59.6724 22.8071 59.6881L22.8082 59.7112C22.807 59.6806 22.8063 59.6521 22.8061 59.6258ZM22.8109 59.7659L22.8121 59.7894L22.8138 59.8096C22.8127 59.7946 22.8118 59.7801 22.8109 59.7659ZM22.8201 59.8833L22.8219 59.9037C22.8722 60.3855 23.0649 61.1506 23.7314 61.8357C24.9725 63.1107 26.4508 63.6788 27.8904 63.6788L27.8913 63.6788C27.8909 63.6788 27.8907 63.6787 27.8907 63.6787C26.4511 63.6787 24.9728 63.1107 23.7318 61.8357C23.0558 61.1408 22.8671 60.3637 22.8201 59.8833ZM28.0081 63.6809L28.0088 63.6809L28.0098 63.6809C28.0092 63.6809 28.0086 63.6809 28.0081 63.6809ZM28.141 63.677L28.1414 63.677L28.1419 63.677C28.1416 63.677 28.1413 63.677 28.141 63.677ZM39.568 46.8825L39.5748 46.883L39.7861 46.9222C39.7766 46.9204 39.7673 46.9186 39.7584 46.9169C39.6452 46.895 39.5798 46.8824 39.5692 46.8824C39.5686 46.8824 39.5681 46.8824 39.568 46.8825ZM40.432 47.0423L40.4412 47.044L40.4549 47.0464C40.4472 47.045 40.4396 47.0437 40.432 47.0423ZM40.8613 47.1161L40.8744 47.1183L40.8889 47.1206C40.8796 47.1191 40.8704 47.1176 40.8613 47.1161ZM41.2576 47.1797L41.2715 47.1819L41.2888 47.1845C41.2784 47.1829 41.2679 47.1813 41.2576 47.1797ZM41.5794 47.2283L41.596 47.2308L41.6113 47.2329C41.6007 47.2314 41.59 47.2298 41.5794 47.2283ZM41.9269 47.2776L41.9414 47.2796L41.9549 47.2814C41.9455 47.2801 41.9362 47.2788 41.9269 47.2776ZM42.2934 47.326L42.3059 47.3276L42.3176 47.329C42.3095 47.328 42.3015 47.327 42.2934 47.326ZM42.6768 47.3725L42.6878 47.3739L42.698 47.375C42.6909 47.3742 42.6839 47.3733 42.6768 47.3725ZM43.0756 47.4165L43.0851 47.4175L43.0992 47.4189C43.0913 47.4181 43.0834 47.4173 43.0756 47.4165ZM43.344 47.4434L43.3578 47.4448L43.371 47.446C43.362 47.4451 43.353 47.4443 43.344 47.4434ZM43.624 47.4691L43.6361 47.4703L43.6476 47.4712C43.6397 47.4705 43.6319 47.4698 43.624 47.4691ZM43.9085 47.4928L43.9194 47.4937L43.9298 47.4945C43.9227 47.4939 43.9156 47.4933 43.9085 47.4928ZM44.1975 47.5141L44.2073 47.5148L44.2133 47.5152C44.2081 47.5148 44.2028 47.5145 44.1975 47.5141ZM44.6412 47.5413L44.6464 47.5417L44.6539 47.542C44.6497 47.5418 44.6455 47.5416 44.6412 47.5413ZM44.9365 47.5556L44.9433 47.5559L44.9498 47.5562C44.9454 47.556 44.9409 47.5558 44.9365 47.5556ZM45.2371 47.5668L45.2429 47.567L45.2484 47.5672C45.2446 47.567 45.2409 47.5669 45.2371 47.5668ZM45.5398 47.5745L45.5446 47.5747L45.5493 47.5747C45.5461 47.5747 45.5429 47.5746 45.5398 47.5745ZM45.8441 47.5786L45.848 47.5786L45.8558 47.5786C45.8519 47.5786 45.848 47.5786 45.8441 47.5786ZM45.9926 47.5791L46.0001 47.5791C46.2005 47.5791 46.4016 47.5765 46.6024 47.5708C46.4017 47.5764 46.2008 47.5791 46.0004 47.5791C45.9978 47.5791 45.9952 47.5791 45.9926 47.5791ZM53.0908 40.4501C52.6251 40.48 52.0527 40.6353 51.363 40.8912C50.9876 41.0305 50.52 41.1295 49.9716 41.1917C50.5201 41.1295 50.9878 41.0305 51.3634 40.8911C52.0528 40.6353 52.6252 40.4801 53.0908 40.4501ZM42.3537 40.7333L41.7859 40.646C41.9768 40.6761 42.1661 40.7052 42.3537 40.7333ZM41.7252 40.6365L41.5059 40.6014C41.5792 40.6132 41.6523 40.6249 41.7252 40.6365ZM41.4611 40.5789L41.4631 40.5662C41.4622 40.5711 41.4616 40.5753 41.4611 40.5789ZM41.4666 40.549L41.4866 40.4674C41.4777 40.5011 41.471 40.5284 41.4666 40.549ZM41.4957 40.4337L41.5598 40.2101C41.5334 40.2993 41.5119 40.3743 41.4957 40.4337ZM41.5796 40.1436L41.7484 39.5935C41.6816 39.8075 41.6247 39.9927 41.5796 40.1436ZM41.7833 39.4819L42.233 38.0703C42.0602 38.607 41.9069 39.0877 41.7833 39.4819ZM42.2872 37.9022L43.519 34.1252C43.0896 35.4325 42.6496 36.7787 42.2872 37.9022ZM43.6189 33.8213L45.2111 29.003C45.0128 29.6003 44.3406 31.6263 43.6189 33.8213ZM45.2699 28.826C47.5892 29.2836 50.2383 29.6041 52.5575 29.6041C52.6924 29.6041 52.8262 29.603 52.9588 29.6008C52.8263 29.603 52.6926 29.6041 52.5578 29.6041C50.2385 29.6041 47.5893 29.2835 45.2699 28.8259C45.2699 28.8259 45.2699 28.8259 45.2699 28.826ZM59.6394 21.8297C59.4732 21.8486 59.2902 21.8958 59.0908 21.9714C58.9797 22.0139 58.8647 22.0621 58.7429 22.1232L58.717 22.1358L58.6172 22.1792L58.5328 22.2124L58.3799 22.2678L58.1963 22.3288L58.0574 22.372L57.8248 22.4399L57.6539 22.4866L57.4708 22.5341L57.2757 22.582L56.9611 22.654L56.7372 22.7016L56.5021 22.7484L56.1294 22.8164L55.8679 22.8597L55.5963 22.9012L55.3148 22.9403L55.0237 22.9767L54.7233 23.0102L54.4139 23.0403C56.768 22.8279 58.3818 22.3043 58.7432 22.1232C58.865 22.0621 58.98 22.0139 59.0911 21.9714C59.2904 21.8959 59.4733 21.8486 59.6394 21.8297ZM54.0957 23.0667L53.769 23.0891C53.8793 23.0823 53.9882 23.0748 54.0957 23.0667ZM53.7689 23.0891L53.4347 23.107C53.5474 23.1018 53.6589 23.0958 53.7689 23.0891ZM53.4334 23.1071L53.0924 23.1203C53.2073 23.1167 53.321 23.1123 53.4334 23.1071ZM41.7214 21.756C41.798 21.7702 41.8763 21.7848 41.9564 21.7997C42.3276 21.8686 42.7364 21.9445 43.1774 22.0242L41.7214 21.756ZM44.0762 22.1833C43.7793 22.1319 43.4933 22.0811 43.2195 22.0318L44.0762 22.1833ZM44.643 22.2797C44.4658 22.2501 44.2918 22.2205 44.1215 22.1911L44.643 22.2797ZM45.2441 22.3781C45.0562 22.348 44.8714 22.3178 44.6901 22.2875L45.2441 22.3781ZM45.8662 22.4755C45.669 22.4454 45.4748 22.415 45.2838 22.3845L45.8662 22.4755ZM46.2832 22.538C46.1576 22.5195 46.0331 22.5009 45.9098 22.4821L46.2832 22.538ZM46.718 22.6007C46.5881 22.5824 46.4592 22.5638 46.3315 22.5451L46.718 22.6007ZM47.1605 22.6618C47.0266 22.6438 46.8936 22.6254 46.7618 22.6069L47.1605 22.6618ZM47.61 22.7209C47.4724 22.7033 47.3358 22.6854 47.2002 22.6672L47.61 22.7209ZM48.0661 22.7778C47.9251 22.7607 47.7851 22.7433 47.646 22.7255L48.0661 22.7778ZM48.5281 22.832C48.3842 22.8157 48.241 22.7989 48.0987 22.7817L48.5281 22.832ZM48.9958 22.8833C48.849 22.8678 48.703 22.8518 48.5578 22.8354L48.9958 22.8833ZM49.4683 22.9313C49.319 22.9167 49.1704 22.9016 49.0225 22.8861L49.4683 22.9313ZM50.1853 22.9963C50.0326 22.9835 49.8805 22.97 49.729 22.956L50.1853 22.9963ZM50.9102 23.0521C50.7548 23.0413 50.5998 23.0297 50.4453 23.0175L50.9102 23.0521ZM51.3971 23.0835C51.2401 23.0742 51.0834 23.0641 50.9272 23.0533L51.3971 23.0835Z" fill="white"/>
</g>
<defs>
<clipPath id="clip0_754_3547">
<rect width="80" height="80" fill="white"/>
</clipPath>
</defs>
</svg>
