<?xml version="1.0" encoding="utf-8"?>
<!-- Generator: Adobe Illustrator 23.0.0, SVG Export Plug-In . SVG Version: 6.00 Build 0)  -->
<svg version="1.1" id="Layer_1" xmlns="http://www.w3.org/2000/svg" xmlns:xlink="http://www.w3.org/1999/xlink" x="0px" y="0px"
	 viewBox="0 0 1417.32 1417.32" style="enable-background:new 0 0 1417.32 1417.32;" xml:space="preserve">
<style type="text/css">
	.st0{fill:#43C6EA;}
	.st1{fill:#7CD1EB;}
	.st2{fill:#2A4D9B;}
	.st3{fill:#2489C9;}
	.st4{fill:#1B6DB6;}
	.st5{fill:#CBECFC;}
	.st6{fill:#243E81;}
	.st7{fill:#1D1F4F;}
	.st8{fill:#1996CE;}
	.st9{fill:#42AADB;}
	.st10{fill:#EEF9FE;}
</style>
<polygon class="st0" points="0,894.4 911.92,501.56 1096.4,93.68 "/>
<polygon class="st1" points="334.67,212.79 1096.52,93.55 0.12,894.27 "/>
<polygon class="st2" points="911.92,501.56 722.1,1373.33 0,894.4 "/>
<polygon class="st3" points="1096.02,93.55 1417.32,708.53 911.54,501.43 "/>
<polygon class="st4" points="1417.32,708.53 722.1,1373.33 911.92,501.56 "/>
<polygon class="st5" points="334.55,212.92 592.92,43.99 1096.4,93.68 "/>
<polygon class="st6" points="1417.32,708.53 826.38,894.4 722.1,1373.33 "/>
<polygon class="st7" points="0,894.4 722.1,1373.33 826.38,894.4 "/>
<polygon class="st8" points="911.92,501.56 668.6,406.11 0,894.4 "/>
<polygon class="st9" points="668.6,406.11 310.73,261.57 0,894.4 "/>
<polygon class="st10" points="1271.57,648.84 925.34,495.44 1074.54,141.04 907.02,487.56 447.25,316.71 886.23,501.56 
	156.99,826.77 897.61,518.48 775.31,1128.94 917.43,514.99 1271.57,648.84 "/>
</svg>
