<?xml version="1.0" encoding="UTF-8"?>
<svg width="38px" height="38px" viewBox="0 0 38 38" version="1.1" xmlns="http://www.w3.org/2000/svg" xmlns:xlink="http://www.w3.org/1999/xlink">
    <title>Group 11</title>
    <defs>
        <path d="M14.9520807,5.5732835 C16.8097012,5.5732835 20.0752392,4.89831373 21.9736449,3.23857417 C23.1946885,2.17103924 23.1627481,-0.331886193 24.1082405,0.0871621845 C28.5937074,2.07515038 31.5803696,5.62300465 31.5803696,9.66875612 C31.5803696,15.893202 24.5108631,20.9391124 15.7901848,20.9391124 C7.06950655,20.9391124 0,15.893202 0,9.66875612 C0,5.86828911 2.63549165,2.50717674 6.67315814,0.465707626 C7.30877528,0.144335673 12.3942047,5.5732835 14.9520807,5.5732835 Z M15.7901848,7.79036342 C13.139007,7.79036342 10.7759681,8.50375019 9.26963704,9.57890461 L9.14678463,9.66875612 L9.26963704,9.75860763 C10.7759681,10.8337621 13.139007,11.5471488 15.7901848,11.5471488 C18.4413627,11.5471488 20.8044016,10.8337621 22.3107326,9.75860763 L22.4331582,9.66875612 L22.3107326,9.57890461 C20.8044016,8.50375019 18.4413627,7.79036342 15.7901848,7.79036342 Z" id="path-1"></path>
        <filter x="-23.8%" y="-42.4%" width="147.6%" height="184.8%" filterUnits="objectBoundingBox" id="filter-3">
            <feGaussianBlur stdDeviation="2.7865032" in="SourceGraphic"></feGaussianBlur>
        </filter>
        <linearGradient x1="110.637995%" y1="55.1722279%" x2="-12.4018701%" y2="47.3074185%" id="linearGradient-4">
            <stop stop-color="#FFFFFF" stop-opacity="0" offset="0%"></stop>
            <stop stop-color="#FFFFFF" stop-opacity="0.0459380961" offset="27.524933%"></stop>
            <stop stop-color="#FFFFFF" stop-opacity="0.8" offset="66.6797181%"></stop>
            <stop stop-color="#FFFFFF" stop-opacity="0.220793286" offset="84.0531145%"></stop>
            <stop stop-color="#FFFFFF" stop-opacity="0" offset="100%"></stop>
        </linearGradient>
        <linearGradient x1="110.637995%" y1="51.814059%" x2="-12.4018701%" y2="49.0556291%" id="linearGradient-5">
            <stop stop-color="#FFFFFF" stop-opacity="0" offset="0%"></stop>
            <stop stop-color="#FFFFFF" stop-opacity="0.0459380961" offset="27.524933%"></stop>
            <stop stop-color="#FFFFFF" stop-opacity="0.8" offset="66.6797181%"></stop>
            <stop stop-color="#FFFFFF" stop-opacity="0.220793286" offset="84.0531145%"></stop>
            <stop stop-color="#FFFFFF" stop-opacity="0" offset="100%"></stop>
        </linearGradient>
        <filter x="-89.3%" y="-84.7%" width="278.5%" height="269.5%" filterUnits="objectBoundingBox" id="filter-6">
            <feGaussianBlur stdDeviation="2.7865032" in="SourceGraphic"></feGaussianBlur>
        </filter>
        <filter x="-75.1%" y="-78.3%" width="250.2%" height="256.5%" filterUnits="objectBoundingBox" id="filter-7">
            <feGaussianBlur stdDeviation="2.7865032" in="SourceGraphic"></feGaussianBlur>
        </filter>
        <path d="M12.0748472,0 C18.7436012,0 24.1496944,3.74267994 24.1496944,8.35950961 C24.1496944,12.9763393 18.7436012,16.7190192 12.0748472,16.7190192 C5.40609324,16.7190192 0,12.9763393 0,8.35950961 C0,3.74267994 5.40609324,0 12.0748472,0 Z M12.0748472,7.03958704 C10.1522226,7.03958704 8.4344499,7.52317447 7.30619456,8.25719219 L7.15538791,8.35906964 L7.18758339,8.38223462 C8.27323969,9.13384282 9.96215147,9.64334777 11.8696531,9.67759234 L12.0748472,9.67943218 C13.9974718,9.67943218 15.7152445,9.19584475 16.8434999,8.46182703 L16.962111,8.38223462 L16.9938901,8.35906964 L16.962111,8.3367846 C15.8764547,7.5851764 14.187543,7.07567145 12.2800413,7.04142688 L12.0748472,7.03958704 Z" id="path-8"></path>
        <linearGradient x1="110.637995%" y1="54.5%" x2="-12.4018701%" y2="47.6573699%" id="linearGradient-10">
            <stop stop-color="#FFFFFF" stop-opacity="0" offset="0%"></stop>
            <stop stop-color="#FFFFFF" stop-opacity="0.0459380961" offset="27.524933%"></stop>
            <stop stop-color="#FFFFFF" stop-opacity="0.8" offset="66.6797181%"></stop>
            <stop stop-color="#FFFFFF" stop-opacity="0.220793286" offset="84.0531145%"></stop>
            <stop stop-color="#FFFFFF" stop-opacity="0" offset="100%"></stop>
        </linearGradient>
        <linearGradient x1="110.637995%" y1="55.4536285%" x2="-12.4018701%" y2="47.1609258%" id="linearGradient-11">
            <stop stop-color="#FFFFFF" stop-opacity="0" offset="0%"></stop>
            <stop stop-color="#FFFFFF" stop-opacity="0.0459380961" offset="27.524933%"></stop>
            <stop stop-color="#FFFFFF" stop-opacity="0.8" offset="66.6797181%"></stop>
            <stop stop-color="#FFFFFF" stop-opacity="0.220793286" offset="84.0531145%"></stop>
            <stop stop-color="#FFFFFF" stop-opacity="0" offset="100%"></stop>
        </linearGradient>
        <filter x="-59.1%" y="-70.7%" width="218.3%" height="241.3%" filterUnits="objectBoundingBox" id="filter-12">
            <feGaussianBlur stdDeviation="2.7865032" in="SourceGraphic"></feGaussianBlur>
        </filter>
        <filter x="-23.4%" y="-52.9%" width="146.8%" height="205.9%" filterUnits="objectBoundingBox" id="filter-13">
            <feGaussianBlur stdDeviation="2.7865032" in="SourceGraphic"></feGaussianBlur>
        </filter>
        <path d="M5.00876363,0.139205674 C6.03721023,-0.446203075 8.33840808,1.12453295 9.98004099,2.64772193 C11.37801,3.94482736 12.0748472,5.58568808 12.0748472,7.0602472 C12.0748472,10.2663789 9.37180059,12.8654622 6.03742361,12.8654622 C2.70304662,12.8654622 0,10.2663789 0,7.0602472 C0,5.75275495 1.54594014,4.79204152 2.54447914,3.63861374 C3.9944805,1.96369483 3.98031704,0.724614423 5.00876363,0.139205674 Z" id="path-14"></path>
        <filter x="-113.6%" y="-56.9%" width="327.2%" height="213.8%" filterUnits="objectBoundingBox" id="filter-16">
            <feGaussianBlur stdDeviation="2.322086" in="SourceGraphic"></feGaussianBlur>
        </filter>
        <filter x="-47.9%" y="-90.0%" width="195.9%" height="279.9%" filterUnits="objectBoundingBox" id="filter-17">
            <feGaussianBlur stdDeviation="2.7865032" in="SourceGraphic"></feGaussianBlur>
        </filter>
        <linearGradient x1="110.637995%" y1="60.5542151%" x2="-12.4018701%" y2="44.5056396%" id="linearGradient-18">
            <stop stop-color="#FFFFFF" stop-opacity="0" offset="0%"></stop>
            <stop stop-color="#FFFFFF" stop-opacity="0.0459380961" offset="19.4705448%"></stop>
            <stop stop-color="#FFFFFF" stop-opacity="0.8" offset="66.6797181%"></stop>
            <stop stop-color="#FFFFFF" stop-opacity="0.220793286" offset="84.4198691%"></stop>
            <stop stop-color="#FFFFFF" stop-opacity="0" offset="100%"></stop>
        </linearGradient>
        <linearGradient x1="48.7680234%" y1="107.421804%" x2="50%" y2="-3.63910069%" id="linearGradient-19">
            <stop stop-color="#FFFFFF" stop-opacity="0" offset="0%"></stop>
            <stop stop-color="#FFFFFF" stop-opacity="0.0459380961" offset="27.524933%"></stop>
            <stop stop-color="#FFFFFF" stop-opacity="0.8" offset="66.6797181%"></stop>
            <stop stop-color="#FFFFFF" stop-opacity="0.220793286" offset="84.0531145%"></stop>
            <stop stop-color="#FFFFFF" stop-opacity="0" offset="100%"></stop>
        </linearGradient>
    </defs>
    <g id="Page-1" stroke="none" stroke-width="1" fill="none" fill-rule="evenodd">
        <g id="Group-11">
            <circle id="Oval" cx="19" cy="19" r="19"></circle>
            <g id="Group-2" transform="translate(3.000000, 3.000000)">
                <g id="Group-4">
                    <g id="Oval-2" transform="translate(0.000000, 9.574203)">
                        <mask id="mask-2" fill="white">
                            <use xlink:href="#path-1"></use>
                        </mask>
                        <use id="Oval" fill="#FFC04C" xlink:href="#path-1"></use>
                        <path d="M-2.17042773,8.28131019 C1.0617027,13.2101995 4.23897792,16.191021 7.36139792,17.2237748 C12.5392644,18.9363762 21.1023311,18.4425773 24.0636912,17.2237748 C28.610393,15.3524956 31.5803696,11.4103283 32.9736212,5.39727291 L32.9736212,25.1188672 L4.61303575,25.1188672 L-2.17042773,8.28131019 Z" id="Rectangle" fill="#FFD560" filter="url(#filter-3)" mask="url(#mask-2)"></path>
                        <path d="M19.4430936,15.0563292 C21.8874501,15.3791417 24.2487284,15.4567132 26.5269284,15.2890438 C28.6992622,15.1291659 30.5992458,14.4501217 32.2268791,13.2519114 C31.7385309,14.175864 31.2368216,14.8116619 30.7217513,15.1593052 C29.0402239,16.2942406 27.8014635,16.5012672 25.0405461,16.7527559 C23.067894,16.9324424 21.2020765,16.3669669 19.4430936,15.0563292 Z" id="Rectangle" fill-opacity="0.302857299" fill="#FFFFFF" mask="url(#mask-2)" transform="translate(25.834986, 15.018582) rotate(-32.000000) translate(-25.834986, -15.018582) "></path>
                        <path d="M-0.928834401,12.1151856 C0.268399081,13.1743494 1.72955581,13.8195085 3.45463578,14.050663 C5.17971575,14.2818175 7.43389663,14.1098113 10.2171784,13.5346446 C8.42262934,15.2487931 6.16083051,15.945246 3.43178194,15.6240033 C0.702733371,15.3027606 -0.75080541,14.1331547 -0.928834401,12.1151856 Z" id="Rectangle" fill="url(#linearGradient-4)" opacity="0.699999988" mask="url(#mask-2)" transform="translate(4.644172, 13.907620) rotate(44.000000) translate(-4.644172, -13.907620) "></path>
                        <path d="M5.53460947,11.5198846 C6.58218877,12.0687401 7.8607009,12.4030597 9.37014588,12.5228432 C10.8795909,12.6426268 12.8519991,12.5534937 15.2873707,12.255444 C13.7171402,13.1437107 11.7380663,13.5046105 9.35014877,13.3381435 C6.96223127,13.1716765 5.69038484,12.5655902 5.53460947,11.5198846 Z" id="Rectangle" fill="url(#linearGradient-5)" opacity="0.600000024" mask="url(#mask-2)" transform="translate(10.410990, 12.448719) rotate(15.000000) translate(-10.410990, -12.448719) "></path>
                        <path d="M20.898774,0.735327234 L30.187118,0.735327234 C30.4967295,4.37326197 29.8775066,7.00495944 28.3294492,8.63041964 C26.7813919,10.2558798 24.3045002,10.8751028 20.898774,10.4880884 L20.898774,0.735327234 Z" id="Rectangle" fill="#FD379C" filter="url(#filter-6)" mask="url(#mask-2)"></path>
                        <path d="M3.94576916,1.31333238 C5.80959255,-0.643682186 9.13850817,-1.99684793 13.932516,-2.74616487 C14.2421275,0.891769871 13.6229045,3.52346734 12.0748472,5.14892754 C10.5267899,6.77438774 8.39546631,7.70322215 5.6808765,7.93543075 C2.66031488,5.47771306 2.08194576,3.27034694 3.94576916,1.31333238 Z" id="Rectangle" fill="#FD379C" filter="url(#filter-7)" mask="url(#mask-2)"></path>
                    </g>
                    <g id="Oval-3" transform="translate(3.715338, 4.970370)">
                        <mask id="mask-9" fill="white">
                            <use xlink:href="#path-8"></use>
                        </mask>
                        <use id="Oval" fill="#FFBE30" xlink:href="#path-8"></use>
                        <path d="M15.2088844,12.4521022 C17.4452255,12.4535607 19.1156925,12.3060556 20.2202854,12.0095869 C21.5599397,11.6500284 22.9267486,10.8426697 24.3207121,9.58751062 C23.7129815,10.5998322 23.275092,11.2527681 23.0070437,11.5463181 C22.0560607,12.5877765 20.3768791,13.2916246 19.2233015,13.3031799 C17.8491979,13.3169442 16.5110589,13.0332516 15.2088844,12.4521022 Z" id="Rectangle" fill-opacity="0.12" fill="#F50B0B" mask="url(#mask-9)" transform="translate(19.764798, 11.445584) rotate(-24.000000) translate(-19.764798, -11.445584) "></path>
                        <path d="M13.7661871,7.52381375 C14.4135374,7.74943152 15.0750099,7.71400602 15.7506047,7.41753724 C16.5699686,7.05797883 17.4059408,6.25062009 18.2585214,4.99546101 C17.8868191,6.00778261 17.6189957,6.66071845 17.4550511,6.95426853 C16.8734077,7.99572688 15.8463811,8.69957503 15.1408261,8.71113029 C14.3003923,8.72489455 13.8421793,8.32912236 13.7661871,7.52381375 Z" id="Rectangle" fill-opacity="0.12" fill="#F50B0B" mask="url(#mask-9)" transform="translate(16.012354, 6.853469) rotate(-137.000000) translate(-16.012354, -6.853469) "></path>
                        <path d="M5.51963533,8.12517803 C6.9012098,9.18577145 8.23015747,9.78505214 9.50647833,9.92302012 C10.7827992,10.0609881 12.5499662,10.0097326 14.8079793,9.76925367 C13.2814918,10.6895507 11.5086886,11.05383 9.48956965,10.8620916 C7.47045072,10.6703531 6.14713928,9.75804862 5.51963533,8.12517803 Z" id="Rectangle" fill="url(#linearGradient-10)" opacity="0.5" mask="url(#mask-9)" transform="translate(10.163807, 9.518430) rotate(5.000000) translate(-10.163807, -9.518430) "></path>
                        <path d="M17.7005139,2.93868476 C18.4251107,3.36688924 19.4255695,3.64997547 20.7018903,3.78794344 C21.9782112,3.92591142 22.8115801,3.91267374 23.201997,3.74823039 C23.5431057,4.59249186 22.7041006,4.91875336 20.6849816,4.72701492 C18.6658627,4.53527647 17.6710401,3.93916641 17.7005139,2.93868476 Z" id="Rectangle" fill="url(#linearGradient-11)" opacity="0.699999988" mask="url(#mask-9)" transform="translate(20.487911, 3.859464) rotate(-146.000000) translate(-20.487911, -3.859464) "></path>
                        <path d="M-0.928834401,10.2171784 C0.452740071,11.2777718 1.78168774,11.8770525 3.0580086,12.0150205 C4.33432946,12.1529885 6.10149647,12.101733 8.35950961,11.861254 C6.83302208,12.7815511 5.06021885,13.1458304 3.04109992,12.954092 C1.02198099,12.7623535 -0.301330451,11.850049 -0.928834401,10.2171784 Z" id="Rectangle" fill="url(#linearGradient-10)" opacity="0.699999988" mask="url(#mask-9)" transform="translate(3.715338, 11.610430) rotate(39.000000) translate(-3.715338, -11.610430) "></path>
                        <path d="M4.53280078,2.23495483 C5.1827747,-0.409749016 10.6606133,-2.93191534 14.9117367,-1.79350725 C19.1628602,-0.65509915 19.5055224,5.92131931 17.1834364,8.35950961 C15.6353791,9.98496981 13.3774874,10.1898762 10.4097613,8.97422892 C6.05847166,6.24451542 4.09948484,3.99809072 4.53280078,2.23495483 Z" id="Rectangle" fill="#FD379C" filter="url(#filter-12)" mask="url(#mask-9)"></path>
                        <path d="M-6.50184081,5.8971829 C-3.74264818,10.3252372 -0.575970013,12.7823199 2.9981937,13.2684307 C10.5064663,14.2896075 16.4478836,14.1811007 19.7866119,13.2684307 C24.3028474,12.0338792 27.4600712,9.15912626 29.2582836,4.64417201 L29.2582836,20.4343568 L0.897698148,20.4343568 L-6.50184081,5.8971829 Z" id="Rectangle" fill="#FFD560" filter="url(#filter-13)" mask="url(#mask-9)"></path>
                    </g>
                    <g id="Oval-3" transform="translate(9.752761, 0.000000)">
                        <mask id="mask-15" fill="white">
                            <use xlink:href="#path-14"></use>
                        </mask>
                        <use id="Oval" fill="#FFC04C" xlink:href="#path-14"></use>
                        <path d="M7.53076539,0.449528554 C11.473379,1.43155191 13.5147328,2.98859969 13.6548268,5.12067191 C13.7949207,7.25274413 12.3109125,9.77788126 9.20280232,12.6960833 C9.97386182,9.14826073 10.2396786,6.57302289 10.0002528,4.9703698 C9.76082688,3.36771671 8.93766443,1.86076963 7.53076539,0.449528554 Z" id="Rectangle" fill="#FD379C" filter="url(#filter-16)" mask="url(#mask-15)"></path>
                        <path d="M7.0494035,7.78974004 C7.69031433,8.09875738 8.67393075,8.20435552 10.0002528,8.10653445 C11.3265748,8.00871339 12.3101912,7.61009759 12.951102,6.91068708 C12.2623861,8.38699753 11.2486646,9.18027394 9.90993752,9.29051632 C8.72929358,9.38774076 7.77578224,8.887482 7.0494035,7.78974004 Z" id="Rectangle" fill-opacity="0.12" fill="#F50B0B" mask="url(#mask-15)" transform="translate(10.000253, 8.106534) rotate(-58.000000) translate(-10.000253, -8.106534) "></path>
                        <path d="M6.63984271,10.9083604 C6.90103459,10.7760328 7.23302551,10.6733564 7.63581549,10.6003312 C8.03860547,10.5273061 8.300563,10.4032867 8.42168808,10.228273 C8.24191811,10.8710622 7.94875448,11.2336057 7.54219719,11.3159036 C7.1836481,11.3884834 6.88286328,11.2526357 6.63984271,10.9083604 Z" id="Rectangle" fill-opacity="0.12" fill="#F50B0B" mask="url(#mask-15)" transform="translate(7.530765, 10.781566) scale(1, -1) rotate(-143.000000) translate(-7.530765, -10.781566) "></path>
                        <path d="M-3.13051594,4.42474321 C-1.78476254,7.42019174 -0.240264388,9.08233586 1.50297852,9.41117557 C5.16502199,10.1019716 8.06285615,10.0285699 9.69126909,9.41117557 C11.8939929,8.57603775 13.4338798,6.63135196 14.31093,3.5771182 L14.31093,12.8685473 L0.478494397,12.8685473 L-3.13051594,4.42474321 Z" id="Rectangle" fill="#FFD560" filter="url(#filter-17)" mask="url(#mask-15)"></path>
                        <path d="M-1.08255692,3.77509927 C-1.19413033,3.4190587 1.51653122,2.56175789 3.25192457,3.54793872 C4.53518288,4.27718246 4.69234448,5.84476158 5.36956954,6.10545627 C6.25314868,6.44558601 7.63400665,6.3306682 7.74341579,6.49705185 C7.85282493,6.6634355 6.36554812,7.36770498 4.699775,7.08009731 C3.77634193,6.92065997 3.62199452,6.52793432 2.40078912,5.49034894 C1.97898492,5.13196707 1.72788137,5.01495161 1.0787552,4.59786118 C0.633551807,4.31179958 -0.970983513,4.13113985 -1.08255692,3.77509927 Z" id="Rectangle" fill="url(#linearGradient-18)" opacity="0.699999988" mask="url(#mask-15)" transform="translate(3.331601, 5.118757) rotate(93.000000) translate(-3.331601, -5.118757) "></path>
                        <path d="M1.39469842,9.70099413 C1.4787457,8.78142025 1.71846311,8.26734459 2.11385067,8.15876715 C2.47159048,8.43235479 2.61074941,9.00363244 2.53132744,9.87260009 C2.45190548,10.7415677 2.32277992,11.1879307 2.14395076,11.211689 C1.56040193,11.124133 1.31065114,10.620568 1.39469842,9.70099413 Z" id="Rectangle" fill="url(#linearGradient-19)" opacity="0.319999993" mask="url(#mask-15)" transform="translate(1.965899, 9.685228) rotate(-36.000000) translate(-1.965899, -9.685228) "></path>
                    </g>
                </g>
            </g>
        </g>
    </g>
</svg>