<svg xmlns="http://www.w3.org/2000/svg" viewBox="0 0 62.16 62.16"><defs><style>.cls-1{fill:#fac316;}.cls-2{fill:#fcea76;}.cls-3{fill:#fbe976;}.cls-4{fill:#231f20;}</style></defs><g id="Layer_2" data-name="Layer 2"><g id="Layer_1-2" data-name="Layer 1"><circle class="cls-1" cx="31.08" cy="31.08" r="31.08"/><path class="cls-2" d="M0,31.08a31.08,31.08,0,0,1,62.16,0"/><path class="cls-1" d="M31.08,53.77A22.69,22.69,0,1,1,53.77,31.08,22.72,22.72,0,0,1,31.08,53.77Z"/><path class="cls-3" d="M31.08,9.24A21.84,21.84,0,1,1,9.24,31.08,21.87,21.87,0,0,1,31.08,9.24m0-1.7A23.54,23.54,0,1,0,54.62,31.08,23.54,23.54,0,0,0,31.08,7.54Z"/><rect class="cls-4" x="26.67" y="13.14" width="8.82" height="4.57" rx="2.28"/><rect class="cls-4" x="26.67" y="44.45" width="8.82" height="4.57" rx="2.28"/><rect class="cls-4" x="28.83" y="15.93" width="4.51" height="29.26"/></g></g></svg>