<?xml version="1.0" encoding="UTF-8"?>
<svg width="80px" height="80px" viewBox="0 0 80 80" version="1.1" xmlns="http://www.w3.org/2000/svg" xmlns:xlink="http://www.w3.org/1999/xlink">
    <!-- Generator: Sketch 63.1 (92452) - https://sketch.com -->
    <title>ic_isr</title>
    <desc>Created with Sketch.</desc>
    <g id="Page-1" stroke="none" stroke-width="1" fill="none" fill-rule="evenodd">
        <g id="crypto" transform="translate(-360.000000, -421.000000)">
            <g id="ic_isr" transform="translate(360.000000, 421.000000)">
                <rect id="Rectangle" fill="#041E42" x="0" y="0" width="80" height="80" rx="40"></rect>
                <g id="Group-8" transform="translate(16.000000, 11.000000)" fill="#C0ECFF">
                    <path d="M31.3020937,10.2010313 C30.9674062,10.3913438 30.8499062,10.8185313 31.040375,11.1538438 C31.1644375,11.3715 31.39725,11.5066563 31.6477187,11.5066563 C31.7686562,11.5066563 31.8880312,11.4750938 31.992875,11.41525 L36.280375,8.97634375 L46.4494375,14.7610313 L24.6985,27.134 L14.52975,21.3494688 L27.360375,14.0505625 C27.6949062,13.86025 27.8125625,13.4332188 27.6220937,13.0979063 C27.52975,12.9357188 27.3795937,12.8191563 27.1992812,12.7697813 C27.0195937,12.7205625 26.8311562,12.7443125 26.6695937,12.8363438 L13.1169375,20.5457188 L2.947875,14.7610313 L24.6985,2.38821875 L34.8675625,8.17275 L31.3020937,10.2010313 Z M2.23365625,35.9180625 L17.4044375,44.5479063 C17.50975,44.6075938 17.6288125,44.6391563 17.749125,44.6391563 C17.9999062,44.6391563 18.2325625,44.5038438 18.356625,44.285875 C18.5469375,43.9510313 18.4295937,43.5236875 18.0949062,43.3332188 L2.23365625,34.3105625 L2.23365625,15.9619688 L24.0000625,28.3438438 L24.0000625,36.20775 L8.8294375,27.5780625 C8.49490625,27.3880625 8.06725,27.50525 7.87709375,27.8397813 C7.78459375,28.0019688 7.761,28.1904063 7.81053125,28.3704063 C7.85990625,28.55025 7.97646875,28.70025 8.13865625,28.7924375 L24.0000625,37.8154063 L24.0000625,55.2143125 L2.23365625,42.83275 L2.23365625,35.9180625 Z M40.5674062,38.0413438 C40.232875,38.2315 40.115375,38.6586875 40.3058437,38.9943125 C40.4299062,39.2119688 40.6627187,39.3472813 40.9131875,39.3472813 C41.0335,39.3472813 41.1527187,39.3157188 41.2581875,39.255875 L47.1636562,35.8966563 L47.1636562,42.83275 L34.6624062,49.9438438 L34.6624062,42.6013438 C34.6624062,42.2161875 34.3489687,41.9030625 33.9639687,41.9030625 C33.5788125,41.9030625 33.265375,42.2161875 33.265375,42.6013438 L33.265375,50.7385313 L25.3970937,55.2143125 L25.3970937,28.3438438 L47.1636562,15.9619688 L47.1636562,34.2893125 L40.5674062,38.0413438 Z M24.6985,0.780875 L0.836625,14.3547813 L0.836625,43.6450938 L24.6985,57.2193125 L48.5605312,43.6450938 L48.5605312,14.3547813 L24.6985,0.780875 Z" id="Fill-4"></path>
                    <path d="M41.5200625,28.7664688 C41.3292812,28.431625 40.9017812,28.3144375 40.5674062,28.5049063 L31.3020937,33.775375 C30.9675625,33.9655313 30.8500625,34.392875 31.0405312,34.7285 C31.16475,34.9461563 31.3974062,35.0814688 31.6477187,35.0814688 C31.7680312,35.0814688 31.88725,35.04975 31.992875,34.9899063 L41.2581875,29.7194375 C41.592875,29.5289688 41.710375,29.1017813 41.5200625,28.7664688" id="Fill-6"></path>
                </g>
            </g>
        </g>
    </g>
</svg>