<svg xmlns="http://www.w3.org/2000/svg" xmlns:xlink="http://www.w3.org/1999/xlink" viewBox="0 0 173.08 173.08"><defs><style>.cls-1{fill:#03071e;}.cls-2{fill:url(#linear-gradient);}.cls-3{fill:url(#linear-gradient-2);}.cls-4{fill:url(#linear-gradient-3);}</style><linearGradient id="linear-gradient" x1="24.31" y1="124.09" x2="94.4" y2="80.62" gradientUnits="userSpaceOnUse"><stop offset="0" stop-color="#5b15d5"/><stop offset="0.76" stop-color="#00e9df"/></linearGradient><linearGradient id="linear-gradient-2" x1="118.61" y1="105.53" x2="64.43" y2="70.94" xlink:href="#linear-gradient"/><linearGradient id="linear-gradient-3" x1="86.54" y1="29.38" x2="86.54" y2="88.48" gradientUnits="userSpaceOnUse"><stop offset="0.01" stop-color="#5b15d5"/><stop offset="0.75" stop-color="#03071e"/></linearGradient></defs><g id="Layer_2" data-name="Layer 2"><g id="레이어_1" data-name="레이어 1"><circle class="cls-1" cx="86.54" cy="86.54" r="86.54"/><path class="cls-2" d="M37.62,48.89v75.3l16.29,9.41L54,114.81l16.25,9.41V143l16.34,9.44V77.12ZM53.86,77.12l16.35,9.44v18.82L53.86,96Z"/><path class="cls-3" d="M86.53,77.12v75.33L102.87,143V124.22l32.59-18.88V48.89Zm16.34,28.26V86.56l16.34-9.44V96Z"/><polygon class="cls-4" points="37.62 48.88 62.08 62.93 86.55 48.88 110.99 62.95 135.46 48.88 86.55 20.63 37.62 48.88"/></g></g></svg>