<?xml version="1.0" encoding="UTF-8"?>
<svg width="108px" height="108px" viewBox="0 0 108 108" version="1.1" xmlns="http://www.w3.org/2000/svg" xmlns:xlink="http://www.w3.org/1999/xlink">
    <!-- Generator: Sketch 57.1 (83088) - https://sketch.com -->
    <title>DFA_icon_</title>
    <desc>Created with Sketch.</desc>
    <defs>
        <linearGradient x1="37.4864539%" y1="18.6864796%" x2="69.185221%" y2="104.958342%" id="linearGradient-1">
            <stop stop-color="#1A28A7" offset="0%"></stop>
            <stop stop-color="#8A1E94" offset="99.99%"></stop>
        </linearGradient>
        <linearGradient x1="76.793005%" y1="12.3311034%" x2="16.7124452%" y2="98.5462077%" id="linearGradient-2">
            <stop stop-color="#867BFF" offset="0%"></stop>
            <stop stop-color="#C052D2" offset="41.46%"></stop>
            <stop stop-color="#FFA858" offset="97.92%"></stop>
        </linearGradient>
        <radialGradient cx="100%" cy="100%" fx="100%" fy="100%" r="141.421356%" id="radialGradient-3">
            <stop stop-color="#00AE87" offset="0%"></stop>
            <stop stop-color="#0767B2" offset="100%"></stop>
        </radialGradient>
    </defs>
    <g id="K-coin" stroke="none" stroke-width="1" fill="none" fill-rule="evenodd">
        <g id="ICX">
            <g id="Group">
                <rect id="Rectangle" fill="#FFFFFF" x="0" y="0" width="108" height="108" rx="54"></rect>
                <g id="Define_logo-copy" transform="translate(18.000000, 20.314286)" fill-rule="nonzero">
                    <path d="M27.8273684,3.89842105 C25.1636842,6.74684211 7.47315789,28.5189474 7.47315789,28.5189474 C19.6547368,20.4931579 31.4021053,36.8415789 31.4021053,36.8415789 C31.4021053,36.8415789 49.6610526,62.2657895 53.0147368,64.5442105 C56.3684211,66.8210526 59.3021053,65.4505263 60.3505263,64.5442105 C61.3989474,63.6378947 63.8873684,62.3431579 69.1263158,54.0584211 C74.3652632,45.7736842 70.9168421,36.7989474 68.6021053,33.7342105 C65.6257895,29.6321053 60.1626316,22.8031579 54.8478947,16.2394737 C50.8847368,11.3431579 47.0621053,6.49421053 44.1063158,3.57315789 C36.2478947,-3.17842105 30.1847368,1.54894737 27.8273684,3.89842105 Z" id="Path" fill="url(#linearGradient-1)"></path>
                    <path d="M27.3678947,4.15736842 C33.7878947,-2.82789474 40.9689474,0.416842105 44.3936842,3.78947368 C47.82,7.16368421 50.4521053,10.6626316 54.7436842,16.0247368 C59.7726316,22.3073684 64.5647368,28.3894737 64.5647368,28.3894737 C52.2536842,18.9915789 40.5947368,36.9426316 40.5947368,36.9426316 C40.5947368,36.9426316 22.3357895,62.2784211 18.9821053,64.5473684 C15.6284211,66.8178947 12.6947368,65.4505263 11.6463158,64.5473684 C10.5978947,63.6442105 8.10947368,62.3557895 2.87052632,54.0994737 C-2.36842105,45.8431579 1.08,36.9 3.39473684,33.8463158 C8.59105263,26.7078947 20.7710526,11.3336842 27.3678947,4.15736842 Z" id="Path" fill="url(#linearGradient-2)"></path>
                </g>
                <g id="ORC" transform="translate(57.085714, 57.085714)">
                    <circle id="Oval" fill="url(#radialGradient-3)" cx="20.3142857" cy="20.3142857" r="20.3142857"></circle>
                    <path d="M8.56783304,19.4913309 C9.1402809,19.4913309 9.61169398,19.9269731 9.67200485,20.486597 L9.67852322,20.6083006 L9.67826215,20.6170305 L9.68452801,20.6170305 C9.68446274,25.5943949 13.1590818,29.7504252 17.7998047,30.7704469 C18.3694243,30.895265 18.9563793,30.9733275 19.5567267,30.9995598 L20.0094366,31.0094365 L20.0607384,31.0094365 C20.6740754,31.0094365 21.1714286,31.5094703 21.1714286,32.1264062 C21.1714286,32.7020905 20.7381787,33.1761116 20.1817463,33.2367558 L20.0607384,33.2433102 L20.012439,33.2421287 L20.012439,33.2433102 L20.1951934,33.2433102 C20.1354066,33.2441635 20.0754893,33.2446886 20.0154414,33.2446886 C19.0404464,33.2446886 18.0914286,33.1329063 17.1803324,32.9213536 C11.7094336,31.6540569 7.60536935,26.7906353 7.46107035,20.9388659 L7.45714286,20.6244476 L7.45714286,20.6083006 C7.45714286,19.9914303 7.95443078,19.4913309 8.56783304,19.4913309 Z M20.3142528,12.614652 C24.5747993,12.614652 28.0285714,16.0782787 28.0285714,20.3509817 C28.0285714,24.6235528 24.5747993,28.0871795 20.3142528,28.0871795 C16.0537722,28.0871795 12.6,24.6235528 12.6,20.3509817 C12.6,16.0782787 16.0537722,12.614652 20.3142528,12.614652 Z M20.3142528,15.8852397 C17.8550114,15.8852397 15.8613481,17.8845915 15.8613481,20.3509817 C15.8613481,22.81724 17.8550114,24.8165918 20.3142528,24.8165918 C22.77356,24.8165918 24.7672233,22.81724 24.7672233,20.3509817 C24.7672233,17.8845915 22.77356,15.8852397 20.3142528,15.8852397 Z M31.4571764,22.3566138 C32.088295,22.3566138 32.6,22.8697093 32.6,23.5027606 C32.6,24.1356772 32.088295,24.64884 31.4571764,24.64884 C30.8259907,24.64884 30.3142857,24.1356772 30.3142857,23.5027606 C30.3142857,22.8697093 30.8259907,22.3566138 31.4571764,22.3566138 Z M20.5919718,7.45752031 L20.6160727,7.45839011 L20.6160727,7.45714286 C27.4481644,7.45714286 33.0034681,12.9419737 33.1676918,19.7705679 L33.1714286,20.0772101 L33.1714286,20.0934243 C33.1714286,20.7103534 32.6741383,21.2105006 32.0607331,21.2105006 C31.4473279,21.2105006 30.9501029,20.7103534 30.9501029,20.0934243 L30.9502661,20.0853172 L30.9504293,20.0772101 C30.9477329,14.4348199 26.473702,9.84396617 20.8986636,9.69496274 L20.6190098,9.6912298 L20.6160727,9.69129545 L20.6160727,9.6900482 L20.5677731,9.6912298 C19.9543679,9.6912298 19.4571429,9.19114828 19.4571429,8.57421915 C19.4571429,7.95729002 19.9543679,7.45714286 20.5677731,7.45714286 L20.5919718,7.45752031 Z M9.17142857,16.0529915 C9.80252856,16.0529915 10.3142857,16.5661021 10.3142857,17.1991046 C10.3142857,17.8321071 9.80252856,18.3452177 9.17142857,18.3452177 C8.54032858,18.3452177 8.02857143,17.8321071 8.02857143,17.1991046 C8.02857143,16.5661021 8.54032858,16.0529915 9.17142857,16.0529915 Z" id="Combined-Shape" fill="#FFFFFF"></path>
                </g>
            </g>
        </g>
    </g>
</svg>