<?xml version="1.0" standalone="no"?>
<!DOCTYPE svg PUBLIC "-//W3C//DTD SVG 20010904//EN"
 "http://www.w3.org/TR/2001/REC-SVG-20010904/DTD/svg10.dtd">
<svg version="1.0" xmlns="http://www.w3.org/2000/svg"
 width="256.000000pt" height="256.000000pt" viewBox="0 0 256.000000 256.000000"
 preserveAspectRatio="xMidYMid meet">

<g transform="translate(0.000000,256.000000) scale(0.100000,-0.100000)"
fill="#000000" stroke="none">
<path d="M755 2241 l-540 -318 0 -643 0 -644 505 -298 c278 -164 521 -307 541
-318 l36 -19 539 318 539 317 0 644 0 645 -190 112 -190 113 -3 -638 -2 -638
-346 -203 c-263 -154 -351 -201 -364 -194 -10 4 -167 96 -349 203 l-331 194 0
406 0 406 346 203 c190 111 351 200 357 198 7 -3 87 -50 180 -106 l167 -101
-2 237 -3 237 -170 103 c-93 56 -172 102 -175 102 -3 0 -248 -143 -545 -318z"/>
<path d="M1100 1596 l-175 -102 0 -214 0 -214 175 -102 c96 -57 179 -103 184
-104 4 0 89 46 187 103 l178 102 0 215 0 215 -178 103 c-98 56 -183 102 -187
102 -5 -1 -88 -47 -184 -104z"/>
</g>
</svg>
