<svg width="67" height="67" viewBox="0 0 67 67" fill="none" xmlns="http://www.w3.org/2000/svg">
<path d="M67 0H0V67H67V0Z" fill="white"/>
<path d="M33.6411 26.0752L51.2821 33.9231L33.6411 5V26.0752Z" fill="#2F3030"/>
<path d="M33.6411 45.4103L51.2821 35.481L33.6411 27.9744V45.4103Z" fill="#131313"/>
<path d="M33.6411 47.3175V60.7948L50.6668 37.4102L33.6411 47.3175Z" fill="#323333"/>
<path d="M33.641 5L16 33.9231L33.641 26.0777V5Z" fill="#C9CDCE"/>
<path d="M16 35.4796L33.641 45.4103V27.9744L16 35.4796Z" fill="#343535"/>
<path d="M33.8462 60.7948V47.3201L16.8206 37.4102L33.8462 60.7948Z" fill="#828384"/>
<path d="M50.9373 64.9968C59.2215 64.9968 65.9373 58.2811 65.9373 49.9968C65.9373 41.7126 59.2215 34.9968 50.9373 34.9968C42.653 34.9968 35.9373 41.7126 35.9373 49.9968C35.9373 58.2811 42.653 64.9968 50.9373 64.9968Z" fill="url(#paint0_radial_11067583)"/>
<path d="M42.2637 49.3892C42.7166 49.3892 43.0839 49.7584 43.0839 50.2139L43.0838 50.2172L43.0837 50.2204H43.0883C43.0883 50.2215 43.0882 50.2226 43.0882 50.2236C43.0882 53.8957 45.6539 56.9645 49.0806 57.7176C49.6063 57.8328 50.1521 57.8941 50.7122 57.8941L50.7133 57.8941L50.7144 57.8941C50.7262 57.8945 50.7381 57.8941 50.7501 57.8941C51.2029 57.8941 51.5702 58.2633 51.5702 58.7189C51.5702 59.1743 51.2029 59.5436 50.7501 59.5436L50.7322 59.5433L50.7144 59.5427V59.5436H50.8493C50.8052 59.5442 50.7609 59.5446 50.7166 59.5446C49.9967 59.5446 49.2959 59.4621 48.6232 59.3059C44.5525 58.3629 41.5066 54.7237 41.4446 50.3584L41.4436 50.2259V50.2139C41.4436 49.7584 41.8108 49.3892 42.2637 49.3892ZM50.9373 44.3115C54.0832 44.3115 56.6335 46.869 56.6335 50.0239C56.6335 53.1788 54.0832 55.7363 50.9373 55.7363C47.7913 55.7363 45.2411 53.1788 45.2411 50.0239C45.2411 46.869 47.7913 44.3115 50.9373 44.3115ZM50.9373 46.7265C49.1214 46.7265 47.6492 48.2028 47.6492 50.0239C47.6492 51.845 49.1214 53.3213 50.9373 53.3213C52.7532 53.3213 54.2253 51.845 54.2253 50.0239C54.2253 48.2028 52.7532 46.7265 50.9373 46.7265ZM59.1651 51.5049C59.6312 51.5049 60.009 51.8838 60.009 52.3512C60.009 52.8185 59.6312 53.1975 59.1651 53.1975C58.6991 53.1975 58.3212 52.8185 58.3212 52.3512C58.3212 51.8838 58.6991 51.5049 59.1651 51.5049ZM51.1623 40.5032C56.229 40.5032 60.3461 44.5919 60.4297 49.6677L60.4309 49.8218C60.4307 49.8258 60.4309 49.8297 60.4309 49.8338C60.4309 50.2893 60.0637 50.6586 59.6108 50.6586C59.1579 50.6586 58.7907 50.2893 58.7907 49.8338L58.7908 49.8278L58.791 49.8218C58.789 45.6284 55.4423 42.2216 51.2884 42.1538L51.1623 42.1528L51.1601 42.1529C51.1483 42.1524 51.1364 42.1528 51.1244 42.1528C50.6715 42.1528 50.3044 41.7836 50.3044 41.328C50.3044 40.8725 50.6715 40.5032 51.1244 40.5032L51.1423 40.5035L51.1601 40.5041V40.5032H51.1623ZM42.7094 46.8503C43.1754 46.8503 43.5533 47.2292 43.5533 47.6966C43.5533 48.164 43.1754 48.5429 42.7094 48.5429C42.2434 48.5429 41.8655 48.164 41.8655 47.6966C41.8655 47.2292 42.2434 46.8503 42.7094 46.8503Z" fill="white"/>
<defs>
<radialGradient id="paint0_radial_11067583" cx="0" cy="0" r="1" gradientUnits="userSpaceOnUse" gradientTransform="translate(65.9373 64.9968) scale(42.4264)">
<stop stop-color="#00AE87"/>
<stop offset="1" stop-color="#0767B2"/>
</radialGradient>
</defs>
</svg>
