<?xml version="1.0" encoding="UTF-8"?>
<svg width="80px" height="80px" viewBox="0 0 80 80" version="1.1" xmlns="http://www.w3.org/2000/svg" xmlns:xlink="http://www.w3.org/1999/xlink">
    <!-- Generator: Sketch 63.1 (92452) - https://sketch.com -->
    <title>ic_khandy</title>
    <desc>Created with Sketch.</desc>
    <defs>
        <radialGradient cx="100%" cy="100%" fx="100%" fy="100%" r="141.421356%" id="radialGradient-1">
            <stop stop-color="#00AE87" offset="0%"></stop>
            <stop stop-color="#0767B2" offset="100%"></stop>
        </radialGradient>
    </defs>
    <g id="ic_khandy" stroke="none" stroke-width="1" fill="none" fill-rule="evenodd">
        <rect fill="#FFFFFF" x="0" y="0" width="80" height="80"></rect>
        <g>
            <rect id="Rectangle" fill="#FFFFFF" x="0" y="0" width="80" height="80"></rect>
            <path d="M51.3343799,15 C55.0314172,15 58.0346377,17.9672461 58.0943325,21.6489598 L58.0952381,21.7607433 L58.0952381,59.9388694 C58.0952381,63.6731871 55.068761,66.7006803 51.3343799,66.7006803 C47.6378711,66.7006803 44.6341326,63.7334341 44.5744275,60.0506844 L44.5735217,59.9388694 L44.5735217,40.7498527 L44.5735217,40.7498527 L44.5735217,21.7607433 C44.5735217,18.0274933 47.6005325,15 51.3343799,15 Z M26.13884,40.8492725 C26.13884,45.9288467 30.2133136,50.0545697 35.2728603,50.1365763 L35.4264783,50.1378203 L35.4264783,59.9388694 C35.4264783,63.6731871 32.4000012,66.7006803 28.6656201,66.7006803 C24.9696399,66.7006803 21.9653833,63.7334341 21.9056679,60.0506844 L21.9047619,59.9388694 L21.9047619,21.7607433 C21.9047619,18.0274933 24.9323066,15 28.6656201,15 C32.3626574,15 35.3658779,17.9672461 35.4255727,21.6489598 L35.4264783,21.7607433 L35.4264783,31.5044479 C40.4779092,31.5044479 44.5735217,35.6437531 44.5735217,40.7498527 C44.5735217,45.8580784 40.4779092,49.9973836 35.4264783,49.9973836 L35.4264783,49.9973836 L35.4264783,31.56286 C30.2960418,31.56286 26.13884,35.7205249 26.13884,40.8492725 Z" id="Combined-Shape" fill="#F4A64F" fill-rule="nonzero"></path>
            <g id="ORC" transform="translate(42.000000, 42.000000)" fill-rule="nonzero">
                <circle id="Oval" fill="url(#radialGradient-1)" cx="15" cy="15" r="15"></circle>
                <path d="M6.32645899,14.3923329 C6.77934496,14.3923329 7.14658887,14.7616047 7.14658887,15.2170996 L7.14652863,15.2203226 L7.14639609,15.2235457 L7.1510228,15.2235457 C7.1510228,15.224612 7.15097461,15.2257267 7.15097461,15.226793 C7.15097461,18.8988148 9.71662156,21.9676135 13.1433157,22.7207941 C13.6690721,22.8360008 14.2148294,22.8972632 14.7749004,22.8972632 L14.7759909,22.8972391 L14.7771174,22.8972148 C14.7889733,22.8976509 14.8008292,22.8972632 14.8127815,22.8972632 C15.2656675,22.8972632 15.6329114,23.2664865 15.6329114,23.7220299 C15.6329114,24.1774764 15.2656675,24.5467481 14.8127815,24.5467481 L14.7949133,24.5464937 L14.7771174,24.5458756 L14.7771174,24.5467481 L14.9120627,24.5467481 C14.8679163,24.5473781 14.8236735,24.5477658 14.7793344,24.5477658 C14.0594013,24.5477658 13.3586498,24.4652261 12.6858995,24.3090163 C8.61518717,23.3660634 5.56929985,19.7268085 5.50729276,15.3615241 L5.50632911,15.2290225 L5.50632911,15.2170996 C5.50632911,14.7616047 5.87352484,14.3923329 6.32645899,14.3923329 Z M14.9999757,9.31461647 C18.1459488,9.31461647 20.6962025,11.8721468 20.6962025,15.0270962 C20.6962025,18.1819482 18.1459488,20.7394785 14.9999757,20.7394785 C11.8540512,20.7394785 9.30379747,18.1819482 9.30379747,15.0270962 C9.30379747,11.8721468 11.8540512,9.31461647 14.9999757,9.31461647 Z M14.9999757,11.7296074 C13.1840801,11.7296074 11.7119659,13.205922 11.7119659,15.0270962 C11.7119659,16.848173 13.1840801,18.3244876 14.9999757,18.3244876 C16.8159199,18.3244876 18.2880341,16.848173 18.2880341,15.0270962 C18.2880341,13.205922 16.8159199,11.7296074 14.9999757,11.7296074 Z M23.2278729,16.5080481 C23.6938887,16.5080481 24.07173,16.8869161 24.07173,17.3543591 C24.07173,17.8217026 23.6938887,18.2006203 23.2278729,18.2006203 C22.7618075,18.2006203 22.3839663,17.8217026 22.3839663,17.3543591 C22.3839663,16.8869161 22.7618075,16.5080481 23.2278729,16.5080481 Z M15.2250073,5.50632911 C20.2917482,5.50632911 24.4088115,9.59508845 24.4923763,14.6708347 L24.4936709,14.8249442 C24.4934299,14.8289673 24.4936709,14.8328935 24.4936709,14.8369167 C24.4936709,15.2924551 24.1264734,15.6617621 23.6735372,15.6617621 C23.2206008,15.6617621 22.8534515,15.2924551 22.8534515,14.8369167 L22.853572,14.8309304 L22.8536924,14.8249442 C22.8516885,10.6315412 19.5050058,7.22471588 15.3511268,7.1569987 L15.2250073,7.15597137 L15.2228385,7.15601985 C15.2109825,7.15558359 15.1991266,7.15597137 15.1871742,7.15597137 C14.7342379,7.15597137 14.3670886,6.78671286 14.3670886,6.33117448 C14.3670886,5.8756361 14.7342379,5.50632911 15.1871742,5.50632911 L15.2050425,5.50660783 L15.2228385,5.50725008 L15.2228385,5.50632911 L15.2250073,5.50632911 Z M6.77215191,11.8534747 C7.238154,11.8534747 7.61603375,12.2323538 7.61603375,12.6997608 C7.61603375,13.1671677 7.238154,13.5460469 6.77215191,13.5460469 C6.30614979,13.5460469 5.92827004,13.1671677 5.92827004,12.6997608 C5.92827004,12.2323538 6.30614979,11.8534747 6.77215191,11.8534747 Z" id="Combined-Shape" fill="#FFFFFF"></path>
            </g>
        </g>
    </g>
</svg>