<svg version="1.1" id="Layer_1" xmlns="http://www.w3.org/2000/svg" x="0" y="0" viewBox="0 0 5000 5000" xml:space="preserve"><style>.st1{fill:#010101}</style><path d="M3640.8 1219.9l-177 177c-.4.4-.8.9-1.3 1.3l-695.7 695.7c-13 13-34.1 13-47.1 0s-13-34.1 0-47.1l696.8-696.8c72.6-73.8 72.3-193-1.1-266.3-73.8-73.7-193.7-73.7-267.3-.1L2472 1765.2l-443.6 501.6c-12.2 13.8-33.2 15.1-47 2.9-13.8-12.2-15.1-33.2-2.9-47l453.7-513c15.1-45.8 12.2-94.9-8.3-138.8-21.3-45.8-59.2-80.5-106.7-97.8-94-34.2-153.5-10.9-277.6 108.6-5.6 5.2-565.6 528.1-636.3 1078.8-12.9 111.1-7.7 222.8 15.4 332.1 41 194.2 137.3 371.5 278.3 512.5 193.8 193.8 451.6 300.6 725.7 300.6s531.9-106.8 725.7-300.6l1022.9-1022.8c73.7-73.7 73.7-193.7 0-267.4-73.4-73.4-192.6-73.7-266.4-1L3395.8 2723c-13 13-34.1 13-47.1 0s-13-34.1 0-47.1l508-508 1.2-1.2 233.8-233.8c73.7-73.7 73.7-193.7 0-267.4-35.7-35.7-83.2-55.4-133.7-55.4-50.5 0-98 19.7-133.7 55.4l-743.1 743c-13 13-34.1 13-47.1 0s-13-34.1 0-47.1l874-874c73.7-73.7 73.7-193.7 0-267.4-73.6-73.8-193.5-73.9-267.3-.1z" fill="#f5ba23"/><path class="st1" d="M3281.7 1028.4c48.4 0 96.9 18.4 133.8 55.3 73.4 73.4 73.7 192.5 1.1 266.3l-696.8 696.8c-13 13-13 34.1 0 47.1 6.5 6.5 15 9.8 23.5 9.8s17-3.3 23.5-9.8l695.7-695.7c.4-.4.8-.9 1.3-1.3l177-177c36.9-36.9 85.3-55.3 133.7-55.3 48.4 0 96.9 18.4 133.7 55.3 73.7 73.7 73.7 193.7 0 267.4l-874 874c-13 13-13 34.1 0 47.1 6.5 6.5 15 9.8 23.5 9.8s17-3.3 23.5-9.8l743.1-743c35.7-35.7 83.2-55.4 133.7-55.4 50.5 0 98 19.7 133.7 55.4 73.7 73.7 73.7 193.7 0 267.4L3858 2166.6l-1.2 1.2-508 508c-13 13-13 34.1 0 47.1 6.5 6.5 15 9.8 23.5 9.8s17-3.3 23.5-9.8l509.1-509.1c36.7-36.2 84.7-54.3 132.7-54.3 48.4 0 96.8 18.4 133.7 55.3 73.7 73.7 73.7 193.7 0 267.4L3148.5 3505.1c-193.8 193.8-451.6 300.6-725.7 300.6s-531.9-106.8-725.7-300.6c-141-141.1-237.3-318.3-278.3-512.5-23.1-109.3-28.3-221.1-15.4-332.1 70.8-550.7 630.7-1073.6 636.3-1078.8 90.3-87 146.4-123 206.4-123 22.5 0 45.5 5 71.1 14.4 47.5 17.3 85.4 52 106.7 97.8 20.5 43.9 23.4 93 8.3 138.8l-453.7 513c-12.2 13.8-10.9 34.8 2.9 47 6.4 5.6 14.2 8.4 22 8.4 9.2 0 18.4-3.8 25-11.2l443.6-501.6 676.1-681.6c36.9-36.9 85.3-55.3 133.6-55.3m0-100c-37.5 0-74 7.1-108.6 21.1-35.9 14.5-68.1 35.9-95.6 63.4l-.1.1-.1.1-548.3 552.7c-3.9-12.7-8.7-25.1-14.4-37.3-16.2-34.7-38.6-65.4-66.6-91-28-25.7-60.5-45.3-96.5-58.4-37.7-13.7-72.2-20.4-105.3-20.4-48.5 0-95.5 14.2-143.7 43.3-37.9 23-78.5 56-131.6 107.1-13 12.2-155.4 147.2-305 347.5-90.3 120.9-165.6 241.8-223.6 359.3-34.9 70.6-64 140.9-86.4 208.9-25 75.9-42.4 150.9-51.6 222.8l-.1.6-.1.6c-14.2 121.8-8.5 244.4 16.9 364.4 45 213.2 150.7 407.8 305.4 562.6 52.7 52.7 110.4 100.1 171.7 141.2 60.9 40.7 126 75.6 193.5 103.5 67.5 27.9 138.1 49.3 210 63.6 72.3 14.3 146.8 21.6 221.2 21.6 74.5 0 148.9-7.3 221.2-21.6 71.9-14.3 142.5-35.6 210-63.6 67.5-27.9 132.6-62.8 193.5-103.5 61.3-41 119.1-88.5 171.7-141.1L4242 2553c27.6-27.6 48.9-59.8 63.5-95.7 14-34.6 21.1-71.2 21.1-108.7s-7.1-74.1-21.1-108.7c-14.6-36-35.9-68.2-63.5-95.7-27.5-27.5-59.7-48.9-95.7-63.5-15.2-6.1-30.7-11-46.6-14.4l62.8-62.8c27.5-27.5 48.9-59.8 63.5-95.7 14-34.6 21.1-71.2 21.1-108.7s-7.1-74.1-21.1-108.7c-14.6-36-35.9-68.2-63.5-95.7-27.1-27.1-58.6-48.2-93.7-62.8-17.7-7.3-35.9-12.8-54.6-16.5 11.2-16.6 20.6-34.3 28.2-53 14-34.6 21.1-71.2 21.1-108.7s-7.1-74.1-21.1-108.7c-14.6-36-35.9-68.2-63.5-95.7-27.6-27.6-59.8-48.9-95.7-63.5-34.6-14-71.2-21.1-108.7-21.1s-74.1 7.1-108.7 21.1c-36 14.6-68.2 35.9-95.7 63.5l-6 6c-3.5-16-8.4-31.7-14.6-47.1-14.6-35.8-35.8-67.8-63.2-95.2-27.6-27.6-59.8-48.9-95.8-63.5-34.7-14-71.3-21.1-108.8-21.1z"/><path d="M3461.4 1219.9l-177 177c-.4.4-.8.9-1.3 1.3l-695.7 695.7c-13 13-34.1 13-47.1 0s-13-34.1 0-47.1l696.8-696.8c72.6-73.8 72.3-193-1.1-266.3-73.8-73.7-193.7-73.7-267.3-.1l-676.1 681.6-443.6 501.6c-12.2 13.8-33.2 15.1-47 2.9-13.8-12.2-15.1-33.2-2.9-47l453.7-513c15.1-45.8 12.2-94.9-8.3-138.8-21.3-45.8-59.2-80.5-106.7-97.8-94-34.2-153.5-10.9-277.6 108.6-5.6 5.2-565.6 528.1-636.3 1078.8-12.9 111.1-7.7 222.8 15.4 332.1 41 194.2 137.3 371.5 278.3 512.5 193.8 193.8 451.6 300.6 725.7 300.6s531.9-106.8 725.7-300.6l1022.9-1022.8c73.7-73.7 73.7-193.7 0-267.4-73.4-73.4-192.6-73.7-266.4-1L3216.4 2723c-13 13-34.1 13-47.1 0s-13-34.1 0-47.1l508-508 1.2-1.2 233.8-233.8c73.7-73.7 73.7-193.7 0-267.4-35.7-35.7-83.2-55.4-133.7-55.4-50.5 0-98 19.7-133.7 55.4l-743.1 743c-13 13-34.1 13-47.1 0s-13-34.1 0-47.1l874-874c73.7-73.7 73.7-193.7 0-267.4-73.6-73.8-193.5-73.9-267.3-.1z" fill="#ffd55a"/><path class="st1" d="M3102.4 1028.4c48.4 0 96.9 18.4 133.8 55.3 73.4 73.4 73.7 192.5 1.1 266.3l-696.8 696.8c-13 13-13 34.1 0 47.1 6.5 6.5 15 9.8 23.5 9.8s17-3.3 23.5-9.8l695.7-695.7c.4-.4.8-.9 1.3-1.3l177-177c36.9-36.9 85.3-55.3 133.7-55.3 48.4 0 96.9 18.4 133.7 55.3 73.7 73.7 73.7 193.7 0 267.4l-874 874c-13 13-13 34.1 0 47.1 6.5 6.5 15 9.8 23.5 9.8s17-3.3 23.5-9.8l743.1-743c35.7-35.7 83.2-55.4 133.7-55.4 50.5 0 98 19.7 133.7 55.4 73.7 73.7 73.7 193.7 0 267.4l-233.8 233.8-1.2 1.2-508 508c-13 13-13 34.1 0 47.1 6.5 6.5 15 9.8 23.5 9.8s17-3.3 23.5-9.8l509.1-509.1c36.7-36.2 84.7-54.3 132.7-54.3 48.4 0 96.8 18.4 133.7 55.3 73.7 73.7 73.7 193.7 0 267.4L2969.1 3505.1c-193.8 193.8-451.6 300.6-725.7 300.6s-531.9-106.8-725.7-300.6c-141-141.1-237.3-318.3-278.3-512.5-23.1-109.3-28.3-221.1-15.4-332.1 70.8-550.7 630.7-1073.6 636.3-1078.8 90.3-87 146.4-123 206.4-123 22.5 0 45.5 5 71.1 14.4 47.5 17.3 85.4 52 106.7 97.8 20.5 43.9 23.4 93 8.3 138.8l-453.7 513c-12.2 13.8-10.9 34.8 2.9 47 6.4 5.6 14.2 8.4 22 8.4 9.2 0 18.4-3.8 25-11.2l443.6-501.6 676.1-681.6c36.9-36.9 85.3-55.3 133.7-55.3m0-100c-37.5 0-74 7.1-108.6 21.1-35.9 14.5-68.1 35.9-95.6 63.4l-.1.1-.1.1-548.2 552.6c-3.9-12.7-8.7-25.1-14.4-37.3-16.2-34.7-38.6-65.4-66.6-91-28-25.7-60.5-45.3-96.5-58.4-37.7-13.7-72.2-20.4-105.3-20.4-48.5 0-95.5 14.2-143.7 43.3-37.9 23-78.5 56-131.6 107.1-13 12.2-155.4 147.2-305 347.5-90.3 120.9-165.6 241.8-223.6 359.3-34.9 70.6-64 140.9-86.4 208.9-25 75.9-42.4 150.9-51.6 222.8l-.1.6-.1.6c-14.2 121.8-8.5 244.4 16.9 364.4 45 213.2 150.7 407.8 305.4 562.6 52.7 52.7 110.4 100.1 171.7 141.2 60.9 40.7 126 75.6 193.5 103.5 67.5 27.9 138.1 49.3 210 63.6 72.3 14.3 146.8 21.6 221.2 21.6 74.5 0 148.9-7.3 221.2-21.6 71.9-14.3 142.5-35.6 210-63.6 67.5-27.9 132.6-62.8 193.5-103.5 61.3-41 119.1-88.5 171.7-141.1L4062.6 2553c27.6-27.6 48.9-59.8 63.5-95.7 14-34.6 21.1-71.2 21.1-108.7s-7.1-74.1-21.1-108.7c-14.6-36-35.9-68.2-63.5-95.7-27.5-27.5-59.7-48.9-95.7-63.5-15.2-6.1-30.7-11-46.6-14.4l62.8-62.8c27.5-27.5 48.9-59.8 63.5-95.7 14-34.6 21.1-71.2 21.1-108.7s-7.1-74.1-21.1-108.7c-14.6-36-35.9-68.2-63.5-95.7-27.1-27.1-58.6-48.2-93.7-62.8-17.7-7.3-35.9-12.8-54.6-16.5 11.2-16.6 20.6-34.3 28.2-53 14-34.6 21.1-71.2 21.1-108.7s-7.1-74.1-21.1-108.7c-14.6-36-35.9-68.2-63.5-95.7-27.6-27.6-59.8-48.9-95.7-63.5-34.6-14-71.2-21.1-108.7-21.1s-74.1 7.1-108.7 21.1c-36 14.6-68.2 35.9-95.7 63.5l-6 6c-3.5-16-8.4-31.7-14.6-47.1-14.6-35.8-35.8-67.8-63.2-95.2-27.6-27.6-59.8-48.9-95.8-63.5-34.7-14-71.2-21.1-108.7-21.1zm-1821.3 987.3c-11.4 0-22.8-3.9-32.2-11.7l-706.6-594.8c-21.1-17.8-23.8-49.3-6.1-70.5 17.8-21.1 49.3-23.8 70.5-6.1l706.6 594.8c21.1 17.8 23.8 49.3 6.1 70.5-9.9 11.7-24.1 17.8-38.3 17.8zm438.1-511.8c-16.1 0-31.9-7.7-41.5-22.1l-471.6-700c-15.4-22.9-9.4-54 13.5-69.4 22.9-15.4 54-9.4 69.4 13.5l471.6 700c15.4 22.9 9.4 54-13.5 69.4-8.6 5.8-18.3 8.6-27.9 8.6z"/><path class="st1" d="M2317.6 1235.5c-27.6 0-50-22.4-50-50v-800c0-27.6 22.4-50 50-50s50 22.4 50 50v800c0 27.6-22.4 50-50 50zm2107 2437.8c-7.4 0-15-1.7-22.1-5.2l-750-370.1c-24.8-12.2-34.9-42.2-22.7-67 12.2-24.8 42.2-34.9 67-22.7l750 370.1c24.8 12.2 34.9 42.2 22.7 67-8.8 17.7-26.5 27.9-44.9 27.9zm-460 612.1c-13.5 0-26.9-5.4-36.8-16.1l-600-651.9c-18.7-20.3-17.4-51.9 2.9-70.7 20.3-18.7 51.9-17.4 70.7 2.9l600 651.9c18.7 20.3 17.4 51.9-2.9 70.7-9.6 8.8-21.8 13.2-33.9 13.2zm-753.1 378.7c-21.8 0-41.9-14.4-48.1-36.5l-210.8-750c-7.5-26.6 8-54.2 34.6-61.7s54.2 8 61.7 34.6l210.8 750c7.5 26.6-8 54.2-34.6 61.7-4.6 1.3-9.1 1.9-13.6 1.9z"/></svg>