<?xml version="1.0" encoding="utf-8"?>
<!-- Generator: Adobe Illustrator 26.5.0, SVG Export Plug-In . SVG Version: 6.00 Build 0)  -->
<svg version="1.1" id="Layer_1" xmlns="http://www.w3.org/2000/svg" xmlns:xlink="http://www.w3.org/1999/xlink" x="0px" y="0px"
	 viewBox="0 0 600 600" style="enable-background:new 0 0 600 600;" xml:space="preserve">
<style type="text/css">
	.st0{fill-rule:evenodd;clip-rule:evenodd;fill:#1A56FF;}
	.st1{fill-rule:evenodd;clip-rule:evenodd;fill:#FFFFFF;}
</style>
<g>
	<rect class="st0" width="600" height="600"/>
</g>
<g>
	<g>
		<path class="st1" d="M473,245.2L362.6,436.3c-0.9,1.5,1.1,2.9,2.3,1.7l52.4-58.2c1.3-1.4,3.6-1.2,4.6,0.5l49.8,86.3
			c1.1,1.9-0.3,4.3-2.5,4.3l-124.1,0c-1.5,0-2.9-0.8-3.7-2.1l-63.3-109.6c-0.8-1.3-0.8-2.9,0-4.3L406,133.4c1.1-1.9,3.8-1.9,4.9,0
			L473,240.9C473.8,242.2,473.8,243.9,473,245.2z M126.9,359.1L189,466.6c1.1,1.9,3.8,1.9,4.9,0l127.8-221.4c0.8-1.3,0.8-2.9,0-4.3
			l-63.3-109.6c-0.8-1.3-2.2-2.1-3.7-2.1l-124.1,0c-2.2,0-3.6,2.4-2.5,4.3l49.8,86.3c1,1.7,3.3,1.9,4.6,0.5L235,162
			c1.1-1.3,3.1,0.2,2.3,1.7L126.9,354.8C126.2,356.1,126.2,357.8,126.9,359.1z"/>
	</g>
</g>
</svg>
