<svg width="72" height="72" viewBox="0 0 72 72" fill="none" xmlns="http://www.w3.org/2000/svg">
<path d="M72 0H0V72H72V0Z" fill="white"/>
<path d="M10.4154 34.1762C11.7492 34.1762 12.8307 35.2685 12.8307 36.6158L12.8305 36.6253L12.8302 36.6349H12.8438C12.8438 36.638 12.8436 36.6413 12.8436 36.6445C12.8436 47.5058 20.3997 56.5828 30.4917 58.8106C32.0401 59.1514 33.6474 59.3326 35.2968 59.3326L35.3 59.3325L35.3034 59.3325V59.3353C35.3383 59.3338 35.3732 59.3326 35.4084 59.3326C36.7422 59.3326 37.8238 60.4247 37.8238 61.7721C37.8238 63.1193 36.7422 64.2115 35.4084 64.2115L35.3558 64.2108L35.3034 64.209V64.2115H35.7008C35.5708 64.2134 35.4405 64.2146 35.3099 64.2146C33.1896 64.2146 31.1258 63.9704 29.1445 63.5084C17.1559 60.7192 8.18546 49.9549 8.00284 37.043L8 36.6511C8.00071 36.6393 8 36.6275 8 36.6158C8 35.2685 9.08143 34.1762 10.4154 34.1762ZM36.1072 19.3716C45.3502 19.3716 52.8429 26.9124 52.8429 36.2147C52.8429 45.5167 45.3502 53.0575 36.1072 53.0575C26.8644 53.0575 19.3716 45.5167 19.3716 36.2147C19.3716 26.9124 26.8644 19.3716 36.1072 19.3716ZM36.1072 26.4922C30.772 26.4922 26.4469 30.845 26.4469 36.2147C26.4469 41.5841 30.772 45.937 36.1072 45.937C41.4425 45.937 45.7676 41.5841 45.7676 36.2147C45.7676 30.845 41.4425 26.4922 36.1072 26.4922ZM60.2453 40.3985C61.6079 40.3985 62.7126 41.5031 62.7126 42.866C62.7126 44.2286 61.6079 45.3333 60.2453 45.3333C58.8826 45.3333 57.7778 44.2286 57.7778 42.866C57.7778 41.5031 58.8826 40.3985 60.2453 40.3985ZM36.7029 8C51.6249 8 63.7501 20.094 63.9962 35.1073L64 35.5631C63.9993 35.575 64 35.5866 64 35.5985C64 36.946 62.9186 38.0383 61.5846 38.0383C60.2507 38.0383 59.1694 36.946 59.1694 35.5985L59.1698 35.5808L59.1701 35.5631C59.1641 23.0344 49.1078 12.8794 36.7029 12.8794L36.6998 12.8795L36.6965 12.8795V12.8768C36.6616 12.8783 36.6267 12.8794 36.5915 12.8794C35.2575 12.8794 34.1762 11.7872 34.1762 10.4398C34.1762 9.09236 35.2575 8 36.5915 8L36.6441 8.00082L36.6965 8.00272V8H36.7029ZM11.7548 26.6667C13.1173 26.6667 14.2222 27.7713 14.2222 29.1341C14.2222 30.4969 13.1173 31.6015 11.7548 31.6015C10.3922 31.6015 9.28736 30.4969 9.28736 29.1341C9.28736 27.7713 10.3922 26.6667 11.7548 26.6667Z" fill="url(#paint0_radial_11067571)"/>
<path d="M53 68C61.2843 68 68 61.2843 68 53C68 44.7157 61.2843 38 53 38C44.7157 38 38 44.7157 38 53C38 61.2843 44.7157 68 53 68Z" fill="url(#paint1_radial_11067571)"/>
<path d="M44.3265 52.3924C44.7794 52.3924 45.1466 52.7616 45.1466 53.2171L45.1465 53.2203L45.1464 53.2236H45.151C45.151 53.2246 45.151 53.2257 45.151 53.2268C45.151 56.8988 47.7166 59.9676 51.1433 60.7208C51.6691 60.836 52.2148 60.8973 52.7749 60.8973L52.776 60.8973L52.7771 60.8972C52.789 60.8977 52.8008 60.8973 52.8128 60.8973C53.2657 60.8973 53.6329 61.2665 53.6329 61.722C53.6329 62.1775 53.2657 62.5468 52.8128 62.5468L52.7949 62.5465L52.7771 62.5459V62.5468H52.9121C52.8679 62.5474 52.8237 62.5478 52.7794 62.5478C52.0594 62.5478 51.3587 62.4652 50.6859 62.309C46.6152 61.3661 43.5693 57.7268 43.5073 53.3615L43.5063 53.229V53.2171C43.5063 52.7616 43.8735 52.3924 44.3265 52.3924ZM53 47.3146C56.146 47.3146 58.6962 49.8722 58.6962 53.0271C58.6962 56.182 56.146 58.7395 53 58.7395C49.8541 58.7395 47.3038 56.182 47.3038 53.0271C47.3038 49.8722 49.8541 47.3146 53 47.3146ZM53 49.7296C51.1841 49.7296 49.712 51.2059 49.712 53.0271C49.712 54.8482 51.1841 56.3245 53 56.3245C54.8159 56.3245 56.2881 54.8482 56.2881 53.0271C56.2881 51.2059 54.8159 49.7296 53 49.7296ZM61.2279 54.5081C61.6939 54.5081 62.0717 54.8869 62.0717 55.3544C62.0717 55.8217 61.6939 56.2006 61.2279 56.2006C60.7618 56.2006 60.384 55.8217 60.384 55.3544C60.384 54.8869 60.7618 54.5081 61.2279 54.5081ZM53.225 43.5063C58.2918 43.5063 62.4088 47.5951 62.4924 52.6709L62.4937 52.825C62.4934 52.829 62.4937 52.8329 62.4937 52.8369C62.4937 53.2925 62.1265 53.6618 61.6736 53.6618C61.2206 53.6618 60.8535 53.2925 60.8535 52.8369L60.8536 52.8309L60.8537 52.825C60.8517 48.6316 57.505 45.2247 53.3511 45.157L53.225 45.156L53.2229 45.156C53.211 45.1556 53.1991 45.156 53.1872 45.156C52.7343 45.156 52.3671 44.7867 52.3671 44.3312C52.3671 43.8757 52.7343 43.5063 53.1872 43.5063L53.2051 43.5066L53.2229 43.5073V43.5063H53.225ZM44.7722 49.8535C45.2382 49.8535 45.6161 50.2324 45.6161 50.6998C45.6161 51.1672 45.2382 51.5461 44.7722 51.5461C44.3062 51.5461 43.9283 51.1672 43.9283 50.6998C43.9283 50.2324 44.3062 49.8535 44.7722 49.8535Z" fill="white"/>
<defs>
<radialGradient id="paint0_radial_11067571" cx="0" cy="0" r="1" gradientUnits="userSpaceOnUse" gradientTransform="translate(-2.66683 -97.5413) rotate(-135) scale(79.1959 79.5)">
<stop stop-color="#00AE87"/>
<stop offset="1" stop-color="#0767B2"/>
</radialGradient>
<radialGradient id="paint1_radial_11067571" cx="0" cy="0" r="1" gradientUnits="userSpaceOnUse" gradientTransform="translate(68 68) scale(42.4264)">
<stop stop-color="#00AE87"/>
<stop offset="1" stop-color="#0767B2"/>
</radialGradient>
</defs>
</svg>
