<?xml version="1.0" encoding="UTF-8"?>
<svg width="80px" height="80px" viewBox="0 0 80 80" version="1.1" xmlns="http://www.w3.org/2000/svg" xmlns:xlink="http://www.w3.org/1999/xlink">
    <!-- Generator: Sketch 63.1 (92452) - https://sketch.com -->
    <title>ic_korc</title>
    <desc>Created with Sketch.</desc>
    <defs>
        <radialGradient cx="100%" cy="100%" fx="100%" fy="100%" r="141.692522%" gradientTransform="translate(1.000000,1.000000),scale(1.000000,0.996183),rotate(-134.890454),translate(-1.000000,-1.000000)" id="radialGradient-1">
            <stop stop-color="#00AE87" offset="0%"></stop>
            <stop stop-color="#0767B2" offset="100%"></stop>
        </radialGradient>
        <radialGradient cx="100%" cy="100%" fx="100%" fy="100%" r="141.421356%" id="radialGradient-2">
            <stop stop-color="#00AE87" offset="0%"></stop>
            <stop stop-color="#0767B2" offset="100%"></stop>
        </radialGradient>
    </defs>
    <g id="ic_korc" stroke="none" stroke-width="1" fill="none" fill-rule="evenodd">
        <rect fill="#FFFFFF" x="0" y="0" width="80" height="80"></rect>
        <g>
            <rect id="Rectangle" fill="#FFFFFF" x="0" y="0" width="80" height="80"></rect>
            <path d="M14.4153611,38.1762452 C15.7491536,38.1762452 16.8307222,39.268498 16.8307222,40.6157867 L16.8305448,40.62532 L16.8301543,40.6348533 L16.8437805,40.6348533 C16.8437805,40.6380074 16.8436385,40.6413045 16.8436385,40.6444585 C16.8436385,51.5057722 24.3997146,60.5828388 34.4916572,62.810639 C36.0400602,63.1514035 37.6473675,63.3326094 39.2968303,63.3326094 L39.3000416,63.3325377 L39.3033596,63.3324661 L39.3033596,63.3353332 C39.3382763,63.3337562 39.3731931,63.3326094 39.4083937,63.3326094 C40.7421862,63.3326094 41.8237548,64.4247188 41.8237548,65.7721507 C41.8237548,67.1192959 40.7421862,68.2115489 39.4083937,68.2115489 L39.3557702,68.2107962 L39.3033596,68.2089684 L39.3033596,68.2115489 L39.7007862,68.2115489 C39.5707709,68.2134126 39.4404718,68.2145594 39.3098886,68.2145594 C37.189617,68.2145594 35.1258366,67.9704189 33.1445223,67.5083726 C21.1558848,64.7192529 12.1854549,53.9548591 12.002838,41.0429736 L12,40.651053 C12.0007097,40.6392975 12,40.627542 12,40.6157867 C12,39.268498 13.0814266,38.1762452 14.4153611,38.1762452 Z M40.1072085,23.3716475 C49.3501818,23.3716475 56.8429119,30.9124399 56.8429119,40.2147029 C56.8429119,49.5166788 49.3501818,57.0574713 40.1072085,57.0574713 C30.8643776,57.0574713 23.3716475,49.5166788 23.3716475,40.2147029 C23.3716475,30.9124399 30.8643776,23.3716475 40.1072085,23.3716475 Z M40.1072085,30.4921674 C34.7720468,30.4921674 30.4469263,34.8450316 30.4469263,40.2147029 C30.4469263,45.5840872 34.7720468,49.9369513 40.1072085,49.9369513 C45.4425126,49.9369513 49.7676331,45.5840872 49.7676331,40.2147029 C49.7676331,34.8450316 45.4425126,30.4921674 40.1072085,30.4921674 Z M64.2452832,44.3984674 C65.6078705,44.3984674 66.7126437,45.5030955 66.7126437,46.8659729 C66.7126437,48.2285602 65.6078705,49.3333333 64.2452832,49.3333333 C62.8825509,49.3333333 61.7777778,48.2285602 61.7777778,46.8659729 C61.7777778,45.5030955 62.8825509,44.3984674 64.2452832,44.3984674 Z M40.7028978,12 C55.6249353,12 67.7500812,24.0939636 67.9961877,39.1072933 L68,39.5631268 C67.9992902,39.5750267 68,39.58664 68,39.5985399 C68,40.9459571 66.9185683,42.0383142 65.5846275,42.0383142 C64.2506865,42.0383142 63.1693969,40.9459571 63.1693969,39.5985399 L63.1697518,39.5808333 L63.1701064,39.5631268 C63.1641451,27.0343545 53.1077812,16.8794053 40.7028978,16.8794053 L40.6997573,16.879477 L40.6965106,16.8795486 L40.6965106,16.8768246 C40.6615937,16.8782583 40.6266767,16.8794053 40.5914759,16.8794053 C39.257535,16.8794053 38.1762452,15.7871915 38.1762452,14.4397743 C38.1762452,13.0923571 39.257535,12 40.5914759,12 L40.6440996,12.0008244 L40.6965106,12.0027241 L40.6965106,12 L40.7028978,12 Z M15.7547893,30.6666667 C17.1173366,30.6666667 18.2222222,31.7713272 18.2222222,33.1340996 C18.2222222,34.4968721 17.1173366,35.6015326 15.7547893,35.6015326 C14.392242,35.6015326 13.2873563,34.4968721 13.2873563,33.1340996 C13.2873563,31.7713272 14.392242,30.6666667 15.7547893,30.6666667 Z" id="Combined-Shape" fill="url(#radialGradient-1)" fill-rule="nonzero"></path>
            <g id="ORC" transform="translate(42.000000, 42.000000)" fill-rule="nonzero">
                <circle id="Oval" fill="url(#radialGradient-2)" cx="15" cy="15" r="15"></circle>
                <path d="M6.32645899,14.3923329 C6.77934496,14.3923329 7.14658887,14.7616047 7.14658887,15.2170996 L7.14652863,15.2203226 L7.14639609,15.2235457 L7.1510228,15.2235457 C7.1510228,15.224612 7.15097461,15.2257267 7.15097461,15.226793 C7.15097461,18.8988148 9.71662156,21.9676135 13.1433157,22.7207941 C13.6690721,22.8360008 14.2148294,22.8972632 14.7749004,22.8972632 L14.7759909,22.8972391 L14.7771174,22.8972148 C14.7889733,22.8976509 14.8008292,22.8972632 14.8127815,22.8972632 C15.2656675,22.8972632 15.6329114,23.2664865 15.6329114,23.7220299 C15.6329114,24.1774764 15.2656675,24.5467481 14.8127815,24.5467481 L14.7949133,24.5464937 L14.7771174,24.5458756 L14.7771174,24.5467481 L14.9120627,24.5467481 C14.8679163,24.5473781 14.8236735,24.5477658 14.7793344,24.5477658 C14.0594013,24.5477658 13.3586498,24.4652261 12.6858995,24.3090163 C8.61518717,23.3660634 5.56929985,19.7268085 5.50729276,15.3615241 L5.50632911,15.2290225 L5.50632911,15.2170996 C5.50632911,14.7616047 5.87352484,14.3923329 6.32645899,14.3923329 Z M14.9999757,9.31461647 C18.1459488,9.31461647 20.6962025,11.8721468 20.6962025,15.0270962 C20.6962025,18.1819482 18.1459488,20.7394785 14.9999757,20.7394785 C11.8540512,20.7394785 9.30379747,18.1819482 9.30379747,15.0270962 C9.30379747,11.8721468 11.8540512,9.31461647 14.9999757,9.31461647 Z M14.9999757,11.7296074 C13.1840801,11.7296074 11.7119659,13.205922 11.7119659,15.0270962 C11.7119659,16.848173 13.1840801,18.3244876 14.9999757,18.3244876 C16.8159199,18.3244876 18.2880341,16.848173 18.2880341,15.0270962 C18.2880341,13.205922 16.8159199,11.7296074 14.9999757,11.7296074 Z M23.2278729,16.5080481 C23.6938887,16.5080481 24.07173,16.8869161 24.07173,17.3543591 C24.07173,17.8217026 23.6938887,18.2006203 23.2278729,18.2006203 C22.7618075,18.2006203 22.3839663,17.8217026 22.3839663,17.3543591 C22.3839663,16.8869161 22.7618075,16.5080481 23.2278729,16.5080481 Z M15.2250073,5.50632911 C20.2917482,5.50632911 24.4088115,9.59508845 24.4923763,14.6708347 L24.4936709,14.8249442 C24.4934299,14.8289673 24.4936709,14.8328935 24.4936709,14.8369167 C24.4936709,15.2924551 24.1264734,15.6617621 23.6735372,15.6617621 C23.2206008,15.6617621 22.8534515,15.2924551 22.8534515,14.8369167 L22.853572,14.8309304 L22.8536924,14.8249442 C22.8516885,10.6315412 19.5050058,7.22471588 15.3511268,7.1569987 L15.2250073,7.15597137 L15.2228385,7.15601985 C15.2109825,7.15558359 15.1991266,7.15597137 15.1871742,7.15597137 C14.7342379,7.15597137 14.3670886,6.78671286 14.3670886,6.33117448 C14.3670886,5.8756361 14.7342379,5.50632911 15.1871742,5.50632911 L15.2050425,5.50660783 L15.2228385,5.50725008 L15.2228385,5.50632911 L15.2250073,5.50632911 Z M6.77215191,11.8534747 C7.238154,11.8534747 7.61603375,12.2323538 7.61603375,12.6997608 C7.61603375,13.1671677 7.238154,13.5460469 6.77215191,13.5460469 C6.30614979,13.5460469 5.92827004,13.1671677 5.92827004,12.6997608 C5.92827004,12.2323538 6.30614979,11.8534747 6.77215191,11.8534747 Z" id="Combined-Shape" fill="#FFFFFF"></path>
            </g>
        </g>
    </g>
</svg>