<svg id="레이어_1" data-name="레이어 1" xmlns="http://www.w3.org/2000/svg" viewBox="0 0 220.16343 251.36558">
  <path d="M233.99682,115.10837V58.83712a20.54889,20.54889,0,0,0-.5269-4.99835,6.15338,6.15338,0,0,0-4.05452-3.87468L204.70933,39.7346,147.3128,15.911,128.0431,7.60927a14.26117,14.26117,0,0,0-2.46107-.838,7.35552,7.35552,0,0,0-3.9572.31742l-7.47215,3.134-12.8916,5.411L20.862,48.96315s-7.02351,2.96473-7.02351,5.40677V206.34783s-.26452,3.3668,5.35176,5.28615l47.076,21.12133,53.98942,24.29134a8.09829,8.09829,0,0,0,6.20245.59252l8.691-3.78157,20.076-9.165,70.06158-31.6238,5.46177-2.47368s3.24831-1.69082,3.24831-3.4197v-91.795l.00213-.08641C233.99889,115.22952,233.997,115.17242,233.99682,115.10837ZM24.60764,65.41624a.74332.74332,0,0,1,1.04749-.67929L41.3532,71.78688a27.001,27.001,0,0,0-4.52692,1.074A34.88228,34.88228,0,0,0,24.60761,79.571Zm93.42087,127.69651h0a21.32888,21.32888,0,0,1-16.25957,17.315s-13.92429,4.44181-22.56666-11.76369c0,0-2.52033-3.96133-2.52033-13.32541V105.511s.52691-11.88516-6.22227-20.65252l47.4005,21.28737a.74572.74572,0,0,1,.44014.6814Zm-.06588,20.92764-.094,29.82473a.74424.74424,0,0,1-1.04749.67718l-91.77333-40.901a.744.744,0,0,1-.44015-.67928V106.55427c0-12.93393,9.27509-23.41736,20.71926-23.41736,11.442,0,20.71713,10.48554,20.71713,23.41736v80.66987s-1.00728,21.881,17.83916,31.00588c0,0,19.91863,9.3313,34.07932-4.18966,4.70438-4.49179,8.77382-11.50341,11.26557-22.22l-.26529-97.96309-.0753.034-4.87569,2.14787,4.87562-2.1479.0753-.034-.00555-2.0315V84.38332s2.94145-22.08841,24.78873-19.80719c0,0,8.33551.71515,14.28616,10.68435a5.469,5.469,0,0,1,.54622.71994l9.48672-4.281a33.76975,33.76975,0,0,0-14.62686-14.90866,29.9273,29.9273,0,0,0-31.24077,2.77216c.00213.00212-13.62184,9.7851-13.62184,27.2222v6.96031L33.44905,55.54439a.51458.51458,0,0,1,.00846-.94592c10.1258-4.154,86.45121-35.54291,90.13542-37.05808a.36789.36789,0,0,1,.292.00635l90.31955,37.09194a.40666.40666,0,0,1,.01272.747L178.06487,71.69959A35.9273,35.9273,0,0,1,181.56,81.81693l40.09119-18.00474a.74508.74508,0,0,1,1.04749.67929v70.38169l-.05076,1.66694s-3.03035,17.37573-20.76579,17.91536c0,0-13.5942.99037-19.35646-16.56525a23.20281,23.20281,0,0,1-.90147-7.56313l-.06349-48.50647-.00064-.00375h0a35.934,35.934,0,0,0-3.4951-10.11733l-9.48652,4.281h0l-39.6155,17.87674.2653,97.96309c-2.49172,10.7164-6.56116,17.72824-11.26554,22.22Zm104.29583-11.32387-91.77334,40.901a.74424.74424,0,0,1-1.04748-.67718L129.006,105.90246a.74237.74237,0,0,1,.44014-.6814L171.056,86.53422v.00013h.00013l.00013.00749v43.87629s-.95449,20.07806,13.63013,28.9913c0,0,22.10066,13.65477,38.01237-3.07672v45.70468A.74441.74441,0,0,1,222.25846,202.71652Z" transform="translate(-13.83657 -6.63442)"/>
</svg>
