<svg width="24" height="24" viewBox="0 0 24 24" fill="none" xmlns="http://www.w3.org/2000/svg">
<circle cx="12" cy="12" r="12" fill="white"/>
<path d="M14.984 9.99625C14.8417 9.99625 14.7249 9.88204 14.7229 9.73911C14.721 9.59488 14.8358 9.47675 14.9801 9.47414C15.8879 9.46109 18.1754 8.09382 18.6133 7.15206C18.7321 6.89688 18.6524 6.79899 18.6224 6.76244C18.5232 6.64105 18.1251 6.3676 16.5784 6.45179C15.1563 6.52945 13.1076 6.8884 10.4899 7.51819C10.3496 7.55213 10.2086 7.46533 10.1754 7.32566C10.1414 7.18535 10.2276 7.04438 10.3679 7.01044C15.5022 5.775 18.3346 5.58574 19.0264 6.43155C19.1713 6.60842 19.2992 6.91516 19.0864 7.372C18.5558 8.51215 16.0882 9.98058 14.9872 9.99625C14.9859 9.99625 14.9846 9.99625 14.9833 9.99625H14.984Z" fill="#FF6B3E"/>
<path d="M14.9838 9.99623C14.9133 9.99623 14.8429 9.96817 14.792 9.91205C14.6941 9.80567 14.7012 9.64055 14.807 9.54331L15.8283 8.60286C16.1599 8.13231 16.8582 6.82704 16.3446 6.10066C15.4022 4.76928 11.1183 5.78021 8.6487 6.50137C8.51034 6.54184 8.36546 6.46222 8.32499 6.32386C8.28453 6.1855 8.36415 6.04061 8.50251 6.00015C13.1943 4.63027 15.8988 4.56501 16.7714 5.80044C17.6139 6.99281 16.2937 8.85086 16.2369 8.92918C16.2264 8.94353 16.2147 8.95659 16.2016 8.96833L15.16 9.92706C15.1098 9.97339 15.0465 9.99623 14.9832 9.99623H14.9838Z" fill="#FF6B3E"/>
<path d="M10.5361 13.2216H12.7838L11.4583 10.6332L11.7559 8.98663H9.80709L7.78784 9.63144L8.16376 11.575L10.1615 13.2216H10.2372" fill="#FF5331"/>
<path d="M9.28691 13.3155L9.29343 13.3097L7.59919 11.898L7.22262 9.82721L5.24644 11.992L4.86987 13.8742L6.28152 14.6273L7.78715 14.7213L7.78911 14.7194" fill="#FF6B3E"/>
<path d="M7.78714 16.133L7.78779 15.156L6.28151 15.0979L4.77588 14.3448L4.96384 16.039L6.28151 18.1764L8.25834 16.8861L7.78714 16.133Z" fill="#FF5331"/>
<path d="M6.7522 18.4864L7.97589 19.6155L9.48152 19.898L9.57615 18.7683L8.49604 17.3351L6.7522 18.4864Z" fill="#FF6B3E"/>
<path d="M14.3339 18.1764L14.7059 16.6982H13.9051L9.85815 19.804L14.3339 18.1764Z" fill="#FF6B3E"/>
<path d="M9.76416 19.992L14.8567 19.8041L15.882 18.7683L14.4703 18.4864L9.76416 19.992Z" fill="#FF6B3E"/>
<path d="M15.5895 12.3921L17.0586 11.851L17.5272 10.1973L17.7771 9.35537L17.7921 9.264L18.7169 8.54675L12.4464 8.93311L12.1638 10.6274L13.4815 13.1687L13.676 13.0969" fill="#FF6B3E"/>
<path d="M17.5527 10.1118C17.5527 10.1118 17.5527 10.1124 17.5527 10.1131C17.5527 10.1131 17.5527 10.1124 17.5527 10.1118C17.5527 10.1118 17.5534 10.1078 17.554 10.1059C17.554 10.1059 17.554 10.1059 17.5534 10.1059L17.7661 9.35666" fill="#FF6B3E"/>
<path d="M15.8819 10.2978C16.0899 10.2978 16.2585 10.1292 16.2585 9.92119C16.2585 9.71321 16.0899 9.54462 15.8819 9.54462C15.674 9.54462 15.5054 9.71321 15.5054 9.92119C15.5054 10.1292 15.674 10.2978 15.8819 10.2978Z" fill="black"/>
<path d="M19.2148 17.3815L18.2561 18.162L19.0367 19.1207L19.9954 18.3402L19.2148 17.3815Z" fill="#FF6B3E"/>
<path d="M16.9673 3L16.2585 3.75184L17.0104 4.4606L17.7191 3.70876L16.9673 3Z" fill="#FF6B3E"/>
<path d="M5.51542 9.26269L4.25714 8.8326L4 7.52798L5.00114 6.6528L6.25942 7.08289L6.51656 8.38751L5.51542 9.26269ZM4.64219 8.49584L5.41557 8.76016L6.031 8.22174L5.87306 7.41965L5.09969 7.15533L4.48426 7.69375L4.64219 8.49584Z" fill="#FF6B3E"/>
<path d="M17.0585 11.851L19.9999 8.76016L17.1075 9.40235L15.9595 10.5647L17.0585 11.851Z" fill="#FF6B3E"/>
<path d="M15.9869 15.5802C15.9347 15.5802 15.8818 15.5645 15.8361 15.5319L13.9259 14.1751L9.57933 14.1535C9.4351 14.1529 9.31893 14.0354 9.31958 13.8912C9.32024 13.7476 9.43706 13.6314 9.58064 13.6314H9.58194L14.0114 13.6536C14.0649 13.6536 14.1171 13.6706 14.1615 13.7019L16.139 15.1064C16.2564 15.1899 16.2839 15.3531 16.201 15.4706C16.1501 15.5424 16.0698 15.5802 15.9876 15.5802H15.9869Z" fill="#FF6B3E"/>
<path d="M17.2922 15.3094C17.2407 15.3094 17.1885 15.2944 17.1434 15.2624L15.0746 13.8214C14.9564 13.7391 14.9271 13.576 15.0093 13.4578C15.0915 13.3397 15.2547 13.3103 15.3728 13.3926L17.4417 14.8336C17.5598 14.9158 17.5892 15.079 17.5069 15.1971C17.456 15.2702 17.3751 15.3087 17.2922 15.3087V15.3094Z" fill="#FF6B3E"/>
<path d="M8.50262 6.00015L8.27942 6.07977L8.12866 6.40544L8.43866 6.55881L8.64881 6.50138L8.50262 6.00015Z" fill="#FF6B3E"/>
<path d="M9.5618 13.6314H9.34969L9.04883 13.9356L9.36601 14.1588L9.58399 14.1529L9.5618 13.6314Z" fill="#FF6B3E"/>
<path d="M15.3729 13.3925L15.2234 13.2842L14.8423 13.4487L14.9271 13.713L15.104 13.8396L15.3729 13.3925Z" fill="#FF6B3E"/>
<path d="M10.3748 7.00784L10.151 7.08616L9.97412 7.40334L10.3076 7.5665L10.5184 7.50972L10.3748 7.00784Z" fill="#FF6B3E"/>
<path d="M15.8245 15.5241L16.015 15.665L16.3766 15.6331L16.3244 15.2656L16.1593 15.1234L15.8245 15.5241Z" fill="#FF6B3E"/>
<path d="M17.1174 15.2441L17.3126 15.3792L17.6728 15.3361L17.5645 14.9158L17.4398 14.8336L17.1174 15.2441Z" fill="#FF6B3E"/>
</svg>
