<svg width="40" height="40" viewBox="0 0 40 40" fill="none" xmlns="http://www.w3.org/2000/svg">
<circle cx="20" cy="20" r="20" fill="white"/>
<path d="M17.11 20C17.11 19.2406 17.411 18.5121 17.9471 17.9741C18.4831 17.4362 19.2106 17.1327 19.97 17.13C20.7294 17.1327 21.4569 17.4362 21.9929 17.9741C22.529 18.5121 22.83 19.2406 22.83 20C22.83 20.7585 22.5287 21.486 21.9923 22.0223C21.456 22.5587 20.7285 22.86 19.97 22.86C19.2115 22.86 18.484 22.5587 17.9477 22.0223C17.4113 21.486 17.11 20.7585 17.11 20ZM16.65 20C16.6527 20.8788 17.0036 21.7207 17.6259 22.3411C18.2483 22.9616 19.0912 23.31 19.97 23.31C20.4072 23.314 20.8408 23.2313 21.2459 23.0667C21.651 22.9021 22.0194 22.659 22.33 22.3512C22.6405 22.0434 22.887 21.6772 23.0552 21.2737C23.2234 20.8701 23.31 20.4372 23.31 20C23.31 19.1212 22.9616 18.2783 22.3411 17.6559C21.7207 17.0336 20.8788 16.6826 20 16.68C19.1195 16.68 18.275 17.0298 17.6524 17.6524C17.0298 18.275 16.68 19.1195 16.68 20H16.65ZM15.68 20C15.68 18.8516 16.1362 17.7503 16.9482 16.9382C17.7603 16.1262 18.8616 15.67 20.01 15.67C20.5782 15.67 21.1407 15.7821 21.6655 15.9998C22.1903 16.2175 22.667 16.5366 23.0683 16.9388C23.4695 17.341 23.7875 17.8185 24.004 18.3437C24.2206 18.869 24.3313 19.4318 24.33 20C24.33 21.1457 23.8749 22.2445 23.0647 23.0547C22.2546 23.8649 21.1557 24.32 20.01 24.32C18.8634 24.32 17.7635 23.8652 16.9518 23.0553C16.14 22.2454 15.6827 21.1467 15.68 20ZM15.17 20C15.17 21.2836 15.6799 22.5147 16.5876 23.4224C17.4953 24.3301 18.7264 24.84 20.01 24.84C21.2937 24.84 22.5247 24.3301 23.4324 23.4224C24.3401 22.5147 24.85 21.2836 24.85 20C24.85 18.7164 24.3401 17.4853 23.4324 16.5776C22.5247 15.6699 21.2937 15.16 20.01 15.16C18.7264 15.16 17.4953 15.6699 16.5876 16.5776C15.6799 17.4853 15.17 18.7164 15.17 20ZM14.22 20C14.2227 18.4652 14.8335 16.994 15.9188 15.9088C17.004 14.8235 18.4752 14.2126 20.01 14.21C21.5448 14.2126 23.016 14.8235 24.1012 15.9088C25.1865 16.994 25.7974 18.4652 25.8 20C25.7974 21.5339 25.1862 23.004 24.1006 24.0877C23.0151 25.1714 21.5439 25.78 20.01 25.78C18.4761 25.78 17.0049 25.1714 15.9194 24.0877C14.8338 23.004 14.2227 21.5339 14.22 20ZM13.64 20C13.6427 21.6877 14.315 23.3054 15.5093 24.4978C16.7036 25.6903 18.3223 26.36 20.01 26.36C21.6977 26.36 23.3164 25.6903 24.5107 24.4978C25.7051 23.3054 26.3774 21.6877 26.38 20C26.3774 18.3114 25.7054 16.6927 24.5114 15.4986C23.3173 14.3046 21.6986 13.6326 20.01 13.63C18.3214 13.6326 16.7027 14.3046 15.5087 15.4986C14.3146 16.6927 13.6427 18.3114 13.64 20ZM12.76 20C12.7627 18.078 13.5273 16.2355 14.8864 14.8764C16.2455 13.5173 18.088 12.7526 20.01 12.75C21.932 12.7526 23.7745 13.5173 25.1336 14.8764C26.4927 16.2355 27.2574 18.078 27.26 20C27.2574 21.9211 26.4924 23.7626 25.133 25.1201C23.7736 26.4775 21.9311 27.24 20.01 27.24C18.0889 27.24 16.2464 26.4775 14.887 25.1201C13.5277 23.7626 12.7627 21.9211 12.76 20ZM12.12 20C12.1227 22.0917 12.9548 24.0971 14.4339 25.5761C15.9129 27.0552 17.9183 27.8874 20.01 27.89C22.1018 27.8874 24.1071 27.0552 25.5862 25.5761C27.0653 24.0971 27.8974 22.0917 27.9 20C27.9 17.9065 27.0691 15.8986 25.5897 14.4174C24.1103 12.9361 22.1035 12.1027 20.01 12.1C18.9726 12.1 17.9453 12.3043 16.9868 12.7014C16.0283 13.0984 15.1574 13.6803 14.4239 14.4139C12.9423 15.8954 12.11 17.9048 12.11 20H12.12ZM11.29 20C11.2927 17.6908 12.2112 15.4769 13.844 13.844C15.4769 12.2112 17.6908 11.2926 20 11.29C22.3092 11.2926 24.5231 12.2112 26.156 13.844C27.7889 15.4769 28.7074 17.6908 28.71 20C28.7074 22.3092 27.7889 24.5231 26.156 26.156C24.5231 27.7889 22.3092 28.7074 20 28.71C17.6908 28.7074 15.4769 27.7889 13.844 26.156C12.2112 24.5231 11.2927 22.3092 11.29 20ZM10.58 20C10.58 22.5002 11.5718 24.8983 13.3378 26.668C15.1039 28.4378 17.4998 29.4347 20 29.44C22.4967 29.4347 24.8897 28.4406 26.6551 26.6751C28.4206 24.9097 29.4147 22.5167 29.42 20.02C29.4174 17.5225 28.4241 15.128 26.658 13.362C24.892 11.596 22.4975 10.6027 20 10.6C17.5025 10.6027 15.108 11.596 13.342 13.362C11.576 15.128 10.5827 17.5225 10.58 20.02V20ZM9.83001 20.02C9.82735 17.3192 10.897 14.7278 12.804 12.8152C14.7109 10.9026 17.2992 9.8253 20 9.82C22.6974 9.82529 25.2826 10.8998 27.189 12.8081C29.0954 14.7164 30.1674 17.3026 30.17 20C30.1674 22.6964 29.095 25.2817 27.1884 27.1884C25.2817 29.095 22.6964 30.1674 20 30.17C17.3036 30.1674 14.7183 29.095 12.8117 27.1884C10.905 25.2817 9.83266 22.6964 9.83001 20V20.02ZM9.05001 20C9.06587 22.907 10.2318 25.6895 12.293 27.7394C14.3542 29.7894 17.143 30.94 20.05 30.94C22.957 30.94 25.7459 29.7894 27.807 27.7394C29.8682 25.6895 31.0342 22.907 31.05 20C31.05 17.0913 29.898 14.3009 27.8459 12.2394C25.7938 10.178 23.0087 9.01322 20.1 9C17.1913 9.01322 14.4062 10.178 12.3541 12.2394C10.302 14.3009 9.14998 17.0913 9.15001 20H9.05001ZM8.46001 20C8.46251 16.9309 9.67597 13.9868 11.8368 11.8073C13.9975 9.6278 16.9311 8.38898 20 8.36C23.0854 8.36265 26.0435 9.59018 28.2243 11.7728C30.405 13.9554 31.63 16.9146 31.63 20C31.6274 23.0837 30.4012 26.0403 28.2207 28.2207C26.0403 30.4012 23.0837 31.6274 20 31.63C16.9154 31.6274 13.9578 30.4015 11.7757 28.2213C9.59368 26.0411 8.3653 23.0846 8.36001 20H8.46001ZM7.53001 20C7.54322 23.3004 8.86221 26.4615 11.1988 28.7924C13.5354 31.1234 16.6996 32.4347 20 32.44C23.3005 32.4347 26.4647 31.1234 28.8012 28.7924C31.1378 26.4615 32.4568 23.3004 32.47 20C32.4674 16.6926 31.153 13.5214 28.8153 11.1818C26.4776 8.84217 23.3074 7.5253 20 7.52C16.6927 7.5253 13.5224 8.84217 11.1847 11.1818C8.84698 13.5214 7.53265 16.6926 7.53001 20ZM6.90001 20C6.9053 16.5273 8.28717 13.1983 10.7428 10.7427C13.1983 8.28716 16.5273 6.90529 20 6.9C23.4745 6.90265 26.806 8.28335 29.2637 10.7392C31.7215 13.1951 33.1047 16.5256 33.11 20C33.1047 23.4718 31.7225 26.7997 29.2667 29.2537C26.8108 31.7077 23.4818 33.0874 20.01 33.09C16.5382 33.0874 13.2092 31.7077 10.7534 29.2537C8.2975 26.7997 6.9153 23.4718 6.91001 20H6.90001ZM6.01001 20C6.01001 23.713 7.48501 27.274 10.1105 29.8995C12.736 32.525 16.297 34 20.01 34C23.723 34 27.284 32.525 29.9095 29.8995C32.535 27.274 34.01 23.713 34.01 20C34.01 16.287 32.535 12.726 29.9095 10.1005C27.284 7.475 23.723 6 20.01 6C16.297 6 12.736 7.475 10.1105 10.1005C7.48501 12.726 6.01001 16.287 6.01001 20Z" fill="url(#paint0_radial_20_52)"/>
<defs>
<radialGradient id="paint0_radial_20_52" cx="0" cy="0" r="1" gradientUnits="userSpaceOnUse" gradientTransform="translate(20.0099 19.9996) scale(14.0001 13.9996)">
<stop offset="0.1875" stop-color="#1F14FF"/>
<stop offset="0.348958" stop-color="#7827AA"/>
<stop offset="0.848958" stop-color="#EF3529"/>
</radialGradient>
</defs>
</svg>
