<svg xmlns="http://www.w3.org/2000/svg" xmlns:xlink="http://www.w3.org/1999/xlink" width="36" height="36" viewBox="0 0 36 36">
  <defs>
    <clipPath id="clip-path">
      <circle id="타원_5252" data-name="타원 5252" cx="18" cy="18" r="18" transform="translate(2196.319 2038.635)" fill="#085ab9"/>
    </clipPath>
  </defs>
  <g id="그룹_61123" data-name="그룹 61123" transform="translate(-2196.319 -2038.635)">
    <circle id="타원_5250" data-name="타원 5250" cx="18" cy="18" r="18" transform="translate(2196.319 2038.635)" fill="#085ab9"/>
    <g id="마스크_그룹_11" data-name="마스크 그룹 11" clip-path="url(#clip-path)">
      <rect id="사각형_17014" data-name="사각형 17014" width="50" height="19" transform="translate(2192.319 2064.635)" fill="#212121"/>
      <path id="패스_2007" data-name="패스 2007" d="M1.28-5.892v3.468h.184A.357.357,0,0,0,1.6-2.446a.326.326,0,0,0,.114-.09l1.28-1.372a.48.48,0,0,1,.118-.106.315.315,0,0,1,.166-.038H3.92L2.428-2.464a.9.9,0,0,1-.232.212.737.737,0,0,1,.13.11A1.024,1.024,0,0,1,2.436-2L4.02,0H3.384a.38.38,0,0,1-.158-.03.264.264,0,0,1-.114-.11L1.78-1.8a.317.317,0,0,0-.118-.11.459.459,0,0,0-.178-.026h-.2V0H.564V-5.892ZM6.988-3.384A.158.158,0,0,1,6.84-3.3.278.278,0,0,1,6.7-3.34q-.076-.044-.186-.1a1.747,1.747,0,0,0-.262-.1,1.25,1.25,0,0,0-.36-.046,1.062,1.062,0,0,0-.324.046.778.778,0,0,0-.246.126.557.557,0,0,0-.156.186A.5.5,0,0,0,5.116-3a.383.383,0,0,0,.09.26.782.782,0,0,0,.238.18,2.075,2.075,0,0,0,.336.134q.188.058.386.124t.386.146a1.4,1.4,0,0,1,.336.2.915.915,0,0,1,.238.294.9.9,0,0,1,.09.418,1.324,1.324,0,0,1-.1.518,1.13,1.13,0,0,1-.3.412,1.427,1.427,0,0,1-.48.274,1.972,1.972,0,0,1-.656.1,2.046,2.046,0,0,1-.768-.138,1.946,1.946,0,0,1-.584-.354L4.5-.7a.244.244,0,0,1,.076-.08.205.205,0,0,1,.112-.028.268.268,0,0,1,.152.056q.08.056.194.124A1.476,1.476,0,0,0,5.312-.5a1.277,1.277,0,0,0,.408.056A1.113,1.113,0,0,0,6.084-.5a.765.765,0,0,0,.26-.146A.578.578,0,0,0,6.5-.86a.659.659,0,0,0,.05-.256.425.425,0,0,0-.09-.278.76.76,0,0,0-.238-.188,1.94,1.94,0,0,0-.338-.136q-.19-.058-.388-.122t-.388-.146a1.364,1.364,0,0,1-.338-.206A.933.933,0,0,1,4.53-2.5a.989.989,0,0,1-.09-.442,1.078,1.078,0,0,1,.1-.446,1.094,1.094,0,0,1,.28-.376,1.379,1.379,0,0,1,.452-.258,1.809,1.809,0,0,1,.612-.1A1.936,1.936,0,0,1,6.6-3.99a1.7,1.7,0,0,1,.55.346Z" transform="translate(2210.755 2071.635)" fill="#fff"/>
    </g>
    <path id="패스_2006" data-name="패스 2006" d="M11.4-3.57a.555.555,0,0,1,.42.18l1.19,1.27a5.662,5.662,0,0,1-2.185,1.7,7.6,7.6,0,0,1-3.1.58A7.4,7.4,0,0,1,4.79-.4,6.34,6.34,0,0,1,2.58-1.94a6.866,6.866,0,0,1-1.4-2.35A8.7,8.7,0,0,1,.69-7.26,8.744,8.744,0,0,1,.925-9.315,7.235,7.235,0,0,1,1.61-11.11a6.937,6.937,0,0,1,1.085-1.48A6.544,6.544,0,0,1,4.13-13.715a6.9,6.9,0,0,1,1.745-.71A8,8,0,0,1,7.89-14.67a7.875,7.875,0,0,1,1.515.14,7.328,7.328,0,0,1,1.335.39,6.127,6.127,0,0,1,1.145.605,6.4,6.4,0,0,1,.945.775l-1.01,1.38a.942.942,0,0,1-.23.23.642.642,0,0,1-.38.1.849.849,0,0,1-.485-.17q-.245-.17-.6-.38a4.345,4.345,0,0,0-.89-.38,4.551,4.551,0,0,0-1.355-.17,4.148,4.148,0,0,0-1.67.33,3.628,3.628,0,0,0-1.3.955A4.4,4.4,0,0,0,4.06-9.33a6.6,6.6,0,0,0-.3,2.07,6.209,6.209,0,0,0,.325,2.085,4.577,4.577,0,0,0,.89,1.545,3.747,3.747,0,0,0,1.32.955A4.041,4.041,0,0,0,7.91-2.35a7.781,7.781,0,0,0,.925-.05,3.832,3.832,0,0,0,.77-.17,3.4,3.4,0,0,0,.67-.31,4.13,4.13,0,0,0,.635-.48,1.236,1.236,0,0,1,.23-.15A.573.573,0,0,1,11.4-3.57Z" transform="translate(2207.628 2060.635)" fill="#fff"/>
  </g>
</svg>
