<svg xmlns="http://www.w3.org/2000/svg" xmlns:xlink="http://www.w3.org/1999/xlink" width="36" height="36" viewBox="0 0 36 36">
  <defs>
    <clipPath id="clip-path">
      <circle id="타원_5252" data-name="타원 5252" cx="18" cy="18" r="18" transform="translate(2196.319 2038.635)" fill="#085ab9"/>
    </clipPath>
  </defs>
  <g id="그룹_61123" data-name="그룹 61123" transform="translate(-2196.319 -2038.635)">
    <circle id="타원_5250" data-name="타원 5250" cx="18" cy="18" r="18" transform="translate(2196.319 2038.635)" fill="#fff"/>
    <g id="마스크_그룹_11" data-name="마스크 그룹 11" clip-path="url(#clip-path)">
      <rect id="사각형_17014" data-name="사각형 17014" width="50" height="19" transform="translate(2192.319 2065.635)" fill="#212121"/>
    </g>
    <path id="패스_2000" data-name="패스 2000" d="M1.28-5.892v3.468h.184A.357.357,0,0,0,1.6-2.446a.326.326,0,0,0,.114-.09l1.28-1.372a.48.48,0,0,1,.118-.106.315.315,0,0,1,.166-.038H3.92L2.428-2.464a.9.9,0,0,1-.232.212.737.737,0,0,1,.13.11A1.024,1.024,0,0,1,2.436-2L4.02,0H3.384a.38.38,0,0,1-.158-.03.264.264,0,0,1-.114-.11L1.78-1.8a.317.317,0,0,0-.118-.11.459.459,0,0,0-.178-.026h-.2V0H.564V-5.892ZM6.988-3.384A.158.158,0,0,1,6.84-3.3.278.278,0,0,1,6.7-3.34q-.076-.044-.186-.1a1.747,1.747,0,0,0-.262-.1,1.25,1.25,0,0,0-.36-.046,1.062,1.062,0,0,0-.324.046.778.778,0,0,0-.246.126.557.557,0,0,0-.156.186A.5.5,0,0,0,5.116-3a.383.383,0,0,0,.09.26.782.782,0,0,0,.238.18,2.075,2.075,0,0,0,.336.134q.188.058.386.124t.386.146a1.4,1.4,0,0,1,.336.2.915.915,0,0,1,.238.294.9.9,0,0,1,.09.418,1.324,1.324,0,0,1-.1.518,1.13,1.13,0,0,1-.3.412,1.427,1.427,0,0,1-.48.274,1.972,1.972,0,0,1-.656.1,2.046,2.046,0,0,1-.768-.138,1.946,1.946,0,0,1-.584-.354L4.5-.7a.244.244,0,0,1,.076-.08.205.205,0,0,1,.112-.028.268.268,0,0,1,.152.056q.08.056.194.124A1.476,1.476,0,0,0,5.312-.5a1.277,1.277,0,0,0,.408.056A1.113,1.113,0,0,0,6.084-.5a.765.765,0,0,0,.26-.146A.578.578,0,0,0,6.5-.86a.659.659,0,0,0,.05-.256.425.425,0,0,0-.09-.278.76.76,0,0,0-.238-.188,1.94,1.94,0,0,0-.338-.136q-.19-.058-.388-.122t-.388-.146a1.364,1.364,0,0,1-.338-.206A.933.933,0,0,1,4.53-2.5a.989.989,0,0,1-.09-.442,1.078,1.078,0,0,1,.1-.446,1.094,1.094,0,0,1,.28-.376,1.379,1.379,0,0,1,.452-.258,1.809,1.809,0,0,1,.612-.1A1.936,1.936,0,0,1,6.6-3.99a1.7,1.7,0,0,1,.55.346Z" transform="translate(2210.755 2072.635)" fill="#fff"/>
    <g id="Eth_icon" data-name="Eth icon" transform="translate(1952.057 1963.655)">
      <g id="ethereum-1" transform="translate(256.263 79.671)">
        <path id="패스_804" data-name="패스 804" d="M125.3,0l-.131.445V13.367l.131.131,6-3.546Z" transform="translate(-119.299)" fill="#343434"/>
        <path id="패스_805" data-name="패스 805" d="M6,0,0,9.952,6,13.5V0Z" fill="#8c8c8c"/>
        <path id="패스_806" data-name="패스 806" d="M126.46,240.131l-.074.09v4.6l.074.216,6-8.452Z" transform="translate(-120.462 -225.497)" fill="#3c3c3b"/>
        <path id="패스_807" data-name="패스 807" d="M6,245.038v-4.909l-6-3.544Z" transform="translate(0 -225.495)" fill="#8c8c8c"/>
        <path id="패스_808" data-name="패스 808" d="M127.961,160.431l6-3.546-6-2.726Z" transform="translate(-121.963 -146.933)" fill="#141414"/>
        <path id="패스_809" data-name="패스 809" d="M0,156.884l6,3.546v-6.272Z" transform="translate(0 -146.932)" fill="#393939"/>
      </g>
    </g>
  </g>
</svg>
