<svg xmlns="http://www.w3.org/2000/svg" xmlns:xlink="http://www.w3.org/1999/xlink" width="36" height="36" viewBox="0 0 36 36">
  <defs>
    <clipPath id="clip-path">
      <circle id="타원_5252" data-name="타원 5252" cx="18" cy="18" r="18" transform="translate(2196.319 2038.635)" fill="#085ab9"/>
    </clipPath>
    <linearGradient id="linear-gradient" x1="0.03" y1="1.022" x2="0.97" y2="-0.022" gradientUnits="objectBoundingBox">
      <stop offset="0" stop-color="#9945ff"/>
      <stop offset="0.14" stop-color="#8a53f4"/>
      <stop offset="0.42" stop-color="#6377d6"/>
      <stop offset="0.79" stop-color="#24b0a7"/>
      <stop offset="0.99" stop-color="#00d18c"/>
      <stop offset="1" stop-color="#00d18c"/>
    </linearGradient>
  </defs>
  <g id="그룹_14829" data-name="그룹 14829" transform="translate(-280 -593)">
    <circle id="타원_1" data-name="타원 1" cx="18" cy="18" r="18" transform="translate(280 593)" fill="#fff"/>
    <g id="그룹_61124" data-name="그룹 61124" transform="translate(-1916.319 -1445.635)">
      <g id="마스크_그룹_11" data-name="마스크 그룹 11" clip-path="url(#clip-path)">
        <rect id="사각형_17014" data-name="사각형 17014" width="50" height="19" transform="translate(2192.319 2065.635)" fill="#212121"/>
      </g>
      <path id="패스_2000" data-name="패스 2000" d="M1.28-5.892v3.468h.184A.357.357,0,0,0,1.6-2.446a.326.326,0,0,0,.114-.09l1.28-1.372a.48.48,0,0,1,.118-.106.315.315,0,0,1,.166-.038H3.92L2.428-2.464a.9.9,0,0,1-.232.212.737.737,0,0,1,.13.11A1.024,1.024,0,0,1,2.436-2L4.02,0H3.384a.38.38,0,0,1-.158-.03.264.264,0,0,1-.114-.11L1.78-1.8a.317.317,0,0,0-.118-.11.459.459,0,0,0-.178-.026h-.2V0H.564V-5.892ZM6.988-3.384A.158.158,0,0,1,6.84-3.3.278.278,0,0,1,6.7-3.34q-.076-.044-.186-.1a1.747,1.747,0,0,0-.262-.1,1.25,1.25,0,0,0-.36-.046,1.062,1.062,0,0,0-.324.046.778.778,0,0,0-.246.126.557.557,0,0,0-.156.186A.5.5,0,0,0,5.116-3a.383.383,0,0,0,.09.26.782.782,0,0,0,.238.18,2.075,2.075,0,0,0,.336.134q.188.058.386.124t.386.146a1.4,1.4,0,0,1,.336.2.915.915,0,0,1,.238.294.9.9,0,0,1,.09.418,1.324,1.324,0,0,1-.1.518,1.13,1.13,0,0,1-.3.412,1.427,1.427,0,0,1-.48.274,1.972,1.972,0,0,1-.656.1,2.046,2.046,0,0,1-.768-.138,1.946,1.946,0,0,1-.584-.354L4.5-.7a.244.244,0,0,1,.076-.08.205.205,0,0,1,.112-.028.268.268,0,0,1,.152.056q.08.056.194.124A1.476,1.476,0,0,0,5.312-.5a1.277,1.277,0,0,0,.408.056A1.113,1.113,0,0,0,6.084-.5a.765.765,0,0,0,.26-.146A.578.578,0,0,0,6.5-.86a.659.659,0,0,0,.05-.256.425.425,0,0,0-.09-.278.76.76,0,0,0-.238-.188,1.94,1.94,0,0,0-.338-.136q-.19-.058-.388-.122t-.388-.146a1.364,1.364,0,0,1-.338-.206A.933.933,0,0,1,4.53-2.5a.989.989,0,0,1-.09-.442,1.078,1.078,0,0,1,.1-.446,1.094,1.094,0,0,1,.28-.376,1.379,1.379,0,0,1,.452-.258,1.809,1.809,0,0,1,.612-.1A1.936,1.936,0,0,1,6.6-3.99a1.7,1.7,0,0,1,.55.346Z" transform="translate(2210.755 2072.635)" fill="#fff"/>
      <path id="logomark_48" d="M3.867,15.763a.642.642,0,0,1,.475-.211H18.964a.323.323,0,0,1,.235.538l-3.111,3.426a.642.642,0,0,1-.475.211L.991,19.752a.323.323,0,0,1-.235-.538ZM19.2,12.908a.323.323,0,0,1-.235.538H4.342a.642.642,0,0,1-.475-.211L.756,9.832a.323.323,0,0,1,.235-.538H15.613a.642.642,0,0,1,.475.211ZM3.867,3.211A.642.642,0,0,1,4.342,3H18.964a.323.323,0,0,1,.235.538l-3.111,3.45a.642.642,0,0,1-.475.211H.991a.323.323,0,0,1-.235-.538Z" transform="translate(2204.646 2041.743)" fill-rule="evenodd" fill="url(#linear-gradient)"/>
    </g>
  </g>
</svg>
