<svg width="24" height="24" viewBox="0 0 24 24" xmlns="http://www.w3.org/2000/svg">
    <defs>
        <linearGradient x1="0%" y1="100%" x2="100%" y2="100%" id="a">
            <stop stop-color="#EE7F75" offset="0%"/>
            <stop stop-color="#D94940" offset="100%"/>
        </linearGradient>
        <linearGradient x1="0%" y1="100%" x2="100%" y2="100%" id="b">
            <stop stop-color="#F5D540" offset="0%"/>
            <stop stop-color="#DBA11A" offset="100%"/>
        </linearGradient>
    </defs>
    <g fill="none" fill-rule="evenodd">
        <path fill="url(#a)" d="M10.216 2.676v7.783H2.432z" transform="translate(3.5 3)"/>
        <path fill="url(#b)" d="M2.432 10.46h7.784v7.783z" transform="translate(3.5 3)"/>
        <path d="M11.376 3H4.23a.73.73 0 0 0-.73.73v7.146a.365.365 0 0 0 .623.258l7.51-7.511A.365.365 0 0 0 11.377 3z" fill="#33408F" fill-rule="nonzero"/>
        <path d="M20.56 5.676h-6.844v7.783l7.12-7.119a.39.39 0 0 0-.276-.664z" fill="#F25148" fill-rule="nonzero"/>
        <path d="M20.56 21.243h-6.844V13.46l7.12 7.12a.39.39 0 0 1-.276.664z" fill="#F0AD26" fill-rule="nonzero"/>
        <path d="M9.035 21.285H3.986a.486.486 0 0 1-.486-.487V15.75a.243.243 0 0 1 .415-.172l5.292 5.292a.243.243 0 0 1-.172.416z" fill="#42B8AE" fill-rule="nonzero"/>
    </g>
</svg>
