<svg xmlns="http://www.w3.org/2000/svg" xmlns:xlink="http://www.w3.org/1999/xlink" width="36" height="36" viewBox="0 0 36 36">
  <defs>
    <clipPath id="clip-path">
      <circle id="타원_5253" data-name="타원 5253" cx="18" cy="18" r="18" transform="translate(2196.319 2038.635)" fill="#085ab9"/>
    </clipPath>
  </defs>
  <g id="ksTESRA" transform="translate(-280 -593)">
    <circle id="타원_1" data-name="타원 1" cx="18" cy="18" r="18" transform="translate(280 593)" fill="#e32337"/>
    <g id="그룹_61126" data-name="그룹 61126" transform="translate(-1916.319 -1445.635)" clip-path="url(#clip-path)">
      <rect id="사각형_17015" data-name="사각형 17015" width="50" height="19" transform="translate(2192.319 2064.635)" fill="#212121"/>
      <path id="패스_2008" data-name="패스 2008" d="M1.28-5.892v3.468h.184A.357.357,0,0,0,1.6-2.446a.326.326,0,0,0,.114-.09l1.28-1.372a.48.48,0,0,1,.118-.106.315.315,0,0,1,.166-.038H3.92L2.428-2.464a.9.9,0,0,1-.232.212.737.737,0,0,1,.13.11A1.024,1.024,0,0,1,2.436-2L4.02,0H3.384a.38.38,0,0,1-.158-.03.264.264,0,0,1-.114-.11L1.78-1.8a.317.317,0,0,0-.118-.11.459.459,0,0,0-.178-.026h-.2V0H.564V-5.892ZM6.988-3.384A.158.158,0,0,1,6.84-3.3.278.278,0,0,1,6.7-3.34q-.076-.044-.186-.1a1.747,1.747,0,0,0-.262-.1,1.25,1.25,0,0,0-.36-.046,1.062,1.062,0,0,0-.324.046.778.778,0,0,0-.246.126.557.557,0,0,0-.156.186A.5.5,0,0,0,5.116-3a.383.383,0,0,0,.09.26.782.782,0,0,0,.238.18,2.075,2.075,0,0,0,.336.134q.188.058.386.124t.386.146a1.4,1.4,0,0,1,.336.2.915.915,0,0,1,.238.294.9.9,0,0,1,.09.418,1.324,1.324,0,0,1-.1.518,1.13,1.13,0,0,1-.3.412,1.427,1.427,0,0,1-.48.274,1.972,1.972,0,0,1-.656.1,2.046,2.046,0,0,1-.768-.138,1.946,1.946,0,0,1-.584-.354L4.5-.7a.244.244,0,0,1,.076-.08.205.205,0,0,1,.112-.028.268.268,0,0,1,.152.056q.08.056.194.124A1.476,1.476,0,0,0,5.312-.5a1.277,1.277,0,0,0,.408.056A1.113,1.113,0,0,0,6.084-.5a.765.765,0,0,0,.26-.146A.578.578,0,0,0,6.5-.86a.659.659,0,0,0,.05-.256.425.425,0,0,0-.09-.278.76.76,0,0,0-.238-.188,1.94,1.94,0,0,0-.338-.136q-.19-.058-.388-.122t-.388-.146a1.364,1.364,0,0,1-.338-.206A.933.933,0,0,1,4.53-2.5a.989.989,0,0,1-.09-.442,1.078,1.078,0,0,1,.1-.446,1.094,1.094,0,0,1,.28-.376,1.379,1.379,0,0,1,.452-.258,1.809,1.809,0,0,1,.612-.1A1.936,1.936,0,0,1,6.6-3.99a1.7,1.7,0,0,1,.55.346Z" transform="translate(2210.755 2071.635)" fill="#fff"/>
    </g>
    <g id="그룹_61223" data-name="그룹 61223" transform="translate(14.898 515.035)">
      <g id="그룹_61222" data-name="그룹 61222" transform="translate(274.926 84.622)">
        <path id="패스_2031" data-name="패스 2031" d="M295.579,128.179l2.628-14.777c2.5,0,3.294.275,3.408,1.4a5.908,5.908,0,0,0,2.527-1.9,18.567,18.567,0,0,0-6.629-1.6l-1.939,2.361h0l-1.939-2.361a18.564,18.564,0,0,0-6.629,1.6,5.9,5.9,0,0,0,2.527,1.9c.115-1.121.9-1.4,3.391-1.4l2.649,14.779" transform="translate(-287.012 -111.297)" fill="#fff"/>
      </g>
      <path id="패스_2032" data-name="패스 2032" d="M283.492,83.941a21.648,21.648,0,0,1,8.864,1.779,7.2,7.2,0,0,0,.526-1.086,25.012,25.012,0,0,0-18.781,0,9.073,9.073,0,0,0,.526,1.086,21.646,21.646,0,0,1,8.864-1.779h0" fill="#fff"/>
    </g>
  </g>
</svg>
