<?xml version="1.0" encoding="UTF-8"?>
<svg width="80px" height="80px" viewBox="0 0 80 80" version="1.1" xmlns="http://www.w3.org/2000/svg" xmlns:xlink="http://www.w3.org/1999/xlink">
    <!-- Generator: Sketch 63.1 (92452) - https://sketch.com -->
    <title>ic_ktrix</title>
    <desc>Created with Sketch.</desc>
    <defs>
        <linearGradient x1="100%" y1="59.0499907%" x2="0%" y2="59.0499907%" id="linearGradient-1">
            <stop stop-color="#1D1D1B" offset="0%"></stop>
            <stop stop-color="#D7D7D7" offset="100%"></stop>
        </linearGradient>
        <radialGradient cx="100%" cy="100%" fx="100%" fy="100%" r="141.421356%" id="radialGradient-2">
            <stop stop-color="#00AE87" offset="0%"></stop>
            <stop stop-color="#0767B2" offset="100%"></stop>
        </radialGradient>
    </defs>
    <g id="ic_ktrix" stroke="none" stroke-width="1" fill="none" fill-rule="evenodd">
        <rect fill="#FFFFFF" x="0" y="0" width="80" height="80"></rect>
        <g>
            <rect id="Rectangle" fill="#FFFFFF" x="0" y="0" width="80" height="80"></rect>
            <g id="triumphX_icon" transform="translate(12.761905, 19.047619)" fill-rule="nonzero">
                <g id="Group">
                    <path d="M53.8317004,0.0367944251 C53.7893211,0.188735689 53.696897,0.275684421 53.6246223,0.373693379 C48.6223326,7.15574912 43.6190025,13.9369288 38.6157819,20.7182181 C38.5686939,20.7820059 38.5210034,20.8453558 38.4744082,20.9094724 C38.3986291,21.0136137 38.3957819,21.1183027 38.4750651,21.2221154 C38.5232484,21.2850274 38.5725813,21.3471179 38.6210383,21.4098655 C43.6101872,27.8617023 48.599336,34.3135939 53.5883752,40.7654853 C53.671327,40.8728025 53.7530194,40.9812145 53.8335619,41.086889 C53.776892,41.2116724 53.6723674,41.162668 53.5925914,41.1636535 C52.935548,41.1714832 52.2784499,41.1745495 51.6214067,41.1763564 C49.5140497,41.182215 47.4066381,41.1865406 45.2992811,41.1920707 C44.2456575,41.1948084 43.191979,41.1945347 42.1384101,41.2041632 C41.4035072,41.2104678 40.8334126,40.9201095 40.3952743,40.3272375 C35.6087137,33.8505425 30.8176088,27.3772971 26.0290771,20.9021354 C25.8014665,20.5944749 25.7922678,20.6763314 26.0245874,20.3613888 C30.798007,13.8891289 35.5750404,7.41960676 40.3425465,0.94296665 C40.8193958,0.29512195 41.4151697,-0.00328521653 42.2222928,-2.28669137e-07 C45.9499731,0.0153857641 49.6778179,0.00657043305 53.405553,0.00788451966 C53.5399183,0.00793927328 53.6765286,-0.0130861125 53.8317004,0.0367944251" id="Fill-1" fill="#000000"></path>
                    <path d="M22.6508562,20.9094724 L28.9700796,29.184221 L24.8494463,34.7552501 L24.8494463,34.7552501 L20.7300448,40.3271827 L20.6878257,40.3828497 C20.2616114,40.9303392 19.7143495,41.2024722 19.0174067,41.2040617 L19.0174067,41.2040617 L18.9869089,41.2040617 L17.9332954,41.1973371 C17.2308633,41.1944008 16.5283989,41.1939141 15.8259831,41.192016 L15.8259831,41.192016 L12.6649477,41.1843299 L12.6649477,41.1843299 L9.5039124,41.1763564 L8.84679406,41.1739878 C8.4087368,41.1719518 7.9707201,41.168837 7.53272773,41.1636535 L7.53272773,41.1636535 L7.5051456,41.1648924 L7.5051456,41.1648924 L7.4763315,41.167979 L7.46062648,41.1697509 C7.39756796,41.1764568 7.33238848,41.1762975 7.29170234,41.086889 L7.29170234,41.086889 L7.41338539,40.9268099 L7.41338539,40.9268099 L7.53683425,40.76554 L15.0205096,31.0876549 L15.0205096,31.0876549 L22.5042259,21.4098109 L22.5773493,21.3160863 L22.5773493,21.3160863 L22.6501444,21.2221154 C22.7294823,21.1183027 22.7266899,21.0136137 22.6508562,20.9094724 L22.6508562,20.9094724 Z M18.2045894,-9.71075072e-14 L18.2767702,0.000824264486 C19.0406287,0.0184224525 19.6110701,0.31825784 20.0709208,0.94296665 L20.0709208,0.94296665 L22.772551,4.61111775 C24.5742166,7.05614623 26.3769122,9.50044467 28.1798756,11.9444998 L28.1798756,11.9444998 L22.6508562,20.9094724 L22.5803404,20.8137221 L22.5803404,20.8137221 L22.5095371,20.7182181 L18.4307354,15.1895203 L18.4307354,15.1895203 L14.3520159,9.66078149 L14.2963999,9.66069935 L14.2963999,9.66069935 L14.2407018,9.66127427 L14.1990138,9.66167124 L14.1990138,9.66167124 L14.1573669,9.66182181 L11.322225,9.65822859 L11.322225,9.65822859 L8.48708312,9.65360876 L8.35158676,9.65142118 C8.21602539,9.64736343 8.08038701,9.63778497 7.94573419,9.62349427 L7.94573419,9.62349427 L7.89332192,9.61675728 C7.63373509,9.57747002 7.41163328,9.45421665 7.24357392,9.2500199 L7.24357392,9.2500199 L7.02746998,8.98858427 C6.81149267,8.72696552 6.59817945,8.46305998 6.40808861,8.18122947 L6.40808861,8.18122947 L6.31429034,8.08382992 C6.06921109,7.81992865 5.8622073,7.52459985 5.63759581,7.2440667 L5.63759581,7.2440667 L4.91449533,6.33784175 C4.43325977,5.73303745 3.95341131,5.12714617 3.47329518,4.52149827 L3.47329518,4.52149827 L3.3847809,4.40539019 C3.32693269,4.32705602 3.27085284,4.24731044 3.21321552,4.16883027 L3.21321552,4.16883027 L3.09006061,4.03619006 C2.76735891,3.67781815 2.48766937,3.28432221 2.18669488,2.90834743 L2.18669488,2.90834743 L1.51011264,2.05976992 C1.05999336,1.49332559 0.611342293,0.925737514 0.16174216,0.358855152 L0.16174216,0.358855152 L0.124618358,0.312551566 C0.087400448,0.266222312 0.0506060229,0.219438775 0.020587357,0.168805376 L0.020587357,0.168805376 L0.0116188869,0.151911321 C0.00391146093,0.135457006 7.78213472e-15,0.120334744 7.78213472e-15,0.10666003 L7.78213472e-15,0.10666003 L7.78213472e-15,0.104305625 L0.00176302343,0.0896422446 C0.00938511074,0.056922365 0.041352663,0.0347822299 0.0931906421,0.0256794425 L0.0931906421,0.0256794425 L0.126673488,0.0207070036 C0.149130579,0.0180017698 0.171798573,0.016553841 0.194320558,0.0165903434 L0.194320558,0.0165903434 L1.73731147,0.0200740419 L1.73731147,0.0200740419 L3.28034345,0.023927327 L3.74658592,0.0174419776 C4.67907021,0.00540831564 5.61154874,0.000219014434 6.54398707,0.0238725733 L6.54398707,0.0238725733 L6.98130413,0.0159401443 L6.98130413,0.0159401443 L7.4186212,0.0100199104 L7.47675947,0.00510128423 C7.55339173,0.0011607765 7.62667396,0.0065485316 7.69890493,0.007555998 L7.69890493,0.007555998 L8.06725299,0.00634457442 L8.06725299,0.00634457442 L8.43555998,0.00772025884 L9.11462387,0.00778771528 C9.45082768,0.00787575909 9.78231259,0.00802687905 10.1103086,0.00815828771 L10.1103086,0.00815828771 L10.4193136,0.00559500766 C10.6253332,0.00472706156 10.8313771,0.0056031193 11.0373967,0.00859631657 L11.0373967,0.00859631657 L11.5029585,0.00878896815 C11.8123975,0.00893092196 12.1201493,0.00908909905 12.4273171,0.00919860627 L12.4273171,0.00919860627 L12.7714118,0.00560967832 C13.1155152,0.0030764684 13.4596416,0.00384644101 13.803768,0.00914385267 L13.803768,0.00914385267 L14.1057497,0.00901056034 C15.4160238,0.00830913949 16.7503452,0.0059485885 18.1911747,-9.71075072e-14 L18.1911747,-9.71075072e-14 L18.2045894,-9.71075072e-14 Z" id="Combined-Shape" fill="url(#linearGradient-1)"></path>
                </g>
                <g id="ORC" transform="translate(29.238095, 22.952381)">
                    <circle id="Oval" fill="url(#radialGradient-2)" cx="15" cy="15" r="15"></circle>
                    <path d="M6.32645899,14.3923329 C6.77934496,14.3923329 7.14658887,14.7616047 7.14658887,15.2170996 L7.14652863,15.2203226 L7.14639609,15.2235457 L7.1510228,15.2235457 C7.1510228,15.224612 7.15097461,15.2257267 7.15097461,15.226793 C7.15097461,18.8988148 9.71662156,21.9676135 13.1433157,22.7207941 C13.6690721,22.8360008 14.2148294,22.8972632 14.7749004,22.8972632 L14.7759909,22.8972391 L14.7771174,22.8972148 C14.7889733,22.8976509 14.8008292,22.8972632 14.8127815,22.8972632 C15.2656675,22.8972632 15.6329114,23.2664865 15.6329114,23.7220299 C15.6329114,24.1774764 15.2656675,24.5467481 14.8127815,24.5467481 L14.7949133,24.5464937 L14.7771174,24.5458756 L14.7771174,24.5467481 L14.9120627,24.5467481 C14.8679163,24.5473781 14.8236735,24.5477658 14.7793344,24.5477658 C14.0594013,24.5477658 13.3586498,24.4652261 12.6858995,24.3090163 C8.61518717,23.3660634 5.56929985,19.7268085 5.50729276,15.3615241 L5.50632911,15.2290225 L5.50632911,15.2170996 C5.50632911,14.7616047 5.87352484,14.3923329 6.32645899,14.3923329 Z M14.9999757,9.31461647 C18.1459488,9.31461647 20.6962025,11.8721468 20.6962025,15.0270962 C20.6962025,18.1819482 18.1459488,20.7394785 14.9999757,20.7394785 C11.8540512,20.7394785 9.30379747,18.1819482 9.30379747,15.0270962 C9.30379747,11.8721468 11.8540512,9.31461647 14.9999757,9.31461647 Z M14.9999757,11.7296074 C13.1840801,11.7296074 11.7119659,13.205922 11.7119659,15.0270962 C11.7119659,16.848173 13.1840801,18.3244876 14.9999757,18.3244876 C16.8159199,18.3244876 18.2880341,16.848173 18.2880341,15.0270962 C18.2880341,13.205922 16.8159199,11.7296074 14.9999757,11.7296074 Z M23.2278729,16.5080481 C23.6938887,16.5080481 24.07173,16.8869161 24.07173,17.3543591 C24.07173,17.8217026 23.6938887,18.2006203 23.2278729,18.2006203 C22.7618075,18.2006203 22.3839663,17.8217026 22.3839663,17.3543591 C22.3839663,16.8869161 22.7618075,16.5080481 23.2278729,16.5080481 Z M15.2250073,5.50632911 C20.2917482,5.50632911 24.4088115,9.59508845 24.4923763,14.6708347 L24.4936709,14.8249442 C24.4934299,14.8289673 24.4936709,14.8328935 24.4936709,14.8369167 C24.4936709,15.2924551 24.1264734,15.6617621 23.6735372,15.6617621 C23.2206008,15.6617621 22.8534515,15.2924551 22.8534515,14.8369167 L22.853572,14.8309304 L22.8536924,14.8249442 C22.8516885,10.6315412 19.5050058,7.22471588 15.3511268,7.1569987 L15.2250073,7.15597137 L15.2228385,7.15601985 C15.2109825,7.15558359 15.1991266,7.15597137 15.1871742,7.15597137 C14.7342379,7.15597137 14.3670886,6.78671286 14.3670886,6.33117448 C14.3670886,5.8756361 14.7342379,5.50632911 15.1871742,5.50632911 L15.2050425,5.50660783 L15.2228385,5.50725008 L15.2228385,5.50632911 L15.2250073,5.50632911 Z M6.77215191,11.8534747 C7.238154,11.8534747 7.61603375,12.2323538 7.61603375,12.6997608 C7.61603375,13.1671677 7.238154,13.5460469 6.77215191,13.5460469 C6.30614979,13.5460469 5.92827004,13.1671677 5.92827004,12.6997608 C5.92827004,12.2323538 6.30614979,11.8534747 6.77215191,11.8534747 Z" id="Combined-Shape" fill="#FFFFFF"></path>
                </g>
            </g>
        </g>
    </g>
</svg>