<svg width="70" height="70" viewBox="0 0 70 70" fill="none" xmlns="http://www.w3.org/2000/svg">
<path d="M70 0H0V70H70V0Z" fill="white"/>
<path d="M33.8095 36.9621C21.5027 36.9621 11.5263 35.1641 11.5263 32.9455C11.5263 31.0307 18.9617 29.4295 28.9106 29.0273V36.311C30.4808 36.3746 32.1337 36.4089 33.8095 36.4089C35.4722 36.4089 37.1113 36.3735 38.6706 36.311V29.0256C48.6384 29.4256 56.0928 31.0279 56.0928 32.9455C56.0928 35.1641 46.1163 36.9621 33.8095 36.9621ZM57.619 33.1736C57.619 30.9591 49.4947 29.1114 38.683 28.6779V22.4469H53.0168V13H14.6023V22.4469H28.936V28.6779C18.1244 29.1114 10 30.9591 10 33.1736C10 35.3875 18.1244 37.2352 28.936 37.6692V57.5665H38.683V37.6692C49.4947 37.2352 57.619 35.3875 57.619 33.1736Z" fill="#4FAE95"/>
<path d="M50.8096 67.2856C59.0938 67.2856 65.8096 60.5699 65.8096 52.2856C65.8096 44.0014 59.0938 37.2856 50.8096 37.2856C42.5253 37.2856 35.8096 44.0014 35.8096 52.2856C35.8096 60.5699 42.5253 67.2856 50.8096 67.2856Z" fill="url(#paint0_radial_11057542)"/>
<path d="M42.136 51.678C42.5889 51.678 42.9562 52.0473 42.9562 52.5028L42.9561 52.506L42.956 52.5092H42.9606C42.9606 52.5103 42.9606 52.5114 42.9606 52.5125C42.9606 56.1845 45.5262 59.2533 48.9529 60.0065C49.4787 60.1217 50.0244 60.1829 50.5845 60.1829L50.5856 60.1829L50.5867 60.1829C50.5986 60.1833 50.6104 60.1829 50.6224 60.1829C51.0753 60.1829 51.4425 60.5522 51.4425 61.0077C51.4425 61.4631 51.0753 61.8324 50.6224 61.8324L50.6045 61.8322L50.5867 61.8315V61.8324H50.7217C50.6775 61.833 50.6333 61.8334 50.5889 61.8334C49.869 61.8334 49.1682 61.7509 48.4955 61.5947C44.4248 60.6517 41.3789 57.0125 41.3169 52.6472L41.3159 52.5147V52.5028C41.3159 52.0473 41.6831 51.678 42.136 51.678ZM50.8096 46.6003C53.9555 46.6003 56.5058 49.1578 56.5058 52.3128C56.5058 55.4676 53.9555 58.0251 50.8096 58.0251C47.6636 58.0251 45.1134 55.4676 45.1134 52.3128C45.1134 49.1578 47.6636 46.6003 50.8096 46.6003ZM50.8096 49.0153C48.9937 49.0153 47.5216 50.4916 47.5216 52.3128C47.5216 54.1338 48.9937 55.6102 50.8096 55.6102C52.6255 55.6102 54.0976 54.1338 54.0976 52.3128C54.0976 50.4916 52.6255 49.0153 50.8096 49.0153ZM59.0375 53.7937C59.5035 53.7937 59.8813 54.1726 59.8813 54.64C59.8813 55.1074 59.5035 55.4863 59.0375 55.4863C58.5714 55.4863 58.1936 55.1074 58.1936 54.64C58.1936 54.1726 58.5714 53.7937 59.0375 53.7937ZM51.0346 42.792C56.1013 42.792 60.2184 46.8808 60.302 51.9565L60.3033 52.1106C60.303 52.1146 60.3033 52.1186 60.3033 52.1226C60.3033 52.5781 59.9361 52.9474 59.4831 52.9474C59.0302 52.9474 58.663 52.5781 58.663 52.1226L58.6632 52.1166L58.6633 52.1106C58.6613 47.9172 55.3146 44.5104 51.1607 44.4427L51.0346 44.4416L51.0324 44.4417C51.0206 44.4412 51.0087 44.4416 50.9968 44.4416C50.5438 44.4416 50.1767 44.0724 50.1767 43.6168C50.1767 43.1613 50.5438 42.792 50.9968 42.792L51.0146 42.7923L51.0324 42.7929V42.792H51.0346ZM42.5817 49.1391C43.0477 49.1391 43.4256 49.518 43.4256 49.9854C43.4256 50.4528 43.0477 50.8317 42.5817 50.8317C42.1157 50.8317 41.7379 50.4528 41.7379 49.9854C41.7379 49.518 42.1157 49.1391 42.5817 49.1391Z" fill="white"/>
<defs>
<radialGradient id="paint0_radial_11057542" cx="0" cy="0" r="1" gradientUnits="userSpaceOnUse" gradientTransform="translate(65.8096 67.2856) scale(42.4264)">
<stop stop-color="#00AE87"/>
<stop offset="1" stop-color="#0767B2"/>
</radialGradient>
</defs>
</svg>
