<?xml version="1.0" standalone="no"?>
<!DOCTYPE svg PUBLIC "-//W3C//DTD SVG 20010904//EN"
 "http://www.w3.org/TR/2001/REC-SVG-20010904/DTD/svg10.dtd">
<svg version="1.0" xmlns="http://www.w3.org/2000/svg"
 width="908.000000pt" height="906.000000pt" viewBox="0 0 908.000000 906.000000"
 preserveAspectRatio="xMidYMid meet">

<g transform="translate(0.000000,906.000000) scale(0.100000,-0.100000)"
fill="#000000" stroke="none">
<path d="M9019 9044 c-7 -8 -31 -25 -52 -36 -25 -12 -36 -23 -28 -27 14 -9 -8
-31 -58 -56 -22 -11 -30 -20 -22 -24 14 -9 -8 -31 -58 -56 -22 -11 -30 -20
-22 -24 14 -9 -8 -31 -58 -56 -22 -11 -30 -20 -22 -24 14 -9 -8 -31 -58 -56
-22 -11 -30 -20 -22 -24 14 -9 -8 -31 -58 -56 -22 -11 -30 -20 -22 -24 14 -9
-8 -31 -58 -56 -22 -11 -30 -20 -22 -24 14 -9 -8 -31 -58 -56 -22 -11 -30 -20
-22 -24 14 -9 -8 -31 -58 -56 -22 -11 -30 -20 -22 -24 14 -9 -8 -31 -58 -56
-22 -11 -30 -20 -22 -24 14 -9 -8 -31 -58 -56 -22 -11 -30 -20 -22 -24 14 -9
-8 -31 -58 -56 -22 -11 -30 -20 -22 -24 14 -9 -8 -31 -58 -56 -22 -11 -30 -20
-22 -24 14 -9 -8 -31 -58 -56 -22 -11 -30 -20 -22 -24 14 -9 -8 -31 -58 -56
-22 -11 -30 -20 -22 -24 14 -9 -8 -31 -58 -56 -22 -11 -30 -20 -22 -24 14 -9
-8 -31 -58 -56 -22 -11 -30 -20 -22 -24 14 -9 -8 -31 -58 -56 -22 -11 -30 -20
-22 -24 14 -9 -8 -31 -58 -56 -22 -11 -30 -20 -22 -24 14 -9 -8 -31 -58 -56
-22 -11 -30 -20 -22 -24 14 -9 -8 -31 -58 -56 -23 -11 -30 -19 -22 -25 9 -5 5
-13 -15 -29 -14 -11 -31 -21 -35 -21 -5 0 -9 -13 -9 -28 0 -16 -9 -37 -20 -47
-20 -18 -21 -18 -32 13 -7 18 -17 31 -22 29 -6 -2 -18 18 -27 44 -17 48 -16
59 19 176 14 44 -12 143 -36 143 -5 0 -18 9 -29 20 -22 20 -22 20 -21 -3 1
-12 6 -28 11 -35 6 -7 7 -15 4 -18 -3 -4 -64 41 -135 99 -71 58 -149 117 -173
131 -24 15 -89 56 -144 92 -102 66 -245 144 -266 144 -6 0 -29 -16 -50 -35
-66 -60 -115 -79 -194 -76 -41 1 -86 9 -110 20 -99 44 -165 142 -165 247 0 40
-5 63 -17 76 -23 26 -243 93 -441 134 -206 43 -498 84 -602 84 l-79 0 -35 -73
c-42 -89 -73 -121 -149 -157 -50 -24 -66 -27 -125 -22 -37 2 -86 14 -110 25
-52 24 -126 106 -148 164 -16 40 -43 61 -63 49 -5 -4 -69 -15 -143 -26 -228
-35 -466 -88 -638 -143 l-165 -53 0 -104 c0 -95 -3 -111 -28 -162 -32 -66 -70
-101 -144 -135 -48 -22 -58 -23 -123 -14 -80 11 -144 43 -185 93 -14 18 -33
41 -40 50 -18 23 -45 13 -140 -48 -38 -25 -113 -73 -166 -107 -145 -92 -479
-368 -479 -395 0 -8 11 -34 25 -58 36 -62 50 -172 30 -240 -22 -77 -69 -133
-145 -172 -59 -31 -70 -33 -125 -27 -33 4 -89 20 -124 36 -52 24 -66 27 -79
17 -35 -30 -205 -264 -274 -378 -89 -148 -168 -292 -168 -308 0 -6 20 -30 45
-53 58 -55 85 -113 96 -205 7 -64 5 -83 -11 -127 -28 -74 -71 -121 -144 -157
-61 -30 -68 -31 -139 -25 -89 8 -81 17 -127 -139 -53 -183 -101 -444 -147
-808 l-6 -46 57 -27 c67 -32 117 -78 148 -138 26 -49 40 -182 26 -237 -23 -85
-98 -162 -200 -208 -25 -10 -28 -17 -28 -61 0 -87 30 -311 66 -501 38 -199
118 -495 141 -521 8 -10 36 -18 72 -22 73 -6 129 -35 175 -88 45 -53 65 -115
67 -204 2 -76 -13 -125 -56 -181 -32 -41 -31 -52 4 -122 42 -84 215 -366 254
-415 18 -23 68 -86 110 -139 48 -61 72 -98 62 -98 -8 0 -20 8 -26 19 -7 10
-20 16 -29 14 -27 -7 -13 -39 32 -75 31 -24 49 -31 80 -30 22 1 44 5 50 8 6 4
14 0 19 -7 8 -12 12 -11 23 4 19 25 62 21 96 -10 22 -19 27 -29 18 -35 -20
-12 -56 -9 -61 5 -4 9 -7 9 -18 -1 -11 -10 -11 -14 -1 -21 15 -9 -6 -30 -57
-56 -22 -11 -30 -20 -22 -24 14 -9 -8 -31 -58 -56 -22 -11 -30 -20 -22 -24 14
-9 -8 -31 -58 -56 -22 -11 -30 -20 -22 -24 14 -9 -8 -31 -58 -56 -22 -11 -30
-20 -22 -24 14 -9 -8 -31 -58 -56 -22 -11 -30 -20 -22 -24 14 -9 -8 -31 -58
-56 -22 -11 -30 -20 -22 -24 14 -9 -8 -31 -58 -56 -22 -11 -30 -20 -22 -24 14
-9 -8 -31 -58 -56 -22 -11 -30 -20 -22 -24 14 -9 -8 -31 -58 -56 -22 -11 -30
-20 -22 -24 14 -9 -8 -31 -58 -56 -22 -11 -30 -20 -22 -24 14 -9 -8 -31 -58
-56 -22 -11 -30 -20 -22 -24 14 -9 -8 -31 -58 -56 -22 -11 -30 -20 -22 -24 14
-9 -8 -31 -58 -56 -22 -11 -30 -20 -22 -24 14 -9 -8 -31 -58 -56 -22 -11 -30
-20 -22 -24 14 -9 -8 -31 -58 -56 -22 -11 -30 -20 -22 -24 14 -9 -8 -31 -58
-56 -22 -11 -30 -20 -22 -24 14 -9 -8 -31 -58 -56 -22 -11 -30 -20 -22 -24 14
-9 -8 -31 -58 -56 -22 -11 -30 -20 -22 -24 14 -9 -8 -31 -58 -56 -22 -11 -30
-20 -22 -24 14 -9 -8 -31 -58 -56 -23 -11 -30 -19 -22 -25 9 -5 5 -13 -15 -29
-14 -11 -31 -21 -35 -21 -5 0 -9 -11 -9 -25 l0 -25 4535 0 4535 0 -2 4533 c-1
2492 -4 4507 -8 4477 l-7 -55 -1 53 c-2 54 -10 63 -33 36z m-29 -79 c-7 -8
-16 -15 -21 -15 -5 0 -9 7 -9 15 0 9 9 15 21 15 18 0 19 -2 9 -15z m-80 -80
c-7 -8 -16 -15 -21 -15 -5 0 -9 7 -9 15 0 9 9 15 21 15 18 0 19 -2 9 -15z
m-80 -80 c-7 -8 -16 -15 -21 -15 -5 0 -9 7 -9 15 0 9 9 15 21 15 18 0 19 -2 9
-15z m-80 -80 c-7 -8 -16 -15 -21 -15 -5 0 -9 7 -9 15 0 9 9 15 21 15 18 0 19
-2 9 -15z m-80 -80 c-7 -8 -16 -15 -21 -15 -5 0 -9 7 -9 15 0 9 9 15 21 15 18
0 19 -2 9 -15z m-80 -80 c-7 -8 -16 -15 -21 -15 -5 0 -9 7 -9 15 0 9 9 15 21
15 18 0 19 -2 9 -15z m-80 -80 c-7 -8 -16 -15 -21 -15 -5 0 -9 7 -9 15 0 9 9
15 21 15 18 0 19 -2 9 -15z m-80 -80 c-7 -8 -16 -15 -21 -15 -5 0 -9 7 -9 15
0 9 9 15 21 15 18 0 19 -2 9 -15z m-80 -80 c-7 -8 -16 -15 -21 -15 -5 0 -9 7
-9 15 0 9 9 15 21 15 18 0 19 -2 9 -15z m-80 -80 c-7 -8 -16 -15 -21 -15 -5 0
-9 7 -9 15 0 9 9 15 21 15 18 0 19 -2 9 -15z m-80 -80 c-7 -8 -16 -15 -21 -15
-5 0 -9 7 -9 15 0 9 9 15 21 15 18 0 19 -2 9 -15z m-80 -80 c-7 -8 -16 -15
-21 -15 -5 0 -9 7 -9 15 0 9 9 15 21 15 18 0 19 -2 9 -15z m-80 -80 c-7 -8
-16 -15 -21 -15 -5 0 -9 7 -9 15 0 9 9 15 21 15 18 0 19 -2 9 -15z m-80 -80
c-7 -8 -16 -15 -21 -15 -5 0 -9 7 -9 15 0 9 9 15 21 15 18 0 19 -2 9 -15z
m-80 -80 c-7 -8 -16 -15 -21 -15 -5 0 -9 7 -9 15 0 9 9 15 21 15 18 0 19 -2 9
-15z m-80 -80 c-7 -8 -16 -15 -21 -15 -5 0 -9 7 -9 15 0 9 9 15 21 15 18 0 19
-2 9 -15z m-80 -80 c-7 -8 -16 -15 -21 -15 -5 0 -9 7 -9 15 0 9 9 15 21 15 18
0 19 -2 9 -15z m-80 -80 c-7 -8 -16 -15 -21 -15 -5 0 -9 7 -9 15 0 9 9 15 21
15 18 0 19 -2 9 -15z m-2964 -43 c-10 -2 -22 0 -28 6 -6 6 0 7 19 4 21 -5 23
-7 9 -10z m344 -27 c80 -13 177 -31 215 -39 100 -21 358 -101 423 -132 30 -14
73 -32 95 -40 23 -8 48 -20 57 -28 8 -7 31 -19 50 -26 59 -23 195 -97 265
-145 36 -25 70 -45 75 -45 17 0 169 -113 256 -190 247 -219 247 -219 356 -345
132 -154 266 -329 279 -363 5 -13 26 -49 47 -80 90 -133 250 -490 316 -702 50
-164 94 -372 120 -570 14 -106 33 -423 27 -444 -1 -6 -4 -60 -7 -120 -4 -114
-39 -381 -54 -421 -5 -13 -14 -52 -20 -87 -17 -94 -93 -341 -140 -454 -52
-125 -196 -419 -225 -459 -11 -16 -31 -49 -43 -72 -28 -56 -62 -106 -117 -173
-25 -30 -70 -87 -99 -126 -63 -83 -352 -375 -450 -453 -160 -129 -312 -231
-430 -288 -38 -18 -80 -42 -95 -52 -14 -10 -82 -42 -151 -71 -69 -28 -130 -56
-135 -60 -18 -15 -290 -99 -402 -124 -170 -38 -355 -67 -466 -72 -56 -3 -111
-6 -122 -7 -49 -5 -322 16 -448 34 -237 34 -403 74 -622 149 -94 33 -290 118
-326 141 -14 9 -70 39 -125 67 -56 28 -114 62 -131 76 -17 14 -34 26 -37 26
-4 0 -33 18 -64 40 -179 126 -397 319 -532 471 -25 28 -60 67 -78 86 -18 20
-47 57 -64 82 -18 25 -57 78 -88 116 -32 39 -65 85 -74 103 -9 18 -35 60 -56
94 -73 112 -259 511 -293 628 -8 30 -27 93 -40 140 -27 92 -60 245 -77 350
-28 171 -36 240 -29 240 7 0 25 -87 21 -102 -4 -17 49 -280 86 -418 13 -52 31
-120 39 -150 7 -30 17 -62 22 -70 4 -8 14 -36 22 -62 7 -27 17 -48 21 -48 4 0
8 -5 8 -10 0 -11 22 -62 76 -177 19 -39 34 -76 34 -81 0 -5 6 -15 14 -21 8 -7
18 -26 21 -42 4 -16 11 -29 16 -29 5 0 9 -9 9 -19 0 -11 5 -23 11 -27 6 -3 16
-18 23 -33 6 -14 28 -52 49 -83 20 -31 37 -62 37 -68 0 -5 5 -10 10 -10 6 0
10 -5 10 -10 0 -12 38 -69 57 -85 15 -13 83 -104 83 -111 0 -7 20 -30 63 -71
20 -20 37 -40 37 -46 0 -5 43 -52 96 -105 53 -54 103 -107 111 -119 9 -14 20
-20 30 -16 9 4 14 2 10 -3 -3 -6 6 -19 20 -30 15 -10 31 -24 37 -29 61 -57
169 -145 178 -145 6 0 25 -15 43 -33 33 -34 107 -77 132 -77 8 0 12 -4 9 -9
-3 -5 0 -13 7 -19 20 -16 127 -72 127 -67 0 3 17 -6 37 -20 21 -14 44 -25 53
-25 8 0 25 -11 38 -25 13 -13 27 -24 30 -24 27 4 52 -3 46 -12 -4 -6 1 -10 12
-8 26 3 74 -11 74 -22 0 -5 6 -9 14 -9 8 0 16 -3 18 -7 8 -20 68 -43 96 -37
23 5 35 1 51 -15 21 -21 91 -36 91 -19 0 13 27 9 39 -6 7 -8 26 -18 43 -21 23
-5 27 -9 17 -16 -9 -6 4 -7 36 -4 35 4 74 0 130 -15 44 -12 109 -24 145 -26
36 -3 97 -11 135 -19 325 -65 1010 30 1380 191 44 20 98 43 120 52 93 39 290
145 428 231 115 72 333 247 442 356 64 65 197 214 228 256 17 24 60 79 95 122
84 103 181 265 276 458 42 87 76 160 76 164 0 4 16 43 36 88 40 92 97 277 125
410 10 49 21 92 23 95 2 4 18 102 36 217 27 180 32 238 32 410 0 110 -2 220
-6 245 -3 25 -11 86 -17 135 -12 104 -30 211 -76 460 -4 22 -7 46 -6 52 0 7
-3 11 -7 8 -5 -3 -11 4 -15 15 -3 11 -10 20 -15 20 -4 0 -8 21 -9 48 -2 75 -5
92 -19 101 -8 4 -16 27 -19 50 -3 22 -11 41 -18 41 -16 0 -38 47 -24 52 14 5
-38 115 -57 122 -9 3 -14 15 -12 28 2 15 -2 22 -11 20 -8 -2 -11 3 -8 12 3 8
-1 17 -10 20 -8 4 -13 13 -9 21 3 10 -1 15 -12 15 -13 0 -14 2 -3 9 10 6 10
13 2 28 -5 11 -7 24 -3 28 4 5 0 6 -9 2 -11 -4 -16 0 -15 11 0 9 -4 16 -11 15
-7 -2 -10 3 -7 11 3 7 -2 16 -10 19 -9 4 -16 14 -16 22 0 10 -5 13 -12 9 -7
-5 -9 -2 -5 8 3 9 -3 24 -14 34 -10 9 -19 23 -19 30 0 18 -50 90 -61 87 -4 -2
-6 3 -3 10 4 12 -33 60 -106 135 -14 14 -23 28 -22 30 4 4 -19 32 -100 123
-31 35 -69 79 -84 97 -14 18 -29 31 -31 28 -2 -2 -23 16 -46 40 -23 24 -47 44
-54 44 -7 0 -13 4 -13 9 0 13 -93 101 -107 101 -6 0 -15 9 -18 20 -3 11 -11
20 -17 20 -6 0 -41 24 -77 53 -71 56 -94 72 -126 86 -11 5 -50 29 -85 53 -62
42 -104 65 -235 129 -33 17 -68 34 -77 39 -35 20 -54 28 -108 50 -30 12 -63
26 -72 31 -96 49 -488 148 -728 184 -47 7 -69 13 -50 14 20 1 101 -10 180 -24z
m2540 -10 c-7 -8 -16 -15 -21 -15 -5 0 -9 7 -9 15 0 9 9 15 21 15 18 0 19 -2
9 -15z m-2785 -35 c121 -10 228 -27 415 -65 122 -25 354 -99 454 -145 114 -52
151 -70 166 -80 8 -5 40 -21 70 -36 87 -40 188 -100 226 -134 19 -16 41 -30
49 -30 8 0 15 -4 15 -10 0 -5 9 -10 20 -10 11 0 20 -5 20 -10 0 -6 8 -14 18
-17 9 -4 34 -23 55 -42 21 -20 46 -40 55 -45 36 -19 152 -146 152 -166 0 -26
-8 -25 -45 4 -27 22 -31 22 -41 7 -10 -13 -8 -22 12 -48 13 -17 24 -36 24 -41
0 -11 37 -23 43 -13 2 3 3 1 1 -5 -4 -18 34 -44 53 -37 12 5 15 2 10 -10 -7
-19 9 -33 17 -15 3 9 5 8 3 -2 -2 -19 43 -80 60 -80 7 0 13 -7 13 -15 0 -9 27
-43 60 -76 32 -34 62 -69 65 -80 3 -10 20 -33 38 -52 66 -70 102 -119 132
-179 17 -35 47 -89 68 -120 20 -31 37 -62 37 -68 0 -5 5 -10 10 -10 6 0 10 -6
10 -14 0 -12 52 -117 70 -141 4 -5 13 -28 20 -50 7 -22 24 -65 37 -95 14 -30
45 -116 70 -190 37 -114 55 -182 89 -344 3 -11 9 -55 14 -96 5 -41 14 -108 20
-149 6 -41 9 -76 7 -78 -5 -4 -23 90 -32 167 -9 74 -49 267 -74 360 -60 225
-196 546 -293 691 -20 31 -51 84 -69 119 -17 34 -43 76 -58 93 -27 33 -64 80
-114 145 -139 183 -440 460 -630 580 -157 99 -445 252 -475 252 -4 0 -25 9
-46 21 -100 53 -416 134 -656 168 -361 51 -821 16 -1165 -89 -33 -10 -87 -26
-120 -36 -70 -20 -246 -92 -325 -133 -143 -75 -211 -112 -266 -149 -32 -21
-75 -47 -94 -57 -19 -10 -58 -37 -85 -60 -28 -24 -73 -60 -100 -81 -108 -82
-306 -281 -388 -389 -33 -44 -77 -98 -97 -120 -64 -71 -193 -280 -254 -411
-20 -43 -44 -92 -52 -109 -9 -16 -25 -54 -35 -84 -10 -30 -23 -59 -28 -65 -9
-12 -29 -68 -72 -206 -56 -179 -120 -537 -124 -695 -1 -44 -5 -105 -9 -135 -8
-62 9 -384 24 -470 77 -419 134 -602 283 -911 108 -223 180 -330 415 -617 43
-53 171 -180 242 -240 36 -31 92 -79 125 -108 139 -122 426 -288 701 -407 151
-66 407 -132 648 -168 71 -11 132 -22 135 -25 7 -6 -111 5 -159 15 -19 5 -46
9 -60 9 -105 5 -524 119 -587 159 -12 8 -28 16 -35 17 -7 1 -49 19 -93 40 -44
21 -96 45 -115 54 -19 9 -37 20 -40 23 -3 3 -25 17 -50 30 -25 14 -56 32 -70
41 -14 9 -32 18 -40 20 -8 2 -17 5 -20 8 -11 11 -70 50 -75 50 -3 0 -18 11
-33 25 -15 14 -31 25 -37 25 -5 0 -39 27 -75 60 -36 33 -68 60 -71 60 -3 0
-29 23 -58 50 -29 28 -63 53 -76 56 -14 3 -22 11 -19 19 3 7 -14 27 -38 46
-24 18 -55 45 -70 60 -14 15 -29 24 -33 21 -3 -4 -3 1 1 11 7 19 -13 50 -27
41 -5 -3 -9 2 -9 10 0 8 -9 18 -21 21 -11 4 -18 13 -15 20 5 15 -27 49 -37 38
-4 -3 -7 1 -7 11 0 21 -25 48 -34 38 -4 -3 -4 2 0 11 5 13 1 20 -15 24 -11 3
-19 9 -16 13 3 5 -5 17 -18 27 -13 10 -27 31 -31 46 -3 15 -13 27 -21 27 -8 0
-15 8 -15 18 0 14 -2 15 -10 2 -13 -20 -20 -9 -22 33 -1 30 -4 35 -15 25 -12
-10 -13 -7 -8 15 5 17 3 27 -4 27 -6 0 -11 7 -11 15 0 8 -4 15 -10 15 -5 0 -9
-3 -9 -7 3 -20 -2 -23 -16 -9 -19 19 -19 26 0 26 8 0 15 5 15 10 0 6 -11 10
-24 10 -28 0 -51 24 -40 42 4 7 4 10 -1 6 -4 -4 -27 30 -50 75 -23 45 -50 96
-58 112 -39 75 -56 116 -62 149 -4 20 -11 36 -16 36 -5 0 -9 13 -9 28 0 15 -4
32 -9 37 -14 16 -97 283 -124 400 -50 216 -81 487 -78 690 4 277 98 773 189
1000 200 496 382 783 702 1104 244 246 446 395 745 550 316 164 599 253 975
307 119 17 319 31 380 27 19 -1 94 -7 165 -13z m2705 -45 c-7 -8 -16 -15 -21
-15 -5 0 -9 7 -9 15 0 9 9 15 21 15 18 0 19 -2 9 -15z m-343 -144 c5 -3 14
-19 21 -34 7 -15 17 -25 22 -22 6 3 10 -1 10 -10 0 -9 4 -14 9 -11 4 3 16 -3
25 -13 13 -15 26 -17 64 -13 26 3 49 8 52 11 3 4 23 15 45 25 22 11 43 24 47
29 8 13 82 21 114 13 23 -6 61 -62 50 -73 -3 -3 15 -31 40 -62 25 -31 55 -69
67 -84 12 -16 35 -43 51 -60 16 -18 36 -43 45 -57 22 -34 27 -41 57 -75 14
-16 32 -43 40 -60 26 -54 41 -75 47 -68 4 3 7 0 7 -9 0 -8 18 -43 40 -77 22
-34 40 -66 40 -71 0 -29 -25 2 -91 112 -41 68 -101 157 -134 199 -33 42 -100
126 -148 187 -48 62 -95 112 -103 112 -8 0 -38 -12 -66 -26 -94 -48 -226 -29
-309 44 -41 35 -78 106 -85 159 -5 38 -5 38 15 -11 11 -27 24 -52 28 -55z
m263 64 c-7 -8 -16 -15 -21 -15 -5 0 -9 7 -9 15 0 9 9 15 21 15 18 0 19 -2 9
-15z m-77 -152 c-7 -2 -21 -2 -30 0 -10 3 -4 5 12 5 17 0 24 -2 18 -5z m-2537
-41 c-16 -2 -32 0 -37 5 -5 5 7 7 29 4 34 -5 35 -6 8 -9z m169 -12 c184 -25
446 -96 603 -164 485 -209 808 -459 1139 -881 164 -209 347 -569 432 -850 83
-273 120 -535 121 -866 2 -312 -34 -550 -124 -828 -55 -167 -84 -237 -174
-417 -126 -251 -208 -372 -408 -604 -125 -144 -347 -337 -519 -449 -105 -68
-366 -203 -501 -259 -164 -68 -371 -122 -604 -157 -121 -19 -474 -21 -630 -4
-373 40 -654 127 -998 309 -220 116 -300 172 -533 377 -108 95 -211 207 -333
363 -37 47 -72 92 -79 100 -29 35 -151 255 -210 380 -122 255 -151 340 -217
635 -27 123 -50 286 -39 280 8 -5 24 -102 20 -122 -1 -7 3 -21 8 -32 6 -10 13
-37 16 -59 2 -23 10 -60 15 -84 6 -24 15 -61 20 -83 23 -105 74 -270 90 -290
4 -5 13 -28 20 -50 7 -22 18 -51 25 -65 8 -14 37 -74 66 -135 29 -60 79 -154
111 -208 32 -55 58 -103 58 -108 0 -5 4 -9 8 -9 5 0 14 -10 19 -23 6 -13 29
-44 50 -69 22 -25 53 -66 69 -91 16 -26 35 -46 42 -47 6 0 12 -3 12 -7 0 -32
309 -336 359 -355 10 -3 21 -14 25 -23 4 -10 12 -15 22 -11 8 3 13 2 10 -3 -3
-5 6 -17 20 -27 14 -11 39 -31 57 -47 17 -15 37 -25 45 -22 7 2 10 0 7 -5 -3
-6 2 -13 12 -17 10 -4 32 -17 48 -29 17 -12 57 -35 90 -51 33 -16 72 -37 86
-46 16 -11 33 -15 44 -10 14 5 17 3 12 -10 -4 -12 -1 -17 11 -17 10 0 28 -7
40 -16 12 -8 22 -12 22 -8 0 3 7 1 15 -6 9 -7 18 -10 22 -7 3 4 15 1 27 -6 11
-6 26 -13 31 -13 6 -1 17 -3 25 -4 11 -1 9 -4 -5 -10 -18 -7 -17 -8 10 -14 17
-4 42 -13 56 -20 15 -8 42 -12 62 -10 20 3 38 0 42 -6 3 -5 15 -10 26 -10 21
0 26 -16 7 -23 -7 -2 -2 -5 12 -5 90 -1 182 -12 206 -24 25 -13 81 -20 164
-22 14 0 27 -3 30 -7 6 -8 121 -17 320 -25 134 -5 181 -3 345 20 295 40 485
88 685 173 231 97 480 238 600 339 146 123 246 213 300 270 131 138 273 315
327 406 21 35 46 77 56 93 33 56 165 329 195 405 81 205 128 403 168 705 23
177 25 220 19 370 -3 94 -8 186 -10 205 -17 173 -24 248 -25 265 0 16 -2 17
-10 5 -6 -10 -9 -5 -9 20 1 35 -11 98 -36 197 -8 31 -10 55 -4 58 14 9 11 25
-5 19 -14 -5 -29 53 -27 111 0 20 -2 25 -8 17 -7 -11 -10 -10 -15 3 -3 9 -6
26 -6 36 0 11 -4 18 -9 15 -5 -3 -12 2 -16 11 -3 10 -1 19 5 21 7 3 7 8 2 15
-5 7 -12 25 -16 40 -4 17 -11 25 -18 21 -6 -4 -8 -3 -5 3 9 15 -35 103 -52
103 -8 0 -11 6 -7 16 7 17 -37 108 -66 137 -10 10 -18 27 -18 39 0 12 -3 18
-7 15 -7 -8 -42 59 -43 81 0 6 -3 12 -8 12 -4 0 -18 18 -32 40 -14 22 -28 40
-32 40 -4 0 -10 9 -13 20 -4 11 -11 18 -16 14 -5 -3 -8 -1 -7 5 3 12 -35 61
-89 117 -18 18 -33 37 -33 42 0 12 -182 198 -245 250 -27 22 -87 72 -132 110
-46 38 -99 77 -120 88 -21 10 -49 29 -63 42 -13 12 -30 22 -37 22 -7 0 -13 5
-13 10 0 6 -5 10 -10 10 -6 0 -40 18 -76 40 -36 22 -69 40 -73 40 -3 0 -46 20
-96 44 -178 88 -354 153 -500 184 -27 6 -79 18 -115 26 -36 8 -99 20 -140 27
-41 6 -82 15 -90 20 -11 7 -8 8 10 4 14 -2 61 -9 105 -15z m-100 -65 c180 -24
361 -66 523 -121 98 -33 320 -133 352 -158 8 -7 40 -23 70 -36 30 -14 66 -35
80 -47 14 -13 28 -23 33 -23 13 0 167 -111 167 -121 0 -5 6 -9 13 -9 16 0 187
-166 187 -181 0 -7 10 -23 21 -36 26 -27 17 -44 -44 -75 -25 -12 -36 -23 -28
-27 14 -9 -8 -31 -58 -56 -22 -11 -30 -20 -22 -24 14 -9 -8 -31 -58 -56 -22
-11 -30 -20 -22 -24 14 -9 -8 -31 -58 -56 -22 -11 -30 -20 -22 -24 14 -9 -8
-30 -59 -57 l-35 -19 39 -5 c33 -4 37 -7 25 -17 -20 -16 -129 -19 -157 -4 -12
7 -28 9 -34 5 -7 -4 -8 -3 -4 5 6 9 0 10 -20 5 -17 -5 -25 -3 -21 3 9 15 -11
29 -63 44 -25 7 -47 16 -50 20 -3 4 -11 0 -19 -8 -11 -12 -11 -14 1 -11 15 3
88 -42 88 -54 0 -5 9 -8 21 -8 11 0 17 -4 14 -10 -3 -5 5 -15 19 -22 14 -6 26
-15 26 -20 0 -4 5 -8 10 -8 12 0 99 -85 172 -167 25 -29 51 -53 57 -53 6 0 11
-7 11 -16 0 -8 4 -13 9 -10 5 4 12 -6 16 -21 3 -16 13 -37 21 -48 13 -17 16
-18 25 -5 8 11 9 9 4 -9 -5 -17 -4 -22 5 -16 8 5 11 4 7 -2 -3 -5 11 -28 32
-51 21 -23 36 -44 33 -47 -3 -3 3 -18 14 -33 24 -32 44 -86 43 -116 0 -13 -7
-3 -19 26 -37 91 -110 194 -259 366 -165 190 -317 298 -541 385 -284 110 -652
102 -1008 -24 -96 -33 -229 -104 -246 -131 -8 -14 7 -34 91 -119 80 -80 110
-119 146 -188 80 -153 111 -274 126 -491 7 -102 5 -134 -20 -285 -16 -93 -33
-184 -38 -202 -12 -43 3 -62 65 -79 l49 -14 -50 4 c-27 2 -59 7 -71 10 -13 5
-28 1 -44 -12 -29 -23 -22 -66 12 -77 l23 -8 -25 -4 c-13 -3 -26 0 -28 6 -2 6
-8 9 -13 5 -14 -8 -11 -94 3 -94 6 0 22 -9 34 -21 23 -22 159 -45 324 -56 85
-5 254 18 390 52 30 8 67 16 82 19 67 12 307 110 411 168 195 109 475 316 532
394 21 28 70 54 103 54 47 0 62 -41 76 -210 4 -44 3 -49 -4 -25 -5 17 -14 56
-21 88 -6 34 -17 61 -25 64 -10 3 -45 -24 -97 -77 -90 -90 -132 -124 -291
-230 -143 -95 -270 -170 -336 -198 -136 -57 -249 -100 -295 -111 -27 -7 -84
-21 -125 -31 -150 -37 -237 -45 -405 -38 -186 8 -286 20 -370 43 l-60 17 -20
-28 c-43 -59 -194 -216 -246 -255 -98 -74 -238 -132 -347 -145 -121 -13 -293
25 -402 88 -54 32 -138 117 -176 179 -53 88 -95 106 -171 74 -100 -42 -250
-173 -283 -247 -11 -25 -22 -70 -26 -100 -5 -47 -3 -64 18 -110 51 -110 213
-246 413 -345 129 -63 301 -119 490 -158 71 -14 132 -28 135 -30 3 -2 43 -9
88 -15 46 -6 93 -15 105 -21 22 -10 5 -8 -138 11 -76 10 -382 78 -404 89 -9 5
-45 17 -81 26 -58 16 -105 35 -259 107 -60 29 -188 115 -236 160 -26 25 -46
36 -57 32 -18 -5 -26 11 -9 18 5 2 1 14 -10 27 -10 13 -19 18 -19 13 0 -6 5
-14 10 -17 6 -4 7 -11 4 -17 -4 -6 -10 -5 -15 3 -5 8 -9 9 -9 4 0 -22 91 -125
110 -125 6 0 10 -7 10 -15 0 -8 13 -21 29 -29 15 -8 39 -24 52 -35 13 -11 40
-34 60 -50 20 -17 42 -31 48 -31 6 0 11 -4 11 -10 0 -5 7 -10 16 -10 9 0 36
-13 61 -30 24 -16 48 -30 52 -30 5 0 11 -21 13 -46 4 -49 -3 -60 -61 -89 -22
-11 -30 -20 -22 -24 14 -9 -8 -31 -58 -56 -22 -11 -30 -20 -22 -24 14 -9 -8
-31 -58 -56 -22 -11 -30 -20 -22 -24 14 -9 -8 -31 -58 -56 -22 -11 -30 -20
-22 -24 14 -9 -8 -31 -58 -56 -23 -11 -30 -19 -22 -25 9 -5 5 -13 -15 -29 -14
-11 -31 -21 -35 -21 -5 0 -9 -7 -9 -16 0 -16 -5 -12 -82 64 -61 61 -158 170
-158 177 0 4 -11 21 -25 39 -14 18 -25 36 -25 40 0 4 -11 22 -25 40 -31 41
-205 388 -205 410 0 9 -4 16 -10 16 -5 0 -10 7 -10 15 0 8 -4 23 -10 33 -21
38 -85 277 -114 427 -47 239 -62 497 -41 703 23 226 62 432 117 617 69 229
268 625 392 781 189 236 255 306 431 457 206 177 398 296 680 420 226 100 445
152 810 195 97 11 348 4 480 -13z m1685 -440 c0 -8 -4 -15 -9 -15 -5 0 -14 7
-21 15 -10 13 -9 15 9 15 12 0 21 -6 21 -15z m-260 -410 c-7 -8 -16 -15 -21
-15 -5 0 -9 7 -9 15 0 9 9 15 21 15 18 0 19 -2 9 -15z m1640 -60 c25 -59 69
-117 83 -108 6 3 7 1 3 -5 -4 -7 7 -17 27 -26 40 -16 116 -12 165 10 27 13 37
13 60 2 28 -13 69 -86 92 -163 7 -22 16 -49 20 -60 47 -122 152 -589 163 -730
6 -81 -4 -41 -43 170 -45 240 -82 384 -149 585 -42 125 -55 144 -89 135 -53
-14 -155 -5 -208 19 -70 32 -134 111 -147 184 -9 45 0 40 23 -13z m-1720 -20
c-7 -8 -16 -15 -21 -15 -5 0 -9 7 -9 15 0 9 9 15 21 15 18 0 19 -2 9 -15z
m-80 -80 c-7 -8 -16 -15 -21 -15 -5 0 -9 7 -9 15 0 9 9 15 21 15 18 0 19 -2 9
-15z m-80 -80 c-7 -8 -16 -15 -21 -15 -5 0 -9 7 -9 15 0 9 9 15 21 15 18 0 19
-2 9 -15z m-280 -99 c0 -3 -4 -8 -10 -11 -5 -3 -10 -1 -10 4 0 6 5 11 10 11 6
0 10 -2 10 -4z m2624 -1384 c8 -9 27 -29 41 -44 23 -24 71 -51 128 -71 12 -5
17 -16 16 -39 -1 -28 -2 -30 -8 -10 -4 16 -19 28 -42 36 -86 30 -158 102 -187
187 -23 68 -12 87 13 21 12 -35 30 -71 39 -80z m-2025 16 c37 -119 93 -220
135 -242 38 -19 52 -38 66 -87 12 -39 -3 -37 -21 3 -8 18 -33 46 -55 63 -50
36 -112 152 -143 265 -24 86 -24 83 -12 76 4 -3 18 -38 30 -78z m1038 -20 c-3
-8 -6 -5 -6 6 -1 11 2 17 5 13 3 -3 4 -12 1 -19z m-2702 -18 c19 -5 7 -6 -35
-3 -36 3 -69 9 -74 13 -9 9 63 2 109 -10z m-3137 -156 c-3 -14 -5 -12 -10 9
-3 19 -2 25 4 19 6 -6 8 -18 6 -28z m319 -131 c-3 -10 -5 -4 -5 12 0 17 2 24
5 18 2 -7 2 -21 0 -30z m1284 -1039 c10 -13 10 -17 -2 -25 -11 -7 -11 -9 0 -9
11 0 11 -3 1 -15 -21 -25 -30 -17 -30 25 0 43 9 50 31 24z m837 -61 c-10 -2
-26 -2 -35 0 -10 3 -2 5 17 5 19 0 27 -2 18 -5z m-918 -68 c-7 -8 -16 -15 -21
-15 -5 0 -9 7 -9 15 0 9 9 15 21 15 18 0 19 -2 9 -15z m-80 -80 c-7 -8 -16
-15 -21 -15 -5 0 -9 7 -9 15 0 9 9 15 21 15 18 0 19 -2 9 -15z m5101 -27 c8
-26 35 -65 66 -98 51 -53 71 -86 36 -59 -66 50 -104 101 -121 162 -14 51 2 46
19 -5z m-5181 -53 c-7 -8 -16 -15 -21 -15 -5 0 -9 7 -9 15 0 9 9 15 21 15 18
0 19 -2 9 -15z m-818 -27 c-7 -7 -12 -8 -12 -2 0 14 12 26 19 19 2 -3 -1 -11
-7 -17z m738 -53 c-7 -8 -16 -15 -21 -15 -5 0 -9 7 -9 15 0 9 9 15 21 15 18 0
19 -2 9 -15z m598 -28 c13 -11 12 -38 -2 -49 -6 -4 -4 -14 5 -24 8 -9 22 -35
31 -58 15 -37 17 -38 17 -13 1 15 5 27 10 27 5 0 11 18 15 41 9 55 44 89 93
89 76 0 83 -6 83 -66 0 -53 0 -54 -19 -35 -20 20 -52 19 -69 -3 -5 -6 -19 -41
-31 -78 -35 -107 -67 -116 -96 -26 -37 112 -66 142 -106 109 -22 -18 -23 -23
-21 -152 2 -74 5 -141 8 -150 3 -12 -3 -18 -21 -21 -16 -4 -25 -1 -25 8 0 7
-5 14 -12 16 -8 3 -15 48 -21 129 -13 174 -11 229 6 246 28 29 124 35 155 10z
m1832 -6 c5 -11 10 -29 10 -39 0 -16 -6 -20 -32 -18 -46 2 -49 -27 -7 -70 18
-19 37 -34 42 -34 5 0 22 14 37 30 41 44 100 37 100 -11 0 -33 21 -31 53 6 29
32 37 36 72 33 29 -2 43 -9 50 -25 l11 -22 45 29 c48 32 112 40 152 18 33 -17
97 -90 97 -110 0 -13 -9 -8 -34 19 -30 33 -38 37 -83 36 -82 -1 -133 -50 -133
-128 0 -55 23 -90 72 -110 24 -10 37 -20 30 -22 -19 -7 -74 17 -100 44 -13 12
-21 23 -18 23 3 0 -1 18 -9 40 -8 23 -12 54 -8 71 4 23 1 35 -15 49 -36 33
-60 26 -85 -27 -33 -70 -61 -71 -89 -4 -17 41 -25 51 -45 51 -13 0 -26 -7 -30
-16 -5 -15 58 -178 78 -198 14 -16 10 -26 -7 -19 -16 6 -56 86 -68 136 -8 33
-52 81 -65 72 -5 -3 -12 3 -16 14 -8 25 -35 35 -52 18 -18 -18 -27 -132 -14
-187 5 -24 8 -46 5 -49 -9 -9 -53 43 -59 69 -3 16 -1 46 6 68 25 84 -7 111
-116 102 -53 -4 -60 -8 -66 -30 -11 -40 -10 -169 1 -191 8 -15 7 -19 -4 -19
-20 0 -26 22 -26 100 0 57 -3 71 -18 79 -10 5 -24 28 -31 50 -22 75 -124 125
-207 102 -51 -14 -51 -15 -44 -188 4 -117 7 -134 25 -147 20 -15 20 -15 -2
-16 -29 0 -43 49 -43 158 l0 82 -28 0 c-15 0 -32 4 -38 9 -5 6 -45 11 -90 13
-93 3 -127 -12 -150 -67 -29 -70 -13 -132 44 -167 47 -29 25 -35 -27 -8 -27
13 -41 27 -41 40 0 11 -5 20 -12 20 -6 0 -8 3 -5 7 4 3 -1 15 -10 25 -15 16
-15 24 -4 68 7 27 10 59 6 70 -15 47 60 93 144 89 31 -1 77 -2 103 -1 41 2 47
5 56 31 26 75 134 83 237 18 33 -20 53 -37 45 -37 -8 0 0 -10 17 -22 18 -13
33 -29 33 -36 0 -7 10 -1 23 14 22 25 28 26 107 25 88 -2 100 4 100 47 0 35
34 62 80 62 29 0 42 -5 50 -19z m-1091 -20 c8 -5 15 -17 16 -28 4 -46 18 -83
31 -83 8 0 14 -2 14 -4 0 -2 3 -12 6 -20 6 -14 2 -14 -25 1 -17 10 -31 26 -31
35 0 26 -42 35 -55 12 -5 -10 -25 -33 -43 -50 l-33 -32 30 -22 c30 -20 31 -24
31 -94 0 -43 5 -77 12 -84 9 -9 7 -12 -9 -12 -28 0 -53 26 -53 53 1 12 7 40
15 62 18 49 5 67 -49 70 -23 2 -45 12 -62 28 -32 32 -71 41 -121 28 -56 -15
-82 -48 -90 -110 -8 -69 9 -98 72 -128 l50 -24 -44 6 c-24 3 -48 8 -53 11 -5
3 -25 38 -43 77 -31 66 -33 76 -24 117 22 96 67 141 138 139 37 -1 96 -24 96
-37 0 -16 23 -37 32 -28 4 4 1 11 -7 16 -12 8 -11 10 5 10 11 0 40 23 65 50
38 41 51 50 80 50 19 0 41 -4 49 -9z m-1976 -21 c3 -11 3 -20 1 -20 -2 0 -8 9
-14 20 -6 11 -7 20 -2 20 6 0 12 -9 15 -20z m557 -5 c-7 -8 -16 -15 -21 -15
-5 0 -9 7 -9 15 0 9 9 15 21 15 18 0 19 -2 9 -15z m2071 -190 c1 -28 -3 -61
-10 -73 -12 -23 -51 -38 -76 -28 -18 7 -20 36 -2 36 22 0 68 88 61 118 -6 24
-5 26 9 12 10 -9 17 -34 18 -65z m984 5 c0 -20 -6 -26 -27 -28 -30 -4 -38 12
-12 22 10 4 14 12 10 22 -4 11 -1 14 12 12 11 -2 17 -12 17 -28z m-1887 -3 c3
-13 -3 -17 -30 -16 -18 0 -27 3 -20 6 6 2 12 11 12 20 0 20 34 12 38 -10z
m566 -30 c16 -44 -3 -81 -42 -85 -32 -3 -62 11 -62 29 0 5 6 6 13 3 19 -7 71
51 63 71 -4 11 -2 15 6 13 7 -3 17 -17 22 -31z m-877 -99 c-2 -13 -4 -3 -4 22
0 25 2 35 4 23 2 -13 2 -33 0 -45z m333 12 c0 -5 -21 -10 -47 -9 -36 0 -43 3
-28 9 28 12 75 12 75 0z m1890 0 c-8 -5 -33 -9 -55 -9 -35 1 -37 2 -15 9 14 4
39 8 55 9 23 0 26 -2 15 -9z m-2350 -35 c0 -5 -5 -3 -10 5 -5 8 -10 20 -10 25
0 6 5 3 10 -5 5 -8 10 -19 10 -25z m4265 -345 c8 -13 -5 -13 -25 0 -13 8 -13
10 2 10 9 0 20 -4 23 -10z m-5994 -196 c52 -26 92 -69 120 -129 24 -49 29 -74
29 -132 0 -40 -6 -94 -12 -119 l-13 -46 35 -30 c245 -209 415 -332 700 -506
19 -12 29 -22 22 -22 -18 0 -80 28 -117 54 -16 12 -46 29 -65 40 -19 10 -37
22 -40 26 -3 4 -27 20 -55 35 -27 16 -76 48 -108 72 -31 24 -62 43 -67 43 -6
0 -10 4 -10 9 0 5 -28 31 -62 59 -35 27 -76 61 -91 76 -15 14 -32 26 -36 26
-4 0 -21 13 -37 30 -16 16 -34 30 -41 30 -7 0 -16 7 -21 16 -6 11 -17 15 -31
11 -14 -3 -21 0 -21 8 0 8 -7 18 -16 23 -11 6 -17 23 -17 49 0 45 23 145 36
154 16 11 9 105 -10 120 -7 6 -13 17 -13 25 0 15 -43 47 -108 81 -46 23 -46
23 -12 17 19 -4 47 -12 61 -20z m5663 -175 c10 -22 16 -42 13 -45 -6 -6 -32
36 -39 64 -10 36 7 25 26 -19z m-5784 -64 c-7 -8 -16 -15 -21 -15 -5 0 -9 7
-9 15 0 9 9 15 21 15 18 0 19 -2 9 -15z m-80 -80 c-7 -8 -16 -15 -21 -15 -5 0
-9 7 -9 15 0 9 9 15 21 15 18 0 19 -2 9 -15z m2916 -3 c-10 -2 -22 0 -28 6 -6
6 0 7 19 4 21 -5 23 -7 9 -10z m-2996 -77 c-7 -8 -16 -15 -21 -15 -5 0 -9 7
-9 15 0 9 9 15 21 15 18 0 19 -2 9 -15z m-80 -80 c-7 -8 -16 -15 -21 -15 -5 0
-9 7 -9 15 0 9 9 15 21 15 18 0 19 -2 9 -15z m-80 -80 c-7 -8 -16 -15 -21 -15
-5 0 -9 7 -9 15 0 9 9 15 21 15 18 0 19 -2 9 -15z m-80 -80 c-7 -8 -16 -15
-21 -15 -5 0 -9 7 -9 15 0 9 9 15 21 15 18 0 19 -2 9 -15z m5279 -64 c44 -23
93 -75 121 -132 l21 -40 -20 11 c-12 6 -21 15 -21 20 0 27 -92 118 -143 140
-32 15 -36 20 -19 20 12 0 40 -9 61 -19z m-5359 -16 c-7 -8 -16 -15 -21 -15
-5 0 -9 7 -9 15 0 9 9 15 21 15 18 0 19 -2 9 -15z m-80 -80 c-7 -8 -16 -15
-21 -15 -5 0 -9 7 -9 15 0 9 9 15 21 15 18 0 19 -2 9 -15z m1985 -29 c58 -26
109 -81 137 -144 17 -37 19 -62 17 -148 -2 -60 0 -107 6 -112 10 -8 126 -45
255 -81 131 -36 359 -81 544 -106 98 -14 182 -27 185 -31 7 -7 -58 -1 -174 16
-44 6 -100 13 -125 16 -52 4 -369 69 -420 85 -19 6 -67 19 -106 28 -39 10 -81
24 -93 30 -12 7 -32 13 -44 15 -82 10 -121 72 -86 137 13 25 19 159 7 159 -4
0 -8 6 -8 13 0 23 -73 91 -122 115 -27 13 -48 25 -48 28 0 10 28 2 75 -20z
m-2065 -51 c-7 -8 -16 -15 -21 -15 -5 0 -9 7 -9 15 0 9 9 15 21 15 18 0 19 -2
9 -15z m-80 -80 c-7 -8 -16 -15 -21 -15 -5 0 -9 7 -9 15 0 9 9 15 21 15 18 0
19 -2 9 -15z m-80 -80 c-7 -8 -16 -15 -21 -15 -5 0 -9 7 -9 15 0 9 9 15 21 15
18 0 19 -2 9 -15z m5315 -35 c7 -22 6 -23 -9 -11 -9 7 -16 25 -16 40 1 29 11
17 25 -29z m-5395 -45 c-7 -8 -16 -15 -21 -15 -5 0 -9 7 -9 15 0 9 9 15 21 15
18 0 19 -2 9 -15z m-80 -80 c-7 -8 -16 -15 -21 -15 -5 0 -9 7 -9 15 0 9 9 15
21 15 18 0 19 -2 9 -15z m4106 -63 c63 -32 186 -192 148 -192 -8 0 -20 12 -27
28 -7 15 -20 36 -30 47 -10 11 -29 34 -42 51 -13 17 -54 45 -90 63 -36 18 -65
34 -65 36 0 7 68 -14 106 -33z m-4186 -17 c-7 -8 -16 -15 -21 -15 -5 0 -9 7
-9 15 0 9 9 15 21 15 18 0 19 -2 9 -15z m-80 -80 c-7 -8 -16 -15 -21 -15 -5 0
-9 7 -9 15 0 9 9 15 21 15 18 0 19 -2 9 -15z m-80 -80 c-7 -8 -16 -15 -21 -15
-5 0 -9 7 -9 15 0 9 9 15 21 15 18 0 19 -2 9 -15z m-80 -80 c-7 -8 -16 -15
-21 -15 -5 0 -9 7 -9 15 0 9 9 15 21 15 18 0 19 -2 9 -15z m-80 -80 c-7 -8
-16 -15 -21 -15 -5 0 -9 7 -9 15 0 9 9 15 21 15 18 0 19 -2 9 -15z m-80 -80
c-7 -8 -16 -15 -21 -15 -5 0 -9 7 -9 15 0 9 9 15 21 15 18 0 19 -2 9 -15z
m-80 -80 c-7 -8 -16 -15 -21 -15 -5 0 -9 7 -9 15 0 9 9 15 21 15 18 0 19 -2 9
-15z"/>
<path d="M5960 6970 c8 -5 20 -10 25 -10 6 0 3 5 -5 10 -8 5 -19 10 -25 10 -5
0 -3 -5 5 -10z"/>
<path d="M6035 6930 c3 -5 11 -10 16 -10 6 0 7 5 4 10 -3 6 -11 10 -16 10 -6
0 -7 -4 -4 -10z"/>
<path d="M6115 6880 c4 -6 11 -8 16 -5 14 9 11 15 -7 15 -8 0 -12 -5 -9 -10z"/>
<path d="M6150 6859 c0 -5 4 -7 10 -4 5 3 21 -5 35 -19 14 -15 30 -26 36 -26
6 0 7 -6 3 -12 -4 -7 -4 -10 1 -6 4 4 16 -3 26 -16 10 -13 30 -27 44 -30 16
-4 23 -11 19 -18 -5 -7 0 -9 14 -6 12 4 25 2 28 -3 3 -5 0 -9 -6 -9 -6 0 -8
-5 -5 -10 4 -6 12 -5 20 4 13 12 9 20 -26 55 -23 23 -48 41 -55 41 -8 0 -14 4
-14 10 0 5 -7 7 -15 4 -11 -4 -13 -2 -10 9 4 10 -6 19 -35 31 -47 19 -70 20
-70 5z m161 -79 c5 0 9 -4 9 -10 0 -14 -13 -12 -36 6 -17 14 -17 15 -1 10 10
-3 23 -6 28 -6z"/>
<path d="M1950 3180 c0 -5 5 -10 11 -10 5 0 7 5 4 10 -3 6 -8 10 -11 10 -2 0
-4 -4 -4 -10z"/>
<path d="M1995 3090 c3 -5 8 -10 11 -10 2 0 4 5 4 10 0 6 -5 10 -11 10 -5 0
-7 -4 -4 -10z"/>
<path d="M5550 6010 c-9 -6 -10 -10 -3 -10 6 0 15 5 18 10 8 12 4 12 -15 0z"/>
<path d="M3442 5814 c-214 -57 -409 -269 -497 -539 -49 -148 -60 -229 -60
-420 1 -156 4 -191 23 -259 13 -43 30 -93 39 -110 30 -59 92 -143 125 -171 41
-34 137 -79 243 -112 80 -25 114 -43 82 -43 -9 0 -26 4 -39 9 -13 5 -41 14
-63 21 -151 45 -266 113 -300 176 -20 38 -35 44 -32 14 1 -11 7 -20 15 -20 7
0 10 -4 7 -10 -3 -5 -1 -10 5 -10 6 0 8 -5 5 -10 -4 -6 10 -31 30 -56 26 -31
36 -52 34 -72 -3 -33 84 -172 112 -179 11 -3 19 -9 19 -14 0 -16 56 -65 69
-61 8 3 11 0 7 -7 -4 -7 0 -11 13 -11 10 0 21 -4 23 -10 2 -6 8 -6 18 0 13 9
13 10 -1 10 -8 0 -25 18 -37 39 -13 22 -35 51 -51 64 -16 13 -36 38 -45 55
-16 30 -22 72 -10 72 3 0 61 -19 128 -41 123 -41 124 -42 157 -24 19 9 71 30
117 46 172 59 336 218 431 419 41 89 89 224 106 307 38 172 26 479 -22 572
-13 25 -23 51 -23 57 0 6 -9 19 -20 29 -10 9 -24 33 -30 51 -7 19 -15 34 -20
34 -4 0 -10 10 -14 23 -3 12 -31 39 -62 60 -55 37 -80 44 -50 14 8 -8 12 -17
9 -21 -4 -3 0 -6 8 -6 24 0 102 -133 137 -235 19 -55 42 -168 42 -205 -1 -32
-17 15 -24 68 -8 63 -53 180 -103 269 -55 99 -139 156 -326 222 -100 35 -102
35 -175 15z m277 -290 c12 -15 30 -57 42 -93 23 -74 48 -265 42 -326 -30 -321
-189 -613 -389 -711 -72 -35 -138 -43 -164 -19 -11 10 -20 22 -20 27 0 5 -9
30 -21 54 -22 49 -51 184 -40 184 4 0 13 -24 20 -52 14 -63 61 -188 71 -188
10 0 30 47 30 70 0 11 -4 20 -8 20 -11 0 -42 193 -42 260 0 119 37 274 93 395
17 39 34 72 37 75 3 3 20 28 38 57 60 94 168 178 260 203 23 6 42 13 42 16 0
2 -7 16 -16 29 -22 33 -1 32 25 -1z"/>
<path d="M3710 5459 c0 -5 5 -7 10 -4 6 3 10 8 10 11 0 2 -4 4 -10 4 -5 0 -10
-5 -10 -11z"/>
<path d="M4113 5823 c4 -3 2 -12 -4 -20 -9 -9 -8 -13 0 -13 13 0 63 -50 117
-116 28 -34 43 -44 66 -44 l29 0 -21 30 c-12 17 -28 30 -35 30 -8 0 -16 8 -20
18 -8 24 -52 72 -65 72 -6 0 -8 5 -5 10 3 6 0 10 -8 10 -8 0 -17 7 -21 15 -3
8 -13 15 -22 15 -10 0 -14 -3 -11 -7z"/>
<path d="M4193 5602 c-13 -8 -6 -52 8 -52 5 0 9 -6 9 -14 0 -7 11 -33 24 -57
45 -82 102 -295 94 -352 -2 -12 -11 19 -21 68 -24 122 -43 176 -89 266 -68
133 -114 158 -65 36 34 -86 45 -142 60 -288 26 -247 -7 -412 -134 -679 -55
-115 -111 -190 -211 -285 -98 -94 -174 -141 -258 -162 -70 -18 -74 -36 -9 -42
43 -4 43 -5 -26 -15 -60 -10 -70 -14 -73 -33 -4 -28 18 -39 98 -48 74 -8 69
-8 135 3 156 27 314 140 445 320 24 32 56 66 72 75 20 11 28 22 24 33 -3 8 0
17 8 20 7 3 14 17 14 31 0 14 4 28 10 32 11 7 77 333 90 449 12 100 7 222 -13
322 -17 87 -42 168 -57 185 -4 5 -8 18 -8 29 0 10 -3 16 -7 13 -3 -4 -18 19
-34 51 -30 64 -68 105 -86 94z"/>
<path d="M4320 5601 c0 -5 5 -13 10 -16 6 -3 10 -2 10 4 0 5 -4 13 -10 16 -5
3 -10 2 -10 -4z"/>
<path d="M4326 5557 c3 -10 9 -15 12 -12 3 3 0 11 -7 18 -10 9 -11 8 -5 -6z"/>
<path d="M4295 4370 c3 -5 10 -10 16 -10 5 0 9 5 9 10 0 6 -7 10 -16 10 -8 0
-12 -4 -9 -10z"/>
<path d="M2610 3658 c0 -9 5 -20 11 -23 17 -11 18 -2 3 19 -12 17 -14 17 -14
4z"/>
<path d="M1846 1697 c3 -10 9 -15 12 -12 3 3 0 11 -7 18 -10 9 -11 8 -5 -6z"/>
<path d="M4192 8508 c14 -42 64 -112 71 -100 3 4 -5 20 -19 35 -25 27 -32 43
-13 32 6 -4 0 9 -13 29 -29 45 -40 46 -26 4z"/>
<path d="M4275 8380 c3 -5 8 -10 11 -10 2 0 4 5 4 10 0 6 -5 10 -11 10 -5 0
-7 -4 -4 -10z"/>
<path d="M5900 8315 c5 -14 7 -38 4 -53 -8 -37 11 -102 36 -130 11 -11 20 -26
20 -31 0 -13 63 -61 81 -61 7 0 2 8 -11 17 -14 10 -28 17 -32 15 -13 -4 -9 16
5 22 6 3 1 3 -12 0 -15 -4 -21 -2 -17 5 4 6 0 21 -8 33 -8 13 -17 57 -21 98
-4 45 -13 82 -23 93 -22 25 -33 21 -22 -8z"/>
<path d="M2681 8045 c0 -5 11 -23 25 -40 14 -16 21 -21 16 -10 -16 30 -41 61
-41 50z"/>
<path d="M6660 7985 c0 -2 10 -10 23 -16 20 -11 21 -11 8 4 -13 16 -31 23 -31
12z"/>
<path d="M6750 7930 c0 -5 5 -10 10 -10 6 0 10 5 10 10 0 6 -4 10 -10 10 -5 0
-10 -4 -10 -10z"/>
<path d="M6880 7846 c7 -7 14 -6 21 1 9 9 7 12 -9 10 -14 -1 -18 -5 -12 -11z"/>
<path d="M6911 7836 c-14 -17 11 -41 34 -32 24 9 17 25 -7 18 -21 -5 -22 -4
-9 11 7 9 9 17 3 17 -5 0 -15 -6 -21 -14z"/>
<path d="M6955 7791 c-3 -6 0 -11 9 -11 8 0 17 -6 20 -12 3 -7 5 -4 3 6 -2 22
-22 32 -32 17z"/>
<path d="M7010 7776 c0 -2 8 -10 18 -17 15 -13 16 -12 3 4 -13 16 -21 21 -21
13z"/>
<path d="M7000 7752 c0 -4 9 -13 20 -20 11 -7 20 -9 20 -4 0 4 -9 13 -20 20
-11 7 -20 9 -20 4z"/>
<path d="M7060 7718 c0 -7 5 -20 10 -28 9 -13 11 -13 19 0 6 9 6 19 -1 27 -13
17 -28 17 -28 1z"/>
<path d="M1020 6275 c7 -8 16 -12 21 -9 5 3 9 -2 9 -10 0 -9 4 -16 10 -16 15
0 0 29 -21 40 -26 14 -33 12 -19 -5z"/>
<path d="M590 4749 c0 -5 12 -14 27 -20 16 -6 43 -22 61 -36 44 -33 53 -22 9
12 -40 33 -97 58 -97 44z"/>
<path d="M759 3073 c14 -27 35 -39 90 -52 26 -5 43 -5 47 1 3 5 13 3 24 -7 16
-14 50 -12 50 4 0 14 -98 46 -141 46 -26 0 -54 7 -64 15 -17 14 -17 13 -6 -7z"/>
<path d="M962 3003 c-6 -2 -10 -9 -7 -13 3 -5 11 -7 19 -4 7 3 18 -7 26 -23 7
-17 14 -23 17 -15 5 14 -23 63 -35 61 -4 0 -13 -3 -20 -6z"/>
<path d="M1052 2390 c0 -14 2 -19 5 -12 2 6 2 18 0 25 -3 6 -5 1 -5 -13z"/>
<path d="M1131 2244 c0 -11 3 -14 6 -6 3 7 2 16 -1 19 -3 4 -6 -2 -5 -13z"/>
<path d="M1165 2210 c3 -5 8 -10 11 -10 2 0 4 5 4 10 0 6 -5 10 -11 10 -5 0
-7 -4 -4 -10z"/>
<path d="M1186 2177 c3 -10 9 -15 12 -12 3 3 0 11 -7 18 -10 9 -11 8 -5 -6z"/>
<path d="M1211 2144 c0 -11 3 -14 6 -6 3 7 2 16 -1 19 -3 4 -6 -2 -5 -13z"/>
<path d="M1227 2106 c-7 -18 29 -66 49 -66 21 0 17 17 -6 23 -12 3 -20 14 -20
25 0 25 -16 37 -23 18z"/>
<path d="M1285 2019 c-4 -6 -4 -13 -1 -16 3 -4 6 -1 6 5 0 7 4 12 10 12 5 0 7
-7 4 -15 -4 -8 1 -17 10 -21 9 -3 16 -13 16 -22 0 -15 51 -102 60 -102 3 0 12
5 20 11 11 8 12 12 3 16 -7 2 -13 11 -13 19 0 17 -17 19 -23 2 -2 -7 -2 -3 -1
9 3 15 -2 24 -15 28 -12 4 -18 12 -14 21 3 7 1 14 -4 14 -6 0 -15 11 -21 25
-12 26 -27 32 -37 14z"/>
</g>
</svg>
