<?xml version="1.0" encoding="UTF-8"?>
<svg width="80px" height="80px" viewBox="0 0 80 80" version="1.1" xmlns="http://www.w3.org/2000/svg" xmlns:xlink="http://www.w3.org/1999/xlink">
    <!-- Generator: Sketch 63.1 (92452) - https://sketch.com -->
    <title>ic_mekong</title>
    <desc>Created with Sketch.</desc>
    <g id="GNB/Login" stroke="none" stroke-width="1" fill="none" fill-rule="evenodd">
        <g id="crypto" transform="translate(-460.000000, -1143.000000)">
            <g id="ic_mekong" transform="translate(460.000000, 1143.000000)">
                <path d="M79.5071429,39.7535714 C79.5071429,61.7085714 61.7092857,79.5071429 39.7535714,79.5071429 C17.7985714,79.5071429 -2.0301221e-14,61.7085714 -2.0301221e-14,39.7535714 C-2.0301221e-14,17.7985714 17.7985714,-2.0301221e-14 39.7535714,-2.0301221e-14 C61.7092857,-2.0301221e-14 79.5071429,17.7992857 79.5071429,39.7535714" id="Path" fill="#32B9C5" fill-rule="nonzero"></path>
                <path d="M58.3814286,34.5907143 C58.3814286,34.5907143 62.215,34.2328571 63.8085714,36.8435714 C65.0507143,38.8792857 65.3314286,41.5478571 63.5735714,43.5214286 C61.815,45.4957143 62.2278571,45.02 62.2278571,45.02 L58.3814286,34.5907143 Z" id="Path" fill="#FFFFFF" fill-rule="nonzero"></path>
                <path d="M46.0107143,36.6328571 C47.2642857,36.6328571 48.28,36.5735714 48.28,37.2 C48.28,37.8271429 47.2642857,38.335 46.0107143,38.335 C44.7571429,38.335 43.7414286,37.8271429 43.7414286,37.2 C43.7414286,36.5735714 44.7571429,36.6328571 46.0107143,36.6328571" id="Path" fill="#FFFFFF" fill-rule="nonzero"></path>
                <path d="M39.2021429,36.065 C47.0364286,36.065 53.3871429,36.3192857 53.3871429,36.6321429 C53.3871429,36.9457143 47.0364286,37.2 39.2021429,37.2 C31.3678571,37.2 25.0171429,36.9457143 25.0171429,36.6321429 C25.0171429,36.3192857 31.3678571,36.065 39.2021429,36.065" id="Path" fill="#FFFFFF" fill-rule="nonzero"></path>
                <path d="M29.8564286,58.2414286 C29.8564286,58.2414286 37.3364286,48.6321429 46.2785714,58.2414286 C46.2778571,58.2414286 37.4071429,54.6935714 29.8564286,58.2414286" id="Path" fill="#FFFFFF" fill-rule="nonzero"></path>
                <path d="M28.9885714,46.2778571 C28.9885714,46.2778571 30.8407143,45.025 33.1571429,45.4571429 C35.4735714,45.8878571 37.2557143,45.9778571 37.2557143,44.6378571 C37.2557143,43.2957143 36.4264286,42.5885713 33.9771429,42.5885713 C31.5271429,42.5878571 29.7628571,45.6992857 28.9885714,46.2778571" id="Path" fill="#FFFFFF" fill-rule="nonzero"></path>
                <path d="M47.1457143,45.1435714 C47.1457143,45.1435714 47.0114286,45.025 44.695,45.4564286 C42.3785714,45.8878571 39.3671429,45.9778571 39.3671429,44.6371429 C39.3671429,43.2964286 40.8585714,42.5885712 43.3078571,42.5885712 C45.7571429,42.5878571 46.3721429,44.5635714 47.1457143,45.1435714" id="Path" fill="#FFFFFF" fill-rule="nonzero"></path>
                <path d="M42.6064286,12.8021429 C42.6064286,12.8021429 40.5842857,10.5321429 38.635,10.5321429 C35.8928571,10.5321429 34.6628571,12.8021429 34.6628571,12.8021429 C34.6628571,12.8021429 17.0735714,31.665 17.0735714,50.8178571 C17.0735714,68.5414286 35.3114286,68.975 38.635,68.975 C41.9578571,68.975 63.0328571,69.4214286 63.0328571,50.8178571 C63.0328571,32.2728571 42.6064286,12.8021429 42.6064286,12.8021429 M52.8885714,45.9178571 C51.7335714,46.3557143 50.0757143,47.6828571 49.8378571,48.7328571 C50.9057143,50.4128571 51.7185714,52.4178571 51.7185714,54.6285714 C51.7185714,56.9392857 53.0314286,64.8142857 38.2971429,64.8142857 C33.6057143,64.8142857 25.4821429,64.1442857 25.4821429,54.6285714 C25.4821429,53.4178571 25.6407143,50.4978571 27.6521429,47.6228571 C27.4185714,47.0285714 26.5478571,46.45 26.2007143,45.9171429 C25.4042857,44.6935714 21.6357143,44.0378571 21.3635714,42.6528571 C20.8885714,40.2292857 26.0585714,31.0728571 27.6992857,29.405 C29.34,27.7371429 31.33,26.9085714 38.8728571,26.9085714 C47.2607143,26.9085714 49.0478571,27.0942857 52.5421429,29.405 C56.0364286,31.7157143 58.8971429,41.1385714 59.0692857,42.6528571 C59.2428571,44.1671429 54.9014286,45.1521429 52.8885714,45.9178571" id="Shape" fill="#FFFFFF" fill-rule="nonzero"></path>
                <path d="M31.8257143,36.6328571 C33.0792857,36.6328571 34.095,36.5735714 34.095,37.2 C34.095,37.8271429 33.0792857,38.335 31.8257143,38.335 C30.5721429,38.335 29.5564286,37.8271429 29.5564286,37.2 C29.5564286,36.5735714 30.5721429,36.6328571 31.8257143,36.6328571" id="Path" fill="#FFFFFF" fill-rule="nonzero"></path>
                <path d="M31.7885714,43.5085714 C31.7885714,43.5085714 33.6871429,40.0328571 38.2971429,40.0328571 C42.9071429,40.0328571 45.4121429,43.4471429 45.4121429,43.5085714 C45.4121429,43.5085714 51.7185714,48.2071429 51.7185714,54.6285714 C51.7185714,56.9392857 53.0314286,64.8142857 38.2971429,64.8142857 C33.6057143,64.8142857 25.4821429,64.1442857 25.4821429,54.6285714 C25.4821429,52.8028571 26.5464286,47.0871429 31.7885714,43.5085714 Z" id="Path" stroke="#FFFFFF"></path>
                <path d="M17.8464286,45.5857143 C17.8464286,45.5857143 17.6921429,45.4964286 15.9342857,43.5214286 C14.1764286,41.5471429 14.4571429,38.8785714 15.6992857,36.8428571 C17.2921429,34.2321429 21.1257143,34.59 21.1257143,34.59 L17.8464286,45.5857143 Z" id="Path" fill="#FFFFFF" fill-rule="nonzero"></path>
            </g>
        </g>
    </g>
</svg>