<?xml version="1.0" encoding="utf-8"?>
<!-- Generator: Adobe Illustrator 26.0.2, SVG Export Plug-In . SVG Version: 6.00 Build 0)  -->
<svg version="1.1" id="Layer_1" xmlns="http://www.w3.org/2000/svg" xmlns:xlink="http://www.w3.org/1999/xlink" x="0px" y="0px"
	 viewBox="0 0 73 82" style="enable-background:new 0 0 73 82;" xml:space="preserve">
<style type="text/css">
	.st0{fill:#192135;}
	.st1{clip-path:url(#SVGID_00000021110367561851799680000009100924138431784119_);}
	.st2{clip-path:url(#SVGID_00000135673344300408961120000017727832802194168203_);}
	.st3{fill:#FFFFFF;}
	.st4{fill:none;stroke:#000000;stroke-width:5;stroke-miterlimit:10;}
	.st5{fill:none;stroke:#000000;stroke-width:5;stroke-linejoin:round;stroke-miterlimit:10;}
	.st6{fill:none;}
	.st7{fill:none;stroke:#000000;stroke-width:2;stroke-linejoin:round;stroke-miterlimit:10;}
	.st8{fill:#FFFFFF;stroke:#192135;stroke-miterlimit:10;}
	.st9{fill:url(#SVGID_00000175297658313299106460000008742834238391538608_);}
	.st10{fill:url(#SVGID_00000114074737882295452920000005552849983962901125_);}
	.st11{fill:url(#SVGID_00000175298647891425202240000002011733266880871566_);}
	.st12{fill:url(#SVGID_00000160168038612586089390000005699090690608622217_);}
	.st13{fill:url(#SVGID_00000129171411146427261820000006561309946197537462_);}
	.st14{fill:url(#SVGID_00000120541969427961700010000009380444358011663752_);}
	.st15{fill:url(#SVGID_00000100341107181494183020000004264436225618907271_);}
	.st16{fill:url(#SVGID_00000182497273426870837080000006212202672351992721_);}
	.st17{fill:url(#SVGID_00000163063564283949881720000010345127289632416957_);}
	.st18{fill:url(#SVGID_00000148663369149004431910000017544079608148906881_);}
	.st19{fill:url(#SVGID_00000016768270365289736750000010427501875479898288_);}
	.st20{fill:url(#SVGID_00000054953838901313947330000003383922834887310767_);}
	.st21{fill:url(#SVGID_00000153705866868578051250000017418016458488939964_);}
	.st22{fill:url(#SVGID_00000052063238785616515890000017589091956567891357_);}
	.st23{fill:url(#SVGID_00000021800784754277467060000004688948234468706993_);}
	.st24{fill:url(#SVGID_00000056411966612734504050000014743809935857365898_);}
	.st25{fill:url(#SVGID_00000026134181908956606090000000506296531574012305_);}
	.st26{fill:url(#SVGID_00000145041765014459302320000008634046193639202725_);}
	.st27{fill:url(#SVGID_00000021121848279576163020000008420896092932220801_);}
	.st28{fill:url(#SVGID_00000103226730585789333460000004633126318259861666_);}
	.st29{fill:#668EFF;}
	.st30{fill:none;stroke:#000000;stroke-width:10;stroke-linejoin:round;stroke-miterlimit:10;}
	.st31{fill:#92A4FF;stroke:#000000;stroke-width:10;stroke-linejoin:round;stroke-miterlimit:10;}
	.st32{fill:#677FBF;stroke:#000000;stroke-width:10;stroke-linejoin:round;stroke-miterlimit:10;}
	.st33{fill:#FFFFFF;stroke:#000000;stroke-width:10;stroke-linejoin:round;stroke-miterlimit:10;}
	.st34{fill:#CFD9FF;stroke:#000000;stroke-width:10;stroke-linejoin:round;stroke-miterlimit:10;}
	.st35{fill:url(#SVGID_00000157293432563202646780000010522955622951329449_);}
	.st36{fill:none;stroke:#FF3171;stroke-miterlimit:10;}
	.st37{fill:none;stroke:#FF3171;stroke-linejoin:round;stroke-miterlimit:10;}
	.st38{fill:url(#SVGID_00000000933211576391912020000007647490106074053803_);}
	.st39{fill:url(#SVGID_00000178887796654546442670000015735574712042835092_);}
	.st40{fill:url(#SVGID_00000158734670914267923870000007125131074296458929_);}
	.st41{fill:url(#SVGID_00000088849331803382486120000016005494973371973532_);}
	.st42{fill:url(#SVGID_00000013174517267330343500000002223036864583050896_);}
	.st43{fill:url(#SVGID_00000165207169880865958540000012497716694482469816_);}
	.st44{fill:url(#SVGID_00000075863461638886579130000002192980932555393161_);}
	.st45{fill:url(#SVGID_00000031908840056001314910000001534104476596493728_);}
	.st46{fill:url(#SVGID_00000145766153401718119740000012067869143803592634_);}
	.st47{fill:url(#SVGID_00000070119856099135318530000012630138962205805967_);}
	.st48{fill:url(#SVGID_00000167397870772573279700000014837711068457303430_);}
	.st49{fill:url(#SVGID_00000078026270963333850810000012061882719177792927_);}
	.st50{fill:url(#SVGID_00000038402231546004277440000000433740575155273615_);}
	.st51{fill:url(#SVGID_00000091700987577422673410000003584607268499220640_);}
	.st52{fill:url(#SVGID_00000050627136490217588080000007477444115359017640_);}
	.st53{fill:url(#SVGID_00000137091808007682824500000017909938700119509154_);}
	.st54{fill:url(#SVGID_00000000215050428084797810000006303251032655302295_);}
	.st55{fill:url(#SVGID_00000155140314938720329510000016831280770632955531_);}
	.st56{fill:#FFFFFF;stroke:#192135;stroke-width:5;stroke-miterlimit:10;}
	.st57{fill:none;stroke:#FFFFFF;stroke-width:8;stroke-miterlimit:10;}
	.st58{fill:url(#SVGID_00000156560387414272604080000000942759145322570642_);}
	.st59{fill:url(#패스_1_00000040576029426463127810000010219623676451694003_);}
	.st60{fill:url(#패스_2_00000088122514635916745520000004193905814655611569_);}
	.st61{fill:url(#패스_3_00000172426698749371390910000012145593280791336585_);}
	.st62{fill:url(#패스_4_00000102532931182770472590000009388376226034899359_);}
	.st63{fill:url(#패스_5_00000054968461413547178870000002830561913742432161_);}
	.st64{fill:url(#패스_1_00000099661321998651405160000010048663936185733306_);}
	.st65{fill:url(#패스_2_00000181060930437054821600000012135438554550295947_);}
	.st66{fill:url(#패스_3_00000173871079036895004670000015334609849497405319_);}
	.st67{fill:url(#패스_4_00000072972810283413026950000006924107050487454394_);}
	.st68{fill:url(#패스_5_00000168080494622297720610000003765117253243587261_);}
	.st69{fill:url(#패스_1_00000166656524101102021350000011599742704569111738_);}
	.st70{fill:url(#패스_2_00000058571394045715953870000002456541742199054230_);}
	.st71{fill:url(#패스_3_00000075861643312340547890000009239456760094359730_);}
	.st72{fill:url(#패스_4_00000064330982223352316680000014984932997734890429_);}
	.st73{fill:url(#패스_5_00000105403849386609196240000015261686061704925337_);}
	.st74{fill:#FFFFFF;stroke:#B2B2B2;stroke-width:0.5;stroke-miterlimit:10;}
	.st75{fill:url(#패스_1_00000095304525005117674460000004204483333500194981_);}
	.st76{fill:url(#패스_2_00000041261140466626020480000006225368258203728059_);}
	.st77{fill:url(#패스_3_00000100380433091101462510000004474440888661848196_);}
	.st78{fill:url(#패스_4_00000002385427301612244090000014123418995183218562_);}
	.st79{fill:url(#패스_5_00000060003574243841187220000008287971002608923282_);}
	.st80{fill:url(#SVGID_00000168813298282381558390000007830885919302472085_);}
	.st81{fill:url(#SVGID_00000130620781403248826220000005068864761319147196_);}
	.st82{fill:url(#SVGID_00000014604642011692196280000002609622275188063378_);}
	.st83{fill:url(#SVGID_00000049916032231396633890000012486303545073952129_);}
	.st84{fill:url(#SVGID_00000088127155295378171100000013136985639279436726_);}
	.st85{fill:url(#SVGID_00000072990062531007534440000006135899904725193637_);}
	.st86{fill:none;stroke:#192135;stroke-width:0.25;stroke-miterlimit:10;}
	.st87{clip-path:url(#SVGID_00000126292640135289557210000006601495088345615295_);}
	.st88{clip-path:url(#SVGID_00000168822742435764588800000007102858547731292556_);}
	.st89{clip-path:url(#SVGID_00000011019023509253045750000003235273916611390388_);}
	.st90{clip-path:url(#SVGID_00000016055194581754329080000015983263451928955326_);}
	.st91{clip-path:url(#SVGID_00000124880134277078357960000007944893741990277783_);}
	.st92{clip-path:url(#SVGID_00000019639480840309989710000010592190147498698401_);}
	.st93{clip-path:url(#SVGID_00000072280643987555141840000000941947154820214712_);}
	.st94{clip-path:url(#SVGID_00000180344467656210480040000008146154668456045982_);}
	.st95{clip-path:url(#SVGID_00000088091291984627202340000003220063445203149456_);}
	.st96{clip-path:url(#SVGID_00000183227345596378042710000009055353410500125881_);}
	.st97{clip-path:url(#SVGID_00000012467657536875807970000012787604982245987503_);}
	.st98{clip-path:url(#SVGID_00000078731304188389584460000013891289040548072336_);}
	.st99{clip-path:url(#SVGID_00000119091720176075691550000010143861778360935311_);}
	.st100{clip-path:url(#SVGID_00000072960159853482210860000017002755118353904031_);}
	.st101{clip-path:url(#SVGID_00000053502815886116383620000010431876352412535710_);}
	.st102{clip-path:url(#SVGID_00000105399411979379494110000016451910820782759844_);}
	.st103{clip-path:url(#SVGID_00000074442940854565601320000007318937795471621269_);}
	.st104{clip-path:url(#SVGID_00000036968609980576725570000012922641291337625023_);}
	.st105{clip-path:url(#SVGID_00000137841957683391456130000006137687072012219299_);}
	.st106{clip-path:url(#SVGID_00000076567045711200948060000006693131203982780848_);}
	.st107{clip-path:url(#SVGID_00000018213055217980333810000014471203857037508790_);}
	.st108{clip-path:url(#SVGID_00000145744697858335713730000002862149155014156683_);}
	.st109{clip-path:url(#SVGID_00000165952440266347844240000014885555331943846791_);}
	.st110{clip-path:url(#SVGID_00000139981821427182878040000003449891159394068631_);}
	.st111{clip-path:url(#SVGID_00000023252202578613046220000015205705361009211031_);}
	.st112{clip-path:url(#SVGID_00000127028021265732752550000013297807576766665141_);}
	.st113{clip-path:url(#SVGID_00000120546984833340116940000008517387424740804798_);}
	.st114{clip-path:url(#SVGID_00000034054414486162847610000013481759819282039941_);}
	.st115{clip-path:url(#SVGID_00000023278296335176303370000001962515107778623655_);}
	.st116{clip-path:url(#SVGID_00000121239750887857100220000001077655219461159353_);}
	.st117{clip-path:url(#SVGID_00000039133800190587148150000000716360210383702709_);}
	.st118{clip-path:url(#SVGID_00000139972100552450893920000010285936097406403468_);}
	.st119{fill:#FF902B;}
	.st120{fill:#FF3D16;}
	.st121{fill:#5E1319;}
	.st122{fill:#DC096E;}
	.st123{fill:url(#패스_1_00000000912175343835490080000001410965899888095367_);}
	.st124{fill:url(#패스_2_00000059293671895027339590000001311176363350328979_);}
	.st125{fill:url(#패스_3_00000050650679835373398100000013367268556187474600_);}
	.st126{fill:url(#패스_4_00000076582755586667916520000013784595664768968105_);}
	.st127{fill:url(#패스_5_00000123426228984526449750000002859088267027618747_);}
	.st128{clip-path:url(#SVGID_00000003103095620754960550000015763548937584082313_);}
	.st129{clip-path:url(#SVGID_00000016791810309817890310000000394032451880334243_);}
	.st130{clip-path:url(#SVGID_00000058573951597383547250000018336995419028037048_);}
	.st131{clip-path:url(#SVGID_00000150081176042912442120000008209116969880475837_);}
	.st132{fill:url(#패스_1_00000099621415831863856320000003945521413119199647_);}
	.st133{fill:url(#패스_2_00000091711631663336428170000011549783604369334704_);}
	.st134{fill:url(#패스_3_00000021816772797106814850000006697714362389522857_);}
	.st135{fill:url(#패스_4_00000005945005322589906040000014492984624917965748_);}
	.st136{fill:url(#패스_5_00000099655390474331633000000015964698491937262781_);}
</style>
<g id="그룹_70_00000096763364696685955090000008951998904023492779_" transform="translate(0 0)">
	
		<linearGradient id="패스_1_00000167389193622510673920000008482890252888940714_" gradientUnits="userSpaceOnUse" x1="24.0661" y1="-5.3089" x2="41.0072" y2="84.6674">
		<stop  offset="0" style="stop-color:#FFFA32"/>
		<stop  offset="1" style="stop-color:#FFC319"/>
	</linearGradient>
	
		<path id="패스_1_00000000199141337118131000000017503251109432675507_" style="fill:url(#패스_1_00000167389193622510673920000008482890252888940714_);" d="
		M36.3,33.5c-4.2,0-7.7,3.4-7.7,7.7V79c0,1.4,1.1,2.5,2.5,2.5c0,0,0,0,0,0h10.3c1.4,0,2.5-1.1,2.5-2.5c0,0,0,0,0,0V41.2
		C44,36.9,40.6,33.5,36.3,33.5 M39,76.5h-5.3V41.2c0-1.5,1.2-2.7,2.6-2.7c1.5,0,2.7,1.2,2.7,2.6c0,0,0,0,0,0.1L39,76.5z"/>
	
		<linearGradient id="패스_2_00000081624678181813685670000014116947830467608244_" gradientUnits="userSpaceOnUse" x1="2.9175" y1="-1.3269" x2="19.8586" y2="88.6494">
		<stop  offset="0" style="stop-color:#FFFA32"/>
		<stop  offset="1" style="stop-color:#FFC319"/>
	</linearGradient>
	
		<path id="패스_2_00000040534771395603668780000012737244731977548162_" style="fill:url(#패스_2_00000081624678181813685670000014116947830467608244_);" d="
		M11.5,22.5C5.2,22.5,0,27.6,0,34C0,39.4,3.7,44,9,45.2v31.3H4.9v5h15.6c1.4,0,2.5-1.1,2.5-2.5c0,0,0,0,0,0V34
		C23,27.7,17.8,22.5,11.5,22.5 M5,34c0-2.6,1.6-5,4-6v12C6.6,39,5,36.6,5,34 M18,76.5h-4V28l0,0c0.3,0.1,0.5,0.2,0.7,0.4
		c0.1,0,0.1,0.1,0.2,0.1c0.2,0.1,0.4,0.3,0.6,0.5c0,0,0,0,0,0c0.2,0.2,0.4,0.4,0.6,0.6c0,0.1,0.1,0.1,0.1,0.2
		c0.2,0.2,0.3,0.4,0.5,0.6l0,0c0.2,0.2,0.3,0.5,0.4,0.7c0,0.1,0.1,0.1,0.1,0.2c0.1,0.2,0.2,0.5,0.3,0.8l0,0c0.1,0.3,0.1,0.6,0.2,0.8
		c0,0.1,0,0.1,0,0.2c0,0.3,0.1,0.6,0.1,0.9L18,76.5z"/>
	
		<linearGradient id="패스_3_00000139253835590233168310000014297381780235940240_" gradientUnits="userSpaceOnUse" x1="49.0382" y1="-10.0107" x2="65.9794" y2="79.9655">
		<stop  offset="0" style="stop-color:#FFFA32"/>
		<stop  offset="1" style="stop-color:#FFC319"/>
	</linearGradient>
	
		<path id="패스_3_00000108308920567626525040000007909878548346733707_" style="fill:url(#패스_3_00000139253835590233168310000014297381780235940240_);" d="
		M73,34c-0.1-6.4-5.3-11.4-11.7-11.3C55.1,22.8,50.1,27.8,50,34v45c0,1.4,1.1,2.5,2.5,2.5c0,0,0,0,0,0h15.6v-5H64V45.2
		C69.3,44,73,39.4,73,34 M68,34c0,2.6-1.6,5-4,6V28C66.4,29,68,31.4,68,34 M55,76.5V34c0-0.3,0-0.6,0.1-0.9c0-0.1,0-0.1,0-0.2
		c0-0.3,0.1-0.6,0.2-0.8l0,0c0.1-0.3,0.2-0.5,0.3-0.8c0-0.1,0.1-0.1,0.1-0.2c0.1-0.2,0.3-0.5,0.4-0.7l0,0c0.2-0.2,0.3-0.4,0.5-0.6
		c0-0.1,0.1-0.1,0.1-0.2c0.2-0.2,0.4-0.4,0.6-0.6c0,0,0,0,0,0c0.2-0.2,0.4-0.3,0.6-0.5c0.1,0,0.1-0.1,0.2-0.1
		c0.2-0.1,0.5-0.3,0.7-0.4l0,0v48.5H55z"/>
	
		<linearGradient id="패스_4_00000032641108862484248360000007053580962519095684_" gradientUnits="userSpaceOnUse" x1="34.8459" y1="-7.3386" x2="51.7871" y2="82.6377">
		<stop  offset="0" style="stop-color:#FFFA32"/>
		<stop  offset="1" style="stop-color:#FFC319"/>
	</linearGradient>
	
		<path id="패스_4_00000132048315102494436680000014782102483325940141_" style="fill:url(#패스_4_00000032641108862484248360000007053580962519095684_);" d="
		M3.2,5.5C3.4,5.8,3.7,6,4.1,6h64.6c0.4,0,0.7-0.2,0.9-0.5l2.1-4C72,1,71.8,0.4,71.3,0.1C71.2,0,71,0,70.8,0H2C1.4,0,1,0.4,1,1
		c0,0.2,0,0.3,0.1,0.5L3.2,5.5z"/>
	
		<linearGradient id="패스_5_00000153662957690178956930000014724326966778416543_" gradientUnits="userSpaceOnUse" x1="33.0276" y1="-6.9962" x2="49.9687" y2="82.9801">
		<stop  offset="0" style="stop-color:#FFFA32"/>
		<stop  offset="1" style="stop-color:#FFC319"/>
	</linearGradient>
	
		<path id="패스_5_00000161602747849316263500000018113069052014543541_" style="fill:url(#패스_5_00000153662957690178956930000014724326966778416543_);" d="
		M7.3,10c-0.6,0-1,0.4-1,1c0,0.2,0,0.3,0.1,0.5l2.1,4C8.7,15.8,9,16,9.4,16h54c0.4,0,0.7-0.2,0.9-0.5l2.1-4c0.3-0.5,0.1-1.1-0.4-1.4
		C65.9,10,65.7,10,65.5,10H7.3z"/>
</g>
</svg>
