<?xml version="1.0" encoding="utf-8"?>
<!-- Generator: Adobe Illustrator 26.0.2, SVG Export Plug-In . SVG Version: 6.00 Build 0)  -->
<svg version="1.1" id="Layer_1" xmlns="http://www.w3.org/2000/svg" xmlns:xlink="http://www.w3.org/1999/xlink" x="0px" y="0px"
	 viewBox="0 0 73 82" style="enable-background:new 0 0 73 82;" xml:space="preserve">
<style type="text/css">
	.st0{fill:#FFFFFF;}
	.st1{fill:none;stroke:#000000;stroke-width:5;stroke-miterlimit:10;}
	.st2{fill:none;stroke:#000000;stroke-width:5;stroke-linejoin:round;stroke-miterlimit:10;}
	.st3{fill:none;}
	.st4{fill:none;stroke:#000000;stroke-width:2;stroke-linejoin:round;stroke-miterlimit:10;}
	.st5{fill:#192135;}
	.st6{fill:#FFFFFF;stroke:#192135;stroke-miterlimit:10;}
	.st7{fill:url(#SVGID_1_);}
	.st8{fill:url(#SVGID_00000170978321847797306440000003952760967425379491_);}
	.st9{fill:url(#SVGID_00000070103654837094651720000003999940304357563563_);}
	.st10{fill:url(#SVGID_00000024001436542636134400000009217777912414604221_);}
	.st11{fill:url(#SVGID_00000000199760492375182460000003336077836933985974_);}
	.st12{fill:url(#SVGID_00000149365686294273520010000017393784191738390424_);}
	.st13{fill:url(#SVGID_00000171702890676379722360000005866196917438091166_);}
	.st14{fill:url(#SVGID_00000036232327758960489530000015766589734641615238_);}
	.st15{fill:url(#SVGID_00000054977865384699883820000008505979569808881585_);}
	.st16{fill:url(#SVGID_00000021083218339923172250000010775648289190019987_);}
	.st17{fill:url(#SVGID_00000111154968817192697630000003615476880607463561_);}
	.st18{fill:url(#SVGID_00000066504590296670297870000007950610022567176087_);}
	.st19{fill:url(#SVGID_00000028300633770417707960000016697013638889175459_);}
	.st20{fill:url(#SVGID_00000075872686429113428760000012708732586415469233_);}
	.st21{fill:url(#SVGID_00000072247022225723001640000000420413102962779545_);}
	.st22{fill:url(#SVGID_00000008136888411636736000000002216347707241874824_);}
	.st23{fill:url(#SVGID_00000068647670182950212330000008881058975036251270_);}
	.st24{fill:url(#SVGID_00000183246978372022587150000000226981725791434381_);}
	.st25{fill:url(#SVGID_00000128480430770565263460000017429823908216078994_);}
	.st26{fill:url(#SVGID_00000071538503356163132710000003087432495745458838_);}
	.st27{fill:#668EFF;}
	.st28{fill:none;stroke:#000000;stroke-width:10;stroke-linejoin:round;stroke-miterlimit:10;}
	.st29{fill:#92A4FF;stroke:#000000;stroke-width:10;stroke-linejoin:round;stroke-miterlimit:10;}
	.st30{fill:#677FBF;stroke:#000000;stroke-width:10;stroke-linejoin:round;stroke-miterlimit:10;}
	.st31{fill:#FFFFFF;stroke:#000000;stroke-width:10;stroke-linejoin:round;stroke-miterlimit:10;}
	.st32{fill:#CFD9FF;stroke:#000000;stroke-width:10;stroke-linejoin:round;stroke-miterlimit:10;}
	.st33{fill:url(#SVGID_00000173155192878264866810000009074574207217238463_);}
	.st34{fill:none;stroke:#FF3171;stroke-miterlimit:10;}
	.st35{fill:none;stroke:#FF3171;stroke-linejoin:round;stroke-miterlimit:10;}
	.st36{fill:url(#SVGID_00000160895757891145422120000006507473264031661978_);}
	.st37{fill:url(#SVGID_00000028297060259084504010000007096136053831926699_);}
	.st38{fill:url(#SVGID_00000016785329760395155750000007638751067581483187_);}
	.st39{fill:url(#SVGID_00000112612072570958138930000004653804964440335506_);}
	.st40{fill:url(#SVGID_00000102525230912099056200000007398955298774547329_);}
	.st41{fill:url(#SVGID_00000163074704922225649450000010878041551275766446_);}
	.st42{fill:url(#SVGID_00000003093293839465502080000009629577005623654291_);}
	.st43{fill:url(#SVGID_00000063601208917328622490000002805138279899468169_);}
	.st44{fill:url(#SVGID_00000119075417177730695440000001034519694572543395_);}
	.st45{fill:url(#SVGID_00000111902407572560052560000008965608964259668366_);}
	.st46{fill:url(#SVGID_00000178911275655762342720000016192708502782507441_);}
	.st47{fill:url(#SVGID_00000074426873026953839540000015421830671102834874_);}
	.st48{fill:url(#SVGID_00000040560142133591723580000011016752241964543396_);}
	.st49{fill:url(#SVGID_00000160179591561223221450000017181049273962596020_);}
	.st50{fill:url(#SVGID_00000007403505218840341290000001209810561196736161_);}
	.st51{fill:url(#SVGID_00000142857368809531612580000006713328018848235155_);}
	.st52{fill:url(#SVGID_00000152228566851143694740000013772087065707004564_);}
	.st53{fill:url(#SVGID_00000130646551168691676340000011567027175521719177_);}
	.st54{fill:#FFFFFF;stroke:#192135;stroke-width:5;stroke-miterlimit:10;}
	.st55{fill:none;stroke:#FFFFFF;stroke-width:8;stroke-miterlimit:10;}
	.st56{fill:url(#SVGID_00000127040856202078317270000012216256199821631150_);}
	.st57{fill:url(#패스_1_00000086667082575824241000000006209108517720486307_);}
	.st58{fill:url(#패스_2_00000104689954053263324080000009601579309542665859_);}
	.st59{fill:url(#패스_3_00000113334155658440795260000008087576256287879819_);}
	.st60{fill:url(#패스_4_00000160909720106325944850000005606032622404481467_);}
	.st61{fill:url(#패스_5_00000075132683575468321380000002691402037314239154_);}
	.st62{fill:url(#SVGID_00000072997316037660073010000009609214892181496463_);}
	.st63{fill:url(#SVGID_00000103263730510032117010000011654942922144594837_);}
	.st64{fill:url(#SVGID_00000090274615865275220440000015012094678042875037_);}
	.st65{fill:url(#SVGID_00000183207014067314365440000000812416063999424902_);}
	.st66{fill:url(#SVGID_00000026875150477634920650000006981613920824383616_);}
	.st67{fill:url(#SVGID_00000054947702479565173170000001414817627514393481_);}
</style>
<g>
	<linearGradient id="SVGID_1_" gradientUnits="userSpaceOnUse" x1="1.3547" y1="0.2911" x2="54.8134" y2="84.9968">
		<stop  offset="1.173899e-03" style="stop-color:#00BEE4"/>
		<stop  offset="1" style="stop-color:#6E00FF"/>
	</linearGradient>
	<path class="st7" d="M36.4,39.1c-1.2,0-2.2,1-2.2,2.2v29.5h4.4V41.3C38.6,40.1,37.6,39.1,36.4,39.1z"/>
	
		<linearGradient id="SVGID_00000114765898589387195510000011851862529701173919_" gradientUnits="userSpaceOnUse" x1="16.0123" y1="-8.9595" x2="69.4711" y2="75.7462">
		<stop  offset="1.173899e-03" style="stop-color:#00BEE4"/>
		<stop  offset="1" style="stop-color:#6E00FF"/>
	</linearGradient>
	<path style="fill:url(#SVGID_00000114765898589387195510000011851862529701173919_);" d="M54.6,30.7c-0.1,0-0.1,0.1-0.1,0.1
		c-0.2,0.1-0.4,0.2-0.5,0.4c0,0,0,0,0,0c-0.2,0.1-0.3,0.3-0.5,0.5c0,0-0.1,0.1-0.1,0.1c-0.1,0.2-0.3,0.3-0.4,0.5c0,0,0,0,0,0
		c-0.1,0.2-0.2,0.4-0.3,0.6c0,0.1-0.1,0.1-0.1,0.2c-0.1,0.2-0.2,0.4-0.3,0.6c0,0,0,0,0,0c-0.1,0.2-0.1,0.5-0.2,0.7
		c0,0.1,0,0.1,0,0.2c0,0.2-0.1,0.5-0.1,0.7v35.4h3.3V30.4c0,0,0,0,0,0C55,30.5,54.8,30.6,54.6,30.7z"/>
	
		<linearGradient id="SVGID_00000085936363165727206230000005018440176172393635_" gradientUnits="userSpaceOnUse" x1="-6.1611" y1="5.0344" x2="47.2976" y2="89.7401">
		<stop  offset="1.173899e-03" style="stop-color:#00BEE4"/>
		<stop  offset="1" style="stop-color:#6E00FF"/>
	</linearGradient>
	<path style="fill:url(#SVGID_00000085936363165727206230000005018440176172393635_);" d="M10.2,35.4c0,2.3,1.4,4.2,3.3,5v-10
		C11.6,31.2,10.2,33.1,10.2,35.4z"/>
	
		<linearGradient id="SVGID_00000135690585830113104140000010786999846854981014_" gradientUnits="userSpaceOnUse" x1="27.4729" y1="-16.1924" x2="80.9316" y2="68.5133">
		<stop  offset="1.173899e-03" style="stop-color:#00BEE4"/>
		<stop  offset="1" style="stop-color:#6E00FF"/>
	</linearGradient>
	<path style="fill:url(#SVGID_00000135690585830113104140000010786999846854981014_);" d="M59.4,30.4v10c2-0.8,3.3-2.8,3.3-5
		S61.4,31.2,59.4,30.4z"/>
	
		<linearGradient id="SVGID_00000026143109036171634320000012090651957818028983_" gradientUnits="userSpaceOnUse" x1="-9.215" y1="6.9617" x2="44.2438" y2="91.6674">
		<stop  offset="1.173899e-03" style="stop-color:#00BEE4"/>
		<stop  offset="1" style="stop-color:#6E00FF"/>
	</linearGradient>
	<path style="fill:url(#SVGID_00000026143109036171634320000012090651957818028983_);" d="M21,34.5c0-0.2-0.1-0.5-0.2-0.7
		c0,0,0,0,0,0c-0.1-0.2-0.2-0.4-0.3-0.6c0-0.1-0.1-0.1-0.1-0.2c-0.1-0.2-0.2-0.4-0.3-0.6c0,0,0,0,0,0c-0.1-0.2-0.3-0.4-0.4-0.5
		c0,0-0.1-0.1-0.1-0.1c-0.2-0.2-0.3-0.3-0.5-0.5c0,0,0,0,0,0c-0.2-0.1-0.4-0.3-0.5-0.4c0,0-0.1-0.1-0.1-0.1
		c-0.2-0.1-0.4-0.2-0.6-0.3c0,0,0,0,0,0v40.4h3.3V35.4c0-0.3,0-0.5-0.1-0.7C21,34.6,21,34.5,21,34.5z"/>
	
		<linearGradient id="SVGID_00000173129775614450537520000001816119983793162414_" gradientUnits="userSpaceOnUse" x1="8.1154" y1="-3.9757" x2="61.5741" y2="80.7301">
		<stop  offset="1.173899e-03" style="stop-color:#00BEE4"/>
		<stop  offset="1" style="stop-color:#6E00FF"/>
	</linearGradient>
	<path style="fill:url(#SVGID_00000173129775614450537520000001816119983793162414_);" d="M68,0H5C2.2,0,0,2.2,0,5v72
		c0,2.8,2.2,5,5,5h63c2.8,0,5-2.2,5-5V5C73,2.2,70.8,0,68,0z M7.7,7h57.4c0.6,0,1,0.7,0.7,1.2l-1.8,3.3C64,11.9,63.7,12,63.4,12H9.5
		c-0.3,0-0.6-0.2-0.7-0.4L7,8.2C6.7,7.7,7.1,7,7.7,7z M61.5,16.6l-1.8,3.3c-0.1,0.3-0.4,0.4-0.7,0.4H13.9c-0.3,0-0.6-0.2-0.7-0.4
		l-1.8-3.3c-0.3-0.6,0.1-1.2,0.7-1.2h48.6C61.4,15.4,61.8,16,61.5,16.6z M25.2,72.9c0,1.2-0.9,2.1-2.1,2.1h-7.5h-5.5v-4.2h3.4V44.7
		c-4.3-1-7.5-4.8-7.5-9.4c0-5.3,4.3-9.6,9.6-9.6c5.3,0,9.6,4.3,9.6,9.6V72.9z M42.8,72.9c0,1.2-0.9,2.1-2.1,2.1h-8.6
		C30.9,75,30,74,30,72.9V41.3c0-3.5,2.9-6.4,6.4-6.4c3.5,0,6.4,2.9,6.4,6.4V72.9z M59.4,44.7v26.1h3.4V75h-5.5h-7.5
		c-1.2,0-2.1-0.9-2.1-2.1V35.4c0-5.3,4.3-9.6,9.6-9.6c5.3,0,9.6,4.3,9.6,9.6C66.9,39.9,63.7,43.8,59.4,44.7z"/>
</g>
</svg>
