<?xml version="1.0" encoding="UTF-8"?>
<svg id="_레이어_1" data-name="레이어 1" xmlns="http://www.w3.org/2000/svg" viewBox="0 0 412.18 412.18">
  <defs>
    <style>
      .cls-1 {
        fill: none;
      }

      .cls-1, .cls-2, .cls-3, .cls-4, .cls-5 {
        stroke-width: 0px;
      }

      .cls-2 {
        fill: #333;
      }

      .cls-3 {
        fill: #fffdf3;
      }

      .cls-4 {
        fill: #fff;
      }

      .cls-5 {
        fill: #fffae6;
      }
    </style>
  </defs>
  <circle class="cls-2" cx="206.09" cy="206.09" r="206.09"/>
  <path class="cls-4" d="m164.03,237.03l-9.88,2.15c-.77.16-1.49.38-2.15.65l-65.35,26.32c-2.46.99-3.92,2.57-3.92,4.25v20.06c.04.96.5,1.9,1.39,2.71l11.56,10.6v8.32c0,1.61,1.33,3.12,3.63,4.12l43.94,19.18c1.71.74,3.81,1.15,5.99,1.15h18.39l18.17,5.74c1.45.46,3.11.7,4.8.7h31.01c1.68,0,3.34-.24,4.8-.7l18.17-5.74h18.39c2.18,0,4.29-.4,5.99-1.15l43.98-19.18c2.3-1,3.63-2.52,3.63-4.12v-8.32l11.56-10.6c.89-.82,1.36-1.75,1.36-2.71v-20.06c0-1.68-1.45-3.25-3.92-4.25l-65.35-26.32c-.66-.27-1.38-.49-2.15-.65l-9.59-2.09-84.45-.07Zm-58.72,75.06v-8.27l64.7-50.75,29.35-13.75-32.62,62.45-.14.26v29.24h-17.36l-43.93-19.18Zm116.33,25.62h-31.01l-16.8-5.3v-29.81l32.31-61.85,32.31,61.85v29.81l-16.8,5.3Zm41.36-6.44h-17.36v-29.23l-32.75-62.72,29.35,13.75,64.7,50.75v8.27l-43.94,19.18Zm56.87-60.87v20.06l-9.76,8.95-62.22-48.81-.26-.2-31.14-14.58,38.04,8.27,65.35,26.32Zm-227.48,0l65.35-26.32,38.04-8.27-30.79,14.42-.35.17-62.49,49.02-9.76-8.94v-20.07Z"/>
  <path class="cls-4" d="m339.93,228.5l-13.5,11,11,13.5,13.5-11-11-13.5Z"/>
  <path class="cls-4" d="m360.91,187.34l-9.98,10.59,10.59,9.98,9.98-10.59-10.59-9.98Z"/>
  <path class="cls-4" d="m72.4,257.7l-17.72-6.05-3.62-18.38,14.1-12.32,17.72,6.05,3.62,18.38-14.1,12.32Zm-12.3-10.8l10.89,3.73,8.67-7.58-2.23-11.3-10.89-3.73-8.67,7.58,2.23,11.3Z"/>
  <polygon class="cls-1" points="242.22 236.5 306.92 143.88 306.92 128.8 262.99 93.8 245.63 93.8 245.63 147.15 245.49 147.63 217.15 246.62 230.25 246.73 242.22 236.5"/>
  <polygon class="cls-1" points="166.58 147.14 166.58 93.8 149.23 93.8 105.29 128.8 105.29 143.88 169.99 236.5 181.45 246.3 195 246.42 166.58 147.14"/>
  <polygon class="cls-1" points="238.4 146.12 238.4 91.72 221.59 82.04 206.09 82.04 190.59 82.04 173.78 91.72 173.78 146.12 202.51 246.49 209.65 246.55 238.4 146.12"/>
  <polygon class="cls-1" points="170.25 246.2 164.6 241.38 164.34 241.01 102.11 151.93 92.35 168.26 92.35 204.87 149.97 247.21 152.87 246.05 170.25 246.2"/>
  <polygon class="cls-1" points="262.24 247.19 319.84 204.87 319.84 168.24 310.08 151.93 247.59 241.38 247.24 241.68 241.21 246.83 261.79 247.01 262.24 247.19"/>
  <path class="cls-4" d="m328.09,163.31l-11.56-19.34v-15.18c0-2.93-1.33-5.7-3.63-7.52l-43.94-35c-1.71-1.36-3.81-2.09-5.99-2.09h-18.39l-18.17-10.47c-1.45-.84-3.11-1.29-4.8-1.29h-31.01c-1.68,0-3.34.45-4.8,1.29l-18.17,10.47h-18.39c-2.18,0-4.29.73-5.99,2.09l-43.98,35c-2.3,1.83-3.63,4.59-3.63,7.52v15.18l-11.56,19.34c-.89,1.49-1.36,3.2-1.36,4.94v36.61c0,3.06,1.45,5.94,3.92,7.75l52.82,38.82,10.49-4.23-57.62-42.35v-36.61l9.76-16.32,62.22,89.07.26.37,5.65,4.82,11.21.1-11.47-9.8-64.7-92.62v-15.08l43.94-35h17.36v53.34l28.41,99.28,7.52.07-28.73-100.37v-54.4l16.8-9.67h31.01l16.8,9.67v54.4l-28.75,100.43,7.5.07,28.34-98.99.14-.48v-53.35h17.36l43.93,35v15.08l-64.7,92.62-11.97,10.23,10.97.1,6.03-5.15.35-.3,62.49-89.44,9.76,16.31v36.62l-57.59,42.33,10.53,4.24,52.8-38.8c2.46-1.81,3.92-4.69,3.92-7.75v-36.61c-.04-1.75-.5-3.46-1.39-4.95Z"/>
  <g>
    <circle class="cls-5" cx="206.09" cy="234.56" r="56.85"/>
    <circle class="cls-3" cx="210.48" cy="227.83" r="47.71"/>
    <circle class="cls-4" cx="214.47" cy="218.33" r="34.71"/>
  </g>
</svg>