<svg width="69" height="96" viewBox="0 0 69 96" fill="none" xmlns="http://www.w3.org/2000/svg">
<g clip-path="url(#clip0_1:461)">
<path fill-rule="evenodd" clip-rule="evenodd" d="M29.6273 91.5969H34.0269V84.9868H27.4275V96H29.6273V91.5969ZM31.8271 89.3953H29.6273V87.1937H31.8271V89.3953Z" fill="#06A2CB"/>
<path d="M45.5435 93.7984V96H38.9387V93.7984H41.1385V87.1883H38.9387V84.9868H45.5435V87.1937H43.3437V93.7984H45.5435Z" fill="#06A2CB"/>
<path d="M54.855 91.5969H57.0548V96H50.4554V84.9868H57.0548V89.3953H54.855V87.1937H52.6552V93.7984H54.855V91.5969Z" fill="#06A2CB"/>
<path d="M68.5714 89.3953V96H61.9666V93.7984H66.3662V91.5969H61.9666V84.9868H68.5714V87.1883L64.1664 87.1937V89.3953H68.5714Z" fill="#06A2CB"/>
<path d="M0 96H2.19981V89.3953H4.39961V91.5969H6.59942V89.3953H4.39961V87.1883H2.19981V84.9868H0V96Z" fill="#DD1E2F"/>
<path d="M11.0044 84.9868H8.79923V87.1883H6.59943L6.59942 89.3953H8.79923V96H11.0044V84.9868Z" fill="#DD1E2F"/>
<path d="M20.3159 89.3953H18.1161V84.9868H15.9163V91.5969H18.1161V96H20.3159V91.5969H22.5157V84.9868H20.3159V89.3953Z" fill="#DD1E2F"/>
<path d="M44.9181 50.9165C47.1467 50.9194 49.354 50.4825 51.4138 49.6309C53.4736 48.7794 55.3455 47.5298 56.9223 45.9537C58.4992 44.3775 59.7502 42.5058 60.6037 40.4454C61.4572 38.3851 61.8965 36.1766 61.8965 33.9462H44.9181V50.9165Z" fill="#06A2CB"/>
<path d="M11.0044 67.8869H27.9612L27.9612 50.9165H11.0044L11.0044 67.8869Z" fill="#06A2CB"/>
<path d="M11.0044 50.9165H27.9612L27.9612 33.9462H11.0044L11.0044 50.9165Z" fill="#218559"/>
<path d="M11.0044 33.9462H27.9612L27.9612 16.9758L11.0044 16.9758L11.0044 33.9462Z" fill="#EBB035"/>
<path d="M11.0044 16.9758L27.9612 16.9758L27.9612 0.00540352L11.0044 0.00540352L11.0044 16.9758Z" fill="#DD1E2F"/>
<path d="M27.9613 16.9758L44.9182 16.9758V0.00540352L27.9613 0.00540352L27.9613 16.9758Z" fill="#EBB035"/>
<path d="M44.9181 1.37271e-05C47.1467 -0.00282303 49.354 0.434035 51.4138 1.28561C53.4736 2.13718 55.3455 3.38676 56.9223 4.96288C58.4992 6.53901 59.7502 8.41077 60.6037 10.4711C61.4572 12.5315 61.8965 14.74 61.8965 16.9704H44.9181V1.37271e-05Z" fill="#218559"/>
</g>
<defs>
<clipPath id="clip0_1:461">
<rect width="68.5714" height="96" fill="white"/>
</clipPath>
</defs>
</svg>
