<?xml version="1.0" encoding="utf-8"?>
<!-- Generator: Adobe Illustrator 26.3.1, SVG Export Plug-In . SVG Version: 6.00 Build 0)  -->
<svg version="1.1" id="Layer_1" xmlns="http://www.w3.org/2000/svg" xmlns:xlink="http://www.w3.org/1999/xlink" x="0px" y="0px"
	 viewBox="0 0 595.28 595.24" style="enable-background:new 0 0 595.28 595.24;" xml:space="preserve">
<style type="text/css">
	
		.st0{clip-path:url(#SVGID_00000044172327488607562100000017411063279857541037_);fill:url(#SVGID_00000168824799687473895760000000132512314381470599_);}
	
		.st1{clip-path:url(#SVGID_00000124841080071074635210000012360576465261381033_);fill:url(#SVGID_00000134938959159737250620000001770038751799387784_);}
</style>
<g>
	<defs>
		<path id="SVGID_1_" d="M286.76,524.22l-181.68-91.54c-6.89-3.98-11.13-11.33-11.13-19.28l0-0.96l-0.11-0.16l0.11-0.05L93.5,192.98
			c0-7.95,4.24-15.3,11.13-19.28l182.12-93.76c6.89-3.98,15.38-3.98,22.26,0l181.68,93.98c6.89,3.98,11.13,11.33,11.13,19.28v220.64
			c0,7.95-4.24,15.31-11.13,19.28l-181.68,91.09c-3.45,1.99-7.29,2.98-11.13,2.98C294.05,527.2,290.2,526.21,286.76,524.22
			 M285.3,49.43L78.92,155.68c-7.8,4.51-12.61,12.84-12.61,21.85l0.5,251.63c0,9.01,4.81,17.34,12.61,21.85L285.3,554.73
			c7.81,4.51,17.42,4.51,25.23,0l205.88-103.22c7.81-4.51,12.62-12.84,12.62-21.85V177.78c0-9.01-4.81-17.34-12.62-21.85
			L310.53,49.43c-3.9-2.25-8.26-3.38-12.62-3.38C293.56,46.05,289.21,47.17,285.3,49.43"/>
	</defs>
	<clipPath id="SVGID_00000154393025759828097300000006700810039945729966_">
		<use xlink:href="#SVGID_1_"  style="overflow:visible;"/>
	</clipPath>
	
		<linearGradient id="SVGID_00000124875141804845101600000009453476254951223739_" gradientUnits="userSpaceOnUse" x1="-296.2966" y1="723.2675" x2="-295.3352" y2="723.2675" gradientTransform="matrix(-222.1124 -297.7251 -297.7251 222.1124 149878.0312 -248483.0781)">
		<stop  offset="0" style="stop-color:#4D77BB"/>
		<stop  offset="0.2932" style="stop-color:#4870B6"/>
		<stop  offset="0.8404" style="stop-color:#3C5CAA"/>
		<stop  offset="1" style="stop-color:#3856A6"/>
	</linearGradient>
	
		<polygon style="clip-path:url(#SVGID_00000154393025759828097300000006700810039945729966_);fill:url(#SVGID_00000124875141804845101600000009453476254951223739_);" points="
		231.76,781.01 -179.66,229.54 363.58,-175.73 774.99,375.74 	"/>
</g>
<g>
	<defs>
		<path id="SVGID_00000175296938651294257670000009253327735795297208_" d="M217.42,212.31h6.55h42.93h79.16l40.77,44.28v49.63
			l-40.39,46.84h-80.06v63.18l-48.95-25.77v-84.49H320.7l17.62-23.75l-17.44-23.11H266.9v27.76h-49.48V212.31z M309.2,163.67v0.09
			v19.57v0.08h-24.18v-0.08v-19.57v-0.09v-57.23l-157.98,81.33l56.82,24.84v24.05l-68.1-29.9l0.4,193.75c0,0.3,0.02,0.6,0.03,0.9
			l67.67-32.93v24.04l-54.47,26.83l155.63,78.41v-52.1V426v-0.08h24.18v19.65v52.95l156.86-78.65l-55.71-27.43v-24.05l69.17,33.66
			c0.02-0.38,0.04-0.76,0.04-1.15V206.18l-69.2,30.39v-24.05l57.13-24.98L309.2,105.67V163.67z"/>
	</defs>
	<clipPath id="SVGID_00000021079976603397770010000000537652656003863218_">
		<use xlink:href="#SVGID_00000175296938651294257670000009253327735795297208_"  style="overflow:visible;"/>
	</clipPath>
	
		<linearGradient id="SVGID_00000168823739060733961200000007512377313263106742_" gradientUnits="userSpaceOnUse" x1="-296.2968" y1="723.268" x2="-295.3356" y2="723.268" gradientTransform="matrix(-222.1124 -297.7251 -297.7251 222.1124 149878.5312 -248483.2656)">
		<stop  offset="0" style="stop-color:#4D77BB"/>
		<stop  offset="0.2932" style="stop-color:#4870B6"/>
		<stop  offset="0.8404" style="stop-color:#3C5CAA"/>
		<stop  offset="1" style="stop-color:#3856A6"/>
	</linearGradient>
	
		<polygon style="clip-path:url(#SVGID_00000021079976603397770010000000537652656003863218_);fill:url(#SVGID_00000168823739060733961200000007512377313263106742_);" points="
		245.85,672.87 -72.51,246.13 349.49,-68.69 667.84,358.05 	"/>
</g>
</svg>
