<?xml version="1.0" encoding="UTF-8" standalone="no"?>
<svg
   xmlns:dc="http://purl.org/dc/elements/1.1/"
   xmlns:cc="http://creativecommons.org/ns#"
   xmlns:rdf="http://www.w3.org/1999/02/22-rdf-syntax-ns#"
   xmlns:svg="http://www.w3.org/2000/svg"
   xmlns="http://www.w3.org/2000/svg"
   xmlns:sodipodi="http://sodipodi.sourceforge.net/DTD/sodipodi-0.dtd"
   xmlns:inkscape="http://www.inkscape.org/namespaces/inkscape"
   version="1.1"
   id="svg2"
   xml:space="preserve"
   width="816"
   height="1056"
   viewBox="0 0 816 1056"
   sodipodi:docname="NKP-LOGO.ai"><metadata
     id="metadata8"><rdf:RDF><cc:Work
         rdf:about=""><dc:format>image/svg+xml</dc:format><dc:type
           rdf:resource="http://purl.org/dc/dcmitype/StillImage" /></cc:Work></rdf:RDF></metadata><defs
     id="defs6"><clipPath
       clipPathUnits="userSpaceOnUse"
       id="clipPath18"><path
         d="M 0,792 H 612 V 0 H 0 Z"
         id="path16" /></clipPath></defs><sodipodi:namedview
     pagecolor="#ffffff"
     bordercolor="#666666"
     borderopacity="1"
     objecttolerance="10"
     gridtolerance="10"
     guidetolerance="10"
     inkscape:pageopacity="0"
     inkscape:pageshadow="2"
     inkscape:window-width="640"
     inkscape:window-height="480"
     id="namedview4" /><g
     id="g10"
     inkscape:groupmode="layer"
     inkscape:label="NKP-LOGO"
     transform="matrix(1.3333333,0,0,-1.3333333,0,1056)"><g
       id="g12"><g
         id="g14"
         clip-path="url(#clipPath18)"><g
           id="g20"
           transform="translate(557.5,411.0459)"><path
             d="m 0,0 c 0,138.899 -112.6,251.5 -251.5,251.5 -138.899,0 -251.501,-112.601 -251.501,-251.5 0,-138.9 112.602,-251.5 251.501,-251.5 C -112.6,-251.5 0,-138.9 0,0"
             style="fill:#ffffff;fill-opacity:1;fill-rule:evenodd;stroke:none"
             id="path22" /></g><g
           id="g24"
           transform="translate(557.5,411.0459)"><path
             d="m 0,0 c 0,138.899 -112.6,251.5 -251.5,251.5 -138.899,0 -251.501,-112.601 -251.501,-251.5 0,-138.9 112.602,-251.5 251.501,-251.5 C -112.6,-251.5 0,-138.9 0,0 Z"
             style="fill:none;stroke:#100f0d;stroke-width:2;stroke-linecap:butt;stroke-linejoin:miter;stroke-miterlimit:10;stroke-dasharray:none;stroke-opacity:1"
             id="path26" /></g><g
           id="g28"
           transform="translate(278.7187,654.9463)"><path
             d="M 0,0 C -18.601,-2.2 -41.2,-7.801 -59.399,-14.601 -68.601,-18 -91.7,-29.2 -99.899,-34.301 l -4,-2.399 4,-2 c 3.5,-1.8 34,-16.2 171.399,-81.101 22.3,-10.5 40.9,-19.099 41.2,-19.099 0.4,0 5.7,6.4 11.9,14.299 6.2,7.8 21.6,27.201 34.3,43.101 l 22.9,28.899 -2.9,2.401 c -15.7,12.899 -48.9,30.899 -70.4,38 C 79.7,-2.5 63.3,0.199 32,0.6 18.8,0.8 4.399,0.5 0,0"
             style="fill:#0d0909;fill-opacity:1;fill-rule:evenodd;stroke:none"
             id="path30" /></g><g
           id="g32"
           transform="translate(278.7187,654.9463)"><path
             d="M 0,0 C -18.601,-2.2 -41.2,-7.801 -59.399,-14.601 -68.601,-18 -91.7,-29.2 -99.899,-34.301 l -4,-2.399 4,-2 c 3.5,-1.8 34,-16.2 171.399,-81.101 22.3,-10.5 40.9,-19.099 41.2,-19.099 0.4,0 5.7,6.4 11.9,14.299 6.2,7.8 21.6,27.201 34.3,43.101 l 22.9,28.899 -2.9,2.401 c -15.7,12.899 -48.9,30.899 -70.4,38 C 79.7,-2.5 63.3,0.199 32,0.6 18.8,0.8 4.399,0.5 0,0 Z"
             style="fill:none;stroke:#ffffff;stroke-width:1;stroke-linecap:butt;stroke-linejoin:miter;stroke-miterlimit:10;stroke-dasharray:none;stroke-opacity:1"
             id="path34" /></g><g
           id="g36"
           transform="translate(154.2187,603.4463)"><path
             d="m 0,0 c -49.601,-39.601 -81.3,-95 -91.2,-159.4 -1.699,-11.401 -1.699,-55.6 0,-67 7.099,-45.901 24.9,-86.701 52.9,-121.5 8,-9.901 26.901,-29 35,-35.3 l 4.1,-3.2 24.801,31.2 c 13.699,17.2 29.798,37.599 35.899,45.3 48.399,61 57.8,73 57.899,74 C 119.601,-233.9 11.601,7.6 10.5,7.6 10,7.6 5.2,4.199 0,0"
             style="fill:#0d0909;fill-opacity:1;fill-rule:evenodd;stroke:none"
             id="path38" /></g><g
           id="g40"
           transform="translate(154.2187,603.4463)"><path
             d="m 0,0 c -49.601,-39.601 -81.3,-95 -91.2,-159.4 -1.699,-11.401 -1.699,-55.6 0,-67 7.099,-45.901 24.9,-86.701 52.9,-121.5 8,-9.901 26.901,-29 35,-35.3 l 4.1,-3.2 24.801,31.2 c 13.699,17.2 29.798,37.599 35.899,45.3 48.399,61 57.8,73 57.899,74 C 119.601,-233.9 11.601,7.6 10.5,7.6 10,7.6 5.2,4.199 0,0 Z"
             style="fill:none;stroke:#ffffff;stroke-width:1;stroke-linecap:butt;stroke-linejoin:miter;stroke-miterlimit:10;stroke-dasharray:none;stroke-opacity:1"
             id="path42" /></g><g
           id="g44"
           transform="translate(174.2187,609.8457)"><path
             d="m 0,0 c 0,-1.5 104.7,-234.2 105.5,-234.399 0.601,-0.101 11,12.399 23.2,27.899 12.2,15.5 35.9,45.5 52.7,66.7 16.8,21.2 30.4,38.901 30.3,39.401 -0.2,0.599 -19.9,10.199 -43.8,21.5 C 144,-67.5 96.8,-45.2 63.101,-29.3 -2.8,1.8 0,0.5 0,0"
             style="fill:#0d0909;fill-opacity:1;fill-rule:evenodd;stroke:none"
             id="path46" /></g><g
           id="g48"
           transform="translate(174.2187,609.8457)"><path
             d="m 0,0 c 0,-1.5 104.7,-234.2 105.5,-234.399 0.601,-0.101 11,12.399 23.2,27.899 12.2,15.5 35.9,45.5 52.7,66.7 16.8,21.2 30.4,38.901 30.3,39.401 -0.2,0.599 -19.9,10.199 -43.8,21.5 C 144,-67.5 96.8,-45.2 63.101,-29.3 -2.8,1.8 0,0.5 0,0 Z"
             style="fill:none;stroke:#ffffff;stroke-width:1;stroke-linecap:butt;stroke-linejoin:miter;stroke-miterlimit:10;stroke-dasharray:none;stroke-opacity:1"
             id="path50" /></g><g
           id="g52"
           transform="translate(453.4189,581.8457)"><path
             d="M 0,0 C -6.601,-8.399 -21.5,-27.2 -33.101,-41.8 -44.7,-56.399 -54,-68.7 -53.9,-69.2 c 0.2,-0.5 7.9,-4.5 17.299,-8.9 C -27.3,-82.5 6,-98.2 37.3,-113 c 31.4,-14.8 57.599,-27.2 58.4,-27.6 1.8,-0.7 1,6.9 -2.5,22.8 -8,36.2 -25.4,72.2 -49.1,101.5 C 35.7,-5.899 14.899,15.2 13,15.2 12.5,15.2 6.6,8.3 0,0"
             style="fill:#0d0909;fill-opacity:1;fill-rule:evenodd;stroke:none"
             id="path54" /></g><g
           id="g56"
           transform="translate(453.4189,581.8457)"><path
             d="M 0,0 C -6.601,-8.399 -21.5,-27.2 -33.101,-41.8 -44.7,-56.399 -54,-68.7 -53.9,-69.2 c 0.2,-0.5 7.9,-4.5 17.299,-8.9 C -27.3,-82.5 6,-98.2 37.3,-113 c 31.4,-14.8 57.599,-27.2 58.4,-27.6 1.8,-0.7 1,6.9 -2.5,22.8 -8,36.2 -25.4,72.2 -49.1,101.5 C 35.7,-5.899 14.899,15.2 13,15.2 12.5,15.2 6.6,8.3 0,0 Z"
             style="fill:none;stroke:#ffffff;stroke-width:1;stroke-linecap:butt;stroke-linejoin:miter;stroke-miterlimit:10;stroke-dasharray:none;stroke-opacity:1"
             id="path58" /></g><g
           id="g60"
           transform="translate(354.0186,456.4463)"><path
             d="m 0,0 c -71.1,-89.7 -70.9,-89.5 -70.3,-91.5 0.4,-1.101 3.7,-8.801 7.4,-17.2 55.001,-123.2 76.4,-170.901 77.8,-173.2 1.1,-1.901 1.5,-1.8 15.9,2.9 25.2,8.399 53.6,23.699 74.9,40.6 11.401,9 28.401,25.799 37.8,37.5 22.2,27.5 39.3,61.7 47.7,95.2 4.8,19.5 6.2,31 6.7,55.899 l 0.5,24.2 -2.299,1.5 C 194.2,-22.801 134.601,5.5 51.8,44.5 45.8,47.3 40.601,49.6 40.2,49.6 39.7,49.6 21.7,27.3 0,0"
             style="fill:#0d0909;fill-opacity:1;fill-rule:evenodd;stroke:none"
             id="path62" /></g><g
           id="g64"
           transform="translate(354.0186,456.4463)"><path
             d="m 0,0 c -71.1,-89.7 -70.9,-89.5 -70.3,-91.5 0.4,-1.101 3.7,-8.801 7.4,-17.2 55.001,-123.2 76.4,-170.901 77.8,-173.2 1.1,-1.901 1.5,-1.8 15.9,2.9 25.2,8.399 53.6,23.699 74.9,40.6 11.401,9 28.401,25.799 37.8,37.5 22.2,27.5 39.3,61.7 47.7,95.2 4.8,19.5 6.2,31 6.7,55.899 l 0.5,24.2 -2.299,1.5 C 194.2,-22.801 134.601,5.5 51.8,44.5 45.8,47.3 40.601,49.6 40.2,49.6 39.7,49.6 21.7,27.3 0,0 Z"
             style="fill:none;stroke:#ffffff;stroke-width:1;stroke-linecap:butt;stroke-linejoin:miter;stroke-miterlimit:10;stroke-dasharray:none;stroke-opacity:1"
             id="path66" /></g><g
           id="g68"
           transform="translate(263.6182,342.3457)"><path
             d="m 0,0 c -51.399,-64.899 -88.5,-111.8 -93.399,-117.899 -3.101,-3.801 -6.5,-8.201 -7.4,-9.701 l -1.801,-2.6 10.901,-7.199 c 23.099,-15.201 54.199,-28.401 81.3,-34.301 20.7,-4.5 27.2,-5.1 54.5,-5.1 22.7,0.1 27.7,0.401 39,2.401 7.2,1.199 13.5,2.599 14.099,2.899 0.7,0.5 -13.3,32.9 -39.8,92.2 C 34.9,-29 15.9,13.5 15.301,15 14.101,17.8 14.101,17.8 0,0"
             style="fill:#0d0909;fill-opacity:1;fill-rule:evenodd;stroke:none"
             id="path70" /></g><g
           id="g72"
           transform="translate(263.6182,342.3457)"><path
             d="m 0,0 c -51.399,-64.899 -88.5,-111.8 -93.399,-117.899 -3.101,-3.801 -6.5,-8.201 -7.4,-9.701 l -1.801,-2.6 10.901,-7.199 c 23.099,-15.201 54.199,-28.401 81.3,-34.301 20.7,-4.5 27.2,-5.1 54.5,-5.1 22.7,0.1 27.7,0.401 39,2.401 7.2,1.199 13.5,2.599 14.099,2.899 0.7,0.5 -13.3,32.9 -39.8,92.2 C 34.9,-29 15.9,13.5 15.301,15 14.101,17.8 14.101,17.8 0,0 Z"
             style="fill:none;stroke:#ffffff;stroke-width:1;stroke-linecap:butt;stroke-linejoin:miter;stroke-miterlimit:10;stroke-dasharray:none;stroke-opacity:1"
             id="path74" /></g><g
           id="g76"
           transform="translate(166.085,480.4004)"><path
             d="m 0,0 c 0.697,-0.822 18.951,-33.869 18.951,-34.343 0,-0.074 -10.634,-0.124 -23.658,-0.124 h -23.659 l 0.024,16.511 c 0,12.078 0.075,16.711 0.299,17.358 0.199,0.598 0.573,1.021 1.171,1.32 0.797,0.398 1.843,0.424 13.423,0.374 L -0.922,1.021 Z"
             style="fill:#ffffff;fill-opacity:1;fill-rule:evenodd;stroke:none"
             id="path78" /></g><g
           id="g80"
           transform="translate(166.085,480.4004)"><path
             d="m 0,0 c 0.697,-0.822 18.951,-33.869 18.951,-34.343 0,-0.074 -10.634,-0.124 -23.658,-0.124 h -23.659 l 0.024,16.511 c 0,12.078 0.075,16.711 0.299,17.358 0.199,0.598 0.573,1.021 1.171,1.32 0.797,0.398 1.843,0.424 13.423,0.374 L -0.922,1.021 Z"
             style="fill:none;stroke:#ffffff;stroke-width:1;stroke-linecap:butt;stroke-linejoin:miter;stroke-miterlimit:10;stroke-dasharray:none;stroke-opacity:1"
             id="path82" /></g><g
           id="g84"
           transform="translate(250.1602,481.1719)"><path
             d="m 0,0 c 0.522,-0.198 0.972,-0.622 1.12,-0.996 0.151,-0.423 0.25,-6.923 0.25,-17.457 v -16.785 h -13.448 -13.448 v 16.66 c 0,11.755 0.074,16.885 0.273,17.458 0.524,1.469 0.649,1.469 13.125,1.494 C -2.813,0.374 -0.697,0.3 0,0"
             style="fill:#ffffff;fill-opacity:1;fill-rule:evenodd;stroke:none"
             id="path86" /></g><g
           id="g88"
           transform="translate(250.1602,481.1719)"><path
             d="m 0,0 c 0.522,-0.198 0.972,-0.622 1.12,-0.996 0.151,-0.423 0.25,-6.923 0.25,-17.457 v -16.785 h -13.448 -13.448 v 16.66 c 0,11.755 0.074,16.885 0.273,17.458 0.524,1.469 0.649,1.469 13.125,1.494 C -2.813,0.374 -0.697,0.3 0,0 Z"
             style="fill:none;stroke:#ffffff;stroke-width:1;stroke-linecap:butt;stroke-linejoin:miter;stroke-miterlimit:10;stroke-dasharray:none;stroke-opacity:1"
             id="path90" /></g><g
           id="g92"
           transform="translate(306.4932,480.7236)"><path
             d="M 0,0 C 1.769,-0.946 1.693,-0.199 1.769,-18.403 L 1.843,-34.79 h -13.598 -13.573 v 16.187 c 0,17.258 0,17.208 1.196,18.28 0.299,0.249 0.897,0.548 1.345,0.647 0.448,0.124 5.578,0.199 11.406,0.175 C -1.769,0.448 -0.722,0.398 0,0"
             style="fill:#ffffff;fill-opacity:1;fill-rule:evenodd;stroke:none"
             id="path94" /></g><g
           id="g96"
           transform="translate(306.4932,480.7236)"><path
             d="M 0,0 C 1.769,-0.946 1.693,-0.199 1.769,-18.403 L 1.843,-34.79 h -13.598 -13.573 v 16.187 c 0,17.258 0,17.208 1.196,18.28 0.299,0.249 0.897,0.548 1.345,0.647 0.448,0.124 5.578,0.199 11.406,0.175 C -1.769,0.448 -0.722,0.398 0,0 Z"
             style="fill:none;stroke:#ffffff;stroke-width:1;stroke-linecap:butt;stroke-linejoin:miter;stroke-miterlimit:10;stroke-dasharray:none;stroke-opacity:1"
             id="path98" /></g><g
           id="g100"
           transform="translate(460.998,480.7734)"><path
             d="m 0,0 c 8.566,-0.672 16.287,-2.714 21.891,-5.753 5.104,-2.789 9.811,-6.897 12.899,-11.281 3.014,-4.259 5.579,-10.186 6.749,-15.614 l 0.473,-2.192 H 27.742 13.447 l -0.822,1.569 c -1.145,2.216 -4.531,5.529 -6.848,6.724 -3.711,1.917 -4.258,1.992 -16.935,2.116 l -11.281,0.1 v -5.255 -5.254 h -13.573 -13.572 l 0.024,16.138 c 0,11.805 0.076,16.337 0.299,16.984 0.224,0.648 0.573,1.021 1.419,1.445 l 1.097,0.547 h 21.69 C -11.93,0.274 -2.043,0.175 0,0"
             style="fill:#ffffff;fill-opacity:1;fill-rule:evenodd;stroke:none"
             id="path102" /></g><g
           id="g104"
           transform="translate(460.998,480.7734)"><path
             d="m 0,0 c 8.566,-0.672 16.287,-2.714 21.891,-5.753 5.104,-2.789 9.811,-6.897 12.899,-11.281 3.014,-4.259 5.579,-10.186 6.749,-15.614 l 0.473,-2.192 H 27.742 13.447 l -0.822,1.569 c -1.145,2.216 -4.531,5.529 -6.848,6.724 -3.711,1.917 -4.258,1.992 -16.935,2.116 l -11.281,0.1 v -5.255 -5.254 h -13.573 -13.572 l 0.024,16.138 c 0,11.805 0.076,16.337 0.299,16.984 0.224,0.648 0.573,1.021 1.419,1.445 l 1.097,0.547 h 21.69 C -11.93,0.274 -2.043,0.175 0,0 Z"
             style="fill:none;stroke:#ffffff;stroke-width:1;stroke-linecap:butt;stroke-linejoin:miter;stroke-miterlimit:10;stroke-dasharray:none;stroke-opacity:1"
             id="path106" /></g><g
           id="g108"
           transform="translate(384.666,479.9023)"><path
             d="m 0,0 c 1.172,-0.573 1.346,-1.395 0.574,-2.839 -0.349,-0.623 -5.977,-7.87 -12.527,-16.113 l -11.879,-15.017 h -15.441 c -12.302,0 -15.415,0.074 -15.266,0.323 0.672,1.096 25.028,32.126 25.9,32.999 l 1.071,1.045 h 13.349 C -2.415,0.398 -0.746,0.349 0,0"
             style="fill:#ffffff;fill-opacity:1;fill-rule:evenodd;stroke:none"
             id="path110" /></g><g
           id="g112"
           transform="translate(384.666,479.9023)"><path
             d="m 0,0 c 1.172,-0.573 1.346,-1.395 0.574,-2.839 -0.349,-0.623 -5.977,-7.87 -12.527,-16.113 l -11.879,-15.017 h -15.441 c -12.302,0 -15.415,0.074 -15.266,0.323 0.672,1.096 25.028,32.126 25.9,32.999 l 1.071,1.045 h 13.349 C -2.415,0.398 -0.746,0.349 0,0 Z"
             style="fill:none;stroke:#ffffff;stroke-width:1;stroke-linecap:butt;stroke-linejoin:miter;stroke-miterlimit:10;stroke-dasharray:none;stroke-opacity:1"
             id="path114" /></g><g
           id="g116"
           transform="translate(199.2812,420.0332)"><path
             d="M 0,0 10.858,-19.924 H -2.017 -14.868 l -9.712,17.733 -9.712,17.706 -0.075,-17.706 -0.05,-17.733 H -47.989 -61.563 V 0 19.923 h 25.353 25.377 z"
             style="fill:#ffffff;fill-opacity:1;fill-rule:evenodd;stroke:none"
             id="path118" /></g><g
           id="g120"
           transform="translate(199.2812,420.0332)"><path
             d="M 0,0 10.858,-19.924 H -2.017 -14.868 l -9.712,17.733 -9.712,17.706 -0.075,-17.706 -0.05,-17.733 H -47.989 -61.563 V 0 19.923 h 25.353 25.377 z"
             style="fill:none;stroke:#ffffff;stroke-width:1;stroke-linecap:butt;stroke-linejoin:miter;stroke-miterlimit:10;stroke-dasharray:none;stroke-opacity:1"
             id="path122" /></g><g
           id="g124"
           transform="translate(251.5303,420.0332)"><path
             d="M 0,0 V -19.924 H -13.448 -26.896 V 0 19.923 H -13.448 0 Z"
             style="fill:#ffffff;fill-opacity:1;fill-rule:evenodd;stroke:none"
             id="path126" /></g><g
           id="g128"
           transform="translate(251.5303,420.0332)"><path
             d="M 0,0 V -19.924 H -13.448 -26.896 V 0 19.923 H -13.448 0 Z"
             style="fill:none;stroke:#ffffff;stroke-width:1;stroke-linecap:butt;stroke-linejoin:miter;stroke-miterlimit:10;stroke-dasharray:none;stroke-opacity:1"
             id="path130" /></g><g
           id="g132"
           transform="translate(308.3613,429.2227)"><path
             d="M 0,0 0.074,-10.733 8.417,0 16.76,10.709 32.15,10.733 c 8.444,0 15.367,-0.074 15.367,-0.149 0,-0.074 -4.707,-6.076 -10.46,-13.323 l -10.435,-13.199 4.159,-6.277 c 2.316,-3.461 4.283,-6.425 4.383,-6.574 0.149,-0.249 -6.151,-0.324 -31.08,-0.324 h -31.28 v 19.924 19.922 h 13.573 13.572 z"
             style="fill:#ffffff;fill-opacity:1;fill-rule:evenodd;stroke:none"
             id="path134" /></g><g
           id="g136"
           transform="translate(308.3613,429.2227)"><path
             d="M 0,0 0.074,-10.733 8.417,0 16.76,10.709 32.15,10.733 c 8.444,0 15.367,-0.074 15.367,-0.149 0,-0.074 -4.707,-6.076 -10.46,-13.323 l -10.435,-13.199 4.159,-6.277 c 2.316,-3.461 4.283,-6.425 4.383,-6.574 0.149,-0.249 -6.151,-0.324 -31.08,-0.324 h -31.28 v 19.924 19.922 h 13.573 13.572 z"
             style="fill:none;stroke:#ffffff;stroke-width:1;stroke-linecap:butt;stroke-linejoin:miter;stroke-miterlimit:10;stroke-dasharray:none;stroke-opacity:1"
             id="path138" /></g><g
           id="g140"
           transform="translate(438.5586,426.0098)"><path
             d="m 0,0 v -13.946 h 7.721 c 11.281,0 14.918,0.548 19.924,3.013 4.755,2.367 7.843,6.226 9.189,11.481 0.771,3.014 1.096,6.699 0.921,10.235 L 37.58,13.946 H 51.428 65.249 V 9.215 c 0,-5.18 -0.274,-8.269 -1.02,-12.054 -1.52,-7.521 -5.181,-14.843 -10.411,-20.745 L 51.775,-25.9 H 12.303 -27.145 v 19.923 19.923 h 13.573 l 13.572,0 z"
             style="fill:#ffffff;fill-opacity:1;fill-rule:evenodd;stroke:none"
             id="path142" /></g><g
           id="g144"
           transform="translate(438.5586,426.0098)"><path
             d="m 0,0 v -13.946 h 7.721 c 11.281,0 14.918,0.548 19.924,3.013 4.755,2.367 7.843,6.226 9.189,11.481 0.771,3.014 1.096,6.699 0.921,10.235 L 37.58,13.946 H 51.428 65.249 V 9.215 c 0,-5.18 -0.274,-8.269 -1.02,-12.054 -1.52,-7.521 -5.181,-14.843 -10.411,-20.745 L 51.775,-25.9 H 12.303 -27.145 v 19.923 19.923 h 13.573 l 13.572,0 z"
             style="fill:none;stroke:#ffffff;stroke-width:1;stroke-linecap:butt;stroke-linejoin:miter;stroke-miterlimit:10;stroke-dasharray:none;stroke-opacity:1"
             id="path146" /></g><g
           id="g148"
           transform="translate(164.8643,376.7002)"><path
             d="M 0,0 V -17.433 H -13.572 -27.146 V 0 17.433 H -13.572 0 Z"
             style="fill:#ffffff;fill-opacity:1;fill-rule:evenodd;stroke:none"
             id="path150" /></g><g
           id="g152"
           transform="translate(164.8643,376.7002)"><path
             d="M 0,0 V -17.433 H -13.572 -27.146 V 0 17.433 H -13.572 0 Z"
             style="fill:none;stroke:#ffffff;stroke-width:1;stroke-linecap:butt;stroke-linejoin:miter;stroke-miterlimit:10;stroke-dasharray:none;stroke-opacity:1"
             id="path154" /></g><g
           id="g156"
           transform="translate(218.8311,384.1709)"><path
             d="m 0,0 c 2.938,-5.404 5.454,-9.937 5.578,-10.061 0.125,-0.149 0.225,3.736 0.225,9.887 V 9.962 H 19.251 32.699 V -7.471 -24.903 H 10.335 -12.004 l -9.438,17.257 c -5.205,9.464 -9.489,17.309 -9.538,17.433 -0.075,0.101 5.677,0.151 12.751,0.125 L -5.354,9.838 Z"
             style="fill:#ffffff;fill-opacity:1;fill-rule:evenodd;stroke:none"
             id="path158" /></g><g
           id="g160"
           transform="translate(218.8311,384.1709)"><path
             d="m 0,0 c 2.938,-5.404 5.454,-9.937 5.578,-10.061 0.125,-0.149 0.225,3.736 0.225,9.887 V 9.962 H 19.251 32.699 V -7.471 -24.903 H 10.335 -12.004 l -9.438,17.257 c -5.205,9.464 -9.489,17.309 -9.538,17.433 -0.075,0.101 5.677,0.151 12.751,0.125 L -5.354,9.838 Z"
             style="fill:none;stroke:#ffffff;stroke-width:1;stroke-linecap:butt;stroke-linejoin:miter;stroke-miterlimit:10;stroke-dasharray:none;stroke-opacity:1"
             id="path162" /></g><g
           id="g164"
           transform="translate(359.2646,377.0234)"><path
             d="m 0,0 c 6.301,-9.438 11.556,-17.283 11.655,-17.433 0.15,-0.249 -2.939,-0.323 -15.117,-0.323 h -15.291 l -10.684,16.312 c -5.876,8.965 -10.757,16.312 -10.833,16.312 -0.099,0 -2.54,-2.615 -5.428,-5.828 L -50.954,3.188 V -7.271 -17.756 H -64.526 -78.1 v 17.433 17.432 h 33.323 33.321 z"
             style="fill:#ffffff;fill-opacity:1;fill-rule:evenodd;stroke:none"
             id="path166" /></g><g
           id="g168"
           transform="translate(359.2646,377.0234)"><path
             d="m 0,0 c 6.301,-9.438 11.556,-17.283 11.655,-17.433 0.15,-0.249 -2.939,-0.323 -15.117,-0.323 h -15.291 l -10.684,16.312 c -5.876,8.965 -10.757,16.312 -10.833,16.312 -0.099,0 -2.54,-2.615 -5.428,-5.828 L -50.954,3.188 V -7.271 -17.756 H -64.526 -78.1 v 17.433 17.432 h 33.323 33.321 z"
             style="fill:none;stroke:#ffffff;stroke-width:1;stroke-linecap:butt;stroke-linejoin:miter;stroke-miterlimit:10;stroke-dasharray:none;stroke-opacity:1"
             id="path170" /></g><g
           id="g172"
           transform="translate(480.8965,393.6104)"><path
             d="m 0,0 c -2.416,-1.47 -7.92,-3.512 -12.453,-4.558 -5.604,-1.32 -7.122,-1.444 -18.852,-1.569 L -42.338,-6.251 V -20.297 -34.343 H -55.91 -69.482 V -16.91 0.522 h 35.189 35.164 z"
             style="fill:#ffffff;fill-opacity:1;fill-rule:evenodd;stroke:none"
             id="path174" /></g><g
           id="g176"
           transform="translate(480.8965,393.6104)"><path
             d="m 0,0 c -2.416,-1.47 -7.92,-3.512 -12.453,-4.558 -5.604,-1.32 -7.122,-1.444 -18.852,-1.569 L -42.338,-6.251 V -20.297 -34.343 H -55.91 -69.482 V -16.91 0.522 h 35.189 35.164 z"
             style="fill:none;stroke:#ffffff;stroke-width:1;stroke-linecap:butt;stroke-linejoin:miter;stroke-miterlimit:10;stroke-dasharray:none;stroke-opacity:1"
             id="path178" /></g><g
           id="g180"
           transform="translate(164.8145,341.4111)"><path
             d="m 0,0 c -0.075,-12.751 -0.075,-12.801 -1.345,-13.273 -0.374,-0.15 -5.429,-0.249 -12.078,-0.249 -12.951,0 -12.951,0 -13.398,1.668 -0.175,0.597 -0.275,5.055 -0.275,12.352 v 11.381 h 13.598 13.573 z"
             style="fill:#ffffff;fill-opacity:1;fill-rule:evenodd;stroke:none"
             id="path182" /></g><g
           id="g184"
           transform="translate(164.8145,341.4111)"><path
             d="m 0,0 c -0.075,-12.751 -0.075,-12.801 -1.345,-13.273 -0.374,-0.15 -5.429,-0.249 -12.078,-0.249 -12.951,0 -12.951,0 -13.398,1.668 -0.175,0.597 -0.275,5.055 -0.275,12.352 v 11.381 h 13.598 13.573 z"
             style="fill:none;stroke:#ffffff;stroke-width:1;stroke-linecap:butt;stroke-linejoin:miter;stroke-miterlimit:10;stroke-dasharray:none;stroke-opacity:1"
             id="path186" /></g><g
           id="g188"
           transform="translate(251.5049,341.7842)"><path
             d="m 0,0 c 0,-8.242 -0.1,-11.779 -0.299,-12.401 -0.523,-1.495 -0.722,-1.52 -14.444,-1.445 l -12.202,0.075 -0.848,0.996 c -0.646,0.747 -13.522,23.783 -13.522,24.207 0,0.024 9.313,0.074 20.67,0.074 h 20.67 z"
             style="fill:#ffffff;fill-opacity:1;fill-rule:evenodd;stroke:none"
             id="path190" /></g><g
           id="g192"
           transform="translate(251.5049,341.7842)"><path
             d="m 0,0 c 0,-8.242 -0.1,-11.779 -0.299,-12.401 -0.523,-1.495 -0.722,-1.52 -14.444,-1.445 l -12.202,0.075 -0.848,0.996 c -0.646,0.747 -13.522,23.783 -13.522,24.207 0,0.024 9.313,0.074 20.67,0.074 h 20.67 z"
             style="fill:none;stroke:#ffffff;stroke-width:1;stroke-linecap:butt;stroke-linejoin:miter;stroke-miterlimit:10;stroke-dasharray:none;stroke-opacity:1"
             id="path194" /></g><g
           id="g196"
           transform="translate(308.2617,341.6602)"><path
             d="m 0,0 c -0.075,-12.801 -0.075,-12.676 -1.594,-13.398 -0.722,-0.349 -2.291,-0.373 -12.403,-0.324 l -11.605,0.075 -0.672,0.697 -0.698,0.673 -0.074,11.953 -0.075,11.954 h 13.598 13.597 z"
             style="fill:#ffffff;fill-opacity:1;fill-rule:evenodd;stroke:none"
             id="path198" /></g><g
           id="g200"
           transform="translate(308.2617,341.6602)"><path
             d="m 0,0 c -0.075,-12.801 -0.075,-12.676 -1.594,-13.398 -0.722,-0.349 -2.291,-0.373 -12.403,-0.324 l -11.605,0.075 -0.672,0.697 -0.698,0.673 -0.074,11.953 -0.075,11.954 h 13.598 13.597 z"
             style="fill:none;stroke:#ffffff;stroke-width:1;stroke-linecap:butt;stroke-linejoin:miter;stroke-miterlimit:10;stroke-dasharray:none;stroke-opacity:1"
             id="path202" /></g><g
           id="g204"
           transform="translate(382.6494,342.1582)"><path
             d="m 0,0 c 7.048,-10.51 7.472,-11.207 7.472,-12.253 0,-1.967 0.522,-1.893 -14.944,-1.893 -12.226,0 -13.522,0.05 -14.12,0.424 -0.548,0.349 -3.785,5.18 -14.319,21.318 l -2.317,3.536 h 15.391 15.391 z"
             style="fill:#ffffff;fill-opacity:1;fill-rule:evenodd;stroke:none"
             id="path206" /></g><g
           id="g208"
           transform="translate(382.6494,342.1582)"><path
             d="m 0,0 c 7.048,-10.51 7.472,-11.207 7.472,-12.253 0,-1.967 0.522,-1.893 -14.944,-1.893 -12.226,0 -13.522,0.05 -14.12,0.424 -0.548,0.349 -3.785,5.18 -14.319,21.318 l -2.317,3.536 h 15.391 15.391 z"
             style="fill:none;stroke:#ffffff;stroke-width:1;stroke-linecap:butt;stroke-linejoin:miter;stroke-miterlimit:10;stroke-dasharray:none;stroke-opacity:1"
             id="path210" /></g><g
           id="g212"
           transform="translate(438.5586,341.9092)"><path
             d="m 0,0 c 0,-6.849 -0.1,-11.755 -0.248,-12.303 -0.15,-0.498 -0.498,-1.12 -0.773,-1.369 -0.498,-0.449 -1.12,-0.474 -12.153,-0.548 -10.683,-0.05 -11.68,-0.025 -12.476,0.373 -0.598,0.299 -0.972,0.723 -1.171,1.321 -0.2,0.622 -0.299,4.159 -0.299,12.401 l -0.025,11.506 h 13.573 l 13.572,0 z"
             style="fill:#ffffff;fill-opacity:1;fill-rule:evenodd;stroke:none"
             id="path214" /></g><g
           id="g216"
           transform="translate(438.5586,341.9092)"><path
             d="m 0,0 c 0,-6.849 -0.1,-11.755 -0.248,-12.303 -0.15,-0.498 -0.498,-1.12 -0.773,-1.369 -0.498,-0.449 -1.12,-0.474 -12.153,-0.548 -10.683,-0.05 -11.68,-0.025 -12.476,0.373 -0.598,0.299 -0.972,0.723 -1.171,1.321 -0.2,0.622 -0.299,4.159 -0.299,12.401 l -0.025,11.506 h 13.573 l 13.572,0 z"
             style="fill:none;stroke:#ffffff;stroke-width:1;stroke-linecap:butt;stroke-linejoin:miter;stroke-miterlimit:10;stroke-dasharray:none;stroke-opacity:1"
             id="path218" /></g><g
           id="g220"
           transform="translate(175.917,618.291)"><path
             d="M 0,0 C 0,0 131.549,96.609 283.75,-15.945"
             style="fill:#100f0d;fill-opacity:1;fill-rule:evenodd;stroke:none"
             id="path222" /></g><g
           id="g224"
           transform="translate(551.9375,430.4375)"><path
             d="M 0,0 C 0,0 14.213,-118.646 -85.688,-206.188"
             style="fill:#100f0d;fill-opacity:1;fill-rule:evenodd;stroke:none"
             id="path226" /></g><g
           id="g228"
           transform="translate(360.1875,171.1875)"><path
             d="M 0,0 C 0,0 -62.339,-20.052 -146.403,12.562"
             style="fill:#100f0d;fill-opacity:1;fill-rule:evenodd;stroke:none"
             id="path230" /></g><g
           id="g232"
           transform="translate(70.9375,343.54)"><path
             d="M 0,0 C 0,0 -22.271,61.624 1,137.687"
             style="fill:#100f0d;fill-opacity:1;fill-rule:evenodd;stroke:none"
             id="path234" /></g><g
           id="g236"
           transform="translate(466.417,596.166)"><path
             d="m 0,0 c 0,0 72.521,-58.756 83.896,-154.964 l -25.688,12.298"
             style="fill:#100f0d;fill-opacity:1;fill-rule:evenodd;stroke:none"
             id="path238" /></g></g></g></g></svg>
