<svg xmlns="http://www.w3.org/2000/svg" xmlns:xlink="http://www.w3.org/1999/xlink" viewBox="0 0 86.19 86.19"><defs><style>.cls-1{mask:url(#mask);filter:url(#luminosity-noclip-18);}.cls-10,.cls-12,.cls-14,.cls-16,.cls-18,.cls-2,.cls-20,.cls-22,.cls-24,.cls-26,.cls-28,.cls-30,.cls-32,.cls-34,.cls-4,.cls-6,.cls-8{mix-blend-mode:multiply;}.cls-2{fill:url(#linear-gradient);}.cls-3{mask:url(#mask-2);filter:url(#luminosity-noclip-23);}.cls-4{fill:url(#linear-gradient-2);}.cls-5{mask:url(#mask-3);filter:url(#luminosity-noclip-24);}.cls-6{fill:url(#linear-gradient-3);}.cls-7{mask:url(#mask-4);filter:url(#luminosity-noclip-25);}.cls-8{fill:url(#linear-gradient-4);}.cls-9{mask:url(#mask-5);filter:url(#luminosity-noclip-26);}.cls-10{fill:url(#linear-gradient-5);}.cls-11{mask:url(#mask-6);filter:url(#luminosity-noclip-27);}.cls-12{fill:url(#linear-gradient-6);}.cls-13{mask:url(#mask-7);filter:url(#luminosity-noclip-19);}.cls-14{fill:url(#linear-gradient-7);}.cls-15{mask:url(#mask-8);filter:url(#luminosity-noclip-28);}.cls-16{fill:url(#linear-gradient-8);}.cls-17{mask:url(#mask-9);filter:url(#luminosity-noclip-29);}.cls-18{fill:url(#linear-gradient-9);}.cls-19,.cls-21{mask:url(#mask-10);}.cls-19{filter:url(#luminosity-noclip-30);}.cls-20{fill:url(#linear-gradient-10);}.cls-22{fill:url(#linear-gradient-11);}.cls-23,.cls-25{mask:url(#mask-12);}.cls-23{filter:url(#luminosity-noclip-32);}.cls-24{fill:url(#linear-gradient-12);}.cls-26{fill:url(#linear-gradient-13);}.cls-27{mask:url(#mask-14);filter:url(#luminosity-noclip-34);}.cls-28{fill:url(#linear-gradient-14);}.cls-29{mask:url(#mask-15);filter:url(#luminosity-noclip-20);}.cls-30{fill:url(#linear-gradient-15);}.cls-31{mask:url(#mask-16);filter:url(#luminosity-noclip-21);}.cls-32{fill:url(#linear-gradient-16);}.cls-33{mask:url(#mask-17);filter:url(#luminosity-noclip-22);}.cls-34{fill:url(#linear-gradient-17);}.cls-35{fill:#ed2d88;}.cls-36{mask:url(#mask-18);}.cls-37{fill:url(#linear-gradient-18);}.cls-38{mask:url(#mask-19);}.cls-39{fill:url(#linear-gradient-19);}.cls-40{mask:url(#mask-20);}.cls-41{fill:url(#linear-gradient-20);}.cls-42{mask:url(#mask-21);}.cls-43{fill:url(#linear-gradient-21);}.cls-44{mask:url(#mask-22);}.cls-45{fill:url(#linear-gradient-22);}.cls-46{mask:url(#mask-23);}.cls-47{fill:url(#linear-gradient-23);}.cls-48{mask:url(#mask-24);}.cls-49{fill:url(#linear-gradient-24);}.cls-50{mask:url(#mask-25);}.cls-51{fill:url(#linear-gradient-25);}.cls-52,.cls-59,.cls-71{fill:#fff;}.cls-52{opacity:0.7;}.cls-53{mask:url(#mask-26);}.cls-54{fill:url(#linear-gradient-26);}.cls-55{mask:url(#mask-27);}.cls-56{fill:url(#linear-gradient-27);}.cls-57{mask:url(#mask-28);}.cls-58{fill:url(#linear-gradient-28);}.cls-60{fill:#57bfed;}.cls-61{mask:url(#mask-29);}.cls-62{fill:url(#linear-gradient-29);}.cls-63{mask:url(#mask-30);}.cls-64{fill:url(#linear-gradient-30);}.cls-65{fill:url(#linear-gradient-31);}.cls-66{mask:url(#mask-32);}.cls-67{fill:url(#linear-gradient-32);}.cls-68{fill:url(#linear-gradient-33);}.cls-69{mask:url(#mask-34);}.cls-70{fill:url(#linear-gradient-34);}.cls-71{opacity:0.75;}.cls-72{filter:url(#luminosity-noclip-17);}.cls-73{filter:url(#luminosity-noclip-16);}.cls-74{filter:url(#luminosity-noclip-15);}.cls-75{filter:url(#luminosity-noclip-14);}.cls-76{filter:url(#luminosity-noclip-12);}.cls-77{filter:url(#luminosity-noclip-10);}.cls-78{filter:url(#luminosity-noclip-9);}.cls-79{filter:url(#luminosity-noclip-8);}.cls-80{filter:url(#luminosity-noclip-7);}.cls-81{filter:url(#luminosity-noclip-6);}.cls-82{filter:url(#luminosity-noclip-5);}.cls-83{filter:url(#luminosity-noclip-4);}.cls-84{filter:url(#luminosity-noclip-3);}.cls-85{filter:url(#luminosity-noclip-2);}.cls-86{filter:url(#luminosity-noclip);}</style><filter id="luminosity-noclip" x="19.93" y="-8556.9" width="0.36" height="32766" filterUnits="userSpaceOnUse" color-interpolation-filters="sRGB"><feFlood flood-color="#fff" result="bg"/><feBlend in="SourceGraphic" in2="bg"/></filter><mask id="mask" x="19.93" y="-8556.9" width="0.36" height="32766" maskUnits="userSpaceOnUse"><g class="cls-86"/></mask><linearGradient id="linear-gradient" x1="20.1" y1="73.14" x2="20.1" y2="12.95" gradientUnits="userSpaceOnUse"><stop offset="0" stop-color="#fff"/><stop offset="0.09" stop-color="#f2f2f2"/><stop offset="0.26" stop-color="#cfcfcf"/><stop offset="0.48" stop-color="#979797"/><stop offset="0.76" stop-color="#4a4a4a"/><stop offset="1"/></linearGradient><filter id="luminosity-noclip-2" x="24.39" y="-8556.9" width="0.22" height="32766" filterUnits="userSpaceOnUse" color-interpolation-filters="sRGB"><feFlood flood-color="#fff" result="bg"/><feBlend in="SourceGraphic" in2="bg"/></filter><mask id="mask-2" x="24.39" y="-8556.9" width="0.22" height="32766" maskUnits="userSpaceOnUse"><g class="cls-85"/></mask><linearGradient id="linear-gradient-2" x1="24.5" y1="73.78" x2="24.5" y2="12.95" xlink:href="#linear-gradient"/><filter id="luminosity-noclip-3" x="23.68" y="-8556.9" width="0.29" height="32766" filterUnits="userSpaceOnUse" color-interpolation-filters="sRGB"><feFlood flood-color="#fff" result="bg"/><feBlend in="SourceGraphic" in2="bg"/></filter><mask id="mask-3" x="23.68" y="-8556.9" width="0.29" height="32766" maskUnits="userSpaceOnUse"><g class="cls-84"/></mask><linearGradient id="linear-gradient-3" x1="23.83" y1="73" x2="23.83" y2="12.95" xlink:href="#linear-gradient"/><filter id="luminosity-noclip-4" x="20.78" y="-8556.9" width="0.38" height="32766" filterUnits="userSpaceOnUse" color-interpolation-filters="sRGB"><feFlood flood-color="#fff" result="bg"/><feBlend in="SourceGraphic" in2="bg"/></filter><mask id="mask-4" x="20.78" y="-8556.9" width="0.38" height="32766" maskUnits="userSpaceOnUse"><g class="cls-83"/></mask><linearGradient id="linear-gradient-4" x1="20.97" y1="72.9" x2="20.97" y2="12.95" xlink:href="#linear-gradient"/><filter id="luminosity-noclip-5" x="21.83" y="-8556.9" width="0.36" height="32766" filterUnits="userSpaceOnUse" color-interpolation-filters="sRGB"><feFlood flood-color="#fff" result="bg"/><feBlend in="SourceGraphic" in2="bg"/></filter><mask id="mask-5" x="21.83" y="-8556.9" width="0.36" height="32766" maskUnits="userSpaceOnUse"><g class="cls-82"/></mask><linearGradient id="linear-gradient-5" x1="22.01" y1="73.25" x2="22.01" y2="12.95" xlink:href="#linear-gradient"/><filter id="luminosity-noclip-6" x="22.41" y="-8556.9" width="0.34" height="32766" filterUnits="userSpaceOnUse" color-interpolation-filters="sRGB"><feFlood flood-color="#fff" result="bg"/><feBlend in="SourceGraphic" in2="bg"/></filter><mask id="mask-6" x="22.41" y="-8556.9" width="0.34" height="32766" maskUnits="userSpaceOnUse"><g class="cls-81"/></mask><linearGradient id="linear-gradient-6" x1="22.58" y1="73.04" x2="22.58" y2="12.95" xlink:href="#linear-gradient"/><filter id="luminosity-noclip-7" x="20.33" y="-8556.9" width="0.37" height="32766" filterUnits="userSpaceOnUse" color-interpolation-filters="sRGB"><feFlood flood-color="#fff" result="bg"/><feBlend in="SourceGraphic" in2="bg"/></filter><mask id="mask-7" x="20.33" y="-8556.9" width="0.37" height="32766" maskUnits="userSpaceOnUse"><g class="cls-80"/></mask><linearGradient id="linear-gradient-7" x1="20.51" y1="73.04" x2="20.51" y2="12.95" xlink:href="#linear-gradient"/><filter id="luminosity-noclip-8" x="23.03" y="-8556.9" width="0.32" height="32766" filterUnits="userSpaceOnUse" color-interpolation-filters="sRGB"><feFlood flood-color="#fff" result="bg"/><feBlend in="SourceGraphic" in2="bg"/></filter><mask id="mask-8" x="23.03" y="-8556.9" width="0.32" height="32766" maskUnits="userSpaceOnUse"><g class="cls-79"/></mask><linearGradient id="linear-gradient-8" x1="23.19" y1="73.76" x2="23.19" y2="12.95" xlink:href="#linear-gradient"/><filter id="luminosity-noclip-9" x="39.26" y="-8556.9" width="6.56" height="32766" filterUnits="userSpaceOnUse" color-interpolation-filters="sRGB"><feFlood flood-color="#fff" result="bg"/><feBlend in="SourceGraphic" in2="bg"/></filter><mask id="mask-9" x="39.26" y="-8556.9" width="6.56" height="32766" maskUnits="userSpaceOnUse"><g class="cls-78"/></mask><linearGradient id="linear-gradient-9" x1="17.27" y1="20.89" x2="54.49" y2="56.79" xlink:href="#linear-gradient"/><filter id="luminosity-noclip-10" x="25.28" y="-8556.9" width="6.59" height="32766" filterUnits="userSpaceOnUse" color-interpolation-filters="sRGB"><feFlood flood-color="#fff" result="bg"/><feBlend in="SourceGraphic" in2="bg"/></filter><mask id="mask-10" x="25.28" y="-8556.9" width="6.59" height="32766" maskUnits="userSpaceOnUse"><g class="cls-77"/></mask><linearGradient id="linear-gradient-10" x1="28.57" y1="73.08" x2="28.57" y2="12.95" xlink:href="#linear-gradient"/><linearGradient id="linear-gradient-11" x1="21.74" y1="16.24" x2="58.97" y2="52.15" xlink:href="#linear-gradient"/><filter id="luminosity-noclip-12" x="43.01" y="-8556.9" width="2.84" height="32766" filterUnits="userSpaceOnUse" color-interpolation-filters="sRGB"><feFlood flood-color="#fff" result="bg"/><feBlend in="SourceGraphic" in2="bg"/></filter><mask id="mask-12" x="43.01" y="-8556.9" width="2.84" height="32766" maskUnits="userSpaceOnUse"><g class="cls-76"/></mask><linearGradient id="linear-gradient-12" x1="38.2" y1="47.85" x2="61.97" y2="74.69" xlink:href="#linear-gradient"/><linearGradient id="linear-gradient-13" x1="13.37" y1="24.92" x2="50.6" y2="60.83" xlink:href="#linear-gradient"/><filter id="luminosity-noclip-14" x="45.84" y="-8556.9" width="11.44" height="32766" filterUnits="userSpaceOnUse" color-interpolation-filters="sRGB"><feFlood flood-color="#fff" result="bg"/><feBlend in="SourceGraphic" in2="bg"/></filter><mask id="mask-14" x="45.84" y="-8556.9" width="11.44" height="32766" maskUnits="userSpaceOnUse"><g class="cls-75"/></mask><linearGradient id="linear-gradient-14" x1="42.9" y1="43.69" x2="66.67" y2="70.54" xlink:href="#linear-gradient"/><filter id="luminosity-noclip-15" x="19.58" y="-8556.9" width="0.33" height="32766" filterUnits="userSpaceOnUse" color-interpolation-filters="sRGB"><feFlood flood-color="#fff" result="bg"/><feBlend in="SourceGraphic" in2="bg"/></filter><mask id="mask-15" x="19.58" y="-8556.9" width="0.33" height="32766" maskUnits="userSpaceOnUse"><g class="cls-74"/></mask><linearGradient id="linear-gradient-15" x1="19.74" y1="73.09" x2="19.74" y2="12.95" xlink:href="#linear-gradient"/><filter id="luminosity-noclip-16" x="21.28" y="-8556.9" width="0.37" height="32766" filterUnits="userSpaceOnUse" color-interpolation-filters="sRGB"><feFlood flood-color="#fff" result="bg"/><feBlend in="SourceGraphic" in2="bg"/></filter><mask id="mask-16" x="21.28" y="-8556.9" width="0.37" height="32766" maskUnits="userSpaceOnUse"><g class="cls-73"/></mask><linearGradient id="linear-gradient-16" x1="21.47" y1="73.14" x2="21.47" y2="12.95" xlink:href="#linear-gradient"/><filter id="luminosity-noclip-17" x="18.69" y="-8556.9" width="0.88" height="32766" filterUnits="userSpaceOnUse" color-interpolation-filters="sRGB"><feFlood flood-color="#fff" result="bg"/><feBlend in="SourceGraphic" in2="bg"/></filter><mask id="mask-17" x="18.69" y="-8556.9" width="0.88" height="32766" maskUnits="userSpaceOnUse"><g class="cls-72"/></mask><linearGradient id="linear-gradient-17" x1="19.14" y1="73.09" x2="19.14" y2="12.95" xlink:href="#linear-gradient"/><filter id="luminosity-noclip-18" x="19.93" y="15.25" width="0.36" height="0.46" filterUnits="userSpaceOnUse" color-interpolation-filters="sRGB"><feFlood flood-color="#fff" result="bg"/><feBlend in="SourceGraphic" in2="bg"/></filter><mask id="mask-18" x="19.93" y="15.25" width="0.36" height="0.46" maskUnits="userSpaceOnUse"><g class="cls-1"><path class="cls-2" d="M19.93,15.71c.11-.16.23-.31.35-.46C20.16,15.4,20,15.55,19.93,15.71Z"/></g></mask><linearGradient id="linear-gradient-18" x1="20.1" y1="73.14" x2="20.1" y2="12.95" gradientUnits="userSpaceOnUse"><stop offset="0" stop-color="#fff"/><stop offset="1" stop-color="#fff"/></linearGradient><filter id="luminosity-noclip-19" x="20.33" y="14.81" width="0.37" height="0.39" filterUnits="userSpaceOnUse" color-interpolation-filters="sRGB"><feFlood flood-color="#fff" result="bg"/><feBlend in="SourceGraphic" in2="bg"/></filter><mask id="mask-19" x="20.33" y="14.81" width="0.37" height="0.39" maskUnits="userSpaceOnUse"><g class="cls-13"><path class="cls-14" d="M20.33,15.2c.12-.13.24-.27.37-.39C20.57,14.93,20.45,15.07,20.33,15.2Z"/></g></mask><linearGradient id="linear-gradient-19" x1="20.51" y1="73.04" x2="20.51" y2="12.95" xlink:href="#linear-gradient-18"/><filter id="luminosity-noclip-20" x="19.58" y="15.74" width="0.33" height="0.51" filterUnits="userSpaceOnUse" color-interpolation-filters="sRGB"><feFlood flood-color="#fff" result="bg"/><feBlend in="SourceGraphic" in2="bg"/></filter><mask id="mask-20" x="19.58" y="15.74" width="0.33" height="0.51" maskUnits="userSpaceOnUse"><g class="cls-29"><path class="cls-30" d="M19.58,16.25a4.45,4.45,0,0,1,.33-.51A4.45,4.45,0,0,0,19.58,16.25Z"/></g></mask><linearGradient id="linear-gradient-20" x1="19.74" y1="73.09" x2="19.74" y2="12.95" xlink:href="#linear-gradient-18"/><filter id="luminosity-noclip-21" x="21.28" y="14.04" width="0.37" height="0.27" filterUnits="userSpaceOnUse" color-interpolation-filters="sRGB"><feFlood flood-color="#fff" result="bg"/><feBlend in="SourceGraphic" in2="bg"/></filter><mask id="mask-21" x="21.28" y="14.04" width="0.37" height="0.27" maskUnits="userSpaceOnUse"><g class="cls-31"><path class="cls-32" d="M21.28,14.31c.12-.09.25-.19.38-.27C21.53,14.12,21.4,14.22,21.28,14.31Z"/></g></mask><linearGradient id="linear-gradient-21" x1="21.47" y1="73.14" x2="21.47" y2="12.95" xlink:href="#linear-gradient-18"/><filter id="luminosity-noclip-22" x="18.69" y="16.25" width="0.88" height="3.29" filterUnits="userSpaceOnUse" color-interpolation-filters="sRGB"><feFlood flood-color="#fff" result="bg"/><feBlend in="SourceGraphic" in2="bg"/></filter><mask id="mask-22" x="18.69" y="16.25" width="0.88" height="3.29" maskUnits="userSpaceOnUse"><g class="cls-33"><path class="cls-34" d="M19.58,16.25a6.56,6.56,0,0,0-.89,3.29,2.11,2.11,0,0,1,0-.26A6.51,6.51,0,0,1,19.58,16.25Z"/></g></mask><linearGradient id="linear-gradient-22" x1="19.14" y1="73.09" x2="19.14" y2="12.95" xlink:href="#linear-gradient-18"/><filter id="luminosity-noclip-23" x="24.39" y="12.98" width="0.22" height="0.03" filterUnits="userSpaceOnUse" color-interpolation-filters="sRGB"><feFlood flood-color="#fff" result="bg"/><feBlend in="SourceGraphic" in2="bg"/></filter><mask id="mask-23" x="24.39" y="12.98" width="0.22" height="0.03" maskUnits="userSpaceOnUse"><g class="cls-3"><path class="cls-4" d="M24.39,13l.22,0Z"/></g></mask><linearGradient id="linear-gradient-23" x1="24.5" y1="73.78" x2="24.5" y2="12.95" xlink:href="#linear-gradient-18"/><filter id="luminosity-noclip-24" x="23.68" y="13.08" width="0.29" height="0.07" filterUnits="userSpaceOnUse" color-interpolation-filters="sRGB"><feFlood flood-color="#fff" result="bg"/><feBlend in="SourceGraphic" in2="bg"/></filter><mask id="mask-24" x="23.68" y="13.08" width="0.29" height="0.07" maskUnits="userSpaceOnUse"><g class="cls-5"><path class="cls-6" d="M23.68,13.15l.29-.07Z"/></g></mask><linearGradient id="linear-gradient-24" x1="23.83" y1="73" x2="23.83" y2="12.95" xlink:href="#linear-gradient-18"/><filter id="luminosity-noclip-25" x="20.78" y="14.4" width="0.38" height="0.33" filterUnits="userSpaceOnUse" color-interpolation-filters="sRGB"><feFlood flood-color="#fff" result="bg"/><feBlend in="SourceGraphic" in2="bg"/></filter><mask id="mask-25" x="20.78" y="14.4" width="0.38" height="0.33" maskUnits="userSpaceOnUse"><g class="cls-7"><path class="cls-8" d="M20.78,14.73l.38-.33Z"/></g></mask><linearGradient id="linear-gradient-25" x1="20.97" y1="72.9" x2="20.97" y2="12.95" xlink:href="#linear-gradient-18"/><filter id="luminosity-noclip-26" x="21.83" y="13.72" width="0.36" height="0.21" filterUnits="userSpaceOnUse" color-interpolation-filters="sRGB"><feFlood flood-color="#fff" result="bg"/><feBlend in="SourceGraphic" in2="bg"/></filter><mask id="mask-26" x="21.83" y="13.72" width="0.36" height="0.21" maskUnits="userSpaceOnUse"><g class="cls-9"><path class="cls-10" d="M21.83,13.94l.36-.22Z"/></g></mask><linearGradient id="linear-gradient-26" x1="22.01" y1="73.25" x2="22.01" y2="12.95" xlink:href="#linear-gradient-18"/><filter id="luminosity-noclip-27" x="22.41" y="13.45" width="0.34" height="0.16" filterUnits="userSpaceOnUse" color-interpolation-filters="sRGB"><feFlood flood-color="#fff" result="bg"/><feBlend in="SourceGraphic" in2="bg"/></filter><mask id="mask-27" x="22.41" y="13.45" width="0.34" height="0.16" maskUnits="userSpaceOnUse"><g class="cls-11"><path class="cls-12" d="M22.41,13.62l.34-.17Z"/></g></mask><linearGradient id="linear-gradient-27" x1="22.58" y1="73.04" x2="22.58" y2="12.95" xlink:href="#linear-gradient-18"/><filter id="luminosity-noclip-28" x="23.03" y="13.24" width="0.32" height="0.12" filterUnits="userSpaceOnUse" color-interpolation-filters="sRGB"><feFlood flood-color="#fff" result="bg"/><feBlend in="SourceGraphic" in2="bg"/></filter><mask id="mask-28" x="23.03" y="13.24" width="0.32" height="0.12" maskUnits="userSpaceOnUse"><g class="cls-15"><path class="cls-16" d="M23,13.35l.32-.11Z"/></g></mask><linearGradient id="linear-gradient-28" x1="23.19" y1="73.76" x2="23.19" y2="12.95" xlink:href="#linear-gradient-18"/><filter id="luminosity-noclip-29" x="39.26" y="42.03" width="6.56" height="6.47" filterUnits="userSpaceOnUse" color-interpolation-filters="sRGB"><feFlood flood-color="#fff" result="bg"/><feBlend in="SourceGraphic" in2="bg"/></filter><mask id="mask-29" x="39.26" y="42.03" width="6.56" height="6.47" maskUnits="userSpaceOnUse"><g class="cls-17"><path class="cls-18" d="M45.82,42h-.31a6.53,6.53,0,0,0-6.25,6.41v.06A6.58,6.58,0,0,1,45.82,42Z"/></g></mask><linearGradient id="linear-gradient-29" x1="17.27" y1="20.89" x2="54.49" y2="56.79" xlink:href="#linear-gradient-18"/><filter id="luminosity-noclip-30" x="25.28" y="19.54" width="6.59" height="6.59" filterUnits="userSpaceOnUse" color-interpolation-filters="sRGB"><feFlood flood-color="#fff" result="bg"/><feBlend in="SourceGraphic" in2="bg"/></filter><mask id="mask-30" x="25.28" y="19.54" width="6.59" height="6.59" maskUnits="userSpaceOnUse"><g class="cls-19"><path class="cls-20" d="M25.28,26.12h6.59V19.54A6.59,6.59,0,0,1,25.28,26.12Z"/></g></mask><linearGradient id="linear-gradient-30" x1="28.57" y1="73.08" x2="28.57" y2="12.95" xlink:href="#linear-gradient-18"/><linearGradient id="linear-gradient-31" x1="21.74" y1="16.24" x2="58.97" y2="52.15" xlink:href="#linear-gradient-18"/><filter id="luminosity-noclip-32" x="43.01" y="54.55" width="2.84" height="0.65" filterUnits="userSpaceOnUse" color-interpolation-filters="sRGB"><feFlood flood-color="#fff" result="bg"/><feBlend in="SourceGraphic" in2="bg"/></filter><mask id="mask-32" x="43.01" y="54.55" width="2.84" height="0.65" maskUnits="userSpaceOnUse"><g class="cls-23"><path class="cls-24" d="M45.51,55.2h.33A6.43,6.43,0,0,1,43,54.55,5.32,5.32,0,0,0,45.51,55.2Z"/></g></mask><linearGradient id="linear-gradient-32" x1="38.2" y1="47.85" x2="61.97" y2="74.69" xlink:href="#linear-gradient-18"/><linearGradient id="linear-gradient-33" x1="13.37" y1="24.92" x2="50.6" y2="60.83" xlink:href="#linear-gradient-18"/><filter id="luminosity-noclip-34" x="45.84" y="45.17" width="11.44" height="10.04" filterUnits="userSpaceOnUse" color-interpolation-filters="sRGB"><feFlood flood-color="#fff" result="bg"/><feBlend in="SourceGraphic" in2="bg"/></filter><mask id="mask-34" x="45.84" y="45.17" width="11.44" height="10.04" maskUnits="userSpaceOnUse"><g class="cls-27"><path class="cls-28" d="M52.43,48.62a6.58,6.58,0,0,1-6.59,6.58h.88a19.86,19.86,0,0,0,10.57-3.08l-5.84-6.95A6.52,6.52,0,0,1,52.43,48.62Z"/></g></mask><linearGradient id="linear-gradient-34" x1="42.9" y1="43.69" x2="66.67" y2="70.54" xlink:href="#linear-gradient-18"/></defs><g id="Layer_2" data-name="Layer 2"><g id="Layer_1-2" data-name="Layer 1"><circle class="cls-35" cx="43.09" cy="43.09" r="43.09" transform="translate(-0.56 0.57) rotate(-0.75)"/><g class="cls-36"><path class="cls-37" d="M19.93,15.71c.11-.16.23-.31.35-.46C20.16,15.4,20,15.55,19.93,15.71Z"/></g><g class="cls-38"><path class="cls-39" d="M20.33,15.2c.12-.13.24-.27.37-.39C20.57,14.93,20.45,15.07,20.33,15.2Z"/></g><g class="cls-40"><path class="cls-41" d="M19.58,16.25a4.45,4.45,0,0,1,.33-.51A4.45,4.45,0,0,0,19.58,16.25Z"/></g><g class="cls-42"><path class="cls-43" d="M21.28,14.31c.12-.09.25-.19.38-.27C21.53,14.12,21.4,14.22,21.28,14.31Z"/></g><g class="cls-44"><path class="cls-45" d="M19.58,16.25a6.56,6.56,0,0,0-.89,3.29,2.11,2.11,0,0,1,0-.26A6.51,6.51,0,0,1,19.58,16.25Z"/></g><g class="cls-46"><path class="cls-47" d="M24.39,13l.22,0Z"/></g><g class="cls-48"><path class="cls-49" d="M23.68,13.15l.29-.07Z"/></g><g class="cls-50"><path class="cls-51" d="M20.78,14.73l.38-.33Z"/></g><path class="cls-52" d="M24.76,26.12a4.89,4.89,0,0,1-2.57-.77,6.58,6.58,0,0,1-3.5-5.81V66.49a6.59,6.59,0,0,1,13.18,0V26.12H24.76Z"/><g class="cls-53"><path class="cls-54" d="M21.83,13.94l.36-.22Z"/></g><g class="cls-55"><path class="cls-56" d="M22.41,13.62l.34-.17Z"/></g><g class="cls-57"><path class="cls-58" d="M23,13.35l.32-.11Z"/></g><path class="cls-52" d="M57.29,52.12A19.86,19.86,0,0,1,46.72,55.2H45.51a5.32,5.32,0,0,1-2.5-.65A6.5,6.5,0,0,1,40.17,52a6.44,6.44,0,0,0,.89,1.33L55.93,71a6.59,6.59,0,0,0,9.95-8.64Z"/><path class="cls-59" d="M25.28,59.9a6.59,6.59,0,1,0,6.59,6.59A6.59,6.59,0,0,0,25.28,59.9Z"/><path class="cls-60" d="M24.76,26.12h.52a6.55,6.55,0,0,1-3.09-.77A4.89,4.89,0,0,0,24.76,26.12Z"/><path class="cls-59" d="M22.19,25.35A6.59,6.59,0,1,0,25.28,13c-.23,0-.45,0-.67,0l-.22,0-.42.06-.29.07-.33.09-.32.11-.28.1-.34.17-.22.1-.36.22a1,1,0,0,0-.17.1c-.13.08-.26.18-.38.27l-.12.09-.38.33-.08.08c-.13.12-.25.26-.37.39s0,0,0,.05-.24.3-.35.46l0,0a4.45,4.45,0,0,0-.33.51h0a6.51,6.51,0,0,0-.87,3,2.11,2.11,0,0,0,0,.26A6.58,6.58,0,0,0,22.19,25.35Z"/><g class="cls-61"><path class="cls-62" d="M45.82,42h-.31a6.53,6.53,0,0,0-6.25,6.41v.06A6.58,6.58,0,0,1,45.82,42Z"/></g><path class="cls-52" d="M51.45,45.17l5.84,6.95a22,22,0,0,0,10.19-18c0-.13,0-.25,0-.38A20.8,20.8,0,0,0,46.72,13H25.28a6.59,6.59,0,0,1,6.59,6.59v6.58H46.72c4.76,0,8.13,3.13,8.13,7.9v.08c0,4.72-3.39,7.93-8.13,7.93h-.86A6.58,6.58,0,0,1,51.45,45.17Z"/><g class="cls-63"><path class="cls-64" d="M25.28,26.12h6.59V19.54A6.59,6.59,0,0,1,25.28,26.12Z"/></g><g class="cls-63"><path class="cls-65" d="M25.28,26.12h6.59V19.54A6.59,6.59,0,0,1,25.28,26.12Z"/></g><g class="cls-66"><path class="cls-67" d="M45.51,55.2h.33A6.43,6.43,0,0,1,43,54.55,5.32,5.32,0,0,0,45.51,55.2Z"/></g><g class="cls-66"><path class="cls-68" d="M45.51,55.2h.33A6.43,6.43,0,0,1,43,54.55,5.32,5.32,0,0,0,45.51,55.2Z"/></g><g class="cls-69"><path class="cls-70" d="M52.43,48.62a6.58,6.58,0,0,1-6.59,6.58h.88a19.86,19.86,0,0,0,10.57-3.08l-5.84-6.95A6.52,6.52,0,0,1,52.43,48.62Z"/></g><path class="cls-71" d="M52.43,48.62a6.58,6.58,0,0,1-6.59,6.58h.88a19.86,19.86,0,0,0,10.57-3.08l-5.84-6.95A6.52,6.52,0,0,1,52.43,48.62Z"/><path class="cls-59" d="M43,54.55a6.43,6.43,0,0,0,2.83.65,6.59,6.59,0,0,0,0-13.17h0a6.59,6.59,0,0,0-6.57,6.47v.12A6.58,6.58,0,0,0,43,54.55Z"/></g></g></svg>