<svg width="24" height="24" viewBox="0 0 24 24" fill="none" xmlns="http://www.w3.org/2000/svg">
<circle cx="12" cy="12" r="12" fill="white"/>
<g clip-path="url(#clip0_3509_22417)">
<mask id="mask0_3509_22417" style="mask-type:luminance" maskUnits="userSpaceOnUse" x="4" y="4" width="16" height="13">
<path d="M17.9762 9.81246L15.4905 6.59598L17.2005 5.29557L14.6227 4.19998L12.6836 5.18165L9.85498 4.19998L6.11372 5.66037L5.29203 8.51206L4.01465 9.53857L4.69939 11.1807H6.29673L8.1219 10.862L9.17023 12.5951L10.8585 13.0059L11.5893 10.8159L13.9162 11.1359L16.7448 14.0785L15.7414 14.8311L15.0796 16.8841L17.0866 16.2915L18.9118 16.8841L19.5735 15.0359L17.9313 14.0324L17.9762 9.81246Z" fill="white"/>
</mask>
<g mask="url(#mask0_3509_22417)">
<path d="M4.04737 4.19998H4.01465V16.8841H4.04737V4.19998Z" fill="#FFFE95"/>
<path d="M4.15766 4.19998H4.04858V16.8841H4.15766V4.19998Z" fill="#FFFE94"/>
<path d="M4.26679 4.19998H4.15771V16.8841H4.26679V4.19998Z" fill="#FEFD93"/>
<path d="M4.37592 4.19998H4.26685V16.8841H4.37592V4.19998Z" fill="#FEFC92"/>
<path d="M4.48603 4.19998H4.37695V16.8841H4.48603V4.19998Z" fill="#FEFC91"/>
<path d="M4.59516 4.19998H4.48608V16.8841H4.59516V4.19998Z" fill="#FEFB90"/>
<path d="M4.70551 4.19998H4.59644V16.8841H4.70551V4.19998Z" fill="#FDFA8F"/>
<path d="M4.81464 4.19998H4.70557V16.8841H4.81464V4.19998Z" fill="#FDFA8E"/>
<path d="M4.92475 4.19998H4.81567V16.8841H4.92475V4.19998Z" fill="#FDF98D"/>
<path d="M5.03388 4.19998H4.9248V16.8841H5.03388V4.19998Z" fill="#FDF88C"/>
<path d="M5.14423 4.19998H5.03516V16.8841H5.14423V4.19998Z" fill="#FDF88B"/>
<path d="M5.25336 4.19998H5.14429V16.8841H5.25336V4.19998Z" fill="#FCF78A"/>
<path d="M5.36347 4.19998H5.25439V16.8841H5.36347V4.19998Z" fill="#FCF689"/>
<path d="M5.4726 4.19998H5.36353V16.8841H5.4726V4.19998Z" fill="#FCF688"/>
<path d="M5.58173 4.19998H5.47266V16.8841H5.58173V4.19998Z" fill="#FCF587"/>
<path d="M5.69208 4.19998H5.58301V16.8841H5.69208V4.19998Z" fill="#FBF486"/>
<path d="M5.80097 4.19998H5.69189V16.8841H5.80097V4.19998Z" fill="#FBF485"/>
<path d="M5.91132 4.19998H5.80225V16.8841H5.91132V4.19998Z" fill="#FBF384"/>
<path d="M6.02045 4.19998H5.91138V16.8841H6.02045V4.19998Z" fill="#FBF383"/>
<path d="M6.1308 4.19998H6.02173V16.8841H6.1308V4.19998Z" fill="#FBF282"/>
<path d="M6.23969 4.19998H6.13062V16.8841H6.23969V4.19998Z" fill="#FAF181"/>
<path d="M6.35004 4.19998H6.24097V16.8841H6.35004V4.19998Z" fill="#FAF180"/>
<path d="M6.45917 4.19998H6.3501V16.8841H6.45917V4.19998Z" fill="#FAF07F"/>
<path d="M6.56952 4.19998H6.46045V16.8841H6.56952V4.19998Z" fill="#FAEF7E"/>
<path d="M6.67841 4.19998H6.56934V16.8841H6.67841V4.19998Z" fill="#F9EF7D"/>
<path d="M6.78754 4.19998H6.67847V16.8841H6.78754V4.19998Z" fill="#F9EE7C"/>
<path d="M6.89789 4.19998H6.78882V16.8841H6.89789V4.19998Z" fill="#F9ED7B"/>
<path d="M7.00702 4.19998H6.89795V16.8841H7.00702V4.19998Z" fill="#F9ED7A"/>
<path d="M7.11713 4.19998H7.00806V16.8841H7.11713V4.19998Z" fill="#F9EC79"/>
<path d="M7.22626 4.19998H7.11719V16.8841H7.22626V4.19998Z" fill="#F8EB78"/>
<path d="M7.33661 4.19998H7.22754V16.8841H7.33661V4.19998Z" fill="#F8EB77"/>
<path d="M7.44574 4.19998H7.33667V16.8841H7.44574V4.19998Z" fill="#F8EA76"/>
<path d="M7.55585 4.19998H7.44678V16.8841H7.55585V4.19998Z" fill="#F8E975"/>
<path d="M7.66498 4.19998H7.55591V16.8841H7.66498V4.19998Z" fill="#F7E974"/>
<path d="M7.77533 4.19998H7.66626V16.8841H7.77533V4.19998Z" fill="#F7E873"/>
<path d="M7.88446 4.19998H7.77539V16.8841H7.88446V4.19998Z" fill="#F7E772"/>
<path d="M7.99335 4.19998H7.88428V16.8841H7.99335V4.19998Z" fill="#F7E771"/>
<path d="M8.1037 4.19998H7.99463V16.8841H8.1037V4.19998Z" fill="#F7E670"/>
<path d="M8.21283 4.19998H8.10376V16.8841H8.21283V4.19998Z" fill="#F6E56F"/>
<path d="M8.32319 4.19998H8.21411V16.8841H8.32319V4.19998Z" fill="#F6E56E"/>
<path d="M8.43207 4.19998H8.323V16.8841H8.43207V4.19998Z" fill="#F6E46D"/>
<path d="M8.54242 4.19998H8.43335V16.8841H8.54242V4.19998Z" fill="#F6E36C"/>
<path d="M8.65156 4.19998H8.54248V16.8841H8.65156V4.19998Z" fill="#F5E36B"/>
<path d="M8.76191 4.19998H8.65283V16.8841H8.76191V4.19998Z" fill="#F5E26A"/>
<path d="M8.87079 4.19998H8.76172V16.8841H8.87079V4.19998Z" fill="#F5E169"/>
<path d="M8.98114 4.19998H8.87207V16.8841H8.98114V4.19998Z" fill="#F5E168"/>
<path d="M9.09028 4.19998H8.9812V16.8841H9.09028V4.19998Z" fill="#F5E067"/>
<path d="M9.19941 4.19998H9.09033V16.8841H9.19941V4.19998Z" fill="#F4DF66"/>
<path d="M9.30951 4.19998H9.20044V16.8841H9.30951V4.19998Z" fill="#F4DF65"/>
<path d="M9.41864 4.19998H9.30957V16.8841H9.41864V4.19998Z" fill="#F4DE64"/>
<path d="M9.529 4.19998H9.41992V16.8841H9.529V4.19998Z" fill="#F4DD63"/>
<path d="M9.63813 4.19998H9.52905V16.8841H9.63813V4.19998Z" fill="#F3DD62"/>
<path d="M9.74823 4.19998H9.63916V16.8841H9.74823V4.19998Z" fill="#F3DC61"/>
<path d="M9.85737 4.19998H9.74829V16.8841H9.85737V4.19998Z" fill="#F3DB60"/>
<path d="M9.96772 4.19998H9.85864V16.8841H9.96772V4.19998Z" fill="#F3DB5F"/>
<path d="M10.0768 4.19998H9.96777V16.8841H10.0768V4.19998Z" fill="#F3DA5E"/>
<path d="M10.187 4.19998H10.0779V16.8841H10.187V4.19998Z" fill="#F2DA5D"/>
<path d="M10.2961 4.19998H10.187V16.8841H10.2961V4.19998Z" fill="#F2D95C"/>
<path d="M10.4052 4.19998H10.2961V16.8841H10.4052V4.19998Z" fill="#F2D85B"/>
<path d="M10.5156 4.19998H10.4065V16.8841H10.5156V4.19998Z" fill="#F2D85A"/>
<path d="M10.6245 4.19998H10.5154V16.8841H10.6245V4.19998Z" fill="#F1D759"/>
<path d="M10.7348 4.19998H10.6257V16.8841H10.7348V4.19998Z" fill="#F1D658"/>
<path d="M10.8439 4.19998H10.7349V16.8841H10.8439V4.19998Z" fill="#F1D657"/>
<path d="M10.9543 4.19998H10.8452V16.8841H10.9543V4.19998Z" fill="#F1D556"/>
<path d="M11.0632 4.19998H10.9541V16.8841H11.0632V4.19998Z" fill="#F1D455"/>
<path d="M11.1735 4.19998H11.0645V16.8841H11.1735V4.19998Z" fill="#F0D454"/>
<path d="M11.2827 4.19998H11.1736V16.8841H11.2827V4.19998Z" fill="#F0D353"/>
<path d="M11.393 4.19998H11.2839V16.8841H11.393V4.19998Z" fill="#F0D252"/>
<path d="M11.5019 4.19998H11.3928V16.8841H11.5019V4.19998Z" fill="#F0D251"/>
<path d="M11.611 4.19998H11.502V16.8841H11.611V4.19998Z" fill="#EFD150"/>
<path d="M11.7214 4.19998H11.6123V16.8841H11.7214V4.19998Z" fill="#EFD04F"/>
<path d="M11.8305 4.19998H11.7214V16.8841H11.8305V4.19998Z" fill="#EFD04E"/>
<path d="M11.9406 4.19998H11.8315V16.8841H11.9406V4.19998Z" fill="#EFCF4D"/>
<path d="M12.0497 4.19998H11.9407V16.8841H12.0497V4.19998Z" fill="#EFCE4C"/>
<path d="M12.1601 4.19998H12.051V16.8841H12.1601V4.19998Z" fill="#EECE4A"/>
<path d="M12.2692 4.19998H12.1602V16.8841H12.2692V4.19998Z" fill="#EECD49"/>
<path d="M12.3793 4.19998H12.2703V16.8841H12.3793V4.19998Z" fill="#EECC48"/>
<path d="M12.4885 4.19998H12.3794V16.8841H12.4885V4.19998Z" fill="#EECC47"/>
<path d="M12.5988 4.19998H12.4897V16.8841H12.5988V4.19998Z" fill="#EECB46"/>
<path d="M12.708 4.19998H12.5989V16.8841H12.708V4.19998Z" fill="#EDCA45"/>
<path d="M12.8168 4.19998H12.7078V16.8841H12.8168V4.19998Z" fill="#EDCA44"/>
<path d="M12.9272 4.19998H12.8181V16.8841H12.9272V4.19998Z" fill="#EDC943"/>
<path d="M13.0363 4.19998H12.9272V16.8841H13.0363V4.19998Z" fill="#EDC842"/>
<path d="M13.1467 4.19998H13.0376V16.8841H13.1467V4.19998Z" fill="#ECC841"/>
<path d="M13.2556 4.19998H13.1465V16.8841H13.2556V4.19998Z" fill="#ECC740"/>
<path d="M13.3659 4.19998H13.2568V16.8841H13.3659V4.19998Z" fill="#ECC63F"/>
<path d="M13.475 4.19998H13.366V16.8841H13.475V4.19998Z" fill="#ECC63E"/>
<path d="M13.5854 4.19998H13.4763V16.8841H13.5854V4.19998Z" fill="#ECC53D"/>
<path d="M13.6943 4.19998H13.5852V16.8841H13.6943V4.19998Z" fill="#EBC43C"/>
<path d="M13.8046 4.19998H13.6956V16.8841H13.8046V4.19998Z" fill="#EBC43B"/>
<path d="M13.9138 4.19998H13.8047V16.8841H13.9138V4.19998Z" fill="#EBC33A"/>
<path d="M14.0241 4.19998H13.915V16.8841H14.0241V4.19998Z" fill="#EBC239"/>
<path d="M14.133 4.19998H14.0239V16.8841H14.133V4.19998Z" fill="#EAC238"/>
<path d="M14.2421 4.19998H14.1331V16.8841H14.2421V4.19998Z" fill="#EAC137"/>
<path d="M14.3525 4.19998H14.2434V16.8841H14.3525V4.19998Z" fill="#EAC136"/>
<path d="M14.4616 4.19998H14.3525V16.8841H14.4616V4.19998Z" fill="#EAC035"/>
<path d="M14.5717 4.19998H14.4626V16.8841H14.5717V4.19998Z" fill="#EABF34"/>
<path d="M14.6809 4.19998H14.5718V16.8841H14.6809V4.19998Z" fill="#E9BF33"/>
<path d="M14.7912 4.19998H14.6821V16.8841H14.7912V4.19998Z" fill="#E9BE32"/>
<path d="M14.9003 4.19998H14.7913V16.8841H14.9003V4.19998Z" fill="#E9BD31"/>
<path d="M15.0104 4.19998H14.9014V16.8841H15.0104V4.19998Z" fill="#E9BD30"/>
<path d="M15.1196 4.19998H15.0105V16.8841H15.1196V4.19998Z" fill="#E8BC2F"/>
<path d="M15.2299 4.19998H15.1208V16.8841H15.2299V4.19998Z" fill="#E8BB2E"/>
<path d="M15.3391 4.19998H15.23V16.8841H15.3391V4.19998Z" fill="#E8BB2D"/>
<path d="M15.4482 4.19998H15.3391V16.8841H15.4482V4.19998Z" fill="#E8BA2C"/>
<path d="M15.5583 4.19998H15.4492V16.8841H15.5583V4.19998Z" fill="#E8B92B"/>
<path d="M15.6674 4.19998H15.5583V16.8841H15.6674V4.19998Z" fill="#E7B92A"/>
<path d="M15.7778 4.19998H15.6687V16.8841H15.7778V4.19998Z" fill="#E7B829"/>
<path d="M15.8869 4.19998H15.7778V16.8841H15.8869V4.19998Z" fill="#E7B728"/>
<path d="M15.997 4.19998H15.8879V16.8841H15.997V4.19998Z" fill="#E7B727"/>
<path d="M16.1061 4.19998H15.9971V16.8841H16.1061V4.19998Z" fill="#E6B626"/>
<path d="M16.2165 4.19998H16.1074V16.8841H16.2165V4.19998Z" fill="#E6B525"/>
<path d="M16.3256 4.19998H16.2166V16.8841H16.3256V4.19998Z" fill="#E6B524"/>
<path d="M16.4357 4.19998H16.3267V16.8841H16.4357V4.19998Z" fill="#E6B423"/>
<path d="M16.5449 4.19998H16.4358V16.8841H16.5449V4.19998Z" fill="#E6B322"/>
<path d="M16.654 4.19998H16.5449V16.8841H16.654V4.19998Z" fill="#E5B321"/>
<path d="M16.7643 4.19998H16.6553V16.8841H16.7643V4.19998Z" fill="#E5B220"/>
<path d="M16.8732 4.19998H16.7642V16.8841H16.8732V4.19998Z" fill="#E5B11F"/>
<path d="M16.9836 4.19998H16.8745V16.8841H16.9836V4.19998Z" fill="#E5B11E"/>
<path d="M17.0927 4.19998H16.9836V16.8841H17.0927V4.19998Z" fill="#E4B01D"/>
<path d="M17.2031 4.19998H17.094V16.8841H17.2031V4.19998Z" fill="#E4AF1C"/>
<path d="M17.312 4.19998H17.2029V16.8841H17.312V4.19998Z" fill="#E4AF1B"/>
<path d="M17.4223 4.19998H17.3132V16.8841H17.4223V4.19998Z" fill="#E4AE1A"/>
<path d="M17.5314 4.19998H17.4224V16.8841H17.5314V4.19998Z" fill="#E4AD19"/>
<path d="M17.6418 4.19998H17.5327V16.8841H17.6418V4.19998Z" fill="#E3AD18"/>
<path d="M17.7507 4.19998H17.6416V16.8841H17.7507V4.19998Z" fill="#E3AC17"/>
<path d="M17.8598 4.19998H17.7507V16.8841H17.8598V4.19998Z" fill="#E3AB16"/>
<path d="M17.9702 4.19998H17.8611V16.8841H17.9702V4.19998Z" fill="#E3AB15"/>
<path d="M18.0793 4.19998H17.9702V16.8841H18.0793V4.19998Z" fill="#E2AA14"/>
<path d="M18.1894 4.19998H18.0803V16.8841H18.1894V4.19998Z" fill="#E2A913"/>
<path d="M18.2985 4.19998H18.1895V16.8841H18.2985V4.19998Z" fill="#E2A912"/>
<path d="M18.4089 4.19998H18.2998V16.8841H18.4089V4.19998Z" fill="#E2A811"/>
<path d="M18.518 4.19998H18.4089V16.8841H18.518V4.19998Z" fill="#E2A810"/>
<path d="M18.6281 4.19998H18.519V16.8841H18.6281V4.19998Z" fill="#E1A70F"/>
<path d="M18.7372 4.19998H18.6282V16.8841H18.7372V4.19998Z" fill="#E1A60E"/>
<path d="M18.8476 4.19998H18.7385V16.8841H18.8476V4.19998Z" fill="#E1A60D"/>
<path d="M18.9567 4.19998H18.8477V16.8841H18.9567V4.19998Z" fill="#E1A50C"/>
<path d="M19.0656 4.19998H18.9565V16.8841H19.0656V4.19998Z" fill="#E0A40B"/>
<path d="M19.176 4.19998H19.0669V16.8841H19.176V4.19998Z" fill="#E0A40A"/>
<path d="M19.2851 4.19998H19.176V16.8841H19.2851V4.19998Z" fill="#E0A309"/>
<path d="M19.3955 4.19998H19.2864V16.8841H19.3955V4.19998Z" fill="#E0A208"/>
<path d="M19.5043 4.19998H19.3953V16.8841H19.5043V4.19998Z" fill="#E0A207"/>
<path d="M19.5735 4.19998H19.5056V16.8841H19.5735V4.19998Z" fill="#DFA106"/>
</g>
<path d="M14.8845 17.1556L15.6698 14.7196L16.5558 14.0554L13.9125 11.3068L11.7977 11.0159L11.0621 13.2216L9.1375 12.7538L8.11342 11.062L6.37913 11.3625H4.66182L3.87891 9.48281L5.2181 8.40661L6.04827 5.52341L9.93617 4.00727L12.7551 4.98531L14.7003 4L17.6441 5.25072L15.8298 6.6299L18.2428 9.75186L18.1979 13.9318L19.8789 14.9583L19.1081 17.112L17.169 16.4817L14.8857 17.1568L14.8845 17.1556ZM17.1726 16.1L18.8839 16.6563L19.4365 15.1135L17.8319 14.133L17.878 9.87305L15.3184 6.56082L16.9254 5.33919L14.7136 4.39994L12.7806 5.37797L9.94344 4.39388L6.34883 5.7973L5.53684 8.61748L4.32126 9.5943L4.90663 10.9989H6.36701L8.29884 10.6608L9.37383 12.4363L10.8257 12.789L11.5505 10.6148L14.0895 10.9638L17.1048 14.1003L15.9825 14.9414L15.4444 16.6114L17.1763 16.1H17.1726Z" fill="black"/>
<path d="M14.2494 11.2607C14.0894 11.2607 13.9343 11.1771 13.8507 11.0341L10.0718 4.57808C8.81263 7.04074 6.72931 11.1213 6.66871 11.2534L6.33301 11.1129C6.36573 11.0317 8.76537 6.33418 9.79551 4.31873C9.84641 4.21935 9.94701 4.15512 10.0585 4.15269C10.17 4.15027 10.2754 4.20723 10.3312 4.30418L14.1645 10.8499C14.1876 10.8886 14.2336 10.9068 14.2773 10.8923L18.1252 9.63792L18.2379 9.98333L14.39 11.2377C14.3439 11.2522 14.2966 11.2595 14.2494 11.2595V11.2607Z" fill="black"/>
<path d="M8.41763 11.0195L8.23584 10.7044L15.3136 6.60686L12.8073 5.34403L12.9709 5.01923L15.6868 6.38872C15.7644 6.4275 15.8141 6.50627 15.8165 6.59353C15.8189 6.68079 15.7741 6.76078 15.699 6.80441L8.41763 11.0195Z" fill="black"/>
<path d="M5.55976 8.34118L5.43481 8.68262L11.7309 10.9867L11.8559 10.6452L5.55976 8.34118Z" fill="black"/>
<path d="M17.215 16.2806C17.1095 16.2806 17.0102 16.2369 16.9362 16.1582L15.8091 14.9353L16.077 14.6893L17.2041 15.9121C17.2041 15.9121 17.2101 15.9182 17.2198 15.917C17.2295 15.9158 17.2307 15.9085 17.232 15.9061L17.8585 14.2288C17.8585 14.2288 17.8622 14.2203 17.8561 14.213C17.8513 14.2057 17.8452 14.2057 17.8416 14.2057L17.1277 14.2336C16.6042 14.2336 16.7702 14.1051 16.7387 13.9161L15.5134 6.60567L15.8722 6.54507L17.0974 13.8555C17.0986 13.864 17.1047 13.8688 17.1144 13.8688L17.8282 13.8409C17.9555 13.8361 18.0767 13.8943 18.1506 13.9985C18.2257 14.1015 18.2427 14.2348 18.1991 14.3548L17.5725 16.0321C17.5265 16.157 17.4198 16.2466 17.2901 16.2721C17.2659 16.2769 17.2404 16.2794 17.2162 16.2794L17.215 16.2806Z" fill="black"/>
<path d="M6.22521 16.6575L5.32959 15.8212L5.60591 14.6275L6.77786 14.27L7.67348 15.1062L7.39716 16.3L6.22521 16.6575ZM5.86527 15.6576L6.35247 16.1121L6.98994 15.9182L7.14022 15.2698L6.65303 14.8153L6.01555 15.0092L5.86527 15.6576Z" fill="black"/>
<path d="M11.3523 15.9587L10.5015 16.4005L10.9432 17.2513L11.794 16.8095L11.3523 15.9587Z" fill="black"/>
<path d="M12.9339 18.7161L12.3423 19.0233L12.6495 19.6149L13.241 19.3077L12.9339 18.7161Z" fill="black"/>
</g>
<defs>
<clipPath id="clip0_3509_22417">
<rect width="16" height="15.6146" fill="white" transform="translate(4 4)"/>
</clipPath>
</defs>
</svg>
