<svg width="15" height="15" viewBox="0 0 15 15" fill="none" xmlns="http://www.w3.org/2000/svg">
<circle cx="7.5" cy="7.5" r="7.5" fill="#1CFFC9"/>
<path d="M4.00586 9.63435C4.01998 8.93857 4.14135 8.31621 4.60084 7.80504C5.14054 7.20454 5.82254 7.00944 6.60288 7.10175C6.92304 7.13968 7.24076 7.19755 7.56074 7.23741C8.21344 7.3187 8.74146 6.89721 8.8229 6.23604C8.89352 5.66229 8.43874 5.12349 7.81133 5.07122C7.36928 5.03433 7.00657 5.24814 6.68501 5.52505C6.47872 5.70267 6.29702 5.90861 6.09858 6.09566C5.42722 6.72781 4.33788 6.47432 4.06811 5.61683C3.9185 5.14115 4.01318 4.70148 4.3738 4.35044C4.73389 3.99993 5.17158 3.92458 5.64781 4.07265C5.72227 4.09573 5.79586 4.12912 5.86229 4.16968C6.74953 4.71214 7.67566 4.71249 8.63195 4.38471C8.93589 4.28052 9.22118 4.12842 9.53645 4.05395C10.4563 3.83682 11.3828 4.28821 11.8185 5.17174C12.2017 5.94846 11.9594 6.9806 11.2679 7.54806C10.6926 8.02007 10.0402 8.08703 9.34289 7.93231C8.89509 7.83284 8.44519 7.7484 7.98762 7.7054C7.73495 7.68162 7.48349 7.69246 7.23814 7.74665C6.57777 7.89263 6.26947 8.48631 6.45361 9.22055C6.54028 9.56617 6.72111 9.86546 6.88136 10.1768C7.21129 10.8179 7.00081 11.56 6.39014 11.8596C5.9249 12.0879 5.45407 12.0226 5.01342 11.7731C4.4296 11.4427 4.18251 10.8873 4.06358 10.2627C4.0226 10.0448 4.0219 9.81949 4.00586 9.63435Z" fill="#111111"/>
</svg>
