<svg width="57" height="57" viewBox="0 0 57 57" fill="none" xmlns="http://www.w3.org/2000/svg">
<path d="M57 0H0V57H57V0Z" fill="white"/>
<path d="M29.5911 42.5829C25.8171 42.5829 22.4051 41.0379 19.9511 38.5459L12.8081 45.6599L28.8961 52.3119L44.9841 45.6539L38.5191 39.2189C36.1361 41.3129 33.0121 42.5829 29.5911 42.5829Z" fill="#3E3756"/>
<path d="M29.591 15.521C32.727 15.521 35.614 16.588 37.909 18.38L44.982 11.321L29.639 5L24.926 16.347C26.38 15.813 27.951 15.521 29.591 15.521Z" fill="#3E3756"/>
<path d="M16.059 29.0519C16.059 24.0799 18.741 19.7349 22.737 17.3829L27.408 6.14893L5.00001 28.4889C4.99502 34.5009 7.27902 40.2889 11.388 44.6779L16.483 32.4239C16.206 31.3459 16.059 30.2159 16.059 29.0519Z" fill="#3E3756"/>
<path d="M46.369 12.2361L39.124 19.4511C41.593 21.9021 43.122 25.2991 43.122 29.0531C43.122 32.5211 41.817 35.6841 39.671 38.0791L46.37 44.7501L46.807 44.2731C54.974 35.1301 54.828 21.2071 46.369 12.2361Z" fill="#3E3756"/>
<path d="M18.8999 37.3469C18.2709 36.5369 17.7319 35.6539 17.2969 34.7119L14.2939 41.9419L18.8999 37.3469Z" fill="#3E3756"/>
<path d="M30.1071 19.0229C26.9141 19.0229 24.3251 21.6109 24.3251 24.8049V26.9989C23.4931 27.1949 22.8721 27.9399 22.8721 28.8319V36.334C22.8721 37.375 23.7161 38.2189 24.7571 38.2189H35.4551C36.4961 38.2189 37.3401 37.375 37.3401 36.334V28.8319C37.3401 27.9399 36.7201 27.1939 35.8871 26.9989V24.8049C35.8891 21.6109 33.3001 19.0229 30.1071 19.0229ZM30.6921 33.3149V34.4869C30.6921 34.8309 30.4131 35.1089 30.0701 35.1089C29.7261 35.1089 29.4481 34.8299 29.4481 34.4869V33.2749C29.0491 33.0459 28.7801 32.6169 28.7801 32.1239C28.7801 31.3909 29.3751 30.7959 30.1081 30.7959C30.8411 30.7959 31.4361 31.3909 31.4361 32.1239C31.4351 32.6469 31.1321 33.0989 30.6921 33.3149ZM33.6261 26.9459H26.5881V24.8039C26.5881 22.8599 28.1641 21.2849 30.1071 21.2849C32.0511 21.2849 33.6261 22.8609 33.6261 24.8039V26.9459Z" fill="#3E3756"/>
</svg>
