<?xml version="1.0" encoding="UTF-8"?>
<svg width="80px" height="80px" viewBox="0 0 80 80" version="1.1" xmlns="http://www.w3.org/2000/svg" xmlns:xlink="http://www.w3.org/1999/xlink">
    <!-- Generator: Sketch 63.1 (92452) - https://sketch.com -->
    <title>ic_sklay</title>
    <desc>Created with Sketch.</desc>
    <g id="ic_sklay" stroke="none" stroke-width="1" fill="none" fill-rule="evenodd">
        <rect fill="#FFFFFF" x="0" y="0" width="80" height="80"></rect>
        <g>
            <rect id="Rectangle" fill="#FFFFFF" x="0" y="0" width="80" height="80"></rect>
            <g id="sklay" transform="translate(16.000000, 16.000000)" fill="#3E3756" fill-rule="nonzero">
                <path d="M24.679,37.627 C20.905,37.627 17.493,36.082 15.039,33.59 L7.896,40.704 L23.984,47.356 L40.072,40.698 L33.607,34.263 C31.224,36.357 28.1,37.627 24.679,37.627 Z" id="Path"></path>
                <path d="M24.679,10.565 C27.815,10.565 30.702,11.632 32.997,13.424 L40.07,6.365 L24.727,0.044 L20.014,11.391 C21.468,10.857 23.039,10.565 24.679,10.565 Z" id="Path"></path>
                <path d="M11.147,24.096 C11.147,19.124 13.829,14.779 17.825,12.427 L22.496,1.193 L0.087991808,23.533 C0.083,29.545 2.367,35.333 6.476,39.722 L11.571,27.468 C11.294,26.39 11.147,25.26 11.147,24.096 Z" id="Path"></path>
                <path d="M41.457,7.28 L34.212,14.495 C36.681,16.946 38.21,20.343 38.21,24.097 C38.21,27.565 36.905,30.728 34.759,33.123 L41.458,39.794 L41.895,39.317 C50.062,30.174 49.916,16.251 41.457,7.28 Z" id="Path"></path>
                <path d="M13.988,32.391 C13.359,31.581 12.82,30.698 12.385,29.756 L9.382,36.986 L13.988,32.391 Z" id="Path"></path>
                <path d="M25.195,14.067 C22.002,14.067 19.413,16.655 19.413,19.849 L19.413,22.043 C18.581,22.239 17.96,22.984 17.96,23.876 L17.96,31.378 C17.96,32.419 18.804,33.263 19.845,33.263 L30.543,33.263 C31.584,33.263 32.428,32.419 32.428,31.378 L32.428,23.876 C32.428,22.984 31.808,22.238 30.975,22.043 L30.975,19.849 C30.977,16.655 28.388,14.067 25.195,14.067 Z M25.78,28.359 L25.78,29.531 C25.78,29.875 25.501,30.153 25.158,30.153 C24.814,30.153 24.536,29.874 24.536,29.531 L24.536,28.319 C24.137,28.09 23.868,27.661 23.868,27.168 C23.868,26.435 24.463,25.84 25.196,25.84 C25.929,25.84 26.524,26.435 26.524,27.168 C26.523,27.691 26.22,28.143 25.78,28.359 Z M28.714,21.99 L21.676,21.99 L21.676,19.848 C21.676,17.904 23.252,16.329 25.195,16.329 C27.139,16.329 28.714,17.905 28.714,19.848 L28.714,21.99 Z" id="Shape"></path>
            </g>
        </g>
    </g>
</svg>