<?xml version="1.0" encoding="UTF-8"?>
<svg width="855px" height="855px" viewBox="0 0 855 855" version="1.1" xmlns="http://www.w3.org/2000/svg" xmlns:xlink="http://www.w3.org/1999/xlink">
    <!-- Generator: Sketch 57.1 (83088) - https://sketch.com -->
    <title>Group</title>
    <desc>Created with Sketch.</desc>
    <defs>
        <linearGradient x1="64.25271%" y1="5.22817852%" x2="20.0259452%" y2="93.2459197%" id="linearGradient-1">
            <stop stop-color="#FF8500" offset="0%"></stop>
            <stop stop-color="#F41201" offset="100%"></stop>
        </linearGradient>
        <linearGradient x1="74.4503757%" y1="5.86130962%" x2="74.4503757%" y2="89.4243186%" id="linearGradient-2">
            <stop stop-color="#FF8500" offset="0%"></stop>
            <stop stop-color="#E2084C" offset="100%"></stop>
        </linearGradient>
        <radialGradient cx="71.3906145%" cy="7.45609469%" fx="71.3906145%" fy="7.45609469%" r="99.2390502%" gradientTransform="translate(0.713906,0.074561),scale(1.000000,0.410402),rotate(84.382561),translate(-0.713906,-0.074561)" id="radialGradient-3">
            <stop stop-color="#FF9217" offset="0%"></stop>
            <stop stop-color="#FD270B" stop-opacity="0" offset="100%"></stop>
        </radialGradient>
        <path d="M755.392063,153.294 C887.577063,311.428 887.566063,542.557 755.358063,700.679 L755.358063,700.679 L630.717924,576.037461 C661.077368,534.53491 679,483.360482 679,428 C679,372.128967 660.745268,320.521554 629.874803,278.816764 Z" id="path-4"></path>
        <linearGradient x1="61.3380158%" y1="8.83202304%" x2="42.1990826%" y2="88.2907591%" id="linearGradient-5">
            <stop stop-color="#FE3A00" offset="0%"></stop>
            <stop stop-color="#700902" offset="100%"></stop>
        </linearGradient>
        <linearGradient x1="50%" y1="42.4224445%" x2="95.9797302%" y2="54.0515104%" id="linearGradient-6">
            <stop stop-color="#D8211D" offset="0%"></stop>
            <stop stop-color="#D4006E" offset="100%"></stop>
        </linearGradient>
        <linearGradient x1="52.3785179%" y1="44.8841209%" x2="1.3723972%" y2="53.9114531%" id="linearGradient-7">
            <stop stop-color="#9E0603" stop-opacity="0" offset="0%"></stop>
            <stop stop-color="#530002" offset="100%"></stop>
        </linearGradient>
        <path d="M428,679 C483.508473,679 534.80848,660.981418 576.370089,630.474186 L700.967063,755.07 L696.201648,758.996522 C538.229843,887.263041 310.137713,885.96718 153.584063,755.107 L153.584063,755.107 L278.817766,629.875545 C320.522381,660.74556 372.129414,679 428,679 Z" id="path-8"></path>
        <linearGradient x1="50%" y1="0%" x2="50%" y2="100%" id="linearGradient-9">
            <stop stop-color="#F38E14" offset="0%"></stop>
            <stop stop-color="#E60D4C" offset="100%"></stop>
        </linearGradient>
    </defs>
    <g id="belt_desktop" stroke="none" stroke-width="1" fill="none" fill-rule="evenodd">
        <g id="Artboard">
            <g id="Group">
                <path d="M224.68624,575.219487 L224.473063,575.434 L224.597251,575.096725 C224.626902,575.137655 224.656565,575.178575 224.68624,575.219487 Z M442.382063,-3.41060513e-13 L445.150217,0.105836193 C536.48966,3.892338 626.824883,36.77598 701.057063,98.847 L701.057063,98.847 L575.218489,224.685517 C533.862538,194.687986 482.996894,177 428,177 C409.130284,177 390.746904,179.08225 373.067098,183.02951 L442.382063,-3.41060513e-13 Z" id="Combined-Shape" fill="url(#linearGradient-1)"></path>
                <g id="Combined-Shape">
                    <use fill="url(#linearGradient-2)" xlink:href="#path-4"></use>
                    <use fill="url(#radialGradient-3)" xlink:href="#path-4"></use>
                </g>
                <path d="M335.257063,65.682 L272.73572,230.771044 C214.430953,276.73347 177,347.995501 177,428 C177,443.354053 178.378631,458.386108 181.01886,472.979134 L96.1370634,697.131 L94.0452158,694.552472 C25.3941524,609.255953 -5.6464066,503.7292 0.841063404,400.096 L0.841063404,400.096 L335.257063,65.682 Z" id="Combined-Shape" fill="url(#linearGradient-5)"></path>
                <g id="Combined-Shape">
                    <use fill="url(#linearGradient-6)" xlink:href="#path-8"></use>
                    <use fill="url(#linearGradient-7)" xlink:href="#path-8"></use>
                </g>
                <path d="M490.468697,397.356476 L364.491399,397.356476 L364.491399,358.602192 C364.491399,323.437473 392.692387,294.93082 427.480048,294.93082 C462.267709,294.93082 490.468697,323.437473 490.468697,358.602192 L490.468697,397.356476 Z M437.943552,512.582625 L437.943552,533.785307 C437.943552,540.007342 432.957011,545.047932 426.803482,545.047932 C420.649954,545.047932 415.663412,540.007342 415.663412,533.785307 L415.663412,511.860731 C408.529042,507.715723 403.712536,499.952202 403.712536,491.036183 C403.712536,477.767093 414.355026,467.01106 427.480048,467.01106 C440.60686,467.01106 451.24756,477.767093 451.24756,491.036183 C451.24756,500.504025 445.817133,508.667393 437.943552,512.582625 L437.943552,512.582625 Z M427.480048,254 C370.328123,254 323.999463,300.832617 323.999463,358.602192 L323.999463,398.29548 C309.102483,401.838006 298,415.327826 298,431.466398 L298,567.191428 C298,586.029411 313.108183,601.30135 331.744175,601.30135 L523.215921,601.30135 C541.851913,601.30135 556.958306,586.029411 556.958306,567.191428 L556.958306,431.466398 C556.958306,415.327826 545.857613,401.838006 530.960633,398.29548 L530.960633,358.602192 C530.960633,300.832617 484.630183,254 427.480048,254 L427.480048,254 Z" id="Fill-12" fill="url(#linearGradient-9)"></path>
            </g>
        </g>
    </g>
</svg>