<?xml version="1.0" encoding="UTF-8"?>
<svg width="80px" height="80px" viewBox="0 0 80 80" version="1.1" xmlns="http://www.w3.org/2000/svg" xmlns:xlink="http://www.w3.org/1999/xlink">
    <!-- Generator: Sketch 63.1 (92452) - https://sketch.com -->
    <title>ic_ SSX </title>
    <desc>Created with Sketch.</desc>
    <g id="ic_-SSX-" stroke="none" stroke-width="1" fill="none" fill-rule="evenodd">
        <rect fill="#FFFFFF" x="0" y="0" width="80" height="80"></rect>
        <g id="ic_clbk">
            <rect id="Rectangle" fill="#FFFFFF" x="0" y="0" width="80" height="80"></rect>
            <path d="M37.8,32.623 C37.6276872,32.623 37.488,32.7626872 37.488,32.935 C37.488,33.1073128 37.6276872,33.247 37.8,33.247 L38.715,33.247 C38.8873128,33.247 39.027,33.1073128 39.027,32.935 C39.027,32.7626872 38.8873128,32.623 38.715,32.623 L37.8,32.623 Z M42.933,48.283 C43.1053128,48.283 43.245,48.1433128 43.245,47.971 C43.245,47.7986872 43.1053128,47.659 42.933,47.659 L42.018,47.659 C41.9025001,47.6524532 41.792859,47.7103515 41.7331359,47.8094284 C41.6734128,47.9085053 41.6734128,48.0324947 41.7331359,48.1315716 C41.792859,48.2306485 41.9025001,48.2885468 42.018,48.282 L42.933,48.283 Z M58.548,36.843 C56.2979866,34.7214795 53.3398377,33.511846 50.248,33.449 L50.248,33.656 L49.293,33.656 L49.293,33.835 C49.2924172,33.9163084 49.2588553,33.9938978 49.2,34.05 C49.1462233,34.1026349 49.0751376,34.1339126 49,34.138 L35.692,34.538 C35.6492405,34.8415494 35.3875202,35.0660036 35.081,35.062 L34.887,35.062 C34.818698,35.0612971 34.7510329,35.0487791 34.687,35.025 L34.687,35.025 C33.5573801,36.2709172 31.6379829,36.3825147 30.3715826,35.2759067 C29.1051823,34.1692987 28.9584445,32.2522679 30.0416692,30.9658095 C31.1248939,29.679351 33.0389152,29.4975221 34.345,30.557 C34.4829504,30.6424034 34.613119,30.7397788 34.734,30.848 C34.8011009,30.8240541 34.870455,30.8069669 34.941,30.797 L35.018,30.797 C35.3497626,30.7537292 35.6597942,30.9705346 35.733,31.297 L49.033,31.873 C49.196649,31.8826007 49.3238833,32.0190804 49.322,32.183 L49.322,32.383 L50.258,32.383 L50.258,32.577 C51.3245901,32.5924696 52.3858758,32.730373 53.421,32.988 C53.607,33.031 54.288,33.221 54.545,33.318 C55.6525403,33.730249 56.7037994,34.2802366 57.674,34.955 L59.3,36.226 L66,18 L34.9,18 C26.77,18 19.109,24.612 17.821,32.738 C17.0850455,36.433955 18.0689444,40.2640642 20.4951042,43.1477184 C22.9212639,46.0313726 26.5266296,47.6559132 30.294,47.563 L30.464,47.563 L30.464,47.348 L31.416,47.348 L31.416,47.168 C31.4141167,47.0040804 31.541351,46.8676007 31.705,46.858 L45.011,46.298 C45.0378504,46.1770213 45.0926453,46.0640069 45.171,45.968 C45.3029449,45.8460745 45.4753617,45.7773215 45.655,45.775 L45.784,45.775 C45.8549168,45.7787471 45.9251069,45.7911731 45.993,45.812 C46.1170888,45.7073198 46.2473208,45.6101467 46.383,45.521 C47.4392979,44.6670109 48.9290646,44.6018427 50.0558987,45.3603331 C51.1827328,46.1188235 51.6830772,47.523568 51.2894573,48.8236165 C50.8958373,50.123665 49.7003174,51.0149471 48.342,51.021 C47.4660202,51.0254539 46.6295854,50.6566953 46.042,50.007 L46.042,50.007 C45.9778054,50.0300618 45.910207,50.0422295 45.842,50.043 L45.648,50.043 C45.3509166,50.0475029 45.0945317,49.8356146 45.043,49.543 L43.034,49.458 L31.734,49.12 C31.5700879,49.1157951 31.4382049,48.9839121 31.434,48.82 L31.434,48.62 L30.464,48.62 L30.464,48.43 L30.027,48.425 C28.8675952,48.4303038 27.7120406,48.2912342 26.587,48.011 C26.401,47.969 25.72,47.778 25.463,47.682 C24.3555349,47.2691561 23.3043079,46.7188493 22.334,46.044 L20.709,44.774 L14,63 L45.091,63 C53.221,63 60.882,56.388 62.17,48.262 C62.9577203,44.0887017 61.5966254,39.798792 58.547,36.843 L58.548,36.843 Z" id="Logo" fill="#EF4124"></path>
        </g>
    </g>
</svg>