<?xml version="1.0" encoding="utf-8"?>
<!-- Generator: Adobe Illustrator 12.0.0, SVG Export Plug-In . SVG Version: 6.00 Build 51448)  -->
<!DOCTYPE svg PUBLIC "-//W3C//DTD SVG 1.1//EN" "http://www.w3.org/Graphics/SVG/1.1/DTD/svg11.dtd" [
	<!ENTITY ns_svg "http://www.w3.org/2000/svg">
	<!ENTITY ns_xlink "http://www.w3.org/1999/xlink">
]>
<svg  version="1.1" id="Layer_1" xmlns="&ns_svg;" xmlns:xlink="&ns_xlink;" width="191.322" height="180.43"
	 viewBox="0 0 191.322 180.43" overflow="visible" enable-background="new 0 0 191.322 180.43" xml:space="preserve">
<rect x="-4.798" y="-10.286" fill="none" width="200" height="200.002"/>
<path fill="#D8304C" d="M190.087,83.568c-1.643-5.578-5.357-10.185-10.465-12.968c-1.932-1.055-3.979-1.799-6.076-2.229
	c-0.145-0.527-0.279-1.056-0.436-1.582c-6.123-20.81-19.982-37.99-39.027-48.375C115.036,8.028,93.087,5.681,72.278,11.804
	c-20.812,6.123-37.992,19.982-48.377,39.029c-3.072,5.633-5.436,11.522-7.09,17.562c-0.587,0.122-1.173,0.263-1.756,0.435
	C9.475,70.47,4.869,74.186,2.086,79.293c-2.784,5.105-3.413,10.99-1.771,16.57c1.642,5.578,5.356,10.184,10.463,12.967
	c1.931,1.053,3.973,1.797,6.069,2.227c0.145,0.529,0.291,1.059,0.445,1.586c6.124,20.811,19.984,37.988,39.028,48.373
	c19.044,10.387,40.995,12.734,61.805,6.609c20.813-6.123,37.99-19.982,48.375-39.027c3.072-5.635,5.432-11.523,7.086-17.561
	c0.588-0.123,1.178-0.264,1.762-0.436c5.578-1.645,10.186-5.357,12.969-10.465c1.768-3.242,2.668-6.799,2.668-10.393
	C190.983,87.681,190.686,85.605,190.087,83.568z M176.202,93.531l-0.002,0.002c-1.018,1.871-2.705,3.23-4.748,3.834
	c-2.043,0.6-4.197,0.369-6.068-0.65c-0.828-0.451-1.553-1.043-2.158-1.729c-0.262-0.295-0.504-0.604-0.717-0.934
	c-0.412-0.637-0.736-1.338-0.959-2.086c-0.6-2.044-0.371-4.2,0.65-6.071c0.094-0.172,0.197-0.334,0.301-0.496
	c1.035-1.613,2.592-2.791,4.447-3.337c0.33-0.098,0.662-0.164,0.996-0.219c1.734-0.279,3.506,0.013,5.072,0.869
	c1.475,0.802,2.625,2.023,3.344,3.501c0.193,0.398,0.363,0.813,0.49,1.246c0.563,1.918,0.387,3.934-0.479,5.719
	C176.315,93.297,176.264,93.418,176.202,93.531z M13.549,91.967c-0.563-1.916-0.386-3.928,0.477-5.713
	c0.058-0.119,0.108-0.24,0.174-0.357c1.019-1.871,2.706-3.23,4.749-3.833c2.044-0.603,4.199-0.371,6.069,0.649
	c0.829,0.451,1.551,1.041,2.158,1.728c0.261,0.293,0.504,0.602,0.718,0.934c0.412,0.637,0.735,1.338,0.957,2.086
	c0.601,2.044,0.37,4.2-0.648,6.069l-0.001,0.002c-0.093,0.172-0.197,0.332-0.301,0.494c-1.035,1.611-2.592,2.791-4.449,3.34
	c-0.329,0.096-0.66,0.164-0.993,0.217c-1.735,0.281-3.506-0.012-5.075-0.867c-1.477-0.805-2.63-2.033-3.348-3.518
	C13.842,92.804,13.675,92.396,13.549,91.967z M154.389,121.992L154.389,121.992c-8.621,15.809-22.883,27.313-40.156,32.396
	c-17.277,5.084-35.499,3.137-51.308-5.486c-15.638-8.527-27.061-22.574-32.228-39.598c2.151-1.037,4.102-2.408,5.786-4.072
	l53.678,29.27c7.056,3.852,15.191,4.721,22.906,2.451c7.715-2.271,14.08-7.406,17.93-14.463l0.08-0.148l-0.037,0.068
	c7.943-14.57,2.557-32.89-12.016-40.836l-27.655-15.08c-3.345-1.824-7.534-0.591-9.359,2.754c-0.57,1.049-0.843,2.18-0.843,3.297
	c0,2.442,1.301,4.81,3.599,6.063l27.653,15.08c5.42,2.955,8.496,8.563,8.496,14.34c0,2.635-0.641,5.307-1.988,7.775
	c0,0-0.043,0.082-0.047,0.088c-2.084,3.818-5.529,6.6-9.707,7.826c-4.178,1.229-8.582,0.76-12.406-1.326L42.735,92.926
	c0.158-1.053,0.248-2.115,0.248-3.182c0-2.064-0.297-4.141-0.896-6.176c-1.642-5.579-5.356-10.185-10.463-12.968
	c-0.312-0.17-0.626-0.331-0.943-0.485c1.33-4.349,3.107-8.593,5.335-12.677c8.62-15.811,22.884-27.314,40.158-32.398
	c17.275-5.082,35.496-3.135,51.306,5.487c15.637,8.528,27.061,22.576,32.225,39.599c-2.148,1.036-4.1,2.407-5.785,4.071
	l-53.678-29.271c-7.056-3.85-15.191-4.719-22.904-2.451c-7.713,2.271-14.081,7.408-17.93,14.467l-0.058,0.105
	c-3.834,7.029-4.705,15.164-2.437,22.877c2.271,7.714,7.406,14.082,14.466,17.932l27.655,15.08c3.344,1.822,7.535,0.592,9.357-2.754
	s0.592-7.535-2.754-9.359L77.983,85.741c-3.823-2.084-6.605-5.533-7.835-9.71c-1.229-4.177-0.757-8.583,1.328-12.406l0.059-0.107
	c2.069-3.795,5.518-6.576,9.695-7.805c4.177-1.229,8.583-0.758,12.404,1.326l54.025,29.458c-0.463,3.093-0.254,6.276,0.654,9.364
	c1.645,5.578,5.357,10.184,10.463,12.967c0.313,0.17,0.629,0.332,0.945,0.486C158.393,113.664,156.614,117.908,154.389,121.992z"/>
</svg>
