<svg xmlns="http://www.w3.org/2000/svg" enable-background="new 0 0 2551.18 2551.18" version="1.1" xml:space="preserve" viewBox="905.1 881.99 741.02 787.22">
<style type="text/css">
	.st0{fill:#3BB69D;}
	.st1{fill:#ABABAA;}
</style>

	<path class="st0" d="m1607.9 1059.1-227.52-138.49c-124.82-75.98-287.59-36.39-363.57 88.43s-36.39 287.59 88.43 363.57l71.86 43.74c0.02 0.01 0.03 0.02 0.05 0.03 37.53 22.85 86.48 10.94 109.33-26.59 2.56-4.21 4.62-8.58 6.33-13.03 13.46-35.18 0.4-76.02-32.92-96.3l-71.9-43.77c-49.75-30.29-65.53-95.17-35.25-144.92 30.29-49.75 95.17-65.53 144.92-35.25l207.29 126.18 20.23 12.32c37.53 22.85 86.48 10.94 109.33-26.59s10.92-86.48-26.61-109.33z"/>
	<path class="st1" d="m943.32 1492.1 227.52 138.49c124.82 75.98 287.59 36.39 363.57-88.43s36.39-287.59-88.43-363.57l-71.86-43.74c-0.02-0.01-0.03-0.02-0.05-0.03-37.53-22.85-86.48-10.94-109.33 26.59-2.56 4.21-4.62 8.58-6.33 13.03-13.46 35.18-0.4 76.02 32.92 96.3l71.9 43.77c49.75 30.29 65.53 95.17 35.25 144.92s-95.17 65.53-144.92 35.25l-207.29-126.18-20.23-12.32c-37.53-22.85-86.48-10.94-109.33 26.59s-10.92 86.48 26.61 109.33z"/>

</svg>