<?xml version="1.0" encoding="UTF-8"?>
<svg width="512px" height="512px" viewBox="0 0 512 512" version="1.1" xmlns="http://www.w3.org/2000/svg" xmlns:xlink="http://www.w3.org/1999/xlink">
    <title>docs-profile@1x</title>
    <g id="docs-profile" stroke="none" stroke-width="1" fill="none" fill-rule="evenodd">
        <g id="Group">
            <rect id="Rectangle" fill="#F55C45" x="0" y="0" width="512" height="512"></rect>
            <path d="M165.668808,138.265951 C159.296331,137.830238 152.839502,136.803676 146.763894,135.553845 L138.130524,141.176195 C160.683769,170.241997 177.598703,192.041349 188.875326,206.57425 C189.655273,207.579417 193.175321,208.39882 194.149848,207.788394 C236.56003,181.223404 275.450681,135.560601 293.732175,91.2551776 C294.299,89.8814682 290.890631,87.4783041 289.696595,88.5096055 C269.908647,105.600671 220.825304,142.03723 165.668808,138.265951 Z" id="Path-Copy" fill="#1A1717" fill-rule="nonzero" transform="translate(215.962885, 148.128750) rotate(136.000000) translate(-215.962885, -148.128750) "></path>
            <path d="M265.323296,147.444269 C258.950535,147.008993 252.493455,145.982902 246.41763,144.733529 L237.783469,150.356165 C260.335928,179.419069 277.250271,201.216247 288.526501,215.747699 C289.306421,216.752766 292.826588,217.571899 293.801203,216.961439 C336.2152,190.39499 375.11074,144.731894 393.396021,100.427456 C393.962964,99.0537767 390.554584,96.6509529 389.360422,97.6822815 C369.570387,114.773797 320.482257,151.211767 265.323296,147.444269 Z" id="Path-Copy" fill="#1A1717" fill-rule="nonzero" transform="translate(315.621293, 157.301621) rotate(187.000000) translate(-315.621293, -157.301621) "></path>
            <path d="M320.29095,231.071288 C313.918685,230.636194 307.462128,229.610243 301.386805,228.36098 L292.753108,233.984333 C315.302882,263.048675 332.215213,284.846932 343.4901,299.379103 C344.269927,300.38422 347.7898,301.203297 348.764362,300.592758 C391.176047,274.022871 430.070183,228.355012 448.355573,184.046608 C448.922519,182.672806 445.514478,180.269915 444.320372,181.301362 C424.531258,198.394837 375.445613,234.837214 320.29095,231.071288 Z" id="Path-Copy" fill="#1A1717" fill-rule="nonzero" transform="translate(370.585892, 240.926824) rotate(239.000000) translate(-370.585892, -240.926824) "></path>
            <path d="M289.178046,326.176646 C282.805845,325.741035 276.349307,324.71455 270.273978,323.464781 L261.640866,329.087529 C284.192618,358.154132 301.106432,379.954083 312.382308,394.487385 C313.162204,395.49258 316.682088,396.311952 317.656586,395.701481 C360.065481,369.134579 398.955351,323.469126 417.236905,279.161496 C417.803733,277.787719 414.395552,275.384517 413.201547,276.415884 C393.414111,293.50804 344.332151,329.947051 289.178046,326.176646 Z" id="Path-Copy" fill="#1A1717" fill-rule="nonzero" transform="translate(339.470423, 336.038435) rotate(290.000000) translate(-339.470423, -336.038435) "></path>
            <path d="M195.403582,361.15107 C189.030855,360.715512 182.573786,359.689132 176.497958,358.439483 L167.864115,364.061791 C190.417649,393.125924 207.3328,414.924023 218.609567,429.45609 C219.389524,430.461199 222.909697,431.280493 223.884277,430.67007 C266.296757,404.105244 305.189978,358.443456 323.473172,314.13944 C324.040051,312.765774 320.631595,310.362781 319.437489,311.394066 C299.648366,328.484865 250.56224,364.921003 195.403582,361.15107 Z" id="Path-Copy" fill="#1A1717" fill-rule="nonzero" transform="translate(245.700185, 371.011822) rotate(342.000000) translate(-245.700185, -371.011822) "></path>
            <path d="M109.595114,309.657377 C103.222557,309.222313 96.7657044,308.19642 90.6901036,306.947224 L82.0560001,312.570332 C104.606765,341.6333 121.51984,363.430527 132.795222,377.962011 C133.575084,378.96708 137.095118,379.786114 138.069725,379.175601 C180.483405,352.606869 219.379404,306.941049 237.665707,262.634654 C238.232682,261.260915 234.824487,258.85814 233.630325,259.889541 C213.840272,276.982262 164.752309,313.423041 109.595114,309.657377 Z" id="Path-Copy" fill="#1A1717" fill-rule="nonzero" transform="translate(159.892406, 319.512337) rotate(393.000000) translate(-159.892406, -319.512337) "></path>
            <path d="M96.3631754,210.463299 C89.9910671,210.027956 83.5346466,209.001736 77.4594414,207.752213 L68.8261874,213.375396 C91.376434,242.441366 108.289119,264.240843 119.564242,278.773827 C120.344086,279.779001 123.863894,280.598231 124.838407,279.987711 C167.247954,253.418685 206.139336,207.751039 224.42258,163.442117 C224.98946,162.068299 221.581421,159.665216 220.387386,160.696646 C200.599444,177.789847 151.516486,214.231382 96.3631754,210.463299 Z" id="Path-Copy" fill="#1A1717" fill-rule="nonzero" transform="translate(146.655928, 220.321937) rotate(445.000000) translate(-146.655928, -220.321937) "></path>
        </g>
    </g>
</svg>