<svg width="24" height="24" viewBox="0 0 24 24" fill="none" xmlns="http://www.w3.org/2000/svg">
<circle cx="12" cy="12" r="12" fill="#222222"/>
<path d="M12 11.0331C16.4633 11.0331 20.0816 10.1014 20.0816 8.95209C20.0816 7.80279 16.4633 6.87109 12 6.87109C7.5366 6.87109 3.91833 7.80279 3.91833 8.95209C3.91833 10.1014 7.5366 11.0331 12 11.0331Z" fill="white"/>
<path d="M15.3604 11.0553C15.3604 11.0553 15.8552 10.4133 16.3087 9.72701C16.3087 9.04072 13.1338 8.81934 11.9381 8.81934C10.7423 8.81934 7.56738 9.04072 7.56738 9.72701C8.02094 10.4133 8.51574 11.0553 8.51574 11.0553H15.3604Z" fill="#B4B4B4"/>
<path d="M15.3604 11.0553C15.3604 11.498 13.8348 11.9851 11.9381 11.9851C10.0414 11.9851 8.51575 11.498 8.51575 11.0553C8.51575 10.6125 10.0414 10.2583 11.9381 10.2583C13.8348 10.2583 15.3604 10.6125 15.3604 11.0553Z" fill="#333333"/>
<path d="M11.9381 11.874C13.3044 11.874 14.4121 11.6262 14.4121 11.3205C14.4121 11.0149 13.3044 10.7671 11.9381 10.7671C10.5717 10.7671 9.46411 11.0149 9.46411 11.3205C9.46411 11.6262 10.5717 11.874 11.9381 11.874Z" fill="#57FFB3"/>
<path d="M11.9999 6.64958C13.1132 6.64958 14.2471 6.71599 15.3191 6.82668C14.7213 5.98543 13.4637 5.3877 11.9999 5.3877C10.5361 5.3877 9.27854 5.98543 8.68066 6.82668C9.75272 6.69385 10.8866 6.64958 11.9999 6.64958Z" fill="#B4B4B4"/>
<path d="M16.0407 18.0442L14.0777 11.4716C14.0777 11.1561 13.3431 10.8979 11.9999 10.8979C10.6568 10.8979 9.92211 11.1561 9.92211 11.4716L7.95911 18.0442L11.9999 22.102L16.0407 18.0442Z" fill="url(#paint0_linear)"/>
<path fill-rule="evenodd" clip-rule="evenodd" d="M11.9999 1.74414L16.8348 6.57893C16.928 6.67218 16.928 6.82336 16.8348 6.91661C16.7415 7.00986 16.5903 7.00986 16.4971 6.91661L11.9999 2.4195L7.50281 6.91661C7.40956 7.00986 7.25837 7.00986 7.16513 6.91661C7.07188 6.82336 7.07188 6.67218 7.16513 6.57893L11.9999 1.74414ZM4.02155 10.0602C4.1148 10.1534 4.1148 10.3046 4.02155 10.3978L2.41926 12.0001L11.9999 21.5808L21.5806 12.0001L19.9783 10.3978C19.8851 10.3046 19.8851 10.1534 19.9783 10.0602C20.0716 9.96692 20.2228 9.96692 20.316 10.0602L22.256 12.0001L11.9999 22.2561L1.7439 12.0001L3.68387 10.0602C3.77712 9.96692 3.92831 9.96692 4.02155 10.0602Z" fill="white"/>
<defs>
<linearGradient id="paint0_linear" x1="7.95911" y1="13.6774" x2="16.8983" y2="15.0357" gradientUnits="userSpaceOnUse">
<stop stop-color="#C728FF"/>
<stop offset="1" stop-color="#7140FF"/>
</linearGradient>
</defs>
</svg>
