<svg width="670" height="665" xmlns="http://www.w3.org/2000/svg" xmlns:xlink="http://www.w3.org/1999/xlink" xml:space="preserve" overflow="hidden"><defs><clipPath id="clip0"><rect x="305" y="63" width="670" height="665"/></clipPath><linearGradient x1="506.666" y1="142.867" x2="772.24" y2="602.841" gradientUnits="userSpaceOnUse" spreadMethod="pad" id="stroke1"><stop offset="0" stop-color="#02FFDF"/><stop offset="1" stop-color="#EFFF06"/></linearGradient><linearGradient x1="547.713" y1="253.348" x2="732.136" y2="494.985" gradientUnits="userSpaceOnUse" spreadMethod="pad" id="fill2"><stop offset="0" stop-color="#02FFDF"/><stop offset="1" stop-color="#EFFF06"/></linearGradient></defs><g clip-path="url(#clip0)" transform="translate(-305 -63)"><path d="M895.688 372.537C895.688 514.24 780.814 629.114 639.11 629.114 497.407 629.114 382.533 514.24 382.533 372.537 382.533 230.833 497.407 115.96 639.11 115.96 780.814 115.96 895.688 230.833 895.688 372.537Z" transform="matrix(1 0 0 1.00012 0.223063 35.5814)"/><path d="M895.021 372.87C895.021 514.022 780.595 628.448 639.444 628.448 498.292 628.448 383.866 514.022 383.866 372.87 383.866 231.718 498.292 117.292 639.444 117.292 780.595 117.292 895.021 231.718 895.021 372.87Z" stroke="url(#stroke1)" stroke-width="19.993" stroke-miterlimit="10" fill="none" transform="matrix(1 0 0 1.00012 0.223063 35.5814)"/><path d="M630.78 358.875 498.826 434.848C486.164 442.179 487.497 457.061 487.497 457.061L487.497 484.165C487.497 509.489 510.822 506.823 510.822 506.823L772.064 506.823 772.064 589.461 790.724 580.131 790.724 472.489C790.724 472.489 791.391 444.178 760.735 444.178L546.143 444.178C546.143 444.178 648.107 388.198 648.107 388.198L780.061 312.224C792.724 304.894 791.391 290.012 791.391 290.012L791.391 262.908C791.391 237.584 768.065 240.25 768.065 240.25L506.823 240.25 506.823 157.612 488.163 166.942 488.163 274.584C488.163 274.584 487.497 302.894 518.153 302.894L732.745 302.894C732.745 302.894 630.78 358.875 630.78 358.875Z" fill="url(#fill2)" transform="matrix(1 0 0 1.00012 0.223063 35.5814)"/></g></svg>