<?xml version="1.0" encoding="UTF-8"?><svg xmlns="http://www.w3.org/2000/svg" viewBox="0 0 337.2 270.52"><defs><style>.d{fill:#c61f1b;}</style></defs><g id="a"/><g id="b"><g id="c"><g><path class="d" d="M182.13,0H101.47c-10.58,0-19.15,8.57-19.15,19.15v14.33c56.58,0,102.45,45.87,102.45,102.45s-45.87,102.45-102.45,102.45v12.99c0,10.57,8.57,19.15,19.15,19.15h235.73v-115.45C337.2,69.43,267.77,0,182.13,0Z"/><path class="d" d="M129.77,124.31h34.04c-5.65-39.96-39.97-70.7-81.49-70.7C36.86,53.61,0,90.47,0,135.93s36.86,82.32,82.32,82.32c41.67,0,76.09-30.97,81.55-71.14h-34.1v-22.8Z"/></g></g></g></svg>