<?xml version="1.0" encoding="utf-8"?>
<!-- Generator: Adobe Illustrator 23.0.0, SVG Export Plug-In . SVG Version: 6.00 Build 0)  -->
<svg version="1.1" id="Layer_1" xmlns="http://www.w3.org/2000/svg" xmlns:xlink="http://www.w3.org/1999/xlink" x="0px" y="0px"
	 viewBox="0 0 283.46 283.46" style="enable-background:new 0 0 283.46 283.46;" xml:space="preserve">
<style type="text/css">
	.st0{fill:#8C2263;}
	.st1{fill-rule:evenodd;clip-rule:evenodd;fill:#FFFFFF;}
	.st2{fill-rule:evenodd;clip-rule:evenodd;fill:#8C2263;}
	.st3{fill:url(#SVGID_1_);}
</style>
<circle class="st0" cx="141.77" cy="141.7" r="139.47"/>
<path class="st1" d="M100.98,130.97c0,0,0.94-1.6,2.35-2.11c1.41-0.51,5.22-1.63,5.22-1.63s-0.78-1.67-0.46-2.94
	s3.54-2.53,4.49-3.33c0.95-0.8,2.09-2.21,2.41-3.33s3.43-8.54,5.8-10.24c2.37-1.7,4.79,0.01,6.25-1.1c1.46-1.12,0.19-1.66,4.37-5.24
	c4.19-3.58,37.5-29.83,43.39-30.17c5.89-0.34,11.08,11.88,12.96,15.05c1.88,3.17,14.49,29.76,17.39,38.05s4.99,10.41,4.03,15.12
	c-0.97,4.72-1.21,7.24-2.29,4.43c-1.09-2.81-3.34-11.59-6.56-14.03c-3.22-2.44-16.46-17.07-17.39-16.42
	c-0.93,0.64-1.31,12.51,0.16,14.47s8.37,3.25,8.86,6.02s-1.93,12.71-3.18,14.67s-1.27,2.5,0.44,3.55c1.72,1.05,2.13,1.21,2.09,3.25
	c0,0,5.6,1.97,7.25,2.93c1.65,0.96,2.14,2.33,2.09,4.23c-0.05,1.9,4.03,2.6,4.03,2.6s4.87-3.29,27.69-5.74
	c12.13-1.3,23.42-1.37,25.77,2.33c2.55,4.01-10.28,17.06-27.86,18.05c-18.77,1.05-23.16-2.88-24.31-2.28
	c-1.16,0.6-34.91,7.35-78.18,8.31c-34.77,0.77-64.67,0.96-86.05-10.75c-29.61-16.21-8.05-30.25,6.28-34.15
	S100.98,130.97,100.98,130.97z"/>
<path class="st2" d="M43.07,144.1c1.36-0.52,7.32-2.56,11.36-3.26c19.57-3.4,71.43-0.07,105.07,15.74
	c20.79,9.78,36.28,16.57,45.56,19.83c9.28,3.26,22.77,3.16,22.77,3.16l-2.2,11.98c0,0-22.78-8.2-46.7-20.41
	c-7.16-3.65-14.18-7.21-21.44-10.54c-17.01-7.79-35.11-13.4-59.47-16.65c-11.11-1.48-33.75-4.28-49.62-1.06
	c-4.43,0.9-2.62,5.08-5.6,6.97C46.13,147,32.11,148.27,43.07,144.1z"/>
<path class="st2" d="M202.92,164.27c1.37,0.59,16.66,5.19,20.49,5.73c4.2,0.59,10.67,0.69,7.99-6.98c0,0,0.39,2.79-0.27,3.74
	c-0.66,0.95-0.89,2.65-8.34,1.24c-8.47-1.6-16.58-5.5-16.58-5.5L202.92,164.27z"/>
<path class="st0" d="M53.69,153.01c0,0-9.13,0.87-16.77,5.88c0,0,4.82-2.98,10.4-3.98s6.54-1.02,6.54-1.02L53.69,153.01z"/>
<linearGradient id="SVGID_1_" gradientUnits="userSpaceOnUse" x1="90.1426" y1="196.0204" x2="164.8646" y2="105.9877">
	<stop  offset="0" style="stop-color:#F0D7E8"/>
	<stop  offset="0.2465" style="stop-color:#E09DC6"/>
	<stop  offset="0.6329" style="stop-color:#8C2263"/>
</linearGradient>
<path class="st3" d="M159.25,161.3c-17.01-7.79-35.32-14.03-59.68-17.27c-14.01-1.86-46.83-6.12-60.83,2.06
	c-10.83,6.34-16.99,16.7,5.49,28.67c24.65,13.13,56.25,11.19,85.98,10.76c29.53-0.42,54.86-3,68.19-5.25
	c-5.32-2.41-11.64-5.3-17.39-8.24C173.85,168.38,166.51,164.63,159.25,161.3z"/>
</svg>
