<?xml version="1.0" encoding="UTF-8"?><svg xmlns="http://www.w3.org/2000/svg" xmlns:xlink="http://www.w3.org/1999/xlink" viewBox="0 0 1431.42 360"><defs><style>.h{fill:url(#e);}.i{fill:url(#d);}.j{fill:url(#g);}.k{fill:url(#f);}.l{fill:#fff;}</style><linearGradient id="d" x1="111.97" y1="149.8" x2="312.82" y2="-51.05" gradientTransform="matrix(1, 0, 0, 1, 0, 0)" gradientUnits="userSpaceOnUse"><stop offset="0" stop-color="#ff2f00"/><stop offset=".13" stop-color="#ff3e00"/><stop offset=".39" stop-color="#ff6700"/><stop offset=".59" stop-color="#ff8b00"/></linearGradient><linearGradient id="e" x1="281.56" y1="282.06" x2="281.56" y2="51.37" gradientTransform="matrix(1, 0, 0, 1, 0, 0)" gradientUnits="userSpaceOnUse"><stop offset=".2" stop-color="#ef0048"/><stop offset=".79" stop-color="#ff8b00"/></linearGradient><linearGradient id="f" x1="-.82" y1="252.46" x2="182.62" y2="69.02" gradientTransform="matrix(1, 0, 0, 1, 0, 0)" gradientUnits="userSpaceOnUse"><stop offset=".09" stop-color="#840000"/><stop offset=".26" stop-color="#a80e00"/><stop offset=".45" stop-color="#ce1c00"/><stop offset=".64" stop-color="#e82600"/><stop offset=".8" stop-color="#f92c00"/><stop offset=".93" stop-color="#ff2f00"/></linearGradient><linearGradient id="g" x1="83.67" y1="351.04" x2="256.69" y2="251.15" gradientTransform="matrix(1, 0, 0, 1, 0, 0)" gradientUnits="userSpaceOnUse"><stop offset=".07" stop-color="#840000"/><stop offset=".88" stop-color="#d20168"/></linearGradient></defs><g id="a"/><g id="b"><g id="c"><g><g><path class="l" d="M1357.54,123.05c-22.73,0-45.15,9.79-53.99,25.57v-22.31h-38.83v170.7h40.1v-90.3c0-29.99,17.36-48.62,44.52-48.62,30.63,0,41.04,19.89,41.04,47.04v91.88h41.04v-103.87c0-43.89-27.78-70.09-73.88-70.09Z"/><rect class="l" x="660.45" y="62.98" width="40.01" height="234.04"/><polygon class="l" points="1203.63 86.25 1163.62 86.25 1163.62 126.32 1141.29 126.32 1127.13 164.13 1163.62 164.13 1163.62 297.02 1203.63 297.02 1203.63 164.13 1243.92 164.13 1243.92 126.32 1203.63 126.32 1203.63 86.25"/><polygon class="l" points="636.43 126.32 590.62 126.32 508.58 245.11 508.58 62.98 468.08 62.98 468.08 297.02 516.55 297.02 555.42 241.68 596.22 297.02 642.7 297.02 577.59 210.11 636.43 126.32"/><path class="l" d="M872.06,145.79c-14.94-15.99-36.14-22.94-60.12-22.94-49,0-86.53,39.27-86.53,88.97s37.53,88.62,86.53,88.62c23.98,0,45.18-6.6,60.12-22.24v18.83h39.97V126.32h-39.97v19.46Zm-53.52,118.16c-28.84,0-52.13-23.28-52.13-52.13s23.28-52.48,52.13-52.48,52.48,21.2,52.48,52.48-23.63,52.13-52.48,52.13Z"/><polygon class="l" points="1012.8 297.02 990.11 360 1034 360 1118.91 126.32 1074.3 126.32 1022.93 268.9 974.02 126.32 928.7 126.32 987.98 297.02 1012.8 297.02"/></g><g><path class="i" d="M295.45,41.66C263.85,15.23,225.32,1.36,186.43,0L94.6,242.51,295.45,41.66Z"/><path class="h" d="M318.35,64.6l-115.35,115.35,115.33,115.33c55.72-66.64,55.72-164.04,.01-230.68Z"/><path class="k" d="M141.29,27.68L.35,168.61c-2.76,44.12,10.61,89.04,40.16,125.18L141.29,27.68Z"/><path class="j" d="M180.07,202.88l-115.35,115.35c66.64,55.71,164.05,55.7,230.68-.02l-115.33-115.33Z"/></g></g></g></g></svg>