<svg width="567" height="150" viewBox="0 0 567 150" fill="none" xmlns="http://www.w3.org/2000/svg">
<path d="M75.1005 8.7007C111.721 8.7007 141.489 38.4571 141.489 75C141.489 111.543 111.721 141.299 75.1005 141.299C38.5086 141.299 8.71235 111.572 8.71235 75C8.71235 38.4281 38.5086 8.7007 75.1005 8.7007ZM75.1005 0C33.6297 0 0 33.5847 0 75C0 116.415 33.6297 150 75.1005 150C116.571 150 150.201 116.415 150.201 75C150.201 33.5847 116.571 0 75.1005 0Z" fill="url(#paint0_linear)"/>
<path d="M31.5391 74.9998C31.5391 96.5776 44.6947 110.528 65.0816 110.528H74.9266V39.501H65.0526C44.6947 39.501 31.5391 53.4221 31.5391 74.9998ZM67.7534 46.6355V103.335H65.0526C56.5145 103.335 49.864 100.638 45.2755 95.3305C40.9774 90.3421 38.6832 83.3235 38.6832 74.9708C38.6832 66.6182 40.9774 59.5996 45.2755 54.6112C49.864 49.3038 56.5145 46.6065 65.0526 46.6065H67.7534V46.6355Z" fill="white"/>
<path d="M84.6553 85.5847H96.7364V110.44H103.503V85.5847H115.584V78.8271H84.6553V85.5847Z" fill="white"/>
<path d="M92.0903 70.0116L100.164 59.0778L108.034 69.9536L108.092 70.0116H115.904L104.171 53.8864L114.162 40.4293L114.336 40.1973H106.262L100.164 48.6949L94.2394 40.2553L94.2103 40.1973H86.3692L96.2432 53.8864L84.0459 70.0116H92.0903Z" fill="white"/>
<path d="M183.482 46.1426H201.023C209.009 46.1426 215.602 47.7087 220.829 50.87C226.057 54.0312 229.861 58.0915 232.242 63.0799C234.624 68.0683 235.843 73.3178 235.843 78.8862C235.843 85.0637 234.391 90.5451 231.487 95.3015C228.583 100.058 224.721 103.712 219.871 106.264C215.021 108.817 209.764 110.122 204.101 110.122H183.453V46.1426H183.482ZM202.417 101.769C207.151 101.769 211.362 100.841 215.079 98.9848C218.796 97.1287 221.7 94.4314 223.791 90.8932C225.882 87.3549 226.928 83.1495 226.928 78.2481C226.928 73.2307 225.824 68.9384 223.646 65.3421C221.468 61.7458 218.564 59.0196 214.934 57.1635C211.304 55.3073 207.383 54.3792 203.201 54.3792H192.049V101.798H202.417V101.769Z" fill="white"/>
<path d="M358.629 110.093L341.988 84.5133L326.741 110.093H316.112L337.196 77.0887L316.984 46.1143H327.874L343.818 70.5342L358.338 46.1143H368.706L348.406 77.6978L369.577 110.093H358.629Z" fill="white"/>
<path d="M424.35 93.3006H399.723L392.899 110.122H384.39L412.385 43.4746H412.908L440.904 110.093H430.972L424.35 93.3006ZM421.446 85.847L412.327 62.5001L402.86 85.847H421.446Z" fill="white"/>
<path d="M497.794 46.1433V54.3799H480.602V110.122H472.006V54.3509H455.249V46.1143H497.794V46.1433Z" fill="white"/>
<path d="M550.417 93.2999H525.79L518.965 110.121H510.456L538.452 43.5029H538.974L566.97 110.121H557.038L550.417 93.2999ZM547.513 85.8463L538.394 62.4994L528.926 85.8463H547.513Z" fill="white"/>
<path d="M292.444 46.2012H255.591V54.3218H292.444V46.2012Z" fill="#ED9CFF"/>
<path d="M298.252 101.972H255.591V110.092H298.252V101.972Z" fill="#B4F2FF"/>
<path d="M282.628 73.8398H255.591V81.9605H282.628V73.8398Z" fill="#9999FF"/>
<defs>
<linearGradient id="paint0_linear" x1="21.9972" y1="21.9678" x2="128.067" y2="128.179" gradientUnits="userSpaceOnUse">
<stop offset="0.0491" stop-color="#ED9CFF"/>
<stop offset="0.0735" stop-color="#E89BFF"/>
<stop offset="0.3918" stop-color="#A794FF"/>
<stop offset="0.5417" stop-color="#8D91FF"/>
<stop offset="0.6157" stop-color="#919BFF"/>
<stop offset="0.7426" stop-color="#9CB7FF"/>
<stop offset="0.9059" stop-color="#AEE3FF"/>
<stop offset="0.9563" stop-color="#B4F2FF"/>
</linearGradient>
</defs>
</svg>
